%TF.GenerationSoftware,KiCad,Pcbnew,7.0.7-7.0.7~ubuntu22.04.1*%
%TF.CreationDate,2023-10-02T11:26:03+02:00*%
%TF.ProjectId,interrupter,696e7465-7272-4757-9074-65722e6b6963,rev?*%
%TF.SameCoordinates,Original*%
%TF.FileFunction,Drillmap*%
%TF.FilePolarity,Positive*%
%FSLAX45Y45*%
G04 Gerber Fmt 4.5, Leading zero omitted, Abs format (unit mm)*
G04 Created by KiCad (PCBNEW 7.0.7-7.0.7~ubuntu22.04.1) date 2023-10-02 11:26:03*
%MOMM*%
%LPD*%
G01*
G04 APERTURE LIST*
%ADD10C,0.100000*%
%ADD11C,0.200000*%
%ADD12C,0.040000*%
%ADD13C,0.060000*%
%ADD14C,0.070000*%
%ADD15C,0.080000*%
%ADD16C,0.110000*%
%ADD17C,0.120000*%
%ADD18C,0.140000*%
%ADD19C,0.160000*%
%ADD20C,0.250000*%
G04 APERTURE END LIST*
D10*
X10604500Y-2794000D02*
G75*
G03*
X10350500Y-2540000I-254000J0D01*
G01*
X2413000Y-2540000D02*
G75*
G03*
X2159000Y-2794000I0J-254000D01*
G01*
X2159000Y-10477500D02*
G75*
G03*
X2413000Y-10731500I254000J0D01*
G01*
X2159000Y-2794000D02*
X2159000Y-10477500D01*
X2413000Y-2540000D02*
X10350500Y-2540000D01*
X10604500Y-10486000D02*
X10604500Y-2794000D01*
X10350500Y-10731642D02*
G75*
G03*
X10604500Y-10486000I0J254142D01*
G01*
X10350500Y-10731642D02*
X2413000Y-10731500D01*
D11*
D12*
X5314000Y-6711000D02*
X5354000Y-6751000D01*
X5354000Y-6711000D02*
X5314000Y-6751000D01*
X5568000Y-7092000D02*
X5608000Y-7132000D01*
X5608000Y-7092000D02*
X5568000Y-7132000D01*
X6838000Y-7219000D02*
X6878000Y-7259000D01*
X6878000Y-7219000D02*
X6838000Y-7259000D01*
X6838000Y-7343650D02*
X6878000Y-7383650D01*
X6878000Y-7343650D02*
X6838000Y-7383650D01*
X7092000Y-7092000D02*
X7132000Y-7132000D01*
X7132000Y-7092000D02*
X7092000Y-7132000D01*
X7155500Y-2774000D02*
X7195500Y-2814000D01*
X7195500Y-2774000D02*
X7155500Y-2814000D01*
X7981000Y-5075500D02*
X8021000Y-5115500D01*
X8021000Y-5075500D02*
X7981000Y-5115500D01*
X8362000Y-7343650D02*
X8402000Y-7383650D01*
X8402000Y-7343650D02*
X8362000Y-7383650D01*
D13*
X3309000Y-6858000D02*
G75*
G03*
X3309000Y-6858000I-30000J0D01*
G01*
X3459000Y-6858000D02*
G75*
G03*
X3459000Y-6858000I-30000J0D01*
G01*
X4452000Y-6985000D02*
G75*
G03*
X4452000Y-6985000I-30000J0D01*
G01*
X4602000Y-6985000D02*
G75*
G03*
X4602000Y-6985000I-30000J0D01*
G01*
X4960000Y-6985000D02*
G75*
G03*
X4960000Y-6985000I-30000J0D01*
G01*
X5110000Y-6985000D02*
G75*
G03*
X5110000Y-6985000I-30000J0D01*
G01*
D14*
X3175000Y-3302000D02*
X3175000Y-3372000D01*
X3140000Y-3337000D02*
X3210000Y-3337000D01*
X3175000Y-4064000D02*
X3175000Y-4134000D01*
X3140000Y-4099000D02*
X3210000Y-4099000D01*
X3429000Y-3302000D02*
X3429000Y-3372000D01*
X3394000Y-3337000D02*
X3464000Y-3337000D01*
X3429000Y-4064000D02*
X3429000Y-4134000D01*
X3394000Y-4099000D02*
X3464000Y-4099000D01*
X4445000Y-7966000D02*
X4445000Y-8036000D01*
X4410000Y-8001000D02*
X4480000Y-8001000D01*
X4445000Y-8728000D02*
X4445000Y-8798000D01*
X4410000Y-8763000D02*
X4480000Y-8763000D01*
X5334000Y-5553000D02*
X5334000Y-5623000D01*
X5299000Y-5588000D02*
X5369000Y-5588000D01*
X5334000Y-6315000D02*
X5334000Y-6385000D01*
X5299000Y-6350000D02*
X5369000Y-6350000D01*
X5588000Y-5553000D02*
X5588000Y-5623000D01*
X5553000Y-5588000D02*
X5623000Y-5588000D01*
X5588000Y-6315000D02*
X5588000Y-6385000D01*
X5553000Y-6350000D02*
X5623000Y-6350000D01*
X5715000Y-7966000D02*
X5715000Y-8036000D01*
X5680000Y-8001000D02*
X5750000Y-8001000D01*
X5715000Y-8728000D02*
X5715000Y-8798000D01*
X5680000Y-8763000D02*
X5750000Y-8763000D01*
X6096000Y-5553000D02*
X6096000Y-5623000D01*
X6061000Y-5588000D02*
X6131000Y-5588000D01*
X6096000Y-6315000D02*
X6096000Y-6385000D01*
X6061000Y-6350000D02*
X6131000Y-6350000D01*
X6159500Y-9426500D02*
X6159500Y-9496500D01*
X6124500Y-9461500D02*
X6194500Y-9461500D01*
X6159500Y-10188500D02*
X6159500Y-10258500D01*
X6124500Y-10223500D02*
X6194500Y-10223500D01*
X6477000Y-5553000D02*
X6477000Y-5623000D01*
X6442000Y-5588000D02*
X6512000Y-5588000D01*
X6477000Y-6315000D02*
X6477000Y-6385000D01*
X6442000Y-6350000D02*
X6512000Y-6350000D01*
X6540500Y-9426500D02*
X6540500Y-9496500D01*
X6505500Y-9461500D02*
X6575500Y-9461500D01*
X6540500Y-10188500D02*
X6540500Y-10258500D01*
X6505500Y-10223500D02*
X6575500Y-10223500D01*
X6731000Y-5553000D02*
X6731000Y-5623000D01*
X6696000Y-5588000D02*
X6766000Y-5588000D01*
X6731000Y-6315000D02*
X6731000Y-6385000D01*
X6696000Y-6350000D02*
X6766000Y-6350000D01*
X6985000Y-5553000D02*
X6985000Y-5623000D01*
X6950000Y-5588000D02*
X7020000Y-5588000D01*
X6985000Y-6315000D02*
X6985000Y-6385000D01*
X6950000Y-6350000D02*
X7020000Y-6350000D01*
X6985000Y-7966000D02*
X6985000Y-8036000D01*
X6950000Y-8001000D02*
X7020000Y-8001000D01*
X6985000Y-8728000D02*
X6985000Y-8798000D01*
X6950000Y-8763000D02*
X7020000Y-8763000D01*
X7620000Y-3394000D02*
X7620000Y-3464000D01*
X7585000Y-3429000D02*
X7655000Y-3429000D01*
X7620000Y-4156000D02*
X7620000Y-4226000D01*
X7585000Y-4191000D02*
X7655000Y-4191000D01*
X8001000Y-9426500D02*
X8001000Y-9496500D01*
X7966000Y-9461500D02*
X8036000Y-9461500D01*
X8001000Y-10188500D02*
X8001000Y-10258500D01*
X7966000Y-10223500D02*
X8036000Y-10223500D01*
X8382000Y-3457500D02*
X8382000Y-3527500D01*
X8347000Y-3492500D02*
X8417000Y-3492500D01*
X8382000Y-4219500D02*
X8382000Y-4289500D01*
X8347000Y-4254500D02*
X8417000Y-4254500D01*
X9228600Y-2932800D02*
X9228600Y-3002800D01*
X9193600Y-2967800D02*
X9263600Y-2967800D01*
X9488600Y-2932800D02*
X9488600Y-3002800D01*
X9453600Y-2967800D02*
X9523600Y-2967800D01*
D15*
X5107285Y-4517285D02*
X5107285Y-4460716D01*
X5050716Y-4460716D01*
X5050716Y-4517285D01*
X5107285Y-4517285D01*
X5107285Y-5279285D02*
X5107285Y-5222716D01*
X5050716Y-5222716D01*
X5050716Y-5279285D01*
X5107285Y-5279285D01*
X5298785Y-3767284D02*
X5298785Y-3710715D01*
X5242216Y-3710715D01*
X5242216Y-3767284D01*
X5298785Y-3767284D01*
X5298785Y-4267285D02*
X5298785Y-4210716D01*
X5242216Y-4210716D01*
X5242216Y-4267285D01*
X5298785Y-4267285D01*
X5361285Y-4517285D02*
X5361285Y-4460716D01*
X5304716Y-4460716D01*
X5304716Y-4517285D01*
X5361285Y-4517285D01*
X5361285Y-5279285D02*
X5361285Y-5222716D01*
X5304716Y-5222716D01*
X5304716Y-5279285D01*
X5361285Y-5279285D01*
X5615284Y-4517285D02*
X5615284Y-4460716D01*
X5558716Y-4460716D01*
X5558716Y-4517285D01*
X5615284Y-4517285D01*
X5615284Y-5279285D02*
X5615284Y-5222716D01*
X5558716Y-5222716D01*
X5558716Y-5279285D01*
X5615284Y-5279285D01*
X5869284Y-4517285D02*
X5869284Y-4460716D01*
X5812715Y-4460716D01*
X5812715Y-4517285D01*
X5869284Y-4517285D01*
X5869284Y-5279285D02*
X5869284Y-5222716D01*
X5812715Y-5222716D01*
X5812715Y-5279285D01*
X5869284Y-5279285D01*
X5890284Y-4092284D02*
X5890284Y-4035715D01*
X5833715Y-4035715D01*
X5833715Y-4092284D01*
X5890284Y-4092284D01*
X6123284Y-4517285D02*
X6123284Y-4460716D01*
X6066715Y-4460716D01*
X6066715Y-4517285D01*
X6123284Y-4517285D01*
X6123284Y-5279285D02*
X6123284Y-5222716D01*
X6066715Y-5222716D01*
X6066715Y-5279285D01*
X6123284Y-5279285D01*
X6255284Y-3584284D02*
X6255284Y-3527715D01*
X6198715Y-3527715D01*
X6198715Y-3584284D01*
X6255284Y-3584284D01*
X6377284Y-4517285D02*
X6377284Y-4460716D01*
X6320715Y-4460716D01*
X6320715Y-4517285D01*
X6377284Y-4517285D01*
X6377284Y-5279285D02*
X6377284Y-5222716D01*
X6320715Y-5222716D01*
X6320715Y-5279285D01*
X6377284Y-5279285D01*
X6378284Y-4092284D02*
X6378284Y-4035715D01*
X6321715Y-4035715D01*
X6321715Y-4092284D01*
X6378284Y-4092284D01*
X6631284Y-4517285D02*
X6631284Y-4460716D01*
X6574715Y-4460716D01*
X6574715Y-4517285D01*
X6631284Y-4517285D01*
X6631284Y-5279285D02*
X6631284Y-5222716D01*
X6574715Y-5222716D01*
X6574715Y-5279285D01*
X6631284Y-5279285D01*
X6755284Y-3584284D02*
X6755284Y-3527715D01*
X6698715Y-3527715D01*
X6698715Y-3584284D01*
X6755284Y-3584284D01*
X6885284Y-4517285D02*
X6885284Y-4460716D01*
X6828715Y-4460716D01*
X6828715Y-4517285D01*
X6885284Y-4517285D01*
X6885284Y-5279285D02*
X6885284Y-5222716D01*
X6828715Y-5222716D01*
X6828715Y-5279285D01*
X6885284Y-5279285D01*
X6948784Y-9742285D02*
X6948784Y-9685716D01*
X6892215Y-9685716D01*
X6892215Y-9742285D01*
X6948784Y-9742285D01*
X6948784Y-9996285D02*
X6948784Y-9939716D01*
X6892215Y-9939716D01*
X6892215Y-9996285D01*
X6948784Y-9996285D01*
X6948784Y-10250285D02*
X6948784Y-10193716D01*
X6892215Y-10193716D01*
X6892215Y-10250285D01*
X6948784Y-10250285D01*
X7076784Y-3767284D02*
X7076784Y-3710715D01*
X7020215Y-3710715D01*
X7020215Y-3767284D01*
X7076784Y-3767284D01*
X7076784Y-4267285D02*
X7076784Y-4210716D01*
X7020215Y-4210716D01*
X7020215Y-4267285D01*
X7076784Y-4267285D01*
X7139284Y-4517285D02*
X7139284Y-4460716D01*
X7082715Y-4460716D01*
X7082715Y-4517285D01*
X7139284Y-4517285D01*
X7139284Y-5279285D02*
X7139284Y-5222716D01*
X7082715Y-5222716D01*
X7082715Y-5279285D01*
X7139284Y-5279285D01*
X7393284Y-4517285D02*
X7393284Y-4460716D01*
X7336715Y-4460716D01*
X7336715Y-4517285D01*
X7393284Y-4517285D01*
X7393284Y-5279285D02*
X7393284Y-5222716D01*
X7336715Y-5222716D01*
X7336715Y-5279285D01*
X7393284Y-5279285D01*
X7647284Y-4517285D02*
X7647284Y-4460716D01*
X7590715Y-4460716D01*
X7590715Y-4517285D01*
X7647284Y-4517285D01*
X7647284Y-5279285D02*
X7647284Y-5222716D01*
X7590715Y-5222716D01*
X7590715Y-5279285D01*
X7647284Y-5279285D01*
X7710784Y-9742285D02*
X7710784Y-9685716D01*
X7654215Y-9685716D01*
X7654215Y-9742285D01*
X7710784Y-9742285D01*
X7710784Y-9996285D02*
X7710784Y-9939716D01*
X7654215Y-9939716D01*
X7654215Y-9996285D01*
X7710784Y-9996285D01*
X7710784Y-10250285D02*
X7710784Y-10193716D01*
X7654215Y-10193716D01*
X7654215Y-10250285D01*
X7710784Y-10250285D01*
X7901284Y-4517285D02*
X7901284Y-4460716D01*
X7844715Y-4460716D01*
X7844715Y-4517285D01*
X7901284Y-4517285D01*
X7901284Y-5279285D02*
X7901284Y-5222716D01*
X7844715Y-5222716D01*
X7844715Y-5279285D01*
X7901284Y-5279285D01*
X8155284Y-4517285D02*
X8155284Y-4460716D01*
X8098715Y-4460716D01*
X8098715Y-4517285D01*
X8155284Y-4517285D01*
X8155284Y-5279285D02*
X8155284Y-5222716D01*
X8098715Y-5222716D01*
X8098715Y-5279285D01*
X8155284Y-5279285D01*
X8346784Y-9489785D02*
X8346784Y-9433216D01*
X8290215Y-9433216D01*
X8290215Y-9489785D01*
X8346784Y-9489785D01*
X8346784Y-10251785D02*
X8346784Y-10195216D01*
X8290215Y-10195216D01*
X8290215Y-10251785D01*
X8346784Y-10251785D01*
X8409285Y-4517285D02*
X8409285Y-4460716D01*
X8352715Y-4460716D01*
X8352715Y-4517285D01*
X8409285Y-4517285D01*
X8409285Y-5279285D02*
X8409285Y-5222716D01*
X8352715Y-5222716D01*
X8352715Y-5279285D01*
X8409285Y-5279285D01*
X8410285Y-7906284D02*
X8410285Y-7849715D01*
X8353715Y-7849715D01*
X8353715Y-7906284D01*
X8410285Y-7906284D01*
X8410285Y-8406285D02*
X8410285Y-8349715D01*
X8353715Y-8349715D01*
X8353715Y-8406285D01*
X8410285Y-8406285D01*
D10*
X2540000Y-7035000D02*
X2590000Y-6985000D01*
X2540000Y-6935000D01*
X2490000Y-6985000D01*
X2540000Y-7035000D01*
X2540000Y-7335000D02*
X2590000Y-7285000D01*
X2540000Y-7235000D01*
X2490000Y-7285000D01*
X2540000Y-7335000D01*
X2540000Y-7635000D02*
X2590000Y-7585000D01*
X2540000Y-7535000D01*
X2490000Y-7585000D01*
X2540000Y-7635000D01*
X3048000Y-8686000D02*
X3098000Y-8636000D01*
X3048000Y-8586000D01*
X2998000Y-8636000D01*
X3048000Y-8686000D01*
D11*
X2998000Y-8536000D02*
X2998000Y-8736000D01*
X2998000Y-8736000D02*
G75*
G03*
X3098000Y-8736000I50000J0D01*
G01*
X3098000Y-8736000D02*
X3098000Y-8536000D01*
X3098000Y-8536000D02*
G75*
G03*
X2998000Y-8536000I-50000J0D01*
G01*
D10*
X3348000Y-9156000D02*
X3398000Y-9106000D01*
X3348000Y-9056000D01*
X3298000Y-9106000D01*
X3348000Y-9156000D01*
D11*
X3248000Y-9156000D02*
X3448000Y-9156000D01*
X3448000Y-9156000D02*
G75*
G03*
X3448000Y-9056000I0J50000D01*
G01*
X3448000Y-9056000D02*
X3248000Y-9056000D01*
X3248000Y-9056000D02*
G75*
G03*
X3248000Y-9156000I0J-50000D01*
G01*
D10*
X3648000Y-8686000D02*
X3698000Y-8636000D01*
X3648000Y-8586000D01*
X3598000Y-8636000D01*
X3648000Y-8686000D01*
D11*
X3598000Y-8536000D02*
X3598000Y-8736000D01*
X3598000Y-8736000D02*
G75*
G03*
X3698000Y-8736000I50000J0D01*
G01*
X3698000Y-8736000D02*
X3698000Y-8536000D01*
X3698000Y-8536000D02*
G75*
G03*
X3598000Y-8536000I-50000J0D01*
G01*
D10*
X7828000Y-2971000D02*
X7878000Y-2921000D01*
X7828000Y-2871000D01*
X7778000Y-2921000D01*
X7828000Y-2971000D01*
X8128000Y-2971000D02*
X8178000Y-2921000D01*
X8128000Y-2871000D01*
X8078000Y-2921000D01*
X8128000Y-2971000D01*
X8428000Y-2971000D02*
X8478000Y-2921000D01*
X8428000Y-2871000D01*
X8378000Y-2921000D01*
X8428000Y-2971000D01*
X8953500Y-4622000D02*
X9003500Y-4572000D01*
X8953500Y-4522000D01*
X8903500Y-4572000D01*
X8953500Y-4622000D01*
X8953500Y-4876000D02*
X9003500Y-4826000D01*
X8953500Y-4776000D01*
X8903500Y-4826000D01*
X8953500Y-4876000D01*
X8953500Y-5130000D02*
X9003500Y-5080000D01*
X8953500Y-5030000D01*
X8903500Y-5080000D01*
X8953500Y-5130000D01*
X9207500Y-4622000D02*
X9257500Y-4572000D01*
X9207500Y-4522000D01*
X9157500Y-4572000D01*
X9207500Y-4622000D01*
X9207500Y-4876000D02*
X9257500Y-4826000D01*
X9207500Y-4776000D01*
X9157500Y-4826000D01*
X9207500Y-4876000D01*
X9207500Y-5130000D02*
X9257500Y-5080000D01*
X9207500Y-5030000D01*
X9157500Y-5080000D01*
X9207500Y-5130000D01*
D16*
X2456000Y-6295000D02*
X2566000Y-6405000D01*
X2566000Y-6295000D02*
X2456000Y-6405000D01*
X2566000Y-6350000D02*
G75*
G03*
X2566000Y-6350000I-55000J0D01*
G01*
X2710000Y-6295000D02*
X2820000Y-6405000D01*
X2820000Y-6295000D02*
X2710000Y-6405000D01*
X2820000Y-6350000D02*
G75*
G03*
X2820000Y-6350000I-55000J0D01*
G01*
X2964000Y-6295000D02*
X3074000Y-6405000D01*
X3074000Y-6295000D02*
X2964000Y-6405000D01*
X3074000Y-6350000D02*
G75*
G03*
X3074000Y-6350000I-55000J0D01*
G01*
X3628000Y-6295000D02*
X3738000Y-6405000D01*
X3738000Y-6295000D02*
X3628000Y-6405000D01*
X3738000Y-6350000D02*
G75*
G03*
X3738000Y-6350000I-55000J0D01*
G01*
X3882000Y-6295000D02*
X3992000Y-6405000D01*
X3992000Y-6295000D02*
X3882000Y-6405000D01*
X3992000Y-6350000D02*
G75*
G03*
X3992000Y-6350000I-55000J0D01*
G01*
X4136000Y-6295000D02*
X4246000Y-6405000D01*
X4246000Y-6295000D02*
X4136000Y-6405000D01*
X4246000Y-6350000D02*
G75*
G03*
X4246000Y-6350000I-55000J0D01*
G01*
X4800000Y-8002000D02*
X4910000Y-8112000D01*
X4910000Y-8002000D02*
X4800000Y-8112000D01*
X4910000Y-8057000D02*
G75*
G03*
X4910000Y-8057000I-55000J0D01*
G01*
X4800000Y-8652000D02*
X4910000Y-8762000D01*
X4910000Y-8652000D02*
X4800000Y-8762000D01*
X4910000Y-8707000D02*
G75*
G03*
X4910000Y-8707000I-55000J0D01*
G01*
X5250000Y-8002000D02*
X5360000Y-8112000D01*
X5360000Y-8002000D02*
X5250000Y-8112000D01*
X5360000Y-8057000D02*
G75*
G03*
X5360000Y-8057000I-55000J0D01*
G01*
X5250000Y-8652000D02*
X5360000Y-8762000D01*
X5360000Y-8652000D02*
X5250000Y-8762000D01*
X5360000Y-8707000D02*
G75*
G03*
X5360000Y-8707000I-55000J0D01*
G01*
X6070000Y-8002000D02*
X6180000Y-8112000D01*
X6180000Y-8002000D02*
X6070000Y-8112000D01*
X6180000Y-8057000D02*
G75*
G03*
X6180000Y-8057000I-55000J0D01*
G01*
X6070000Y-8652000D02*
X6180000Y-8762000D01*
X6180000Y-8652000D02*
X6070000Y-8762000D01*
X6180000Y-8707000D02*
G75*
G03*
X6180000Y-8707000I-55000J0D01*
G01*
X6520000Y-8002000D02*
X6630000Y-8112000D01*
X6630000Y-8002000D02*
X6520000Y-8112000D01*
X6630000Y-8057000D02*
G75*
G03*
X6630000Y-8057000I-55000J0D01*
G01*
X6520000Y-8652000D02*
X6630000Y-8762000D01*
X6630000Y-8652000D02*
X6520000Y-8762000D01*
X6630000Y-8707000D02*
G75*
G03*
X6630000Y-8707000I-55000J0D01*
G01*
X7340000Y-8002000D02*
X7450000Y-8112000D01*
X7450000Y-8002000D02*
X7340000Y-8112000D01*
X7450000Y-8057000D02*
G75*
G03*
X7450000Y-8057000I-55000J0D01*
G01*
X7340000Y-8652000D02*
X7450000Y-8762000D01*
X7450000Y-8652000D02*
X7340000Y-8762000D01*
X7450000Y-8707000D02*
G75*
G03*
X7450000Y-8707000I-55000J0D01*
G01*
X7790000Y-8002000D02*
X7900000Y-8112000D01*
X7900000Y-8002000D02*
X7790000Y-8112000D01*
X7900000Y-8057000D02*
G75*
G03*
X7900000Y-8057000I-55000J0D01*
G01*
X7790000Y-8652000D02*
X7900000Y-8762000D01*
X7900000Y-8652000D02*
X7790000Y-8762000D01*
X7900000Y-8707000D02*
G75*
G03*
X7900000Y-8707000I-55000J0D01*
G01*
D17*
X3156910Y-2988000D02*
X3276910Y-3108000D01*
X3276910Y-2988000D02*
X3156910Y-3108000D01*
X3216910Y-2988000D02*
X3216910Y-3108000D01*
X3156910Y-3048000D02*
X3276910Y-3048000D01*
X3410910Y-2988000D02*
X3530910Y-3108000D01*
X3530910Y-2988000D02*
X3410910Y-3108000D01*
X3470910Y-2988000D02*
X3470910Y-3108000D01*
X3410910Y-3048000D02*
X3530910Y-3048000D01*
X3664910Y-2988000D02*
X3784910Y-3108000D01*
X3784910Y-2988000D02*
X3664910Y-3108000D01*
X3724910Y-2988000D02*
X3724910Y-3108000D01*
X3664910Y-3048000D02*
X3784910Y-3048000D01*
X3918910Y-2988000D02*
X4038910Y-3108000D01*
X4038910Y-2988000D02*
X3918910Y-3108000D01*
X3978910Y-2988000D02*
X3978910Y-3108000D01*
X3918910Y-3048000D02*
X4038910Y-3048000D01*
X4172910Y-2988000D02*
X4292910Y-3108000D01*
X4292910Y-2988000D02*
X4172910Y-3108000D01*
X4232910Y-2988000D02*
X4232910Y-3108000D01*
X4172910Y-3048000D02*
X4292910Y-3048000D01*
X4426910Y-2988000D02*
X4546910Y-3108000D01*
X4546910Y-2988000D02*
X4426910Y-3108000D01*
X4486910Y-2988000D02*
X4486910Y-3108000D01*
X4426910Y-3048000D02*
X4546910Y-3048000D01*
X4680910Y-2988000D02*
X4800910Y-3108000D01*
X4800910Y-2988000D02*
X4680910Y-3108000D01*
X4740910Y-2988000D02*
X4740910Y-3108000D01*
X4680910Y-3048000D02*
X4800910Y-3048000D01*
X4934910Y-2988000D02*
X5054910Y-3108000D01*
X5054910Y-2988000D02*
X4934910Y-3108000D01*
X4994910Y-2988000D02*
X4994910Y-3108000D01*
X4934910Y-3048000D02*
X5054910Y-3048000D01*
X5188910Y-2988000D02*
X5308910Y-3108000D01*
X5308910Y-2988000D02*
X5188910Y-3108000D01*
X5248910Y-2988000D02*
X5248910Y-3108000D01*
X5188910Y-3048000D02*
X5308910Y-3048000D01*
X5442910Y-2988000D02*
X5562910Y-3108000D01*
X5562910Y-2988000D02*
X5442910Y-3108000D01*
X5502910Y-2988000D02*
X5502910Y-3108000D01*
X5442910Y-3048000D02*
X5562910Y-3048000D01*
X5696910Y-2988000D02*
X5816910Y-3108000D01*
X5816910Y-2988000D02*
X5696910Y-3108000D01*
X5756910Y-2988000D02*
X5756910Y-3108000D01*
X5696910Y-3048000D02*
X5816910Y-3048000D01*
X5950910Y-2988000D02*
X6070910Y-3108000D01*
X6070910Y-2988000D02*
X5950910Y-3108000D01*
X6010910Y-2988000D02*
X6010910Y-3108000D01*
X5950910Y-3048000D02*
X6070910Y-3048000D01*
X6204910Y-2988000D02*
X6324910Y-3108000D01*
X6324910Y-2988000D02*
X6204910Y-3108000D01*
X6264910Y-2988000D02*
X6264910Y-3108000D01*
X6204910Y-3048000D02*
X6324910Y-3048000D01*
X6458910Y-2988000D02*
X6578910Y-3108000D01*
X6578910Y-2988000D02*
X6458910Y-3108000D01*
X6518910Y-2988000D02*
X6518910Y-3108000D01*
X6458910Y-3048000D02*
X6578910Y-3048000D01*
X6712910Y-2988000D02*
X6832910Y-3108000D01*
X6832910Y-2988000D02*
X6712910Y-3108000D01*
X6772910Y-2988000D02*
X6772910Y-3108000D01*
X6712910Y-3048000D02*
X6832910Y-3048000D01*
X6966910Y-2988000D02*
X7086910Y-3108000D01*
X7086910Y-2988000D02*
X6966910Y-3108000D01*
X7026910Y-2988000D02*
X7026910Y-3108000D01*
X6966910Y-3048000D02*
X7086910Y-3048000D01*
D18*
X8905000Y-8891500D02*
X9045000Y-9031500D01*
X9045000Y-8891500D02*
X8905000Y-9031500D01*
X9024498Y-9010998D02*
X9024498Y-8912002D01*
X8925502Y-8912002D01*
X8925502Y-9010998D01*
X9024498Y-9010998D01*
X8905000Y-9891500D02*
X9045000Y-10031500D01*
X9045000Y-9891500D02*
X8905000Y-10031500D01*
X9024498Y-10010998D02*
X9024498Y-9912002D01*
X8925502Y-9912002D01*
X8925502Y-10010998D01*
X9024498Y-10010998D01*
X9155000Y-8641500D02*
X9295000Y-8781500D01*
X9295000Y-8641500D02*
X9155000Y-8781500D01*
X9274498Y-8760998D02*
X9274498Y-8662002D01*
X9175502Y-8662002D01*
X9175502Y-8760998D01*
X9274498Y-8760998D01*
X9155000Y-9391500D02*
X9295000Y-9531500D01*
X9295000Y-9391500D02*
X9155000Y-9531500D01*
X9274498Y-9510998D02*
X9274498Y-9412002D01*
X9175502Y-9412002D01*
X9175502Y-9510998D01*
X9274498Y-9510998D01*
X9155000Y-10141500D02*
X9295000Y-10281500D01*
X9295000Y-10141500D02*
X9155000Y-10281500D01*
X9274498Y-10260998D02*
X9274498Y-10162002D01*
X9175502Y-10162002D01*
X9175502Y-10260998D01*
X9274498Y-10260998D01*
X10155000Y-8891500D02*
X10295000Y-9031500D01*
X10295000Y-8891500D02*
X10155000Y-9031500D01*
X10274498Y-9010998D02*
X10274498Y-8912002D01*
X10175502Y-8912002D01*
X10175502Y-9010998D01*
X10274498Y-9010998D01*
X10155000Y-9891500D02*
X10295000Y-10031500D01*
X10295000Y-9891500D02*
X10155000Y-10031500D01*
X10274498Y-10010998D02*
X10274498Y-9912002D01*
X10175502Y-9912002D01*
X10175502Y-10010998D01*
X10274498Y-10010998D01*
D19*
X2460000Y-6600000D02*
X2620000Y-6760000D01*
X2620000Y-6600000D02*
X2460000Y-6760000D01*
X2540000Y-6760000D02*
X2620000Y-6680000D01*
X2540000Y-6600000D01*
X2460000Y-6680000D01*
X2540000Y-6760000D01*
X2460000Y-7810000D02*
X2620000Y-7970000D01*
X2620000Y-7810000D02*
X2460000Y-7970000D01*
X2540000Y-7970000D02*
X2620000Y-7890000D01*
X2540000Y-7810000D01*
X2460000Y-7890000D01*
X2540000Y-7970000D01*
X7443000Y-2841000D02*
X7603000Y-3001000D01*
X7603000Y-2841000D02*
X7443000Y-3001000D01*
X7523000Y-3001000D02*
X7603000Y-2921000D01*
X7523000Y-2841000D01*
X7443000Y-2921000D01*
X7523000Y-3001000D01*
X8653000Y-2841000D02*
X8813000Y-3001000D01*
X8813000Y-2841000D02*
X8653000Y-3001000D01*
X8733000Y-3001000D02*
X8813000Y-2921000D01*
X8733000Y-2841000D01*
X8653000Y-2921000D01*
X8733000Y-3001000D01*
D20*
X2667000Y-2923000D02*
X2667000Y-3173000D01*
X2542000Y-3048000D02*
X2792000Y-3048000D01*
X2792000Y-3048000D02*
G75*
G03*
X2792000Y-3048000I-125000J0D01*
G01*
X10166858Y-6023070D02*
X10166858Y-6273070D01*
X10041858Y-6148070D02*
X10291858Y-6148070D01*
X10291858Y-6148070D02*
G75*
G03*
X10291858Y-6148070I-125000J0D01*
G01*
X10166910Y-2923000D02*
X10166910Y-3173000D01*
X10041910Y-3048000D02*
X10291910Y-3048000D01*
X10291910Y-3048000D02*
G75*
G03*
X10291910Y-3048000I-125000J0D01*
G01*
D11*
X2414777Y-11048126D02*
X2414777Y-10848126D01*
X2414777Y-10848126D02*
X2462396Y-10848126D01*
X2462396Y-10848126D02*
X2490967Y-10857650D01*
X2490967Y-10857650D02*
X2510015Y-10876697D01*
X2510015Y-10876697D02*
X2519539Y-10895745D01*
X2519539Y-10895745D02*
X2529063Y-10933840D01*
X2529063Y-10933840D02*
X2529063Y-10962412D01*
X2529063Y-10962412D02*
X2519539Y-11000507D01*
X2519539Y-11000507D02*
X2510015Y-11019554D01*
X2510015Y-11019554D02*
X2490967Y-11038602D01*
X2490967Y-11038602D02*
X2462396Y-11048126D01*
X2462396Y-11048126D02*
X2414777Y-11048126D01*
X2614777Y-11048126D02*
X2614777Y-10914793D01*
X2614777Y-10952888D02*
X2624301Y-10933840D01*
X2624301Y-10933840D02*
X2633824Y-10924316D01*
X2633824Y-10924316D02*
X2652872Y-10914793D01*
X2652872Y-10914793D02*
X2671920Y-10914793D01*
X2738586Y-11048126D02*
X2738586Y-10914793D01*
X2738586Y-10848126D02*
X2729063Y-10857650D01*
X2729063Y-10857650D02*
X2738586Y-10867174D01*
X2738586Y-10867174D02*
X2748110Y-10857650D01*
X2748110Y-10857650D02*
X2738586Y-10848126D01*
X2738586Y-10848126D02*
X2738586Y-10867174D01*
X2862396Y-11048126D02*
X2843348Y-11038602D01*
X2843348Y-11038602D02*
X2833824Y-11019554D01*
X2833824Y-11019554D02*
X2833824Y-10848126D01*
X2967158Y-11048126D02*
X2948110Y-11038602D01*
X2948110Y-11038602D02*
X2938586Y-11019554D01*
X2938586Y-11019554D02*
X2938586Y-10848126D01*
X3195729Y-11048126D02*
X3195729Y-10848126D01*
X3195729Y-10848126D02*
X3262396Y-10990983D01*
X3262396Y-10990983D02*
X3329062Y-10848126D01*
X3329062Y-10848126D02*
X3329062Y-11048126D01*
X3510015Y-11048126D02*
X3510015Y-10943364D01*
X3510015Y-10943364D02*
X3500491Y-10924316D01*
X3500491Y-10924316D02*
X3481443Y-10914793D01*
X3481443Y-10914793D02*
X3443348Y-10914793D01*
X3443348Y-10914793D02*
X3424301Y-10924316D01*
X3510015Y-11038602D02*
X3490967Y-11048126D01*
X3490967Y-11048126D02*
X3443348Y-11048126D01*
X3443348Y-11048126D02*
X3424301Y-11038602D01*
X3424301Y-11038602D02*
X3414777Y-11019554D01*
X3414777Y-11019554D02*
X3414777Y-11000507D01*
X3414777Y-11000507D02*
X3424301Y-10981459D01*
X3424301Y-10981459D02*
X3443348Y-10971935D01*
X3443348Y-10971935D02*
X3490967Y-10971935D01*
X3490967Y-10971935D02*
X3510015Y-10962412D01*
X3605253Y-10914793D02*
X3605253Y-11114793D01*
X3605253Y-10924316D02*
X3624301Y-10914793D01*
X3624301Y-10914793D02*
X3662396Y-10914793D01*
X3662396Y-10914793D02*
X3681443Y-10924316D01*
X3681443Y-10924316D02*
X3690967Y-10933840D01*
X3690967Y-10933840D02*
X3700491Y-10952888D01*
X3700491Y-10952888D02*
X3700491Y-11010031D01*
X3700491Y-11010031D02*
X3690967Y-11029078D01*
X3690967Y-11029078D02*
X3681443Y-11038602D01*
X3681443Y-11038602D02*
X3662396Y-11048126D01*
X3662396Y-11048126D02*
X3624301Y-11048126D01*
X3624301Y-11048126D02*
X3605253Y-11038602D01*
X3786205Y-11029078D02*
X3795729Y-11038602D01*
X3795729Y-11038602D02*
X3786205Y-11048126D01*
X3786205Y-11048126D02*
X3776682Y-11038602D01*
X3776682Y-11038602D02*
X3786205Y-11029078D01*
X3786205Y-11029078D02*
X3786205Y-11048126D01*
X3786205Y-10924316D02*
X3795729Y-10933840D01*
X3795729Y-10933840D02*
X3786205Y-10943364D01*
X3786205Y-10943364D02*
X3776682Y-10933840D01*
X3776682Y-10933840D02*
X3786205Y-10924316D01*
X3786205Y-10924316D02*
X3786205Y-10943364D01*
D12*
X2114000Y-11356642D02*
X2154000Y-11396642D01*
X2154000Y-11356642D02*
X2114000Y-11396642D01*
D11*
X2452872Y-11268126D02*
X2471920Y-11268126D01*
X2471920Y-11268126D02*
X2490967Y-11277650D01*
X2490967Y-11277650D02*
X2500491Y-11287173D01*
X2500491Y-11287173D02*
X2510015Y-11306221D01*
X2510015Y-11306221D02*
X2519539Y-11344316D01*
X2519539Y-11344316D02*
X2519539Y-11391935D01*
X2519539Y-11391935D02*
X2510015Y-11430031D01*
X2510015Y-11430031D02*
X2500491Y-11449078D01*
X2500491Y-11449078D02*
X2490967Y-11458602D01*
X2490967Y-11458602D02*
X2471920Y-11468126D01*
X2471920Y-11468126D02*
X2452872Y-11468126D01*
X2452872Y-11468126D02*
X2433824Y-11458602D01*
X2433824Y-11458602D02*
X2424301Y-11449078D01*
X2424301Y-11449078D02*
X2414777Y-11430031D01*
X2414777Y-11430031D02*
X2405253Y-11391935D01*
X2405253Y-11391935D02*
X2405253Y-11344316D01*
X2405253Y-11344316D02*
X2414777Y-11306221D01*
X2414777Y-11306221D02*
X2424301Y-11287173D01*
X2424301Y-11287173D02*
X2433824Y-11277650D01*
X2433824Y-11277650D02*
X2452872Y-11268126D01*
X2605253Y-11449078D02*
X2614777Y-11458602D01*
X2614777Y-11458602D02*
X2605253Y-11468126D01*
X2605253Y-11468126D02*
X2595729Y-11458602D01*
X2595729Y-11458602D02*
X2605253Y-11449078D01*
X2605253Y-11449078D02*
X2605253Y-11468126D01*
X2786205Y-11334792D02*
X2786205Y-11468126D01*
X2738586Y-11258602D02*
X2690967Y-11401459D01*
X2690967Y-11401459D02*
X2814777Y-11401459D01*
X2929062Y-11268126D02*
X2948110Y-11268126D01*
X2948110Y-11268126D02*
X2967158Y-11277650D01*
X2967158Y-11277650D02*
X2976682Y-11287173D01*
X2976682Y-11287173D02*
X2986205Y-11306221D01*
X2986205Y-11306221D02*
X2995729Y-11344316D01*
X2995729Y-11344316D02*
X2995729Y-11391935D01*
X2995729Y-11391935D02*
X2986205Y-11430031D01*
X2986205Y-11430031D02*
X2976682Y-11449078D01*
X2976682Y-11449078D02*
X2967158Y-11458602D01*
X2967158Y-11458602D02*
X2948110Y-11468126D01*
X2948110Y-11468126D02*
X2929062Y-11468126D01*
X2929062Y-11468126D02*
X2910015Y-11458602D01*
X2910015Y-11458602D02*
X2900491Y-11449078D01*
X2900491Y-11449078D02*
X2890967Y-11430031D01*
X2890967Y-11430031D02*
X2881443Y-11391935D01*
X2881443Y-11391935D02*
X2881443Y-11344316D01*
X2881443Y-11344316D02*
X2890967Y-11306221D01*
X2890967Y-11306221D02*
X2900491Y-11287173D01*
X2900491Y-11287173D02*
X2910015Y-11277650D01*
X2910015Y-11277650D02*
X2929062Y-11268126D01*
X3119539Y-11268126D02*
X3138586Y-11268126D01*
X3138586Y-11268126D02*
X3157634Y-11277650D01*
X3157634Y-11277650D02*
X3167158Y-11287173D01*
X3167158Y-11287173D02*
X3176682Y-11306221D01*
X3176682Y-11306221D02*
X3186205Y-11344316D01*
X3186205Y-11344316D02*
X3186205Y-11391935D01*
X3186205Y-11391935D02*
X3176682Y-11430031D01*
X3176682Y-11430031D02*
X3167158Y-11449078D01*
X3167158Y-11449078D02*
X3157634Y-11458602D01*
X3157634Y-11458602D02*
X3138586Y-11468126D01*
X3138586Y-11468126D02*
X3119539Y-11468126D01*
X3119539Y-11468126D02*
X3100491Y-11458602D01*
X3100491Y-11458602D02*
X3090967Y-11449078D01*
X3090967Y-11449078D02*
X3081443Y-11430031D01*
X3081443Y-11430031D02*
X3071920Y-11391935D01*
X3071920Y-11391935D02*
X3071920Y-11344316D01*
X3071920Y-11344316D02*
X3081443Y-11306221D01*
X3081443Y-11306221D02*
X3090967Y-11287173D01*
X3090967Y-11287173D02*
X3100491Y-11277650D01*
X3100491Y-11277650D02*
X3119539Y-11268126D01*
X3271920Y-11468126D02*
X3271920Y-11334792D01*
X3271920Y-11353840D02*
X3281443Y-11344316D01*
X3281443Y-11344316D02*
X3300491Y-11334792D01*
X3300491Y-11334792D02*
X3329063Y-11334792D01*
X3329063Y-11334792D02*
X3348110Y-11344316D01*
X3348110Y-11344316D02*
X3357634Y-11363364D01*
X3357634Y-11363364D02*
X3357634Y-11468126D01*
X3357634Y-11363364D02*
X3367158Y-11344316D01*
X3367158Y-11344316D02*
X3386205Y-11334792D01*
X3386205Y-11334792D02*
X3414777Y-11334792D01*
X3414777Y-11334792D02*
X3433824Y-11344316D01*
X3433824Y-11344316D02*
X3443348Y-11363364D01*
X3443348Y-11363364D02*
X3443348Y-11468126D01*
X3538586Y-11468126D02*
X3538586Y-11334792D01*
X3538586Y-11353840D02*
X3548110Y-11344316D01*
X3548110Y-11344316D02*
X3567158Y-11334792D01*
X3567158Y-11334792D02*
X3595729Y-11334792D01*
X3595729Y-11334792D02*
X3614777Y-11344316D01*
X3614777Y-11344316D02*
X3624301Y-11363364D01*
X3624301Y-11363364D02*
X3624301Y-11468126D01*
X3624301Y-11363364D02*
X3633824Y-11344316D01*
X3633824Y-11344316D02*
X3652872Y-11334792D01*
X3652872Y-11334792D02*
X3681443Y-11334792D01*
X3681443Y-11334792D02*
X3700491Y-11344316D01*
X3700491Y-11344316D02*
X3710015Y-11363364D01*
X3710015Y-11363364D02*
X3710015Y-11468126D01*
X4100491Y-11258602D02*
X3929063Y-11515745D01*
X4357634Y-11268126D02*
X4376682Y-11268126D01*
X4376682Y-11268126D02*
X4395729Y-11277650D01*
X4395729Y-11277650D02*
X4405253Y-11287173D01*
X4405253Y-11287173D02*
X4414777Y-11306221D01*
X4414777Y-11306221D02*
X4424301Y-11344316D01*
X4424301Y-11344316D02*
X4424301Y-11391935D01*
X4424301Y-11391935D02*
X4414777Y-11430031D01*
X4414777Y-11430031D02*
X4405253Y-11449078D01*
X4405253Y-11449078D02*
X4395729Y-11458602D01*
X4395729Y-11458602D02*
X4376682Y-11468126D01*
X4376682Y-11468126D02*
X4357634Y-11468126D01*
X4357634Y-11468126D02*
X4338587Y-11458602D01*
X4338587Y-11458602D02*
X4329063Y-11449078D01*
X4329063Y-11449078D02*
X4319539Y-11430031D01*
X4319539Y-11430031D02*
X4310015Y-11391935D01*
X4310015Y-11391935D02*
X4310015Y-11344316D01*
X4310015Y-11344316D02*
X4319539Y-11306221D01*
X4319539Y-11306221D02*
X4329063Y-11287173D01*
X4329063Y-11287173D02*
X4338587Y-11277650D01*
X4338587Y-11277650D02*
X4357634Y-11268126D01*
X4510015Y-11449078D02*
X4519539Y-11458602D01*
X4519539Y-11458602D02*
X4510015Y-11468126D01*
X4510015Y-11468126D02*
X4500491Y-11458602D01*
X4500491Y-11458602D02*
X4510015Y-11449078D01*
X4510015Y-11449078D02*
X4510015Y-11468126D01*
X4643348Y-11268126D02*
X4662396Y-11268126D01*
X4662396Y-11268126D02*
X4681444Y-11277650D01*
X4681444Y-11277650D02*
X4690968Y-11287173D01*
X4690968Y-11287173D02*
X4700491Y-11306221D01*
X4700491Y-11306221D02*
X4710015Y-11344316D01*
X4710015Y-11344316D02*
X4710015Y-11391935D01*
X4710015Y-11391935D02*
X4700491Y-11430031D01*
X4700491Y-11430031D02*
X4690968Y-11449078D01*
X4690968Y-11449078D02*
X4681444Y-11458602D01*
X4681444Y-11458602D02*
X4662396Y-11468126D01*
X4662396Y-11468126D02*
X4643348Y-11468126D01*
X4643348Y-11468126D02*
X4624301Y-11458602D01*
X4624301Y-11458602D02*
X4614777Y-11449078D01*
X4614777Y-11449078D02*
X4605253Y-11430031D01*
X4605253Y-11430031D02*
X4595729Y-11391935D01*
X4595729Y-11391935D02*
X4595729Y-11344316D01*
X4595729Y-11344316D02*
X4605253Y-11306221D01*
X4605253Y-11306221D02*
X4614777Y-11287173D01*
X4614777Y-11287173D02*
X4624301Y-11277650D01*
X4624301Y-11277650D02*
X4643348Y-11268126D01*
X4900491Y-11468126D02*
X4786206Y-11468126D01*
X4843348Y-11468126D02*
X4843348Y-11268126D01*
X4843348Y-11268126D02*
X4824301Y-11296697D01*
X4824301Y-11296697D02*
X4805253Y-11315745D01*
X4805253Y-11315745D02*
X4786206Y-11325269D01*
X5081444Y-11268126D02*
X4986206Y-11268126D01*
X4986206Y-11268126D02*
X4976682Y-11363364D01*
X4976682Y-11363364D02*
X4986206Y-11353840D01*
X4986206Y-11353840D02*
X5005253Y-11344316D01*
X5005253Y-11344316D02*
X5052872Y-11344316D01*
X5052872Y-11344316D02*
X5071920Y-11353840D01*
X5071920Y-11353840D02*
X5081444Y-11363364D01*
X5081444Y-11363364D02*
X5090968Y-11382412D01*
X5090968Y-11382412D02*
X5090968Y-11430031D01*
X5090968Y-11430031D02*
X5081444Y-11449078D01*
X5081444Y-11449078D02*
X5071920Y-11458602D01*
X5071920Y-11458602D02*
X5052872Y-11468126D01*
X5052872Y-11468126D02*
X5005253Y-11468126D01*
X5005253Y-11468126D02*
X4986206Y-11458602D01*
X4986206Y-11458602D02*
X4976682Y-11449078D01*
X5157634Y-11268126D02*
X5290968Y-11268126D01*
X5290968Y-11268126D02*
X5205253Y-11468126D01*
X5357634Y-11268126D02*
X5357634Y-11306221D01*
X5433825Y-11268126D02*
X5433825Y-11306221D01*
X5729063Y-11544316D02*
X5719539Y-11534792D01*
X5719539Y-11534792D02*
X5700491Y-11506221D01*
X5700491Y-11506221D02*
X5690968Y-11487173D01*
X5690968Y-11487173D02*
X5681444Y-11458602D01*
X5681444Y-11458602D02*
X5671920Y-11410983D01*
X5671920Y-11410983D02*
X5671920Y-11372888D01*
X5671920Y-11372888D02*
X5681444Y-11325269D01*
X5681444Y-11325269D02*
X5690968Y-11296697D01*
X5690968Y-11296697D02*
X5700491Y-11277650D01*
X5700491Y-11277650D02*
X5719539Y-11249078D01*
X5719539Y-11249078D02*
X5729063Y-11239554D01*
X5833825Y-11353840D02*
X5814777Y-11344316D01*
X5814777Y-11344316D02*
X5805253Y-11334792D01*
X5805253Y-11334792D02*
X5795729Y-11315745D01*
X5795729Y-11315745D02*
X5795729Y-11306221D01*
X5795729Y-11306221D02*
X5805253Y-11287173D01*
X5805253Y-11287173D02*
X5814777Y-11277650D01*
X5814777Y-11277650D02*
X5833825Y-11268126D01*
X5833825Y-11268126D02*
X5871920Y-11268126D01*
X5871920Y-11268126D02*
X5890968Y-11277650D01*
X5890968Y-11277650D02*
X5900491Y-11287173D01*
X5900491Y-11287173D02*
X5910015Y-11306221D01*
X5910015Y-11306221D02*
X5910015Y-11315745D01*
X5910015Y-11315745D02*
X5900491Y-11334792D01*
X5900491Y-11334792D02*
X5890968Y-11344316D01*
X5890968Y-11344316D02*
X5871920Y-11353840D01*
X5871920Y-11353840D02*
X5833825Y-11353840D01*
X5833825Y-11353840D02*
X5814777Y-11363364D01*
X5814777Y-11363364D02*
X5805253Y-11372888D01*
X5805253Y-11372888D02*
X5795729Y-11391935D01*
X5795729Y-11391935D02*
X5795729Y-11430031D01*
X5795729Y-11430031D02*
X5805253Y-11449078D01*
X5805253Y-11449078D02*
X5814777Y-11458602D01*
X5814777Y-11458602D02*
X5833825Y-11468126D01*
X5833825Y-11468126D02*
X5871920Y-11468126D01*
X5871920Y-11468126D02*
X5890968Y-11458602D01*
X5890968Y-11458602D02*
X5900491Y-11449078D01*
X5900491Y-11449078D02*
X5910015Y-11430031D01*
X5910015Y-11430031D02*
X5910015Y-11391935D01*
X5910015Y-11391935D02*
X5900491Y-11372888D01*
X5900491Y-11372888D02*
X5890968Y-11363364D01*
X5890968Y-11363364D02*
X5871920Y-11353840D01*
X6148110Y-11468126D02*
X6148110Y-11268126D01*
X6233825Y-11468126D02*
X6233825Y-11363364D01*
X6233825Y-11363364D02*
X6224301Y-11344316D01*
X6224301Y-11344316D02*
X6205253Y-11334792D01*
X6205253Y-11334792D02*
X6176682Y-11334792D01*
X6176682Y-11334792D02*
X6157634Y-11344316D01*
X6157634Y-11344316D02*
X6148110Y-11353840D01*
X6357634Y-11468126D02*
X6338587Y-11458602D01*
X6338587Y-11458602D02*
X6329063Y-11449078D01*
X6329063Y-11449078D02*
X6319539Y-11430031D01*
X6319539Y-11430031D02*
X6319539Y-11372888D01*
X6319539Y-11372888D02*
X6329063Y-11353840D01*
X6329063Y-11353840D02*
X6338587Y-11344316D01*
X6338587Y-11344316D02*
X6357634Y-11334792D01*
X6357634Y-11334792D02*
X6386206Y-11334792D01*
X6386206Y-11334792D02*
X6405253Y-11344316D01*
X6405253Y-11344316D02*
X6414777Y-11353840D01*
X6414777Y-11353840D02*
X6424301Y-11372888D01*
X6424301Y-11372888D02*
X6424301Y-11430031D01*
X6424301Y-11430031D02*
X6414777Y-11449078D01*
X6414777Y-11449078D02*
X6405253Y-11458602D01*
X6405253Y-11458602D02*
X6386206Y-11468126D01*
X6386206Y-11468126D02*
X6357634Y-11468126D01*
X6538587Y-11468126D02*
X6519539Y-11458602D01*
X6519539Y-11458602D02*
X6510015Y-11439554D01*
X6510015Y-11439554D02*
X6510015Y-11268126D01*
X6690968Y-11458602D02*
X6671920Y-11468126D01*
X6671920Y-11468126D02*
X6633825Y-11468126D01*
X6633825Y-11468126D02*
X6614777Y-11458602D01*
X6614777Y-11458602D02*
X6605253Y-11439554D01*
X6605253Y-11439554D02*
X6605253Y-11363364D01*
X6605253Y-11363364D02*
X6614777Y-11344316D01*
X6614777Y-11344316D02*
X6633825Y-11334792D01*
X6633825Y-11334792D02*
X6671920Y-11334792D01*
X6671920Y-11334792D02*
X6690968Y-11344316D01*
X6690968Y-11344316D02*
X6700491Y-11363364D01*
X6700491Y-11363364D02*
X6700491Y-11382412D01*
X6700491Y-11382412D02*
X6605253Y-11401459D01*
X6776682Y-11458602D02*
X6795730Y-11468126D01*
X6795730Y-11468126D02*
X6833825Y-11468126D01*
X6833825Y-11468126D02*
X6852872Y-11458602D01*
X6852872Y-11458602D02*
X6862396Y-11439554D01*
X6862396Y-11439554D02*
X6862396Y-11430031D01*
X6862396Y-11430031D02*
X6852872Y-11410983D01*
X6852872Y-11410983D02*
X6833825Y-11401459D01*
X6833825Y-11401459D02*
X6805253Y-11401459D01*
X6805253Y-11401459D02*
X6786206Y-11391935D01*
X6786206Y-11391935D02*
X6776682Y-11372888D01*
X6776682Y-11372888D02*
X6776682Y-11363364D01*
X6776682Y-11363364D02*
X6786206Y-11344316D01*
X6786206Y-11344316D02*
X6805253Y-11334792D01*
X6805253Y-11334792D02*
X6833825Y-11334792D01*
X6833825Y-11334792D02*
X6852872Y-11344316D01*
X6929063Y-11544316D02*
X6938587Y-11534792D01*
X6938587Y-11534792D02*
X6957634Y-11506221D01*
X6957634Y-11506221D02*
X6967158Y-11487173D01*
X6967158Y-11487173D02*
X6976682Y-11458602D01*
X6976682Y-11458602D02*
X6986206Y-11410983D01*
X6986206Y-11410983D02*
X6986206Y-11372888D01*
X6986206Y-11372888D02*
X6976682Y-11325269D01*
X6976682Y-11325269D02*
X6967158Y-11296697D01*
X6967158Y-11296697D02*
X6957634Y-11277650D01*
X6957634Y-11277650D02*
X6938587Y-11249078D01*
X6938587Y-11249078D02*
X6929063Y-11239554D01*
D13*
X2154000Y-11640642D02*
G75*
G03*
X2154000Y-11640642I-30000J0D01*
G01*
D11*
X2452872Y-11532126D02*
X2471920Y-11532126D01*
X2471920Y-11532126D02*
X2490967Y-11541650D01*
X2490967Y-11541650D02*
X2500491Y-11551173D01*
X2500491Y-11551173D02*
X2510015Y-11570221D01*
X2510015Y-11570221D02*
X2519539Y-11608316D01*
X2519539Y-11608316D02*
X2519539Y-11655935D01*
X2519539Y-11655935D02*
X2510015Y-11694031D01*
X2510015Y-11694031D02*
X2500491Y-11713078D01*
X2500491Y-11713078D02*
X2490967Y-11722602D01*
X2490967Y-11722602D02*
X2471920Y-11732126D01*
X2471920Y-11732126D02*
X2452872Y-11732126D01*
X2452872Y-11732126D02*
X2433824Y-11722602D01*
X2433824Y-11722602D02*
X2424301Y-11713078D01*
X2424301Y-11713078D02*
X2414777Y-11694031D01*
X2414777Y-11694031D02*
X2405253Y-11655935D01*
X2405253Y-11655935D02*
X2405253Y-11608316D01*
X2405253Y-11608316D02*
X2414777Y-11570221D01*
X2414777Y-11570221D02*
X2424301Y-11551173D01*
X2424301Y-11551173D02*
X2433824Y-11541650D01*
X2433824Y-11541650D02*
X2452872Y-11532126D01*
X2605253Y-11713078D02*
X2614777Y-11722602D01*
X2614777Y-11722602D02*
X2605253Y-11732126D01*
X2605253Y-11732126D02*
X2595729Y-11722602D01*
X2595729Y-11722602D02*
X2605253Y-11713078D01*
X2605253Y-11713078D02*
X2605253Y-11732126D01*
X2786205Y-11532126D02*
X2748110Y-11532126D01*
X2748110Y-11532126D02*
X2729063Y-11541650D01*
X2729063Y-11541650D02*
X2719539Y-11551173D01*
X2719539Y-11551173D02*
X2700491Y-11579745D01*
X2700491Y-11579745D02*
X2690967Y-11617840D01*
X2690967Y-11617840D02*
X2690967Y-11694031D01*
X2690967Y-11694031D02*
X2700491Y-11713078D01*
X2700491Y-11713078D02*
X2710015Y-11722602D01*
X2710015Y-11722602D02*
X2729063Y-11732126D01*
X2729063Y-11732126D02*
X2767158Y-11732126D01*
X2767158Y-11732126D02*
X2786205Y-11722602D01*
X2786205Y-11722602D02*
X2795729Y-11713078D01*
X2795729Y-11713078D02*
X2805253Y-11694031D01*
X2805253Y-11694031D02*
X2805253Y-11646412D01*
X2805253Y-11646412D02*
X2795729Y-11627364D01*
X2795729Y-11627364D02*
X2786205Y-11617840D01*
X2786205Y-11617840D02*
X2767158Y-11608316D01*
X2767158Y-11608316D02*
X2729063Y-11608316D01*
X2729063Y-11608316D02*
X2710015Y-11617840D01*
X2710015Y-11617840D02*
X2700491Y-11627364D01*
X2700491Y-11627364D02*
X2690967Y-11646412D01*
X2929062Y-11532126D02*
X2948110Y-11532126D01*
X2948110Y-11532126D02*
X2967158Y-11541650D01*
X2967158Y-11541650D02*
X2976682Y-11551173D01*
X2976682Y-11551173D02*
X2986205Y-11570221D01*
X2986205Y-11570221D02*
X2995729Y-11608316D01*
X2995729Y-11608316D02*
X2995729Y-11655935D01*
X2995729Y-11655935D02*
X2986205Y-11694031D01*
X2986205Y-11694031D02*
X2976682Y-11713078D01*
X2976682Y-11713078D02*
X2967158Y-11722602D01*
X2967158Y-11722602D02*
X2948110Y-11732126D01*
X2948110Y-11732126D02*
X2929062Y-11732126D01*
X2929062Y-11732126D02*
X2910015Y-11722602D01*
X2910015Y-11722602D02*
X2900491Y-11713078D01*
X2900491Y-11713078D02*
X2890967Y-11694031D01*
X2890967Y-11694031D02*
X2881443Y-11655935D01*
X2881443Y-11655935D02*
X2881443Y-11608316D01*
X2881443Y-11608316D02*
X2890967Y-11570221D01*
X2890967Y-11570221D02*
X2900491Y-11551173D01*
X2900491Y-11551173D02*
X2910015Y-11541650D01*
X2910015Y-11541650D02*
X2929062Y-11532126D01*
X3119539Y-11532126D02*
X3138586Y-11532126D01*
X3138586Y-11532126D02*
X3157634Y-11541650D01*
X3157634Y-11541650D02*
X3167158Y-11551173D01*
X3167158Y-11551173D02*
X3176682Y-11570221D01*
X3176682Y-11570221D02*
X3186205Y-11608316D01*
X3186205Y-11608316D02*
X3186205Y-11655935D01*
X3186205Y-11655935D02*
X3176682Y-11694031D01*
X3176682Y-11694031D02*
X3167158Y-11713078D01*
X3167158Y-11713078D02*
X3157634Y-11722602D01*
X3157634Y-11722602D02*
X3138586Y-11732126D01*
X3138586Y-11732126D02*
X3119539Y-11732126D01*
X3119539Y-11732126D02*
X3100491Y-11722602D01*
X3100491Y-11722602D02*
X3090967Y-11713078D01*
X3090967Y-11713078D02*
X3081443Y-11694031D01*
X3081443Y-11694031D02*
X3071920Y-11655935D01*
X3071920Y-11655935D02*
X3071920Y-11608316D01*
X3071920Y-11608316D02*
X3081443Y-11570221D01*
X3081443Y-11570221D02*
X3090967Y-11551173D01*
X3090967Y-11551173D02*
X3100491Y-11541650D01*
X3100491Y-11541650D02*
X3119539Y-11532126D01*
X3271920Y-11732126D02*
X3271920Y-11598792D01*
X3271920Y-11617840D02*
X3281443Y-11608316D01*
X3281443Y-11608316D02*
X3300491Y-11598792D01*
X3300491Y-11598792D02*
X3329063Y-11598792D01*
X3329063Y-11598792D02*
X3348110Y-11608316D01*
X3348110Y-11608316D02*
X3357634Y-11627364D01*
X3357634Y-11627364D02*
X3357634Y-11732126D01*
X3357634Y-11627364D02*
X3367158Y-11608316D01*
X3367158Y-11608316D02*
X3386205Y-11598792D01*
X3386205Y-11598792D02*
X3414777Y-11598792D01*
X3414777Y-11598792D02*
X3433824Y-11608316D01*
X3433824Y-11608316D02*
X3443348Y-11627364D01*
X3443348Y-11627364D02*
X3443348Y-11732126D01*
X3538586Y-11732126D02*
X3538586Y-11598792D01*
X3538586Y-11617840D02*
X3548110Y-11608316D01*
X3548110Y-11608316D02*
X3567158Y-11598792D01*
X3567158Y-11598792D02*
X3595729Y-11598792D01*
X3595729Y-11598792D02*
X3614777Y-11608316D01*
X3614777Y-11608316D02*
X3624301Y-11627364D01*
X3624301Y-11627364D02*
X3624301Y-11732126D01*
X3624301Y-11627364D02*
X3633824Y-11608316D01*
X3633824Y-11608316D02*
X3652872Y-11598792D01*
X3652872Y-11598792D02*
X3681443Y-11598792D01*
X3681443Y-11598792D02*
X3700491Y-11608316D01*
X3700491Y-11608316D02*
X3710015Y-11627364D01*
X3710015Y-11627364D02*
X3710015Y-11732126D01*
X4100491Y-11522602D02*
X3929063Y-11779745D01*
X4357634Y-11532126D02*
X4376682Y-11532126D01*
X4376682Y-11532126D02*
X4395729Y-11541650D01*
X4395729Y-11541650D02*
X4405253Y-11551173D01*
X4405253Y-11551173D02*
X4414777Y-11570221D01*
X4414777Y-11570221D02*
X4424301Y-11608316D01*
X4424301Y-11608316D02*
X4424301Y-11655935D01*
X4424301Y-11655935D02*
X4414777Y-11694031D01*
X4414777Y-11694031D02*
X4405253Y-11713078D01*
X4405253Y-11713078D02*
X4395729Y-11722602D01*
X4395729Y-11722602D02*
X4376682Y-11732126D01*
X4376682Y-11732126D02*
X4357634Y-11732126D01*
X4357634Y-11732126D02*
X4338587Y-11722602D01*
X4338587Y-11722602D02*
X4329063Y-11713078D01*
X4329063Y-11713078D02*
X4319539Y-11694031D01*
X4319539Y-11694031D02*
X4310015Y-11655935D01*
X4310015Y-11655935D02*
X4310015Y-11608316D01*
X4310015Y-11608316D02*
X4319539Y-11570221D01*
X4319539Y-11570221D02*
X4329063Y-11551173D01*
X4329063Y-11551173D02*
X4338587Y-11541650D01*
X4338587Y-11541650D02*
X4357634Y-11532126D01*
X4510015Y-11713078D02*
X4519539Y-11722602D01*
X4519539Y-11722602D02*
X4510015Y-11732126D01*
X4510015Y-11732126D02*
X4500491Y-11722602D01*
X4500491Y-11722602D02*
X4510015Y-11713078D01*
X4510015Y-11713078D02*
X4510015Y-11732126D01*
X4643348Y-11532126D02*
X4662396Y-11532126D01*
X4662396Y-11532126D02*
X4681444Y-11541650D01*
X4681444Y-11541650D02*
X4690968Y-11551173D01*
X4690968Y-11551173D02*
X4700491Y-11570221D01*
X4700491Y-11570221D02*
X4710015Y-11608316D01*
X4710015Y-11608316D02*
X4710015Y-11655935D01*
X4710015Y-11655935D02*
X4700491Y-11694031D01*
X4700491Y-11694031D02*
X4690968Y-11713078D01*
X4690968Y-11713078D02*
X4681444Y-11722602D01*
X4681444Y-11722602D02*
X4662396Y-11732126D01*
X4662396Y-11732126D02*
X4643348Y-11732126D01*
X4643348Y-11732126D02*
X4624301Y-11722602D01*
X4624301Y-11722602D02*
X4614777Y-11713078D01*
X4614777Y-11713078D02*
X4605253Y-11694031D01*
X4605253Y-11694031D02*
X4595729Y-11655935D01*
X4595729Y-11655935D02*
X4595729Y-11608316D01*
X4595729Y-11608316D02*
X4605253Y-11570221D01*
X4605253Y-11570221D02*
X4614777Y-11551173D01*
X4614777Y-11551173D02*
X4624301Y-11541650D01*
X4624301Y-11541650D02*
X4643348Y-11532126D01*
X4786206Y-11551173D02*
X4795729Y-11541650D01*
X4795729Y-11541650D02*
X4814777Y-11532126D01*
X4814777Y-11532126D02*
X4862396Y-11532126D01*
X4862396Y-11532126D02*
X4881444Y-11541650D01*
X4881444Y-11541650D02*
X4890968Y-11551173D01*
X4890968Y-11551173D02*
X4900491Y-11570221D01*
X4900491Y-11570221D02*
X4900491Y-11589269D01*
X4900491Y-11589269D02*
X4890968Y-11617840D01*
X4890968Y-11617840D02*
X4776682Y-11732126D01*
X4776682Y-11732126D02*
X4900491Y-11732126D01*
X4967158Y-11532126D02*
X5090968Y-11532126D01*
X5090968Y-11532126D02*
X5024301Y-11608316D01*
X5024301Y-11608316D02*
X5052872Y-11608316D01*
X5052872Y-11608316D02*
X5071920Y-11617840D01*
X5071920Y-11617840D02*
X5081444Y-11627364D01*
X5081444Y-11627364D02*
X5090968Y-11646412D01*
X5090968Y-11646412D02*
X5090968Y-11694031D01*
X5090968Y-11694031D02*
X5081444Y-11713078D01*
X5081444Y-11713078D02*
X5071920Y-11722602D01*
X5071920Y-11722602D02*
X5052872Y-11732126D01*
X5052872Y-11732126D02*
X4995729Y-11732126D01*
X4995729Y-11732126D02*
X4976682Y-11722602D01*
X4976682Y-11722602D02*
X4967158Y-11713078D01*
X5262396Y-11532126D02*
X5224301Y-11532126D01*
X5224301Y-11532126D02*
X5205253Y-11541650D01*
X5205253Y-11541650D02*
X5195729Y-11551173D01*
X5195729Y-11551173D02*
X5176682Y-11579745D01*
X5176682Y-11579745D02*
X5167158Y-11617840D01*
X5167158Y-11617840D02*
X5167158Y-11694031D01*
X5167158Y-11694031D02*
X5176682Y-11713078D01*
X5176682Y-11713078D02*
X5186206Y-11722602D01*
X5186206Y-11722602D02*
X5205253Y-11732126D01*
X5205253Y-11732126D02*
X5243349Y-11732126D01*
X5243349Y-11732126D02*
X5262396Y-11722602D01*
X5262396Y-11722602D02*
X5271920Y-11713078D01*
X5271920Y-11713078D02*
X5281444Y-11694031D01*
X5281444Y-11694031D02*
X5281444Y-11646412D01*
X5281444Y-11646412D02*
X5271920Y-11627364D01*
X5271920Y-11627364D02*
X5262396Y-11617840D01*
X5262396Y-11617840D02*
X5243349Y-11608316D01*
X5243349Y-11608316D02*
X5205253Y-11608316D01*
X5205253Y-11608316D02*
X5186206Y-11617840D01*
X5186206Y-11617840D02*
X5176682Y-11627364D01*
X5176682Y-11627364D02*
X5167158Y-11646412D01*
X5357634Y-11532126D02*
X5357634Y-11570221D01*
X5433825Y-11532126D02*
X5433825Y-11570221D01*
X5729063Y-11808316D02*
X5719539Y-11798792D01*
X5719539Y-11798792D02*
X5700491Y-11770221D01*
X5700491Y-11770221D02*
X5690968Y-11751173D01*
X5690968Y-11751173D02*
X5681444Y-11722602D01*
X5681444Y-11722602D02*
X5671920Y-11674983D01*
X5671920Y-11674983D02*
X5671920Y-11636888D01*
X5671920Y-11636888D02*
X5681444Y-11589269D01*
X5681444Y-11589269D02*
X5690968Y-11560697D01*
X5690968Y-11560697D02*
X5700491Y-11541650D01*
X5700491Y-11541650D02*
X5719539Y-11513078D01*
X5719539Y-11513078D02*
X5729063Y-11503554D01*
X5890968Y-11532126D02*
X5852872Y-11532126D01*
X5852872Y-11532126D02*
X5833825Y-11541650D01*
X5833825Y-11541650D02*
X5824301Y-11551173D01*
X5824301Y-11551173D02*
X5805253Y-11579745D01*
X5805253Y-11579745D02*
X5795729Y-11617840D01*
X5795729Y-11617840D02*
X5795729Y-11694031D01*
X5795729Y-11694031D02*
X5805253Y-11713078D01*
X5805253Y-11713078D02*
X5814777Y-11722602D01*
X5814777Y-11722602D02*
X5833825Y-11732126D01*
X5833825Y-11732126D02*
X5871920Y-11732126D01*
X5871920Y-11732126D02*
X5890968Y-11722602D01*
X5890968Y-11722602D02*
X5900491Y-11713078D01*
X5900491Y-11713078D02*
X5910015Y-11694031D01*
X5910015Y-11694031D02*
X5910015Y-11646412D01*
X5910015Y-11646412D02*
X5900491Y-11627364D01*
X5900491Y-11627364D02*
X5890968Y-11617840D01*
X5890968Y-11617840D02*
X5871920Y-11608316D01*
X5871920Y-11608316D02*
X5833825Y-11608316D01*
X5833825Y-11608316D02*
X5814777Y-11617840D01*
X5814777Y-11617840D02*
X5805253Y-11627364D01*
X5805253Y-11627364D02*
X5795729Y-11646412D01*
X6148110Y-11732126D02*
X6148110Y-11532126D01*
X6233825Y-11732126D02*
X6233825Y-11627364D01*
X6233825Y-11627364D02*
X6224301Y-11608316D01*
X6224301Y-11608316D02*
X6205253Y-11598792D01*
X6205253Y-11598792D02*
X6176682Y-11598792D01*
X6176682Y-11598792D02*
X6157634Y-11608316D01*
X6157634Y-11608316D02*
X6148110Y-11617840D01*
X6357634Y-11732126D02*
X6338587Y-11722602D01*
X6338587Y-11722602D02*
X6329063Y-11713078D01*
X6329063Y-11713078D02*
X6319539Y-11694031D01*
X6319539Y-11694031D02*
X6319539Y-11636888D01*
X6319539Y-11636888D02*
X6329063Y-11617840D01*
X6329063Y-11617840D02*
X6338587Y-11608316D01*
X6338587Y-11608316D02*
X6357634Y-11598792D01*
X6357634Y-11598792D02*
X6386206Y-11598792D01*
X6386206Y-11598792D02*
X6405253Y-11608316D01*
X6405253Y-11608316D02*
X6414777Y-11617840D01*
X6414777Y-11617840D02*
X6424301Y-11636888D01*
X6424301Y-11636888D02*
X6424301Y-11694031D01*
X6424301Y-11694031D02*
X6414777Y-11713078D01*
X6414777Y-11713078D02*
X6405253Y-11722602D01*
X6405253Y-11722602D02*
X6386206Y-11732126D01*
X6386206Y-11732126D02*
X6357634Y-11732126D01*
X6538587Y-11732126D02*
X6519539Y-11722602D01*
X6519539Y-11722602D02*
X6510015Y-11703554D01*
X6510015Y-11703554D02*
X6510015Y-11532126D01*
X6690968Y-11722602D02*
X6671920Y-11732126D01*
X6671920Y-11732126D02*
X6633825Y-11732126D01*
X6633825Y-11732126D02*
X6614777Y-11722602D01*
X6614777Y-11722602D02*
X6605253Y-11703554D01*
X6605253Y-11703554D02*
X6605253Y-11627364D01*
X6605253Y-11627364D02*
X6614777Y-11608316D01*
X6614777Y-11608316D02*
X6633825Y-11598792D01*
X6633825Y-11598792D02*
X6671920Y-11598792D01*
X6671920Y-11598792D02*
X6690968Y-11608316D01*
X6690968Y-11608316D02*
X6700491Y-11627364D01*
X6700491Y-11627364D02*
X6700491Y-11646412D01*
X6700491Y-11646412D02*
X6605253Y-11665459D01*
X6776682Y-11722602D02*
X6795730Y-11732126D01*
X6795730Y-11732126D02*
X6833825Y-11732126D01*
X6833825Y-11732126D02*
X6852872Y-11722602D01*
X6852872Y-11722602D02*
X6862396Y-11703554D01*
X6862396Y-11703554D02*
X6862396Y-11694031D01*
X6862396Y-11694031D02*
X6852872Y-11674983D01*
X6852872Y-11674983D02*
X6833825Y-11665459D01*
X6833825Y-11665459D02*
X6805253Y-11665459D01*
X6805253Y-11665459D02*
X6786206Y-11655935D01*
X6786206Y-11655935D02*
X6776682Y-11636888D01*
X6776682Y-11636888D02*
X6776682Y-11627364D01*
X6776682Y-11627364D02*
X6786206Y-11608316D01*
X6786206Y-11608316D02*
X6805253Y-11598792D01*
X6805253Y-11598792D02*
X6833825Y-11598792D01*
X6833825Y-11598792D02*
X6852872Y-11608316D01*
X6929063Y-11808316D02*
X6938587Y-11798792D01*
X6938587Y-11798792D02*
X6957634Y-11770221D01*
X6957634Y-11770221D02*
X6967158Y-11751173D01*
X6967158Y-11751173D02*
X6976682Y-11722602D01*
X6976682Y-11722602D02*
X6986206Y-11674983D01*
X6986206Y-11674983D02*
X6986206Y-11636888D01*
X6986206Y-11636888D02*
X6976682Y-11589269D01*
X6976682Y-11589269D02*
X6967158Y-11560697D01*
X6967158Y-11560697D02*
X6957634Y-11541650D01*
X6957634Y-11541650D02*
X6938587Y-11513078D01*
X6938587Y-11513078D02*
X6929063Y-11503554D01*
D14*
X2119000Y-11869642D02*
X2119000Y-11939642D01*
X2084000Y-11904642D02*
X2154000Y-11904642D01*
D11*
X2452872Y-11796126D02*
X2471920Y-11796126D01*
X2471920Y-11796126D02*
X2490967Y-11805650D01*
X2490967Y-11805650D02*
X2500491Y-11815173D01*
X2500491Y-11815173D02*
X2510015Y-11834221D01*
X2510015Y-11834221D02*
X2519539Y-11872316D01*
X2519539Y-11872316D02*
X2519539Y-11919935D01*
X2519539Y-11919935D02*
X2510015Y-11958031D01*
X2510015Y-11958031D02*
X2500491Y-11977078D01*
X2500491Y-11977078D02*
X2490967Y-11986602D01*
X2490967Y-11986602D02*
X2471920Y-11996126D01*
X2471920Y-11996126D02*
X2452872Y-11996126D01*
X2452872Y-11996126D02*
X2433824Y-11986602D01*
X2433824Y-11986602D02*
X2424301Y-11977078D01*
X2424301Y-11977078D02*
X2414777Y-11958031D01*
X2414777Y-11958031D02*
X2405253Y-11919935D01*
X2405253Y-11919935D02*
X2405253Y-11872316D01*
X2405253Y-11872316D02*
X2414777Y-11834221D01*
X2414777Y-11834221D02*
X2424301Y-11815173D01*
X2424301Y-11815173D02*
X2433824Y-11805650D01*
X2433824Y-11805650D02*
X2452872Y-11796126D01*
X2605253Y-11977078D02*
X2614777Y-11986602D01*
X2614777Y-11986602D02*
X2605253Y-11996126D01*
X2605253Y-11996126D02*
X2595729Y-11986602D01*
X2595729Y-11986602D02*
X2605253Y-11977078D01*
X2605253Y-11977078D02*
X2605253Y-11996126D01*
X2681444Y-11796126D02*
X2814777Y-11796126D01*
X2814777Y-11796126D02*
X2729063Y-11996126D01*
X2929062Y-11796126D02*
X2948110Y-11796126D01*
X2948110Y-11796126D02*
X2967158Y-11805650D01*
X2967158Y-11805650D02*
X2976682Y-11815173D01*
X2976682Y-11815173D02*
X2986205Y-11834221D01*
X2986205Y-11834221D02*
X2995729Y-11872316D01*
X2995729Y-11872316D02*
X2995729Y-11919935D01*
X2995729Y-11919935D02*
X2986205Y-11958031D01*
X2986205Y-11958031D02*
X2976682Y-11977078D01*
X2976682Y-11977078D02*
X2967158Y-11986602D01*
X2967158Y-11986602D02*
X2948110Y-11996126D01*
X2948110Y-11996126D02*
X2929062Y-11996126D01*
X2929062Y-11996126D02*
X2910015Y-11986602D01*
X2910015Y-11986602D02*
X2900491Y-11977078D01*
X2900491Y-11977078D02*
X2890967Y-11958031D01*
X2890967Y-11958031D02*
X2881443Y-11919935D01*
X2881443Y-11919935D02*
X2881443Y-11872316D01*
X2881443Y-11872316D02*
X2890967Y-11834221D01*
X2890967Y-11834221D02*
X2900491Y-11815173D01*
X2900491Y-11815173D02*
X2910015Y-11805650D01*
X2910015Y-11805650D02*
X2929062Y-11796126D01*
X3119539Y-11796126D02*
X3138586Y-11796126D01*
X3138586Y-11796126D02*
X3157634Y-11805650D01*
X3157634Y-11805650D02*
X3167158Y-11815173D01*
X3167158Y-11815173D02*
X3176682Y-11834221D01*
X3176682Y-11834221D02*
X3186205Y-11872316D01*
X3186205Y-11872316D02*
X3186205Y-11919935D01*
X3186205Y-11919935D02*
X3176682Y-11958031D01*
X3176682Y-11958031D02*
X3167158Y-11977078D01*
X3167158Y-11977078D02*
X3157634Y-11986602D01*
X3157634Y-11986602D02*
X3138586Y-11996126D01*
X3138586Y-11996126D02*
X3119539Y-11996126D01*
X3119539Y-11996126D02*
X3100491Y-11986602D01*
X3100491Y-11986602D02*
X3090967Y-11977078D01*
X3090967Y-11977078D02*
X3081443Y-11958031D01*
X3081443Y-11958031D02*
X3071920Y-11919935D01*
X3071920Y-11919935D02*
X3071920Y-11872316D01*
X3071920Y-11872316D02*
X3081443Y-11834221D01*
X3081443Y-11834221D02*
X3090967Y-11815173D01*
X3090967Y-11815173D02*
X3100491Y-11805650D01*
X3100491Y-11805650D02*
X3119539Y-11796126D01*
X3271920Y-11996126D02*
X3271920Y-11862792D01*
X3271920Y-11881840D02*
X3281443Y-11872316D01*
X3281443Y-11872316D02*
X3300491Y-11862792D01*
X3300491Y-11862792D02*
X3329063Y-11862792D01*
X3329063Y-11862792D02*
X3348110Y-11872316D01*
X3348110Y-11872316D02*
X3357634Y-11891364D01*
X3357634Y-11891364D02*
X3357634Y-11996126D01*
X3357634Y-11891364D02*
X3367158Y-11872316D01*
X3367158Y-11872316D02*
X3386205Y-11862792D01*
X3386205Y-11862792D02*
X3414777Y-11862792D01*
X3414777Y-11862792D02*
X3433824Y-11872316D01*
X3433824Y-11872316D02*
X3443348Y-11891364D01*
X3443348Y-11891364D02*
X3443348Y-11996126D01*
X3538586Y-11996126D02*
X3538586Y-11862792D01*
X3538586Y-11881840D02*
X3548110Y-11872316D01*
X3548110Y-11872316D02*
X3567158Y-11862792D01*
X3567158Y-11862792D02*
X3595729Y-11862792D01*
X3595729Y-11862792D02*
X3614777Y-11872316D01*
X3614777Y-11872316D02*
X3624301Y-11891364D01*
X3624301Y-11891364D02*
X3624301Y-11996126D01*
X3624301Y-11891364D02*
X3633824Y-11872316D01*
X3633824Y-11872316D02*
X3652872Y-11862792D01*
X3652872Y-11862792D02*
X3681443Y-11862792D01*
X3681443Y-11862792D02*
X3700491Y-11872316D01*
X3700491Y-11872316D02*
X3710015Y-11891364D01*
X3710015Y-11891364D02*
X3710015Y-11996126D01*
X4100491Y-11786602D02*
X3929063Y-12043745D01*
X4357634Y-11796126D02*
X4376682Y-11796126D01*
X4376682Y-11796126D02*
X4395729Y-11805650D01*
X4395729Y-11805650D02*
X4405253Y-11815173D01*
X4405253Y-11815173D02*
X4414777Y-11834221D01*
X4414777Y-11834221D02*
X4424301Y-11872316D01*
X4424301Y-11872316D02*
X4424301Y-11919935D01*
X4424301Y-11919935D02*
X4414777Y-11958031D01*
X4414777Y-11958031D02*
X4405253Y-11977078D01*
X4405253Y-11977078D02*
X4395729Y-11986602D01*
X4395729Y-11986602D02*
X4376682Y-11996126D01*
X4376682Y-11996126D02*
X4357634Y-11996126D01*
X4357634Y-11996126D02*
X4338587Y-11986602D01*
X4338587Y-11986602D02*
X4329063Y-11977078D01*
X4329063Y-11977078D02*
X4319539Y-11958031D01*
X4319539Y-11958031D02*
X4310015Y-11919935D01*
X4310015Y-11919935D02*
X4310015Y-11872316D01*
X4310015Y-11872316D02*
X4319539Y-11834221D01*
X4319539Y-11834221D02*
X4329063Y-11815173D01*
X4329063Y-11815173D02*
X4338587Y-11805650D01*
X4338587Y-11805650D02*
X4357634Y-11796126D01*
X4510015Y-11977078D02*
X4519539Y-11986602D01*
X4519539Y-11986602D02*
X4510015Y-11996126D01*
X4510015Y-11996126D02*
X4500491Y-11986602D01*
X4500491Y-11986602D02*
X4510015Y-11977078D01*
X4510015Y-11977078D02*
X4510015Y-11996126D01*
X4643348Y-11796126D02*
X4662396Y-11796126D01*
X4662396Y-11796126D02*
X4681444Y-11805650D01*
X4681444Y-11805650D02*
X4690968Y-11815173D01*
X4690968Y-11815173D02*
X4700491Y-11834221D01*
X4700491Y-11834221D02*
X4710015Y-11872316D01*
X4710015Y-11872316D02*
X4710015Y-11919935D01*
X4710015Y-11919935D02*
X4700491Y-11958031D01*
X4700491Y-11958031D02*
X4690968Y-11977078D01*
X4690968Y-11977078D02*
X4681444Y-11986602D01*
X4681444Y-11986602D02*
X4662396Y-11996126D01*
X4662396Y-11996126D02*
X4643348Y-11996126D01*
X4643348Y-11996126D02*
X4624301Y-11986602D01*
X4624301Y-11986602D02*
X4614777Y-11977078D01*
X4614777Y-11977078D02*
X4605253Y-11958031D01*
X4605253Y-11958031D02*
X4595729Y-11919935D01*
X4595729Y-11919935D02*
X4595729Y-11872316D01*
X4595729Y-11872316D02*
X4605253Y-11834221D01*
X4605253Y-11834221D02*
X4614777Y-11815173D01*
X4614777Y-11815173D02*
X4624301Y-11805650D01*
X4624301Y-11805650D02*
X4643348Y-11796126D01*
X4786206Y-11815173D02*
X4795729Y-11805650D01*
X4795729Y-11805650D02*
X4814777Y-11796126D01*
X4814777Y-11796126D02*
X4862396Y-11796126D01*
X4862396Y-11796126D02*
X4881444Y-11805650D01*
X4881444Y-11805650D02*
X4890968Y-11815173D01*
X4890968Y-11815173D02*
X4900491Y-11834221D01*
X4900491Y-11834221D02*
X4900491Y-11853269D01*
X4900491Y-11853269D02*
X4890968Y-11881840D01*
X4890968Y-11881840D02*
X4776682Y-11996126D01*
X4776682Y-11996126D02*
X4900491Y-11996126D01*
X4967158Y-11796126D02*
X5100491Y-11796126D01*
X5100491Y-11796126D02*
X5014777Y-11996126D01*
X5262396Y-11796126D02*
X5224301Y-11796126D01*
X5224301Y-11796126D02*
X5205253Y-11805650D01*
X5205253Y-11805650D02*
X5195729Y-11815173D01*
X5195729Y-11815173D02*
X5176682Y-11843745D01*
X5176682Y-11843745D02*
X5167158Y-11881840D01*
X5167158Y-11881840D02*
X5167158Y-11958031D01*
X5167158Y-11958031D02*
X5176682Y-11977078D01*
X5176682Y-11977078D02*
X5186206Y-11986602D01*
X5186206Y-11986602D02*
X5205253Y-11996126D01*
X5205253Y-11996126D02*
X5243349Y-11996126D01*
X5243349Y-11996126D02*
X5262396Y-11986602D01*
X5262396Y-11986602D02*
X5271920Y-11977078D01*
X5271920Y-11977078D02*
X5281444Y-11958031D01*
X5281444Y-11958031D02*
X5281444Y-11910412D01*
X5281444Y-11910412D02*
X5271920Y-11891364D01*
X5271920Y-11891364D02*
X5262396Y-11881840D01*
X5262396Y-11881840D02*
X5243349Y-11872316D01*
X5243349Y-11872316D02*
X5205253Y-11872316D01*
X5205253Y-11872316D02*
X5186206Y-11881840D01*
X5186206Y-11881840D02*
X5176682Y-11891364D01*
X5176682Y-11891364D02*
X5167158Y-11910412D01*
X5357634Y-11796126D02*
X5357634Y-11834221D01*
X5433825Y-11796126D02*
X5433825Y-11834221D01*
X5729063Y-12072316D02*
X5719539Y-12062792D01*
X5719539Y-12062792D02*
X5700491Y-12034221D01*
X5700491Y-12034221D02*
X5690968Y-12015173D01*
X5690968Y-12015173D02*
X5681444Y-11986602D01*
X5681444Y-11986602D02*
X5671920Y-11938983D01*
X5671920Y-11938983D02*
X5671920Y-11900888D01*
X5671920Y-11900888D02*
X5681444Y-11853269D01*
X5681444Y-11853269D02*
X5690968Y-11824697D01*
X5690968Y-11824697D02*
X5700491Y-11805650D01*
X5700491Y-11805650D02*
X5719539Y-11777078D01*
X5719539Y-11777078D02*
X5729063Y-11767554D01*
X5786206Y-11796126D02*
X5910015Y-11796126D01*
X5910015Y-11796126D02*
X5843348Y-11872316D01*
X5843348Y-11872316D02*
X5871920Y-11872316D01*
X5871920Y-11872316D02*
X5890968Y-11881840D01*
X5890968Y-11881840D02*
X5900491Y-11891364D01*
X5900491Y-11891364D02*
X5910015Y-11910412D01*
X5910015Y-11910412D02*
X5910015Y-11958031D01*
X5910015Y-11958031D02*
X5900491Y-11977078D01*
X5900491Y-11977078D02*
X5890968Y-11986602D01*
X5890968Y-11986602D02*
X5871920Y-11996126D01*
X5871920Y-11996126D02*
X5814777Y-11996126D01*
X5814777Y-11996126D02*
X5795729Y-11986602D01*
X5795729Y-11986602D02*
X5786206Y-11977078D01*
X6081444Y-11862792D02*
X6081444Y-11996126D01*
X6033825Y-11786602D02*
X5986206Y-11929459D01*
X5986206Y-11929459D02*
X6110015Y-11929459D01*
X6338587Y-11996126D02*
X6338587Y-11796126D01*
X6424301Y-11996126D02*
X6424301Y-11891364D01*
X6424301Y-11891364D02*
X6414777Y-11872316D01*
X6414777Y-11872316D02*
X6395730Y-11862792D01*
X6395730Y-11862792D02*
X6367158Y-11862792D01*
X6367158Y-11862792D02*
X6348110Y-11872316D01*
X6348110Y-11872316D02*
X6338587Y-11881840D01*
X6548110Y-11996126D02*
X6529063Y-11986602D01*
X6529063Y-11986602D02*
X6519539Y-11977078D01*
X6519539Y-11977078D02*
X6510015Y-11958031D01*
X6510015Y-11958031D02*
X6510015Y-11900888D01*
X6510015Y-11900888D02*
X6519539Y-11881840D01*
X6519539Y-11881840D02*
X6529063Y-11872316D01*
X6529063Y-11872316D02*
X6548110Y-11862792D01*
X6548110Y-11862792D02*
X6576682Y-11862792D01*
X6576682Y-11862792D02*
X6595730Y-11872316D01*
X6595730Y-11872316D02*
X6605253Y-11881840D01*
X6605253Y-11881840D02*
X6614777Y-11900888D01*
X6614777Y-11900888D02*
X6614777Y-11958031D01*
X6614777Y-11958031D02*
X6605253Y-11977078D01*
X6605253Y-11977078D02*
X6595730Y-11986602D01*
X6595730Y-11986602D02*
X6576682Y-11996126D01*
X6576682Y-11996126D02*
X6548110Y-11996126D01*
X6729063Y-11996126D02*
X6710015Y-11986602D01*
X6710015Y-11986602D02*
X6700491Y-11967554D01*
X6700491Y-11967554D02*
X6700491Y-11796126D01*
X6881444Y-11986602D02*
X6862396Y-11996126D01*
X6862396Y-11996126D02*
X6824301Y-11996126D01*
X6824301Y-11996126D02*
X6805253Y-11986602D01*
X6805253Y-11986602D02*
X6795730Y-11967554D01*
X6795730Y-11967554D02*
X6795730Y-11891364D01*
X6795730Y-11891364D02*
X6805253Y-11872316D01*
X6805253Y-11872316D02*
X6824301Y-11862792D01*
X6824301Y-11862792D02*
X6862396Y-11862792D01*
X6862396Y-11862792D02*
X6881444Y-11872316D01*
X6881444Y-11872316D02*
X6890968Y-11891364D01*
X6890968Y-11891364D02*
X6890968Y-11910412D01*
X6890968Y-11910412D02*
X6795730Y-11929459D01*
X6967158Y-11986602D02*
X6986206Y-11996126D01*
X6986206Y-11996126D02*
X7024301Y-11996126D01*
X7024301Y-11996126D02*
X7043349Y-11986602D01*
X7043349Y-11986602D02*
X7052872Y-11967554D01*
X7052872Y-11967554D02*
X7052872Y-11958031D01*
X7052872Y-11958031D02*
X7043349Y-11938983D01*
X7043349Y-11938983D02*
X7024301Y-11929459D01*
X7024301Y-11929459D02*
X6995730Y-11929459D01*
X6995730Y-11929459D02*
X6976682Y-11919935D01*
X6976682Y-11919935D02*
X6967158Y-11900888D01*
X6967158Y-11900888D02*
X6967158Y-11891364D01*
X6967158Y-11891364D02*
X6976682Y-11872316D01*
X6976682Y-11872316D02*
X6995730Y-11862792D01*
X6995730Y-11862792D02*
X7024301Y-11862792D01*
X7024301Y-11862792D02*
X7043349Y-11872316D01*
X7119539Y-12072316D02*
X7129063Y-12062792D01*
X7129063Y-12062792D02*
X7148111Y-12034221D01*
X7148111Y-12034221D02*
X7157634Y-12015173D01*
X7157634Y-12015173D02*
X7167158Y-11986602D01*
X7167158Y-11986602D02*
X7176682Y-11938983D01*
X7176682Y-11938983D02*
X7176682Y-11900888D01*
X7176682Y-11900888D02*
X7167158Y-11853269D01*
X7167158Y-11853269D02*
X7157634Y-11824697D01*
X7157634Y-11824697D02*
X7148111Y-11805650D01*
X7148111Y-11805650D02*
X7129063Y-11777078D01*
X7129063Y-11777078D02*
X7119539Y-11767554D01*
D15*
X2142285Y-12196927D02*
X2142285Y-12140358D01*
X2085715Y-12140358D01*
X2085715Y-12196927D01*
X2142285Y-12196927D01*
D11*
X2452872Y-12060126D02*
X2471920Y-12060126D01*
X2471920Y-12060126D02*
X2490967Y-12069650D01*
X2490967Y-12069650D02*
X2500491Y-12079173D01*
X2500491Y-12079173D02*
X2510015Y-12098221D01*
X2510015Y-12098221D02*
X2519539Y-12136316D01*
X2519539Y-12136316D02*
X2519539Y-12183935D01*
X2519539Y-12183935D02*
X2510015Y-12222031D01*
X2510015Y-12222031D02*
X2500491Y-12241078D01*
X2500491Y-12241078D02*
X2490967Y-12250602D01*
X2490967Y-12250602D02*
X2471920Y-12260126D01*
X2471920Y-12260126D02*
X2452872Y-12260126D01*
X2452872Y-12260126D02*
X2433824Y-12250602D01*
X2433824Y-12250602D02*
X2424301Y-12241078D01*
X2424301Y-12241078D02*
X2414777Y-12222031D01*
X2414777Y-12222031D02*
X2405253Y-12183935D01*
X2405253Y-12183935D02*
X2405253Y-12136316D01*
X2405253Y-12136316D02*
X2414777Y-12098221D01*
X2414777Y-12098221D02*
X2424301Y-12079173D01*
X2424301Y-12079173D02*
X2433824Y-12069650D01*
X2433824Y-12069650D02*
X2452872Y-12060126D01*
X2605253Y-12241078D02*
X2614777Y-12250602D01*
X2614777Y-12250602D02*
X2605253Y-12260126D01*
X2605253Y-12260126D02*
X2595729Y-12250602D01*
X2595729Y-12250602D02*
X2605253Y-12241078D01*
X2605253Y-12241078D02*
X2605253Y-12260126D01*
X2729063Y-12145840D02*
X2710015Y-12136316D01*
X2710015Y-12136316D02*
X2700491Y-12126792D01*
X2700491Y-12126792D02*
X2690967Y-12107745D01*
X2690967Y-12107745D02*
X2690967Y-12098221D01*
X2690967Y-12098221D02*
X2700491Y-12079173D01*
X2700491Y-12079173D02*
X2710015Y-12069650D01*
X2710015Y-12069650D02*
X2729063Y-12060126D01*
X2729063Y-12060126D02*
X2767158Y-12060126D01*
X2767158Y-12060126D02*
X2786205Y-12069650D01*
X2786205Y-12069650D02*
X2795729Y-12079173D01*
X2795729Y-12079173D02*
X2805253Y-12098221D01*
X2805253Y-12098221D02*
X2805253Y-12107745D01*
X2805253Y-12107745D02*
X2795729Y-12126792D01*
X2795729Y-12126792D02*
X2786205Y-12136316D01*
X2786205Y-12136316D02*
X2767158Y-12145840D01*
X2767158Y-12145840D02*
X2729063Y-12145840D01*
X2729063Y-12145840D02*
X2710015Y-12155364D01*
X2710015Y-12155364D02*
X2700491Y-12164888D01*
X2700491Y-12164888D02*
X2690967Y-12183935D01*
X2690967Y-12183935D02*
X2690967Y-12222031D01*
X2690967Y-12222031D02*
X2700491Y-12241078D01*
X2700491Y-12241078D02*
X2710015Y-12250602D01*
X2710015Y-12250602D02*
X2729063Y-12260126D01*
X2729063Y-12260126D02*
X2767158Y-12260126D01*
X2767158Y-12260126D02*
X2786205Y-12250602D01*
X2786205Y-12250602D02*
X2795729Y-12241078D01*
X2795729Y-12241078D02*
X2805253Y-12222031D01*
X2805253Y-12222031D02*
X2805253Y-12183935D01*
X2805253Y-12183935D02*
X2795729Y-12164888D01*
X2795729Y-12164888D02*
X2786205Y-12155364D01*
X2786205Y-12155364D02*
X2767158Y-12145840D01*
X2929062Y-12060126D02*
X2948110Y-12060126D01*
X2948110Y-12060126D02*
X2967158Y-12069650D01*
X2967158Y-12069650D02*
X2976682Y-12079173D01*
X2976682Y-12079173D02*
X2986205Y-12098221D01*
X2986205Y-12098221D02*
X2995729Y-12136316D01*
X2995729Y-12136316D02*
X2995729Y-12183935D01*
X2995729Y-12183935D02*
X2986205Y-12222031D01*
X2986205Y-12222031D02*
X2976682Y-12241078D01*
X2976682Y-12241078D02*
X2967158Y-12250602D01*
X2967158Y-12250602D02*
X2948110Y-12260126D01*
X2948110Y-12260126D02*
X2929062Y-12260126D01*
X2929062Y-12260126D02*
X2910015Y-12250602D01*
X2910015Y-12250602D02*
X2900491Y-12241078D01*
X2900491Y-12241078D02*
X2890967Y-12222031D01*
X2890967Y-12222031D02*
X2881443Y-12183935D01*
X2881443Y-12183935D02*
X2881443Y-12136316D01*
X2881443Y-12136316D02*
X2890967Y-12098221D01*
X2890967Y-12098221D02*
X2900491Y-12079173D01*
X2900491Y-12079173D02*
X2910015Y-12069650D01*
X2910015Y-12069650D02*
X2929062Y-12060126D01*
X3119539Y-12060126D02*
X3138586Y-12060126D01*
X3138586Y-12060126D02*
X3157634Y-12069650D01*
X3157634Y-12069650D02*
X3167158Y-12079173D01*
X3167158Y-12079173D02*
X3176682Y-12098221D01*
X3176682Y-12098221D02*
X3186205Y-12136316D01*
X3186205Y-12136316D02*
X3186205Y-12183935D01*
X3186205Y-12183935D02*
X3176682Y-12222031D01*
X3176682Y-12222031D02*
X3167158Y-12241078D01*
X3167158Y-12241078D02*
X3157634Y-12250602D01*
X3157634Y-12250602D02*
X3138586Y-12260126D01*
X3138586Y-12260126D02*
X3119539Y-12260126D01*
X3119539Y-12260126D02*
X3100491Y-12250602D01*
X3100491Y-12250602D02*
X3090967Y-12241078D01*
X3090967Y-12241078D02*
X3081443Y-12222031D01*
X3081443Y-12222031D02*
X3071920Y-12183935D01*
X3071920Y-12183935D02*
X3071920Y-12136316D01*
X3071920Y-12136316D02*
X3081443Y-12098221D01*
X3081443Y-12098221D02*
X3090967Y-12079173D01*
X3090967Y-12079173D02*
X3100491Y-12069650D01*
X3100491Y-12069650D02*
X3119539Y-12060126D01*
X3271920Y-12260126D02*
X3271920Y-12126792D01*
X3271920Y-12145840D02*
X3281443Y-12136316D01*
X3281443Y-12136316D02*
X3300491Y-12126792D01*
X3300491Y-12126792D02*
X3329063Y-12126792D01*
X3329063Y-12126792D02*
X3348110Y-12136316D01*
X3348110Y-12136316D02*
X3357634Y-12155364D01*
X3357634Y-12155364D02*
X3357634Y-12260126D01*
X3357634Y-12155364D02*
X3367158Y-12136316D01*
X3367158Y-12136316D02*
X3386205Y-12126792D01*
X3386205Y-12126792D02*
X3414777Y-12126792D01*
X3414777Y-12126792D02*
X3433824Y-12136316D01*
X3433824Y-12136316D02*
X3443348Y-12155364D01*
X3443348Y-12155364D02*
X3443348Y-12260126D01*
X3538586Y-12260126D02*
X3538586Y-12126792D01*
X3538586Y-12145840D02*
X3548110Y-12136316D01*
X3548110Y-12136316D02*
X3567158Y-12126792D01*
X3567158Y-12126792D02*
X3595729Y-12126792D01*
X3595729Y-12126792D02*
X3614777Y-12136316D01*
X3614777Y-12136316D02*
X3624301Y-12155364D01*
X3624301Y-12155364D02*
X3624301Y-12260126D01*
X3624301Y-12155364D02*
X3633824Y-12136316D01*
X3633824Y-12136316D02*
X3652872Y-12126792D01*
X3652872Y-12126792D02*
X3681443Y-12126792D01*
X3681443Y-12126792D02*
X3700491Y-12136316D01*
X3700491Y-12136316D02*
X3710015Y-12155364D01*
X3710015Y-12155364D02*
X3710015Y-12260126D01*
X4100491Y-12050602D02*
X3929063Y-12307745D01*
X4357634Y-12060126D02*
X4376682Y-12060126D01*
X4376682Y-12060126D02*
X4395729Y-12069650D01*
X4395729Y-12069650D02*
X4405253Y-12079173D01*
X4405253Y-12079173D02*
X4414777Y-12098221D01*
X4414777Y-12098221D02*
X4424301Y-12136316D01*
X4424301Y-12136316D02*
X4424301Y-12183935D01*
X4424301Y-12183935D02*
X4414777Y-12222031D01*
X4414777Y-12222031D02*
X4405253Y-12241078D01*
X4405253Y-12241078D02*
X4395729Y-12250602D01*
X4395729Y-12250602D02*
X4376682Y-12260126D01*
X4376682Y-12260126D02*
X4357634Y-12260126D01*
X4357634Y-12260126D02*
X4338587Y-12250602D01*
X4338587Y-12250602D02*
X4329063Y-12241078D01*
X4329063Y-12241078D02*
X4319539Y-12222031D01*
X4319539Y-12222031D02*
X4310015Y-12183935D01*
X4310015Y-12183935D02*
X4310015Y-12136316D01*
X4310015Y-12136316D02*
X4319539Y-12098221D01*
X4319539Y-12098221D02*
X4329063Y-12079173D01*
X4329063Y-12079173D02*
X4338587Y-12069650D01*
X4338587Y-12069650D02*
X4357634Y-12060126D01*
X4510015Y-12241078D02*
X4519539Y-12250602D01*
X4519539Y-12250602D02*
X4510015Y-12260126D01*
X4510015Y-12260126D02*
X4500491Y-12250602D01*
X4500491Y-12250602D02*
X4510015Y-12241078D01*
X4510015Y-12241078D02*
X4510015Y-12260126D01*
X4643348Y-12060126D02*
X4662396Y-12060126D01*
X4662396Y-12060126D02*
X4681444Y-12069650D01*
X4681444Y-12069650D02*
X4690968Y-12079173D01*
X4690968Y-12079173D02*
X4700491Y-12098221D01*
X4700491Y-12098221D02*
X4710015Y-12136316D01*
X4710015Y-12136316D02*
X4710015Y-12183935D01*
X4710015Y-12183935D02*
X4700491Y-12222031D01*
X4700491Y-12222031D02*
X4690968Y-12241078D01*
X4690968Y-12241078D02*
X4681444Y-12250602D01*
X4681444Y-12250602D02*
X4662396Y-12260126D01*
X4662396Y-12260126D02*
X4643348Y-12260126D01*
X4643348Y-12260126D02*
X4624301Y-12250602D01*
X4624301Y-12250602D02*
X4614777Y-12241078D01*
X4614777Y-12241078D02*
X4605253Y-12222031D01*
X4605253Y-12222031D02*
X4595729Y-12183935D01*
X4595729Y-12183935D02*
X4595729Y-12136316D01*
X4595729Y-12136316D02*
X4605253Y-12098221D01*
X4605253Y-12098221D02*
X4614777Y-12079173D01*
X4614777Y-12079173D02*
X4624301Y-12069650D01*
X4624301Y-12069650D02*
X4643348Y-12060126D01*
X4776682Y-12060126D02*
X4900491Y-12060126D01*
X4900491Y-12060126D02*
X4833825Y-12136316D01*
X4833825Y-12136316D02*
X4862396Y-12136316D01*
X4862396Y-12136316D02*
X4881444Y-12145840D01*
X4881444Y-12145840D02*
X4890968Y-12155364D01*
X4890968Y-12155364D02*
X4900491Y-12174412D01*
X4900491Y-12174412D02*
X4900491Y-12222031D01*
X4900491Y-12222031D02*
X4890968Y-12241078D01*
X4890968Y-12241078D02*
X4881444Y-12250602D01*
X4881444Y-12250602D02*
X4862396Y-12260126D01*
X4862396Y-12260126D02*
X4805253Y-12260126D01*
X4805253Y-12260126D02*
X4786206Y-12250602D01*
X4786206Y-12250602D02*
X4776682Y-12241078D01*
X5090968Y-12260126D02*
X4976682Y-12260126D01*
X5033825Y-12260126D02*
X5033825Y-12060126D01*
X5033825Y-12060126D02*
X5014777Y-12088697D01*
X5014777Y-12088697D02*
X4995729Y-12107745D01*
X4995729Y-12107745D02*
X4976682Y-12117269D01*
X5271920Y-12060126D02*
X5176682Y-12060126D01*
X5176682Y-12060126D02*
X5167158Y-12155364D01*
X5167158Y-12155364D02*
X5176682Y-12145840D01*
X5176682Y-12145840D02*
X5195729Y-12136316D01*
X5195729Y-12136316D02*
X5243349Y-12136316D01*
X5243349Y-12136316D02*
X5262396Y-12145840D01*
X5262396Y-12145840D02*
X5271920Y-12155364D01*
X5271920Y-12155364D02*
X5281444Y-12174412D01*
X5281444Y-12174412D02*
X5281444Y-12222031D01*
X5281444Y-12222031D02*
X5271920Y-12241078D01*
X5271920Y-12241078D02*
X5262396Y-12250602D01*
X5262396Y-12250602D02*
X5243349Y-12260126D01*
X5243349Y-12260126D02*
X5195729Y-12260126D01*
X5195729Y-12260126D02*
X5176682Y-12250602D01*
X5176682Y-12250602D02*
X5167158Y-12241078D01*
X5357634Y-12060126D02*
X5357634Y-12098221D01*
X5433825Y-12060126D02*
X5433825Y-12098221D01*
X5729063Y-12336316D02*
X5719539Y-12326792D01*
X5719539Y-12326792D02*
X5700491Y-12298221D01*
X5700491Y-12298221D02*
X5690968Y-12279173D01*
X5690968Y-12279173D02*
X5681444Y-12250602D01*
X5681444Y-12250602D02*
X5671920Y-12202983D01*
X5671920Y-12202983D02*
X5671920Y-12164888D01*
X5671920Y-12164888D02*
X5681444Y-12117269D01*
X5681444Y-12117269D02*
X5690968Y-12088697D01*
X5690968Y-12088697D02*
X5700491Y-12069650D01*
X5700491Y-12069650D02*
X5719539Y-12041078D01*
X5719539Y-12041078D02*
X5729063Y-12031554D01*
X5890968Y-12126792D02*
X5890968Y-12260126D01*
X5843348Y-12050602D02*
X5795729Y-12193459D01*
X5795729Y-12193459D02*
X5919539Y-12193459D01*
X6081444Y-12060126D02*
X6043348Y-12060126D01*
X6043348Y-12060126D02*
X6024301Y-12069650D01*
X6024301Y-12069650D02*
X6014777Y-12079173D01*
X6014777Y-12079173D02*
X5995729Y-12107745D01*
X5995729Y-12107745D02*
X5986206Y-12145840D01*
X5986206Y-12145840D02*
X5986206Y-12222031D01*
X5986206Y-12222031D02*
X5995729Y-12241078D01*
X5995729Y-12241078D02*
X6005253Y-12250602D01*
X6005253Y-12250602D02*
X6024301Y-12260126D01*
X6024301Y-12260126D02*
X6062396Y-12260126D01*
X6062396Y-12260126D02*
X6081444Y-12250602D01*
X6081444Y-12250602D02*
X6090968Y-12241078D01*
X6090968Y-12241078D02*
X6100491Y-12222031D01*
X6100491Y-12222031D02*
X6100491Y-12174412D01*
X6100491Y-12174412D02*
X6090968Y-12155364D01*
X6090968Y-12155364D02*
X6081444Y-12145840D01*
X6081444Y-12145840D02*
X6062396Y-12136316D01*
X6062396Y-12136316D02*
X6024301Y-12136316D01*
X6024301Y-12136316D02*
X6005253Y-12145840D01*
X6005253Y-12145840D02*
X5995729Y-12155364D01*
X5995729Y-12155364D02*
X5986206Y-12174412D01*
X6338587Y-12260126D02*
X6338587Y-12060126D01*
X6424301Y-12260126D02*
X6424301Y-12155364D01*
X6424301Y-12155364D02*
X6414777Y-12136316D01*
X6414777Y-12136316D02*
X6395730Y-12126792D01*
X6395730Y-12126792D02*
X6367158Y-12126792D01*
X6367158Y-12126792D02*
X6348110Y-12136316D01*
X6348110Y-12136316D02*
X6338587Y-12145840D01*
X6548110Y-12260126D02*
X6529063Y-12250602D01*
X6529063Y-12250602D02*
X6519539Y-12241078D01*
X6519539Y-12241078D02*
X6510015Y-12222031D01*
X6510015Y-12222031D02*
X6510015Y-12164888D01*
X6510015Y-12164888D02*
X6519539Y-12145840D01*
X6519539Y-12145840D02*
X6529063Y-12136316D01*
X6529063Y-12136316D02*
X6548110Y-12126792D01*
X6548110Y-12126792D02*
X6576682Y-12126792D01*
X6576682Y-12126792D02*
X6595730Y-12136316D01*
X6595730Y-12136316D02*
X6605253Y-12145840D01*
X6605253Y-12145840D02*
X6614777Y-12164888D01*
X6614777Y-12164888D02*
X6614777Y-12222031D01*
X6614777Y-12222031D02*
X6605253Y-12241078D01*
X6605253Y-12241078D02*
X6595730Y-12250602D01*
X6595730Y-12250602D02*
X6576682Y-12260126D01*
X6576682Y-12260126D02*
X6548110Y-12260126D01*
X6729063Y-12260126D02*
X6710015Y-12250602D01*
X6710015Y-12250602D02*
X6700491Y-12231554D01*
X6700491Y-12231554D02*
X6700491Y-12060126D01*
X6881444Y-12250602D02*
X6862396Y-12260126D01*
X6862396Y-12260126D02*
X6824301Y-12260126D01*
X6824301Y-12260126D02*
X6805253Y-12250602D01*
X6805253Y-12250602D02*
X6795730Y-12231554D01*
X6795730Y-12231554D02*
X6795730Y-12155364D01*
X6795730Y-12155364D02*
X6805253Y-12136316D01*
X6805253Y-12136316D02*
X6824301Y-12126792D01*
X6824301Y-12126792D02*
X6862396Y-12126792D01*
X6862396Y-12126792D02*
X6881444Y-12136316D01*
X6881444Y-12136316D02*
X6890968Y-12155364D01*
X6890968Y-12155364D02*
X6890968Y-12174412D01*
X6890968Y-12174412D02*
X6795730Y-12193459D01*
X6967158Y-12250602D02*
X6986206Y-12260126D01*
X6986206Y-12260126D02*
X7024301Y-12260126D01*
X7024301Y-12260126D02*
X7043349Y-12250602D01*
X7043349Y-12250602D02*
X7052872Y-12231554D01*
X7052872Y-12231554D02*
X7052872Y-12222031D01*
X7052872Y-12222031D02*
X7043349Y-12202983D01*
X7043349Y-12202983D02*
X7024301Y-12193459D01*
X7024301Y-12193459D02*
X6995730Y-12193459D01*
X6995730Y-12193459D02*
X6976682Y-12183935D01*
X6976682Y-12183935D02*
X6967158Y-12164888D01*
X6967158Y-12164888D02*
X6967158Y-12155364D01*
X6967158Y-12155364D02*
X6976682Y-12136316D01*
X6976682Y-12136316D02*
X6995730Y-12126792D01*
X6995730Y-12126792D02*
X7024301Y-12126792D01*
X7024301Y-12126792D02*
X7043349Y-12136316D01*
X7119539Y-12336316D02*
X7129063Y-12326792D01*
X7129063Y-12326792D02*
X7148111Y-12298221D01*
X7148111Y-12298221D02*
X7157634Y-12279173D01*
X7157634Y-12279173D02*
X7167158Y-12250602D01*
X7167158Y-12250602D02*
X7176682Y-12202983D01*
X7176682Y-12202983D02*
X7176682Y-12164888D01*
X7176682Y-12164888D02*
X7167158Y-12117269D01*
X7167158Y-12117269D02*
X7157634Y-12088697D01*
X7157634Y-12088697D02*
X7148111Y-12069650D01*
X7148111Y-12069650D02*
X7129063Y-12041078D01*
X7129063Y-12041078D02*
X7119539Y-12031554D01*
D10*
X2104000Y-12482642D02*
X2154000Y-12432642D01*
X2104000Y-12382642D01*
X2054000Y-12432642D01*
X2104000Y-12482642D01*
D11*
X2519539Y-12524126D02*
X2405253Y-12524126D01*
X2462396Y-12524126D02*
X2462396Y-12324126D01*
X2462396Y-12324126D02*
X2443348Y-12352697D01*
X2443348Y-12352697D02*
X2424301Y-12371745D01*
X2424301Y-12371745D02*
X2405253Y-12381269D01*
X2605253Y-12505078D02*
X2614777Y-12514602D01*
X2614777Y-12514602D02*
X2605253Y-12524126D01*
X2605253Y-12524126D02*
X2595729Y-12514602D01*
X2595729Y-12514602D02*
X2605253Y-12505078D01*
X2605253Y-12505078D02*
X2605253Y-12524126D01*
X2738586Y-12324126D02*
X2757634Y-12324126D01*
X2757634Y-12324126D02*
X2776682Y-12333650D01*
X2776682Y-12333650D02*
X2786205Y-12343173D01*
X2786205Y-12343173D02*
X2795729Y-12362221D01*
X2795729Y-12362221D02*
X2805253Y-12400316D01*
X2805253Y-12400316D02*
X2805253Y-12447935D01*
X2805253Y-12447935D02*
X2795729Y-12486031D01*
X2795729Y-12486031D02*
X2786205Y-12505078D01*
X2786205Y-12505078D02*
X2776682Y-12514602D01*
X2776682Y-12514602D02*
X2757634Y-12524126D01*
X2757634Y-12524126D02*
X2738586Y-12524126D01*
X2738586Y-12524126D02*
X2719539Y-12514602D01*
X2719539Y-12514602D02*
X2710015Y-12505078D01*
X2710015Y-12505078D02*
X2700491Y-12486031D01*
X2700491Y-12486031D02*
X2690967Y-12447935D01*
X2690967Y-12447935D02*
X2690967Y-12400316D01*
X2690967Y-12400316D02*
X2700491Y-12362221D01*
X2700491Y-12362221D02*
X2710015Y-12343173D01*
X2710015Y-12343173D02*
X2719539Y-12333650D01*
X2719539Y-12333650D02*
X2738586Y-12324126D01*
X2929062Y-12324126D02*
X2948110Y-12324126D01*
X2948110Y-12324126D02*
X2967158Y-12333650D01*
X2967158Y-12333650D02*
X2976682Y-12343173D01*
X2976682Y-12343173D02*
X2986205Y-12362221D01*
X2986205Y-12362221D02*
X2995729Y-12400316D01*
X2995729Y-12400316D02*
X2995729Y-12447935D01*
X2995729Y-12447935D02*
X2986205Y-12486031D01*
X2986205Y-12486031D02*
X2976682Y-12505078D01*
X2976682Y-12505078D02*
X2967158Y-12514602D01*
X2967158Y-12514602D02*
X2948110Y-12524126D01*
X2948110Y-12524126D02*
X2929062Y-12524126D01*
X2929062Y-12524126D02*
X2910015Y-12514602D01*
X2910015Y-12514602D02*
X2900491Y-12505078D01*
X2900491Y-12505078D02*
X2890967Y-12486031D01*
X2890967Y-12486031D02*
X2881443Y-12447935D01*
X2881443Y-12447935D02*
X2881443Y-12400316D01*
X2881443Y-12400316D02*
X2890967Y-12362221D01*
X2890967Y-12362221D02*
X2900491Y-12343173D01*
X2900491Y-12343173D02*
X2910015Y-12333650D01*
X2910015Y-12333650D02*
X2929062Y-12324126D01*
X3119539Y-12324126D02*
X3138586Y-12324126D01*
X3138586Y-12324126D02*
X3157634Y-12333650D01*
X3157634Y-12333650D02*
X3167158Y-12343173D01*
X3167158Y-12343173D02*
X3176682Y-12362221D01*
X3176682Y-12362221D02*
X3186205Y-12400316D01*
X3186205Y-12400316D02*
X3186205Y-12447935D01*
X3186205Y-12447935D02*
X3176682Y-12486031D01*
X3176682Y-12486031D02*
X3167158Y-12505078D01*
X3167158Y-12505078D02*
X3157634Y-12514602D01*
X3157634Y-12514602D02*
X3138586Y-12524126D01*
X3138586Y-12524126D02*
X3119539Y-12524126D01*
X3119539Y-12524126D02*
X3100491Y-12514602D01*
X3100491Y-12514602D02*
X3090967Y-12505078D01*
X3090967Y-12505078D02*
X3081443Y-12486031D01*
X3081443Y-12486031D02*
X3071920Y-12447935D01*
X3071920Y-12447935D02*
X3071920Y-12400316D01*
X3071920Y-12400316D02*
X3081443Y-12362221D01*
X3081443Y-12362221D02*
X3090967Y-12343173D01*
X3090967Y-12343173D02*
X3100491Y-12333650D01*
X3100491Y-12333650D02*
X3119539Y-12324126D01*
X3271920Y-12524126D02*
X3271920Y-12390792D01*
X3271920Y-12409840D02*
X3281443Y-12400316D01*
X3281443Y-12400316D02*
X3300491Y-12390792D01*
X3300491Y-12390792D02*
X3329063Y-12390792D01*
X3329063Y-12390792D02*
X3348110Y-12400316D01*
X3348110Y-12400316D02*
X3357634Y-12419364D01*
X3357634Y-12419364D02*
X3357634Y-12524126D01*
X3357634Y-12419364D02*
X3367158Y-12400316D01*
X3367158Y-12400316D02*
X3386205Y-12390792D01*
X3386205Y-12390792D02*
X3414777Y-12390792D01*
X3414777Y-12390792D02*
X3433824Y-12400316D01*
X3433824Y-12400316D02*
X3443348Y-12419364D01*
X3443348Y-12419364D02*
X3443348Y-12524126D01*
X3538586Y-12524126D02*
X3538586Y-12390792D01*
X3538586Y-12409840D02*
X3548110Y-12400316D01*
X3548110Y-12400316D02*
X3567158Y-12390792D01*
X3567158Y-12390792D02*
X3595729Y-12390792D01*
X3595729Y-12390792D02*
X3614777Y-12400316D01*
X3614777Y-12400316D02*
X3624301Y-12419364D01*
X3624301Y-12419364D02*
X3624301Y-12524126D01*
X3624301Y-12419364D02*
X3633824Y-12400316D01*
X3633824Y-12400316D02*
X3652872Y-12390792D01*
X3652872Y-12390792D02*
X3681443Y-12390792D01*
X3681443Y-12390792D02*
X3700491Y-12400316D01*
X3700491Y-12400316D02*
X3710015Y-12419364D01*
X3710015Y-12419364D02*
X3710015Y-12524126D01*
X4100491Y-12314602D02*
X3929063Y-12571745D01*
X4357634Y-12324126D02*
X4376682Y-12324126D01*
X4376682Y-12324126D02*
X4395729Y-12333650D01*
X4395729Y-12333650D02*
X4405253Y-12343173D01*
X4405253Y-12343173D02*
X4414777Y-12362221D01*
X4414777Y-12362221D02*
X4424301Y-12400316D01*
X4424301Y-12400316D02*
X4424301Y-12447935D01*
X4424301Y-12447935D02*
X4414777Y-12486031D01*
X4414777Y-12486031D02*
X4405253Y-12505078D01*
X4405253Y-12505078D02*
X4395729Y-12514602D01*
X4395729Y-12514602D02*
X4376682Y-12524126D01*
X4376682Y-12524126D02*
X4357634Y-12524126D01*
X4357634Y-12524126D02*
X4338587Y-12514602D01*
X4338587Y-12514602D02*
X4329063Y-12505078D01*
X4329063Y-12505078D02*
X4319539Y-12486031D01*
X4319539Y-12486031D02*
X4310015Y-12447935D01*
X4310015Y-12447935D02*
X4310015Y-12400316D01*
X4310015Y-12400316D02*
X4319539Y-12362221D01*
X4319539Y-12362221D02*
X4329063Y-12343173D01*
X4329063Y-12343173D02*
X4338587Y-12333650D01*
X4338587Y-12333650D02*
X4357634Y-12324126D01*
X4510015Y-12505078D02*
X4519539Y-12514602D01*
X4519539Y-12514602D02*
X4510015Y-12524126D01*
X4510015Y-12524126D02*
X4500491Y-12514602D01*
X4500491Y-12514602D02*
X4510015Y-12505078D01*
X4510015Y-12505078D02*
X4510015Y-12524126D01*
X4643348Y-12324126D02*
X4662396Y-12324126D01*
X4662396Y-12324126D02*
X4681444Y-12333650D01*
X4681444Y-12333650D02*
X4690968Y-12343173D01*
X4690968Y-12343173D02*
X4700491Y-12362221D01*
X4700491Y-12362221D02*
X4710015Y-12400316D01*
X4710015Y-12400316D02*
X4710015Y-12447935D01*
X4710015Y-12447935D02*
X4700491Y-12486031D01*
X4700491Y-12486031D02*
X4690968Y-12505078D01*
X4690968Y-12505078D02*
X4681444Y-12514602D01*
X4681444Y-12514602D02*
X4662396Y-12524126D01*
X4662396Y-12524126D02*
X4643348Y-12524126D01*
X4643348Y-12524126D02*
X4624301Y-12514602D01*
X4624301Y-12514602D02*
X4614777Y-12505078D01*
X4614777Y-12505078D02*
X4605253Y-12486031D01*
X4605253Y-12486031D02*
X4595729Y-12447935D01*
X4595729Y-12447935D02*
X4595729Y-12400316D01*
X4595729Y-12400316D02*
X4605253Y-12362221D01*
X4605253Y-12362221D02*
X4614777Y-12343173D01*
X4614777Y-12343173D02*
X4624301Y-12333650D01*
X4624301Y-12333650D02*
X4643348Y-12324126D01*
X4776682Y-12324126D02*
X4900491Y-12324126D01*
X4900491Y-12324126D02*
X4833825Y-12400316D01*
X4833825Y-12400316D02*
X4862396Y-12400316D01*
X4862396Y-12400316D02*
X4881444Y-12409840D01*
X4881444Y-12409840D02*
X4890968Y-12419364D01*
X4890968Y-12419364D02*
X4900491Y-12438412D01*
X4900491Y-12438412D02*
X4900491Y-12486031D01*
X4900491Y-12486031D02*
X4890968Y-12505078D01*
X4890968Y-12505078D02*
X4881444Y-12514602D01*
X4881444Y-12514602D02*
X4862396Y-12524126D01*
X4862396Y-12524126D02*
X4805253Y-12524126D01*
X4805253Y-12524126D02*
X4786206Y-12514602D01*
X4786206Y-12514602D02*
X4776682Y-12505078D01*
X4995729Y-12524126D02*
X5033825Y-12524126D01*
X5033825Y-12524126D02*
X5052872Y-12514602D01*
X5052872Y-12514602D02*
X5062396Y-12505078D01*
X5062396Y-12505078D02*
X5081444Y-12476507D01*
X5081444Y-12476507D02*
X5090968Y-12438412D01*
X5090968Y-12438412D02*
X5090968Y-12362221D01*
X5090968Y-12362221D02*
X5081444Y-12343173D01*
X5081444Y-12343173D02*
X5071920Y-12333650D01*
X5071920Y-12333650D02*
X5052872Y-12324126D01*
X5052872Y-12324126D02*
X5014777Y-12324126D01*
X5014777Y-12324126D02*
X4995729Y-12333650D01*
X4995729Y-12333650D02*
X4986206Y-12343173D01*
X4986206Y-12343173D02*
X4976682Y-12362221D01*
X4976682Y-12362221D02*
X4976682Y-12409840D01*
X4976682Y-12409840D02*
X4986206Y-12428888D01*
X4986206Y-12428888D02*
X4995729Y-12438412D01*
X4995729Y-12438412D02*
X5014777Y-12447935D01*
X5014777Y-12447935D02*
X5052872Y-12447935D01*
X5052872Y-12447935D02*
X5071920Y-12438412D01*
X5071920Y-12438412D02*
X5081444Y-12428888D01*
X5081444Y-12428888D02*
X5090968Y-12409840D01*
X5262396Y-12390792D02*
X5262396Y-12524126D01*
X5214777Y-12314602D02*
X5167158Y-12457459D01*
X5167158Y-12457459D02*
X5290968Y-12457459D01*
X5357634Y-12324126D02*
X5357634Y-12362221D01*
X5433825Y-12324126D02*
X5433825Y-12362221D01*
X5729063Y-12600316D02*
X5719539Y-12590792D01*
X5719539Y-12590792D02*
X5700491Y-12562221D01*
X5700491Y-12562221D02*
X5690968Y-12543173D01*
X5690968Y-12543173D02*
X5681444Y-12514602D01*
X5681444Y-12514602D02*
X5671920Y-12466983D01*
X5671920Y-12466983D02*
X5671920Y-12428888D01*
X5671920Y-12428888D02*
X5681444Y-12381269D01*
X5681444Y-12381269D02*
X5690968Y-12352697D01*
X5690968Y-12352697D02*
X5700491Y-12333650D01*
X5700491Y-12333650D02*
X5719539Y-12305078D01*
X5719539Y-12305078D02*
X5729063Y-12295554D01*
X5910015Y-12524126D02*
X5795729Y-12524126D01*
X5852872Y-12524126D02*
X5852872Y-12324126D01*
X5852872Y-12324126D02*
X5833825Y-12352697D01*
X5833825Y-12352697D02*
X5814777Y-12371745D01*
X5814777Y-12371745D02*
X5795729Y-12381269D01*
X5986206Y-12343173D02*
X5995729Y-12333650D01*
X5995729Y-12333650D02*
X6014777Y-12324126D01*
X6014777Y-12324126D02*
X6062396Y-12324126D01*
X6062396Y-12324126D02*
X6081444Y-12333650D01*
X6081444Y-12333650D02*
X6090968Y-12343173D01*
X6090968Y-12343173D02*
X6100491Y-12362221D01*
X6100491Y-12362221D02*
X6100491Y-12381269D01*
X6100491Y-12381269D02*
X6090968Y-12409840D01*
X6090968Y-12409840D02*
X5976682Y-12524126D01*
X5976682Y-12524126D02*
X6100491Y-12524126D01*
X6338587Y-12524126D02*
X6338587Y-12324126D01*
X6424301Y-12524126D02*
X6424301Y-12419364D01*
X6424301Y-12419364D02*
X6414777Y-12400316D01*
X6414777Y-12400316D02*
X6395730Y-12390792D01*
X6395730Y-12390792D02*
X6367158Y-12390792D01*
X6367158Y-12390792D02*
X6348110Y-12400316D01*
X6348110Y-12400316D02*
X6338587Y-12409840D01*
X6548110Y-12524126D02*
X6529063Y-12514602D01*
X6529063Y-12514602D02*
X6519539Y-12505078D01*
X6519539Y-12505078D02*
X6510015Y-12486031D01*
X6510015Y-12486031D02*
X6510015Y-12428888D01*
X6510015Y-12428888D02*
X6519539Y-12409840D01*
X6519539Y-12409840D02*
X6529063Y-12400316D01*
X6529063Y-12400316D02*
X6548110Y-12390792D01*
X6548110Y-12390792D02*
X6576682Y-12390792D01*
X6576682Y-12390792D02*
X6595730Y-12400316D01*
X6595730Y-12400316D02*
X6605253Y-12409840D01*
X6605253Y-12409840D02*
X6614777Y-12428888D01*
X6614777Y-12428888D02*
X6614777Y-12486031D01*
X6614777Y-12486031D02*
X6605253Y-12505078D01*
X6605253Y-12505078D02*
X6595730Y-12514602D01*
X6595730Y-12514602D02*
X6576682Y-12524126D01*
X6576682Y-12524126D02*
X6548110Y-12524126D01*
X6729063Y-12524126D02*
X6710015Y-12514602D01*
X6710015Y-12514602D02*
X6700491Y-12495554D01*
X6700491Y-12495554D02*
X6700491Y-12324126D01*
X6881444Y-12514602D02*
X6862396Y-12524126D01*
X6862396Y-12524126D02*
X6824301Y-12524126D01*
X6824301Y-12524126D02*
X6805253Y-12514602D01*
X6805253Y-12514602D02*
X6795730Y-12495554D01*
X6795730Y-12495554D02*
X6795730Y-12419364D01*
X6795730Y-12419364D02*
X6805253Y-12400316D01*
X6805253Y-12400316D02*
X6824301Y-12390792D01*
X6824301Y-12390792D02*
X6862396Y-12390792D01*
X6862396Y-12390792D02*
X6881444Y-12400316D01*
X6881444Y-12400316D02*
X6890968Y-12419364D01*
X6890968Y-12419364D02*
X6890968Y-12438412D01*
X6890968Y-12438412D02*
X6795730Y-12457459D01*
X6967158Y-12514602D02*
X6986206Y-12524126D01*
X6986206Y-12524126D02*
X7024301Y-12524126D01*
X7024301Y-12524126D02*
X7043349Y-12514602D01*
X7043349Y-12514602D02*
X7052872Y-12495554D01*
X7052872Y-12495554D02*
X7052872Y-12486031D01*
X7052872Y-12486031D02*
X7043349Y-12466983D01*
X7043349Y-12466983D02*
X7024301Y-12457459D01*
X7024301Y-12457459D02*
X6995730Y-12457459D01*
X6995730Y-12457459D02*
X6976682Y-12447935D01*
X6976682Y-12447935D02*
X6967158Y-12428888D01*
X6967158Y-12428888D02*
X6967158Y-12419364D01*
X6967158Y-12419364D02*
X6976682Y-12400316D01*
X6976682Y-12400316D02*
X6995730Y-12390792D01*
X6995730Y-12390792D02*
X7024301Y-12390792D01*
X7024301Y-12390792D02*
X7043349Y-12400316D01*
X7290968Y-12447935D02*
X7443349Y-12447935D01*
X7367158Y-12524126D02*
X7367158Y-12371745D01*
X7671920Y-12324126D02*
X7795730Y-12324126D01*
X7795730Y-12324126D02*
X7729063Y-12400316D01*
X7729063Y-12400316D02*
X7757634Y-12400316D01*
X7757634Y-12400316D02*
X7776682Y-12409840D01*
X7776682Y-12409840D02*
X7786206Y-12419364D01*
X7786206Y-12419364D02*
X7795730Y-12438412D01*
X7795730Y-12438412D02*
X7795730Y-12486031D01*
X7795730Y-12486031D02*
X7786206Y-12505078D01*
X7786206Y-12505078D02*
X7776682Y-12514602D01*
X7776682Y-12514602D02*
X7757634Y-12524126D01*
X7757634Y-12524126D02*
X7700492Y-12524126D01*
X7700492Y-12524126D02*
X7681444Y-12514602D01*
X7681444Y-12514602D02*
X7671920Y-12505078D01*
X8024301Y-12514602D02*
X8043349Y-12524126D01*
X8043349Y-12524126D02*
X8081444Y-12524126D01*
X8081444Y-12524126D02*
X8100492Y-12514602D01*
X8100492Y-12514602D02*
X8110015Y-12495554D01*
X8110015Y-12495554D02*
X8110015Y-12486031D01*
X8110015Y-12486031D02*
X8100492Y-12466983D01*
X8100492Y-12466983D02*
X8081444Y-12457459D01*
X8081444Y-12457459D02*
X8052873Y-12457459D01*
X8052873Y-12457459D02*
X8033825Y-12447935D01*
X8033825Y-12447935D02*
X8024301Y-12428888D01*
X8024301Y-12428888D02*
X8024301Y-12419364D01*
X8024301Y-12419364D02*
X8033825Y-12400316D01*
X8033825Y-12400316D02*
X8052873Y-12390792D01*
X8052873Y-12390792D02*
X8081444Y-12390792D01*
X8081444Y-12390792D02*
X8100492Y-12400316D01*
X8224301Y-12524126D02*
X8205254Y-12514602D01*
X8205254Y-12514602D02*
X8195730Y-12495554D01*
X8195730Y-12495554D02*
X8195730Y-12324126D01*
X8329063Y-12524126D02*
X8310015Y-12514602D01*
X8310015Y-12514602D02*
X8300492Y-12505078D01*
X8300492Y-12505078D02*
X8290968Y-12486031D01*
X8290968Y-12486031D02*
X8290968Y-12428888D01*
X8290968Y-12428888D02*
X8300492Y-12409840D01*
X8300492Y-12409840D02*
X8310015Y-12400316D01*
X8310015Y-12400316D02*
X8329063Y-12390792D01*
X8329063Y-12390792D02*
X8357635Y-12390792D01*
X8357635Y-12390792D02*
X8376682Y-12400316D01*
X8376682Y-12400316D02*
X8386206Y-12409840D01*
X8386206Y-12409840D02*
X8395730Y-12428888D01*
X8395730Y-12428888D02*
X8395730Y-12486031D01*
X8395730Y-12486031D02*
X8386206Y-12505078D01*
X8386206Y-12505078D02*
X8376682Y-12514602D01*
X8376682Y-12514602D02*
X8357635Y-12524126D01*
X8357635Y-12524126D02*
X8329063Y-12524126D01*
X8452873Y-12390792D02*
X8529063Y-12390792D01*
X8481444Y-12324126D02*
X8481444Y-12495554D01*
X8481444Y-12495554D02*
X8490968Y-12514602D01*
X8490968Y-12514602D02*
X8510016Y-12524126D01*
X8510016Y-12524126D02*
X8529063Y-12524126D01*
X8586206Y-12514602D02*
X8605254Y-12524126D01*
X8605254Y-12524126D02*
X8643349Y-12524126D01*
X8643349Y-12524126D02*
X8662397Y-12514602D01*
X8662397Y-12514602D02*
X8671920Y-12495554D01*
X8671920Y-12495554D02*
X8671920Y-12486031D01*
X8671920Y-12486031D02*
X8662397Y-12466983D01*
X8662397Y-12466983D02*
X8643349Y-12457459D01*
X8643349Y-12457459D02*
X8614777Y-12457459D01*
X8614777Y-12457459D02*
X8595730Y-12447935D01*
X8595730Y-12447935D02*
X8586206Y-12428888D01*
X8586206Y-12428888D02*
X8586206Y-12419364D01*
X8586206Y-12419364D02*
X8595730Y-12400316D01*
X8595730Y-12400316D02*
X8614777Y-12390792D01*
X8614777Y-12390792D02*
X8643349Y-12390792D01*
X8643349Y-12390792D02*
X8662397Y-12400316D01*
X8738587Y-12600316D02*
X8748111Y-12590792D01*
X8748111Y-12590792D02*
X8767158Y-12562221D01*
X8767158Y-12562221D02*
X8776682Y-12543173D01*
X8776682Y-12543173D02*
X8786206Y-12514602D01*
X8786206Y-12514602D02*
X8795730Y-12466983D01*
X8795730Y-12466983D02*
X8795730Y-12428888D01*
X8795730Y-12428888D02*
X8786206Y-12381269D01*
X8786206Y-12381269D02*
X8776682Y-12352697D01*
X8776682Y-12352697D02*
X8767158Y-12333650D01*
X8767158Y-12333650D02*
X8748111Y-12305078D01*
X8748111Y-12305078D02*
X8738587Y-12295554D01*
D16*
X2044000Y-12641642D02*
X2154000Y-12751642D01*
X2154000Y-12641642D02*
X2044000Y-12751642D01*
X2154000Y-12696642D02*
G75*
G03*
X2154000Y-12696642I-55000J0D01*
G01*
D11*
X2519539Y-12788126D02*
X2405253Y-12788126D01*
X2462396Y-12788126D02*
X2462396Y-12588126D01*
X2462396Y-12588126D02*
X2443348Y-12616697D01*
X2443348Y-12616697D02*
X2424301Y-12635745D01*
X2424301Y-12635745D02*
X2405253Y-12645269D01*
X2605253Y-12769078D02*
X2614777Y-12778602D01*
X2614777Y-12778602D02*
X2605253Y-12788126D01*
X2605253Y-12788126D02*
X2595729Y-12778602D01*
X2595729Y-12778602D02*
X2605253Y-12769078D01*
X2605253Y-12769078D02*
X2605253Y-12788126D01*
X2805253Y-12788126D02*
X2690967Y-12788126D01*
X2748110Y-12788126D02*
X2748110Y-12588126D01*
X2748110Y-12588126D02*
X2729063Y-12616697D01*
X2729063Y-12616697D02*
X2710015Y-12635745D01*
X2710015Y-12635745D02*
X2690967Y-12645269D01*
X2929062Y-12588126D02*
X2948110Y-12588126D01*
X2948110Y-12588126D02*
X2967158Y-12597650D01*
X2967158Y-12597650D02*
X2976682Y-12607173D01*
X2976682Y-12607173D02*
X2986205Y-12626221D01*
X2986205Y-12626221D02*
X2995729Y-12664316D01*
X2995729Y-12664316D02*
X2995729Y-12711935D01*
X2995729Y-12711935D02*
X2986205Y-12750031D01*
X2986205Y-12750031D02*
X2976682Y-12769078D01*
X2976682Y-12769078D02*
X2967158Y-12778602D01*
X2967158Y-12778602D02*
X2948110Y-12788126D01*
X2948110Y-12788126D02*
X2929062Y-12788126D01*
X2929062Y-12788126D02*
X2910015Y-12778602D01*
X2910015Y-12778602D02*
X2900491Y-12769078D01*
X2900491Y-12769078D02*
X2890967Y-12750031D01*
X2890967Y-12750031D02*
X2881443Y-12711935D01*
X2881443Y-12711935D02*
X2881443Y-12664316D01*
X2881443Y-12664316D02*
X2890967Y-12626221D01*
X2890967Y-12626221D02*
X2900491Y-12607173D01*
X2900491Y-12607173D02*
X2910015Y-12597650D01*
X2910015Y-12597650D02*
X2929062Y-12588126D01*
X3119539Y-12588126D02*
X3138586Y-12588126D01*
X3138586Y-12588126D02*
X3157634Y-12597650D01*
X3157634Y-12597650D02*
X3167158Y-12607173D01*
X3167158Y-12607173D02*
X3176682Y-12626221D01*
X3176682Y-12626221D02*
X3186205Y-12664316D01*
X3186205Y-12664316D02*
X3186205Y-12711935D01*
X3186205Y-12711935D02*
X3176682Y-12750031D01*
X3176682Y-12750031D02*
X3167158Y-12769078D01*
X3167158Y-12769078D02*
X3157634Y-12778602D01*
X3157634Y-12778602D02*
X3138586Y-12788126D01*
X3138586Y-12788126D02*
X3119539Y-12788126D01*
X3119539Y-12788126D02*
X3100491Y-12778602D01*
X3100491Y-12778602D02*
X3090967Y-12769078D01*
X3090967Y-12769078D02*
X3081443Y-12750031D01*
X3081443Y-12750031D02*
X3071920Y-12711935D01*
X3071920Y-12711935D02*
X3071920Y-12664316D01*
X3071920Y-12664316D02*
X3081443Y-12626221D01*
X3081443Y-12626221D02*
X3090967Y-12607173D01*
X3090967Y-12607173D02*
X3100491Y-12597650D01*
X3100491Y-12597650D02*
X3119539Y-12588126D01*
X3271920Y-12788126D02*
X3271920Y-12654792D01*
X3271920Y-12673840D02*
X3281443Y-12664316D01*
X3281443Y-12664316D02*
X3300491Y-12654792D01*
X3300491Y-12654792D02*
X3329063Y-12654792D01*
X3329063Y-12654792D02*
X3348110Y-12664316D01*
X3348110Y-12664316D02*
X3357634Y-12683364D01*
X3357634Y-12683364D02*
X3357634Y-12788126D01*
X3357634Y-12683364D02*
X3367158Y-12664316D01*
X3367158Y-12664316D02*
X3386205Y-12654792D01*
X3386205Y-12654792D02*
X3414777Y-12654792D01*
X3414777Y-12654792D02*
X3433824Y-12664316D01*
X3433824Y-12664316D02*
X3443348Y-12683364D01*
X3443348Y-12683364D02*
X3443348Y-12788126D01*
X3538586Y-12788126D02*
X3538586Y-12654792D01*
X3538586Y-12673840D02*
X3548110Y-12664316D01*
X3548110Y-12664316D02*
X3567158Y-12654792D01*
X3567158Y-12654792D02*
X3595729Y-12654792D01*
X3595729Y-12654792D02*
X3614777Y-12664316D01*
X3614777Y-12664316D02*
X3624301Y-12683364D01*
X3624301Y-12683364D02*
X3624301Y-12788126D01*
X3624301Y-12683364D02*
X3633824Y-12664316D01*
X3633824Y-12664316D02*
X3652872Y-12654792D01*
X3652872Y-12654792D02*
X3681443Y-12654792D01*
X3681443Y-12654792D02*
X3700491Y-12664316D01*
X3700491Y-12664316D02*
X3710015Y-12683364D01*
X3710015Y-12683364D02*
X3710015Y-12788126D01*
X4100491Y-12578602D02*
X3929063Y-12835745D01*
X4357634Y-12588126D02*
X4376682Y-12588126D01*
X4376682Y-12588126D02*
X4395729Y-12597650D01*
X4395729Y-12597650D02*
X4405253Y-12607173D01*
X4405253Y-12607173D02*
X4414777Y-12626221D01*
X4414777Y-12626221D02*
X4424301Y-12664316D01*
X4424301Y-12664316D02*
X4424301Y-12711935D01*
X4424301Y-12711935D02*
X4414777Y-12750031D01*
X4414777Y-12750031D02*
X4405253Y-12769078D01*
X4405253Y-12769078D02*
X4395729Y-12778602D01*
X4395729Y-12778602D02*
X4376682Y-12788126D01*
X4376682Y-12788126D02*
X4357634Y-12788126D01*
X4357634Y-12788126D02*
X4338587Y-12778602D01*
X4338587Y-12778602D02*
X4329063Y-12769078D01*
X4329063Y-12769078D02*
X4319539Y-12750031D01*
X4319539Y-12750031D02*
X4310015Y-12711935D01*
X4310015Y-12711935D02*
X4310015Y-12664316D01*
X4310015Y-12664316D02*
X4319539Y-12626221D01*
X4319539Y-12626221D02*
X4329063Y-12607173D01*
X4329063Y-12607173D02*
X4338587Y-12597650D01*
X4338587Y-12597650D02*
X4357634Y-12588126D01*
X4510015Y-12769078D02*
X4519539Y-12778602D01*
X4519539Y-12778602D02*
X4510015Y-12788126D01*
X4510015Y-12788126D02*
X4500491Y-12778602D01*
X4500491Y-12778602D02*
X4510015Y-12769078D01*
X4510015Y-12769078D02*
X4510015Y-12788126D01*
X4643348Y-12588126D02*
X4662396Y-12588126D01*
X4662396Y-12588126D02*
X4681444Y-12597650D01*
X4681444Y-12597650D02*
X4690968Y-12607173D01*
X4690968Y-12607173D02*
X4700491Y-12626221D01*
X4700491Y-12626221D02*
X4710015Y-12664316D01*
X4710015Y-12664316D02*
X4710015Y-12711935D01*
X4710015Y-12711935D02*
X4700491Y-12750031D01*
X4700491Y-12750031D02*
X4690968Y-12769078D01*
X4690968Y-12769078D02*
X4681444Y-12778602D01*
X4681444Y-12778602D02*
X4662396Y-12788126D01*
X4662396Y-12788126D02*
X4643348Y-12788126D01*
X4643348Y-12788126D02*
X4624301Y-12778602D01*
X4624301Y-12778602D02*
X4614777Y-12769078D01*
X4614777Y-12769078D02*
X4605253Y-12750031D01*
X4605253Y-12750031D02*
X4595729Y-12711935D01*
X4595729Y-12711935D02*
X4595729Y-12664316D01*
X4595729Y-12664316D02*
X4605253Y-12626221D01*
X4605253Y-12626221D02*
X4614777Y-12607173D01*
X4614777Y-12607173D02*
X4624301Y-12597650D01*
X4624301Y-12597650D02*
X4643348Y-12588126D01*
X4881444Y-12654792D02*
X4881444Y-12788126D01*
X4833825Y-12578602D02*
X4786206Y-12721459D01*
X4786206Y-12721459D02*
X4910015Y-12721459D01*
X4967158Y-12588126D02*
X5090968Y-12588126D01*
X5090968Y-12588126D02*
X5024301Y-12664316D01*
X5024301Y-12664316D02*
X5052872Y-12664316D01*
X5052872Y-12664316D02*
X5071920Y-12673840D01*
X5071920Y-12673840D02*
X5081444Y-12683364D01*
X5081444Y-12683364D02*
X5090968Y-12702412D01*
X5090968Y-12702412D02*
X5090968Y-12750031D01*
X5090968Y-12750031D02*
X5081444Y-12769078D01*
X5081444Y-12769078D02*
X5071920Y-12778602D01*
X5071920Y-12778602D02*
X5052872Y-12788126D01*
X5052872Y-12788126D02*
X4995729Y-12788126D01*
X4995729Y-12788126D02*
X4976682Y-12778602D01*
X4976682Y-12778602D02*
X4967158Y-12769078D01*
X5157634Y-12588126D02*
X5281444Y-12588126D01*
X5281444Y-12588126D02*
X5214777Y-12664316D01*
X5214777Y-12664316D02*
X5243349Y-12664316D01*
X5243349Y-12664316D02*
X5262396Y-12673840D01*
X5262396Y-12673840D02*
X5271920Y-12683364D01*
X5271920Y-12683364D02*
X5281444Y-12702412D01*
X5281444Y-12702412D02*
X5281444Y-12750031D01*
X5281444Y-12750031D02*
X5271920Y-12769078D01*
X5271920Y-12769078D02*
X5262396Y-12778602D01*
X5262396Y-12778602D02*
X5243349Y-12788126D01*
X5243349Y-12788126D02*
X5186206Y-12788126D01*
X5186206Y-12788126D02*
X5167158Y-12778602D01*
X5167158Y-12778602D02*
X5157634Y-12769078D01*
X5357634Y-12588126D02*
X5357634Y-12626221D01*
X5433825Y-12588126D02*
X5433825Y-12626221D01*
X5729063Y-12864316D02*
X5719539Y-12854792D01*
X5719539Y-12854792D02*
X5700491Y-12826221D01*
X5700491Y-12826221D02*
X5690968Y-12807173D01*
X5690968Y-12807173D02*
X5681444Y-12778602D01*
X5681444Y-12778602D02*
X5671920Y-12730983D01*
X5671920Y-12730983D02*
X5671920Y-12692888D01*
X5671920Y-12692888D02*
X5681444Y-12645269D01*
X5681444Y-12645269D02*
X5690968Y-12616697D01*
X5690968Y-12616697D02*
X5700491Y-12597650D01*
X5700491Y-12597650D02*
X5719539Y-12569078D01*
X5719539Y-12569078D02*
X5729063Y-12559554D01*
X5910015Y-12788126D02*
X5795729Y-12788126D01*
X5852872Y-12788126D02*
X5852872Y-12588126D01*
X5852872Y-12588126D02*
X5833825Y-12616697D01*
X5833825Y-12616697D02*
X5814777Y-12635745D01*
X5814777Y-12635745D02*
X5795729Y-12645269D01*
X6024301Y-12673840D02*
X6005253Y-12664316D01*
X6005253Y-12664316D02*
X5995729Y-12654792D01*
X5995729Y-12654792D02*
X5986206Y-12635745D01*
X5986206Y-12635745D02*
X5986206Y-12626221D01*
X5986206Y-12626221D02*
X5995729Y-12607173D01*
X5995729Y-12607173D02*
X6005253Y-12597650D01*
X6005253Y-12597650D02*
X6024301Y-12588126D01*
X6024301Y-12588126D02*
X6062396Y-12588126D01*
X6062396Y-12588126D02*
X6081444Y-12597650D01*
X6081444Y-12597650D02*
X6090968Y-12607173D01*
X6090968Y-12607173D02*
X6100491Y-12626221D01*
X6100491Y-12626221D02*
X6100491Y-12635745D01*
X6100491Y-12635745D02*
X6090968Y-12654792D01*
X6090968Y-12654792D02*
X6081444Y-12664316D01*
X6081444Y-12664316D02*
X6062396Y-12673840D01*
X6062396Y-12673840D02*
X6024301Y-12673840D01*
X6024301Y-12673840D02*
X6005253Y-12683364D01*
X6005253Y-12683364D02*
X5995729Y-12692888D01*
X5995729Y-12692888D02*
X5986206Y-12711935D01*
X5986206Y-12711935D02*
X5986206Y-12750031D01*
X5986206Y-12750031D02*
X5995729Y-12769078D01*
X5995729Y-12769078D02*
X6005253Y-12778602D01*
X6005253Y-12778602D02*
X6024301Y-12788126D01*
X6024301Y-12788126D02*
X6062396Y-12788126D01*
X6062396Y-12788126D02*
X6081444Y-12778602D01*
X6081444Y-12778602D02*
X6090968Y-12769078D01*
X6090968Y-12769078D02*
X6100491Y-12750031D01*
X6100491Y-12750031D02*
X6100491Y-12711935D01*
X6100491Y-12711935D02*
X6090968Y-12692888D01*
X6090968Y-12692888D02*
X6081444Y-12683364D01*
X6081444Y-12683364D02*
X6062396Y-12673840D01*
X6338587Y-12788126D02*
X6338587Y-12588126D01*
X6424301Y-12788126D02*
X6424301Y-12683364D01*
X6424301Y-12683364D02*
X6414777Y-12664316D01*
X6414777Y-12664316D02*
X6395730Y-12654792D01*
X6395730Y-12654792D02*
X6367158Y-12654792D01*
X6367158Y-12654792D02*
X6348110Y-12664316D01*
X6348110Y-12664316D02*
X6338587Y-12673840D01*
X6548110Y-12788126D02*
X6529063Y-12778602D01*
X6529063Y-12778602D02*
X6519539Y-12769078D01*
X6519539Y-12769078D02*
X6510015Y-12750031D01*
X6510015Y-12750031D02*
X6510015Y-12692888D01*
X6510015Y-12692888D02*
X6519539Y-12673840D01*
X6519539Y-12673840D02*
X6529063Y-12664316D01*
X6529063Y-12664316D02*
X6548110Y-12654792D01*
X6548110Y-12654792D02*
X6576682Y-12654792D01*
X6576682Y-12654792D02*
X6595730Y-12664316D01*
X6595730Y-12664316D02*
X6605253Y-12673840D01*
X6605253Y-12673840D02*
X6614777Y-12692888D01*
X6614777Y-12692888D02*
X6614777Y-12750031D01*
X6614777Y-12750031D02*
X6605253Y-12769078D01*
X6605253Y-12769078D02*
X6595730Y-12778602D01*
X6595730Y-12778602D02*
X6576682Y-12788126D01*
X6576682Y-12788126D02*
X6548110Y-12788126D01*
X6729063Y-12788126D02*
X6710015Y-12778602D01*
X6710015Y-12778602D02*
X6700491Y-12759554D01*
X6700491Y-12759554D02*
X6700491Y-12588126D01*
X6881444Y-12778602D02*
X6862396Y-12788126D01*
X6862396Y-12788126D02*
X6824301Y-12788126D01*
X6824301Y-12788126D02*
X6805253Y-12778602D01*
X6805253Y-12778602D02*
X6795730Y-12759554D01*
X6795730Y-12759554D02*
X6795730Y-12683364D01*
X6795730Y-12683364D02*
X6805253Y-12664316D01*
X6805253Y-12664316D02*
X6824301Y-12654792D01*
X6824301Y-12654792D02*
X6862396Y-12654792D01*
X6862396Y-12654792D02*
X6881444Y-12664316D01*
X6881444Y-12664316D02*
X6890968Y-12683364D01*
X6890968Y-12683364D02*
X6890968Y-12702412D01*
X6890968Y-12702412D02*
X6795730Y-12721459D01*
X6967158Y-12778602D02*
X6986206Y-12788126D01*
X6986206Y-12788126D02*
X7024301Y-12788126D01*
X7024301Y-12788126D02*
X7043349Y-12778602D01*
X7043349Y-12778602D02*
X7052872Y-12759554D01*
X7052872Y-12759554D02*
X7052872Y-12750031D01*
X7052872Y-12750031D02*
X7043349Y-12730983D01*
X7043349Y-12730983D02*
X7024301Y-12721459D01*
X7024301Y-12721459D02*
X6995730Y-12721459D01*
X6995730Y-12721459D02*
X6976682Y-12711935D01*
X6976682Y-12711935D02*
X6967158Y-12692888D01*
X6967158Y-12692888D02*
X6967158Y-12683364D01*
X6967158Y-12683364D02*
X6976682Y-12664316D01*
X6976682Y-12664316D02*
X6995730Y-12654792D01*
X6995730Y-12654792D02*
X7024301Y-12654792D01*
X7024301Y-12654792D02*
X7043349Y-12664316D01*
X7119539Y-12864316D02*
X7129063Y-12854792D01*
X7129063Y-12854792D02*
X7148111Y-12826221D01*
X7148111Y-12826221D02*
X7157634Y-12807173D01*
X7157634Y-12807173D02*
X7167158Y-12778602D01*
X7167158Y-12778602D02*
X7176682Y-12730983D01*
X7176682Y-12730983D02*
X7176682Y-12692888D01*
X7176682Y-12692888D02*
X7167158Y-12645269D01*
X7167158Y-12645269D02*
X7157634Y-12616697D01*
X7157634Y-12616697D02*
X7148111Y-12597650D01*
X7148111Y-12597650D02*
X7129063Y-12569078D01*
X7129063Y-12569078D02*
X7119539Y-12559554D01*
D17*
X2034000Y-12900642D02*
X2154000Y-13020642D01*
X2154000Y-12900642D02*
X2034000Y-13020642D01*
X2094000Y-12900642D02*
X2094000Y-13020642D01*
X2034000Y-12960642D02*
X2154000Y-12960642D01*
D11*
X2519539Y-13052126D02*
X2405253Y-13052126D01*
X2462396Y-13052126D02*
X2462396Y-12852126D01*
X2462396Y-12852126D02*
X2443348Y-12880697D01*
X2443348Y-12880697D02*
X2424301Y-12899745D01*
X2424301Y-12899745D02*
X2405253Y-12909269D01*
X2605253Y-13033078D02*
X2614777Y-13042602D01*
X2614777Y-13042602D02*
X2605253Y-13052126D01*
X2605253Y-13052126D02*
X2595729Y-13042602D01*
X2595729Y-13042602D02*
X2605253Y-13033078D01*
X2605253Y-13033078D02*
X2605253Y-13052126D01*
X2690967Y-12871173D02*
X2700491Y-12861650D01*
X2700491Y-12861650D02*
X2719539Y-12852126D01*
X2719539Y-12852126D02*
X2767158Y-12852126D01*
X2767158Y-12852126D02*
X2786205Y-12861650D01*
X2786205Y-12861650D02*
X2795729Y-12871173D01*
X2795729Y-12871173D02*
X2805253Y-12890221D01*
X2805253Y-12890221D02*
X2805253Y-12909269D01*
X2805253Y-12909269D02*
X2795729Y-12937840D01*
X2795729Y-12937840D02*
X2681444Y-13052126D01*
X2681444Y-13052126D02*
X2805253Y-13052126D01*
X2929062Y-12852126D02*
X2948110Y-12852126D01*
X2948110Y-12852126D02*
X2967158Y-12861650D01*
X2967158Y-12861650D02*
X2976682Y-12871173D01*
X2976682Y-12871173D02*
X2986205Y-12890221D01*
X2986205Y-12890221D02*
X2995729Y-12928316D01*
X2995729Y-12928316D02*
X2995729Y-12975935D01*
X2995729Y-12975935D02*
X2986205Y-13014031D01*
X2986205Y-13014031D02*
X2976682Y-13033078D01*
X2976682Y-13033078D02*
X2967158Y-13042602D01*
X2967158Y-13042602D02*
X2948110Y-13052126D01*
X2948110Y-13052126D02*
X2929062Y-13052126D01*
X2929062Y-13052126D02*
X2910015Y-13042602D01*
X2910015Y-13042602D02*
X2900491Y-13033078D01*
X2900491Y-13033078D02*
X2890967Y-13014031D01*
X2890967Y-13014031D02*
X2881443Y-12975935D01*
X2881443Y-12975935D02*
X2881443Y-12928316D01*
X2881443Y-12928316D02*
X2890967Y-12890221D01*
X2890967Y-12890221D02*
X2900491Y-12871173D01*
X2900491Y-12871173D02*
X2910015Y-12861650D01*
X2910015Y-12861650D02*
X2929062Y-12852126D01*
X3119539Y-12852126D02*
X3138586Y-12852126D01*
X3138586Y-12852126D02*
X3157634Y-12861650D01*
X3157634Y-12861650D02*
X3167158Y-12871173D01*
X3167158Y-12871173D02*
X3176682Y-12890221D01*
X3176682Y-12890221D02*
X3186205Y-12928316D01*
X3186205Y-12928316D02*
X3186205Y-12975935D01*
X3186205Y-12975935D02*
X3176682Y-13014031D01*
X3176682Y-13014031D02*
X3167158Y-13033078D01*
X3167158Y-13033078D02*
X3157634Y-13042602D01*
X3157634Y-13042602D02*
X3138586Y-13052126D01*
X3138586Y-13052126D02*
X3119539Y-13052126D01*
X3119539Y-13052126D02*
X3100491Y-13042602D01*
X3100491Y-13042602D02*
X3090967Y-13033078D01*
X3090967Y-13033078D02*
X3081443Y-13014031D01*
X3081443Y-13014031D02*
X3071920Y-12975935D01*
X3071920Y-12975935D02*
X3071920Y-12928316D01*
X3071920Y-12928316D02*
X3081443Y-12890221D01*
X3081443Y-12890221D02*
X3090967Y-12871173D01*
X3090967Y-12871173D02*
X3100491Y-12861650D01*
X3100491Y-12861650D02*
X3119539Y-12852126D01*
X3271920Y-13052126D02*
X3271920Y-12918792D01*
X3271920Y-12937840D02*
X3281443Y-12928316D01*
X3281443Y-12928316D02*
X3300491Y-12918792D01*
X3300491Y-12918792D02*
X3329063Y-12918792D01*
X3329063Y-12918792D02*
X3348110Y-12928316D01*
X3348110Y-12928316D02*
X3357634Y-12947364D01*
X3357634Y-12947364D02*
X3357634Y-13052126D01*
X3357634Y-12947364D02*
X3367158Y-12928316D01*
X3367158Y-12928316D02*
X3386205Y-12918792D01*
X3386205Y-12918792D02*
X3414777Y-12918792D01*
X3414777Y-12918792D02*
X3433824Y-12928316D01*
X3433824Y-12928316D02*
X3443348Y-12947364D01*
X3443348Y-12947364D02*
X3443348Y-13052126D01*
X3538586Y-13052126D02*
X3538586Y-12918792D01*
X3538586Y-12937840D02*
X3548110Y-12928316D01*
X3548110Y-12928316D02*
X3567158Y-12918792D01*
X3567158Y-12918792D02*
X3595729Y-12918792D01*
X3595729Y-12918792D02*
X3614777Y-12928316D01*
X3614777Y-12928316D02*
X3624301Y-12947364D01*
X3624301Y-12947364D02*
X3624301Y-13052126D01*
X3624301Y-12947364D02*
X3633824Y-12928316D01*
X3633824Y-12928316D02*
X3652872Y-12918792D01*
X3652872Y-12918792D02*
X3681443Y-12918792D01*
X3681443Y-12918792D02*
X3700491Y-12928316D01*
X3700491Y-12928316D02*
X3710015Y-12947364D01*
X3710015Y-12947364D02*
X3710015Y-13052126D01*
X4100491Y-12842602D02*
X3929063Y-13099745D01*
X4357634Y-12852126D02*
X4376682Y-12852126D01*
X4376682Y-12852126D02*
X4395729Y-12861650D01*
X4395729Y-12861650D02*
X4405253Y-12871173D01*
X4405253Y-12871173D02*
X4414777Y-12890221D01*
X4414777Y-12890221D02*
X4424301Y-12928316D01*
X4424301Y-12928316D02*
X4424301Y-12975935D01*
X4424301Y-12975935D02*
X4414777Y-13014031D01*
X4414777Y-13014031D02*
X4405253Y-13033078D01*
X4405253Y-13033078D02*
X4395729Y-13042602D01*
X4395729Y-13042602D02*
X4376682Y-13052126D01*
X4376682Y-13052126D02*
X4357634Y-13052126D01*
X4357634Y-13052126D02*
X4338587Y-13042602D01*
X4338587Y-13042602D02*
X4329063Y-13033078D01*
X4329063Y-13033078D02*
X4319539Y-13014031D01*
X4319539Y-13014031D02*
X4310015Y-12975935D01*
X4310015Y-12975935D02*
X4310015Y-12928316D01*
X4310015Y-12928316D02*
X4319539Y-12890221D01*
X4319539Y-12890221D02*
X4329063Y-12871173D01*
X4329063Y-12871173D02*
X4338587Y-12861650D01*
X4338587Y-12861650D02*
X4357634Y-12852126D01*
X4510015Y-13033078D02*
X4519539Y-13042602D01*
X4519539Y-13042602D02*
X4510015Y-13052126D01*
X4510015Y-13052126D02*
X4500491Y-13042602D01*
X4500491Y-13042602D02*
X4510015Y-13033078D01*
X4510015Y-13033078D02*
X4510015Y-13052126D01*
X4643348Y-12852126D02*
X4662396Y-12852126D01*
X4662396Y-12852126D02*
X4681444Y-12861650D01*
X4681444Y-12861650D02*
X4690968Y-12871173D01*
X4690968Y-12871173D02*
X4700491Y-12890221D01*
X4700491Y-12890221D02*
X4710015Y-12928316D01*
X4710015Y-12928316D02*
X4710015Y-12975935D01*
X4710015Y-12975935D02*
X4700491Y-13014031D01*
X4700491Y-13014031D02*
X4690968Y-13033078D01*
X4690968Y-13033078D02*
X4681444Y-13042602D01*
X4681444Y-13042602D02*
X4662396Y-13052126D01*
X4662396Y-13052126D02*
X4643348Y-13052126D01*
X4643348Y-13052126D02*
X4624301Y-13042602D01*
X4624301Y-13042602D02*
X4614777Y-13033078D01*
X4614777Y-13033078D02*
X4605253Y-13014031D01*
X4605253Y-13014031D02*
X4595729Y-12975935D01*
X4595729Y-12975935D02*
X4595729Y-12928316D01*
X4595729Y-12928316D02*
X4605253Y-12890221D01*
X4605253Y-12890221D02*
X4614777Y-12871173D01*
X4614777Y-12871173D02*
X4624301Y-12861650D01*
X4624301Y-12861650D02*
X4643348Y-12852126D01*
X4881444Y-12918792D02*
X4881444Y-13052126D01*
X4833825Y-12842602D02*
X4786206Y-12985459D01*
X4786206Y-12985459D02*
X4910015Y-12985459D01*
X4967158Y-12852126D02*
X5100491Y-12852126D01*
X5100491Y-12852126D02*
X5014777Y-13052126D01*
X5167158Y-12871173D02*
X5176682Y-12861650D01*
X5176682Y-12861650D02*
X5195729Y-12852126D01*
X5195729Y-12852126D02*
X5243349Y-12852126D01*
X5243349Y-12852126D02*
X5262396Y-12861650D01*
X5262396Y-12861650D02*
X5271920Y-12871173D01*
X5271920Y-12871173D02*
X5281444Y-12890221D01*
X5281444Y-12890221D02*
X5281444Y-12909269D01*
X5281444Y-12909269D02*
X5271920Y-12937840D01*
X5271920Y-12937840D02*
X5157634Y-13052126D01*
X5157634Y-13052126D02*
X5281444Y-13052126D01*
X5357634Y-12852126D02*
X5357634Y-12890221D01*
X5433825Y-12852126D02*
X5433825Y-12890221D01*
X5729063Y-13128316D02*
X5719539Y-13118792D01*
X5719539Y-13118792D02*
X5700491Y-13090221D01*
X5700491Y-13090221D02*
X5690968Y-13071173D01*
X5690968Y-13071173D02*
X5681444Y-13042602D01*
X5681444Y-13042602D02*
X5671920Y-12994983D01*
X5671920Y-12994983D02*
X5671920Y-12956888D01*
X5671920Y-12956888D02*
X5681444Y-12909269D01*
X5681444Y-12909269D02*
X5690968Y-12880697D01*
X5690968Y-12880697D02*
X5700491Y-12861650D01*
X5700491Y-12861650D02*
X5719539Y-12833078D01*
X5719539Y-12833078D02*
X5729063Y-12823554D01*
X5910015Y-13052126D02*
X5795729Y-13052126D01*
X5852872Y-13052126D02*
X5852872Y-12852126D01*
X5852872Y-12852126D02*
X5833825Y-12880697D01*
X5833825Y-12880697D02*
X5814777Y-12899745D01*
X5814777Y-12899745D02*
X5795729Y-12909269D01*
X6081444Y-12852126D02*
X6043348Y-12852126D01*
X6043348Y-12852126D02*
X6024301Y-12861650D01*
X6024301Y-12861650D02*
X6014777Y-12871173D01*
X6014777Y-12871173D02*
X5995729Y-12899745D01*
X5995729Y-12899745D02*
X5986206Y-12937840D01*
X5986206Y-12937840D02*
X5986206Y-13014031D01*
X5986206Y-13014031D02*
X5995729Y-13033078D01*
X5995729Y-13033078D02*
X6005253Y-13042602D01*
X6005253Y-13042602D02*
X6024301Y-13052126D01*
X6024301Y-13052126D02*
X6062396Y-13052126D01*
X6062396Y-13052126D02*
X6081444Y-13042602D01*
X6081444Y-13042602D02*
X6090968Y-13033078D01*
X6090968Y-13033078D02*
X6100491Y-13014031D01*
X6100491Y-13014031D02*
X6100491Y-12966412D01*
X6100491Y-12966412D02*
X6090968Y-12947364D01*
X6090968Y-12947364D02*
X6081444Y-12937840D01*
X6081444Y-12937840D02*
X6062396Y-12928316D01*
X6062396Y-12928316D02*
X6024301Y-12928316D01*
X6024301Y-12928316D02*
X6005253Y-12937840D01*
X6005253Y-12937840D02*
X5995729Y-12947364D01*
X5995729Y-12947364D02*
X5986206Y-12966412D01*
X6338587Y-13052126D02*
X6338587Y-12852126D01*
X6424301Y-13052126D02*
X6424301Y-12947364D01*
X6424301Y-12947364D02*
X6414777Y-12928316D01*
X6414777Y-12928316D02*
X6395730Y-12918792D01*
X6395730Y-12918792D02*
X6367158Y-12918792D01*
X6367158Y-12918792D02*
X6348110Y-12928316D01*
X6348110Y-12928316D02*
X6338587Y-12937840D01*
X6548110Y-13052126D02*
X6529063Y-13042602D01*
X6529063Y-13042602D02*
X6519539Y-13033078D01*
X6519539Y-13033078D02*
X6510015Y-13014031D01*
X6510015Y-13014031D02*
X6510015Y-12956888D01*
X6510015Y-12956888D02*
X6519539Y-12937840D01*
X6519539Y-12937840D02*
X6529063Y-12928316D01*
X6529063Y-12928316D02*
X6548110Y-12918792D01*
X6548110Y-12918792D02*
X6576682Y-12918792D01*
X6576682Y-12918792D02*
X6595730Y-12928316D01*
X6595730Y-12928316D02*
X6605253Y-12937840D01*
X6605253Y-12937840D02*
X6614777Y-12956888D01*
X6614777Y-12956888D02*
X6614777Y-13014031D01*
X6614777Y-13014031D02*
X6605253Y-13033078D01*
X6605253Y-13033078D02*
X6595730Y-13042602D01*
X6595730Y-13042602D02*
X6576682Y-13052126D01*
X6576682Y-13052126D02*
X6548110Y-13052126D01*
X6729063Y-13052126D02*
X6710015Y-13042602D01*
X6710015Y-13042602D02*
X6700491Y-13023554D01*
X6700491Y-13023554D02*
X6700491Y-12852126D01*
X6881444Y-13042602D02*
X6862396Y-13052126D01*
X6862396Y-13052126D02*
X6824301Y-13052126D01*
X6824301Y-13052126D02*
X6805253Y-13042602D01*
X6805253Y-13042602D02*
X6795730Y-13023554D01*
X6795730Y-13023554D02*
X6795730Y-12947364D01*
X6795730Y-12947364D02*
X6805253Y-12928316D01*
X6805253Y-12928316D02*
X6824301Y-12918792D01*
X6824301Y-12918792D02*
X6862396Y-12918792D01*
X6862396Y-12918792D02*
X6881444Y-12928316D01*
X6881444Y-12928316D02*
X6890968Y-12947364D01*
X6890968Y-12947364D02*
X6890968Y-12966412D01*
X6890968Y-12966412D02*
X6795730Y-12985459D01*
X6967158Y-13042602D02*
X6986206Y-13052126D01*
X6986206Y-13052126D02*
X7024301Y-13052126D01*
X7024301Y-13052126D02*
X7043349Y-13042602D01*
X7043349Y-13042602D02*
X7052872Y-13023554D01*
X7052872Y-13023554D02*
X7052872Y-13014031D01*
X7052872Y-13014031D02*
X7043349Y-12994983D01*
X7043349Y-12994983D02*
X7024301Y-12985459D01*
X7024301Y-12985459D02*
X6995730Y-12985459D01*
X6995730Y-12985459D02*
X6976682Y-12975935D01*
X6976682Y-12975935D02*
X6967158Y-12956888D01*
X6967158Y-12956888D02*
X6967158Y-12947364D01*
X6967158Y-12947364D02*
X6976682Y-12928316D01*
X6976682Y-12928316D02*
X6995730Y-12918792D01*
X6995730Y-12918792D02*
X7024301Y-12918792D01*
X7024301Y-12918792D02*
X7043349Y-12928316D01*
X7119539Y-13128316D02*
X7129063Y-13118792D01*
X7129063Y-13118792D02*
X7148111Y-13090221D01*
X7148111Y-13090221D02*
X7157634Y-13071173D01*
X7157634Y-13071173D02*
X7167158Y-13042602D01*
X7167158Y-13042602D02*
X7176682Y-12994983D01*
X7176682Y-12994983D02*
X7176682Y-12956888D01*
X7176682Y-12956888D02*
X7167158Y-12909269D01*
X7167158Y-12909269D02*
X7157634Y-12880697D01*
X7157634Y-12880697D02*
X7148111Y-12861650D01*
X7148111Y-12861650D02*
X7129063Y-12833078D01*
X7129063Y-12833078D02*
X7119539Y-12823554D01*
D18*
X2014000Y-13154642D02*
X2154000Y-13294642D01*
X2154000Y-13154642D02*
X2014000Y-13294642D01*
X2133498Y-13274140D02*
X2133498Y-13175144D01*
X2034502Y-13175144D01*
X2034502Y-13274140D01*
X2133498Y-13274140D01*
D11*
X2519539Y-13316126D02*
X2405253Y-13316126D01*
X2462396Y-13316126D02*
X2462396Y-13116126D01*
X2462396Y-13116126D02*
X2443348Y-13144697D01*
X2443348Y-13144697D02*
X2424301Y-13163745D01*
X2424301Y-13163745D02*
X2405253Y-13173269D01*
X2605253Y-13297078D02*
X2614777Y-13306602D01*
X2614777Y-13306602D02*
X2605253Y-13316126D01*
X2605253Y-13316126D02*
X2595729Y-13306602D01*
X2595729Y-13306602D02*
X2605253Y-13297078D01*
X2605253Y-13297078D02*
X2605253Y-13316126D01*
X2786205Y-13182792D02*
X2786205Y-13316126D01*
X2738586Y-13106602D02*
X2690967Y-13249459D01*
X2690967Y-13249459D02*
X2814777Y-13249459D01*
X2929062Y-13116126D02*
X2948110Y-13116126D01*
X2948110Y-13116126D02*
X2967158Y-13125650D01*
X2967158Y-13125650D02*
X2976682Y-13135173D01*
X2976682Y-13135173D02*
X2986205Y-13154221D01*
X2986205Y-13154221D02*
X2995729Y-13192316D01*
X2995729Y-13192316D02*
X2995729Y-13239935D01*
X2995729Y-13239935D02*
X2986205Y-13278031D01*
X2986205Y-13278031D02*
X2976682Y-13297078D01*
X2976682Y-13297078D02*
X2967158Y-13306602D01*
X2967158Y-13306602D02*
X2948110Y-13316126D01*
X2948110Y-13316126D02*
X2929062Y-13316126D01*
X2929062Y-13316126D02*
X2910015Y-13306602D01*
X2910015Y-13306602D02*
X2900491Y-13297078D01*
X2900491Y-13297078D02*
X2890967Y-13278031D01*
X2890967Y-13278031D02*
X2881443Y-13239935D01*
X2881443Y-13239935D02*
X2881443Y-13192316D01*
X2881443Y-13192316D02*
X2890967Y-13154221D01*
X2890967Y-13154221D02*
X2900491Y-13135173D01*
X2900491Y-13135173D02*
X2910015Y-13125650D01*
X2910015Y-13125650D02*
X2929062Y-13116126D01*
X3119539Y-13116126D02*
X3138586Y-13116126D01*
X3138586Y-13116126D02*
X3157634Y-13125650D01*
X3157634Y-13125650D02*
X3167158Y-13135173D01*
X3167158Y-13135173D02*
X3176682Y-13154221D01*
X3176682Y-13154221D02*
X3186205Y-13192316D01*
X3186205Y-13192316D02*
X3186205Y-13239935D01*
X3186205Y-13239935D02*
X3176682Y-13278031D01*
X3176682Y-13278031D02*
X3167158Y-13297078D01*
X3167158Y-13297078D02*
X3157634Y-13306602D01*
X3157634Y-13306602D02*
X3138586Y-13316126D01*
X3138586Y-13316126D02*
X3119539Y-13316126D01*
X3119539Y-13316126D02*
X3100491Y-13306602D01*
X3100491Y-13306602D02*
X3090967Y-13297078D01*
X3090967Y-13297078D02*
X3081443Y-13278031D01*
X3081443Y-13278031D02*
X3071920Y-13239935D01*
X3071920Y-13239935D02*
X3071920Y-13192316D01*
X3071920Y-13192316D02*
X3081443Y-13154221D01*
X3081443Y-13154221D02*
X3090967Y-13135173D01*
X3090967Y-13135173D02*
X3100491Y-13125650D01*
X3100491Y-13125650D02*
X3119539Y-13116126D01*
X3271920Y-13316126D02*
X3271920Y-13182792D01*
X3271920Y-13201840D02*
X3281443Y-13192316D01*
X3281443Y-13192316D02*
X3300491Y-13182792D01*
X3300491Y-13182792D02*
X3329063Y-13182792D01*
X3329063Y-13182792D02*
X3348110Y-13192316D01*
X3348110Y-13192316D02*
X3357634Y-13211364D01*
X3357634Y-13211364D02*
X3357634Y-13316126D01*
X3357634Y-13211364D02*
X3367158Y-13192316D01*
X3367158Y-13192316D02*
X3386205Y-13182792D01*
X3386205Y-13182792D02*
X3414777Y-13182792D01*
X3414777Y-13182792D02*
X3433824Y-13192316D01*
X3433824Y-13192316D02*
X3443348Y-13211364D01*
X3443348Y-13211364D02*
X3443348Y-13316126D01*
X3538586Y-13316126D02*
X3538586Y-13182792D01*
X3538586Y-13201840D02*
X3548110Y-13192316D01*
X3548110Y-13192316D02*
X3567158Y-13182792D01*
X3567158Y-13182792D02*
X3595729Y-13182792D01*
X3595729Y-13182792D02*
X3614777Y-13192316D01*
X3614777Y-13192316D02*
X3624301Y-13211364D01*
X3624301Y-13211364D02*
X3624301Y-13316126D01*
X3624301Y-13211364D02*
X3633824Y-13192316D01*
X3633824Y-13192316D02*
X3652872Y-13182792D01*
X3652872Y-13182792D02*
X3681443Y-13182792D01*
X3681443Y-13182792D02*
X3700491Y-13192316D01*
X3700491Y-13192316D02*
X3710015Y-13211364D01*
X3710015Y-13211364D02*
X3710015Y-13316126D01*
X4100491Y-13106602D02*
X3929063Y-13363745D01*
X4357634Y-13116126D02*
X4376682Y-13116126D01*
X4376682Y-13116126D02*
X4395729Y-13125650D01*
X4395729Y-13125650D02*
X4405253Y-13135173D01*
X4405253Y-13135173D02*
X4414777Y-13154221D01*
X4414777Y-13154221D02*
X4424301Y-13192316D01*
X4424301Y-13192316D02*
X4424301Y-13239935D01*
X4424301Y-13239935D02*
X4414777Y-13278031D01*
X4414777Y-13278031D02*
X4405253Y-13297078D01*
X4405253Y-13297078D02*
X4395729Y-13306602D01*
X4395729Y-13306602D02*
X4376682Y-13316126D01*
X4376682Y-13316126D02*
X4357634Y-13316126D01*
X4357634Y-13316126D02*
X4338587Y-13306602D01*
X4338587Y-13306602D02*
X4329063Y-13297078D01*
X4329063Y-13297078D02*
X4319539Y-13278031D01*
X4319539Y-13278031D02*
X4310015Y-13239935D01*
X4310015Y-13239935D02*
X4310015Y-13192316D01*
X4310015Y-13192316D02*
X4319539Y-13154221D01*
X4319539Y-13154221D02*
X4329063Y-13135173D01*
X4329063Y-13135173D02*
X4338587Y-13125650D01*
X4338587Y-13125650D02*
X4357634Y-13116126D01*
X4510015Y-13297078D02*
X4519539Y-13306602D01*
X4519539Y-13306602D02*
X4510015Y-13316126D01*
X4510015Y-13316126D02*
X4500491Y-13306602D01*
X4500491Y-13306602D02*
X4510015Y-13297078D01*
X4510015Y-13297078D02*
X4510015Y-13316126D01*
X4643348Y-13116126D02*
X4662396Y-13116126D01*
X4662396Y-13116126D02*
X4681444Y-13125650D01*
X4681444Y-13125650D02*
X4690968Y-13135173D01*
X4690968Y-13135173D02*
X4700491Y-13154221D01*
X4700491Y-13154221D02*
X4710015Y-13192316D01*
X4710015Y-13192316D02*
X4710015Y-13239935D01*
X4710015Y-13239935D02*
X4700491Y-13278031D01*
X4700491Y-13278031D02*
X4690968Y-13297078D01*
X4690968Y-13297078D02*
X4681444Y-13306602D01*
X4681444Y-13306602D02*
X4662396Y-13316126D01*
X4662396Y-13316126D02*
X4643348Y-13316126D01*
X4643348Y-13316126D02*
X4624301Y-13306602D01*
X4624301Y-13306602D02*
X4614777Y-13297078D01*
X4614777Y-13297078D02*
X4605253Y-13278031D01*
X4605253Y-13278031D02*
X4595729Y-13239935D01*
X4595729Y-13239935D02*
X4595729Y-13192316D01*
X4595729Y-13192316D02*
X4605253Y-13154221D01*
X4605253Y-13154221D02*
X4614777Y-13135173D01*
X4614777Y-13135173D02*
X4624301Y-13125650D01*
X4624301Y-13125650D02*
X4643348Y-13116126D01*
X4890968Y-13116126D02*
X4795729Y-13116126D01*
X4795729Y-13116126D02*
X4786206Y-13211364D01*
X4786206Y-13211364D02*
X4795729Y-13201840D01*
X4795729Y-13201840D02*
X4814777Y-13192316D01*
X4814777Y-13192316D02*
X4862396Y-13192316D01*
X4862396Y-13192316D02*
X4881444Y-13201840D01*
X4881444Y-13201840D02*
X4890968Y-13211364D01*
X4890968Y-13211364D02*
X4900491Y-13230412D01*
X4900491Y-13230412D02*
X4900491Y-13278031D01*
X4900491Y-13278031D02*
X4890968Y-13297078D01*
X4890968Y-13297078D02*
X4881444Y-13306602D01*
X4881444Y-13306602D02*
X4862396Y-13316126D01*
X4862396Y-13316126D02*
X4814777Y-13316126D01*
X4814777Y-13316126D02*
X4795729Y-13306602D01*
X4795729Y-13306602D02*
X4786206Y-13297078D01*
X5081444Y-13116126D02*
X4986206Y-13116126D01*
X4986206Y-13116126D02*
X4976682Y-13211364D01*
X4976682Y-13211364D02*
X4986206Y-13201840D01*
X4986206Y-13201840D02*
X5005253Y-13192316D01*
X5005253Y-13192316D02*
X5052872Y-13192316D01*
X5052872Y-13192316D02*
X5071920Y-13201840D01*
X5071920Y-13201840D02*
X5081444Y-13211364D01*
X5081444Y-13211364D02*
X5090968Y-13230412D01*
X5090968Y-13230412D02*
X5090968Y-13278031D01*
X5090968Y-13278031D02*
X5081444Y-13297078D01*
X5081444Y-13297078D02*
X5071920Y-13306602D01*
X5071920Y-13306602D02*
X5052872Y-13316126D01*
X5052872Y-13316126D02*
X5005253Y-13316126D01*
X5005253Y-13316126D02*
X4986206Y-13306602D01*
X4986206Y-13306602D02*
X4976682Y-13297078D01*
X5281444Y-13316126D02*
X5167158Y-13316126D01*
X5224301Y-13316126D02*
X5224301Y-13116126D01*
X5224301Y-13116126D02*
X5205253Y-13144697D01*
X5205253Y-13144697D02*
X5186206Y-13163745D01*
X5186206Y-13163745D02*
X5167158Y-13173269D01*
X5357634Y-13116126D02*
X5357634Y-13154221D01*
X5433825Y-13116126D02*
X5433825Y-13154221D01*
X5729063Y-13392316D02*
X5719539Y-13382792D01*
X5719539Y-13382792D02*
X5700491Y-13354221D01*
X5700491Y-13354221D02*
X5690968Y-13335173D01*
X5690968Y-13335173D02*
X5681444Y-13306602D01*
X5681444Y-13306602D02*
X5671920Y-13258983D01*
X5671920Y-13258983D02*
X5671920Y-13220888D01*
X5671920Y-13220888D02*
X5681444Y-13173269D01*
X5681444Y-13173269D02*
X5690968Y-13144697D01*
X5690968Y-13144697D02*
X5700491Y-13125650D01*
X5700491Y-13125650D02*
X5719539Y-13097078D01*
X5719539Y-13097078D02*
X5729063Y-13087554D01*
X5786206Y-13116126D02*
X5919539Y-13116126D01*
X5919539Y-13116126D02*
X5833825Y-13316126D01*
X6148110Y-13316126D02*
X6148110Y-13116126D01*
X6233825Y-13316126D02*
X6233825Y-13211364D01*
X6233825Y-13211364D02*
X6224301Y-13192316D01*
X6224301Y-13192316D02*
X6205253Y-13182792D01*
X6205253Y-13182792D02*
X6176682Y-13182792D01*
X6176682Y-13182792D02*
X6157634Y-13192316D01*
X6157634Y-13192316D02*
X6148110Y-13201840D01*
X6357634Y-13316126D02*
X6338587Y-13306602D01*
X6338587Y-13306602D02*
X6329063Y-13297078D01*
X6329063Y-13297078D02*
X6319539Y-13278031D01*
X6319539Y-13278031D02*
X6319539Y-13220888D01*
X6319539Y-13220888D02*
X6329063Y-13201840D01*
X6329063Y-13201840D02*
X6338587Y-13192316D01*
X6338587Y-13192316D02*
X6357634Y-13182792D01*
X6357634Y-13182792D02*
X6386206Y-13182792D01*
X6386206Y-13182792D02*
X6405253Y-13192316D01*
X6405253Y-13192316D02*
X6414777Y-13201840D01*
X6414777Y-13201840D02*
X6424301Y-13220888D01*
X6424301Y-13220888D02*
X6424301Y-13278031D01*
X6424301Y-13278031D02*
X6414777Y-13297078D01*
X6414777Y-13297078D02*
X6405253Y-13306602D01*
X6405253Y-13306602D02*
X6386206Y-13316126D01*
X6386206Y-13316126D02*
X6357634Y-13316126D01*
X6538587Y-13316126D02*
X6519539Y-13306602D01*
X6519539Y-13306602D02*
X6510015Y-13287554D01*
X6510015Y-13287554D02*
X6510015Y-13116126D01*
X6690968Y-13306602D02*
X6671920Y-13316126D01*
X6671920Y-13316126D02*
X6633825Y-13316126D01*
X6633825Y-13316126D02*
X6614777Y-13306602D01*
X6614777Y-13306602D02*
X6605253Y-13287554D01*
X6605253Y-13287554D02*
X6605253Y-13211364D01*
X6605253Y-13211364D02*
X6614777Y-13192316D01*
X6614777Y-13192316D02*
X6633825Y-13182792D01*
X6633825Y-13182792D02*
X6671920Y-13182792D01*
X6671920Y-13182792D02*
X6690968Y-13192316D01*
X6690968Y-13192316D02*
X6700491Y-13211364D01*
X6700491Y-13211364D02*
X6700491Y-13230412D01*
X6700491Y-13230412D02*
X6605253Y-13249459D01*
X6776682Y-13306602D02*
X6795730Y-13316126D01*
X6795730Y-13316126D02*
X6833825Y-13316126D01*
X6833825Y-13316126D02*
X6852872Y-13306602D01*
X6852872Y-13306602D02*
X6862396Y-13287554D01*
X6862396Y-13287554D02*
X6862396Y-13278031D01*
X6862396Y-13278031D02*
X6852872Y-13258983D01*
X6852872Y-13258983D02*
X6833825Y-13249459D01*
X6833825Y-13249459D02*
X6805253Y-13249459D01*
X6805253Y-13249459D02*
X6786206Y-13239935D01*
X6786206Y-13239935D02*
X6776682Y-13220888D01*
X6776682Y-13220888D02*
X6776682Y-13211364D01*
X6776682Y-13211364D02*
X6786206Y-13192316D01*
X6786206Y-13192316D02*
X6805253Y-13182792D01*
X6805253Y-13182792D02*
X6833825Y-13182792D01*
X6833825Y-13182792D02*
X6852872Y-13192316D01*
X6929063Y-13392316D02*
X6938587Y-13382792D01*
X6938587Y-13382792D02*
X6957634Y-13354221D01*
X6957634Y-13354221D02*
X6967158Y-13335173D01*
X6967158Y-13335173D02*
X6976682Y-13306602D01*
X6976682Y-13306602D02*
X6986206Y-13258983D01*
X6986206Y-13258983D02*
X6986206Y-13220888D01*
X6986206Y-13220888D02*
X6976682Y-13173269D01*
X6976682Y-13173269D02*
X6967158Y-13144697D01*
X6967158Y-13144697D02*
X6957634Y-13125650D01*
X6957634Y-13125650D02*
X6938587Y-13097078D01*
X6938587Y-13097078D02*
X6929063Y-13087554D01*
D19*
X1994000Y-13408642D02*
X2154000Y-13568642D01*
X2154000Y-13408642D02*
X1994000Y-13568642D01*
X2074000Y-13568642D02*
X2154000Y-13488642D01*
X2074000Y-13408642D01*
X1994000Y-13488642D01*
X2074000Y-13568642D01*
D11*
X2519539Y-13580126D02*
X2405253Y-13580126D01*
X2462396Y-13580126D02*
X2462396Y-13380126D01*
X2462396Y-13380126D02*
X2443348Y-13408697D01*
X2443348Y-13408697D02*
X2424301Y-13427745D01*
X2424301Y-13427745D02*
X2405253Y-13437269D01*
X2605253Y-13561078D02*
X2614777Y-13570602D01*
X2614777Y-13570602D02*
X2605253Y-13580126D01*
X2605253Y-13580126D02*
X2595729Y-13570602D01*
X2595729Y-13570602D02*
X2605253Y-13561078D01*
X2605253Y-13561078D02*
X2605253Y-13580126D01*
X2786205Y-13380126D02*
X2748110Y-13380126D01*
X2748110Y-13380126D02*
X2729063Y-13389650D01*
X2729063Y-13389650D02*
X2719539Y-13399173D01*
X2719539Y-13399173D02*
X2700491Y-13427745D01*
X2700491Y-13427745D02*
X2690967Y-13465840D01*
X2690967Y-13465840D02*
X2690967Y-13542031D01*
X2690967Y-13542031D02*
X2700491Y-13561078D01*
X2700491Y-13561078D02*
X2710015Y-13570602D01*
X2710015Y-13570602D02*
X2729063Y-13580126D01*
X2729063Y-13580126D02*
X2767158Y-13580126D01*
X2767158Y-13580126D02*
X2786205Y-13570602D01*
X2786205Y-13570602D02*
X2795729Y-13561078D01*
X2795729Y-13561078D02*
X2805253Y-13542031D01*
X2805253Y-13542031D02*
X2805253Y-13494412D01*
X2805253Y-13494412D02*
X2795729Y-13475364D01*
X2795729Y-13475364D02*
X2786205Y-13465840D01*
X2786205Y-13465840D02*
X2767158Y-13456316D01*
X2767158Y-13456316D02*
X2729063Y-13456316D01*
X2729063Y-13456316D02*
X2710015Y-13465840D01*
X2710015Y-13465840D02*
X2700491Y-13475364D01*
X2700491Y-13475364D02*
X2690967Y-13494412D01*
X2929062Y-13380126D02*
X2948110Y-13380126D01*
X2948110Y-13380126D02*
X2967158Y-13389650D01*
X2967158Y-13389650D02*
X2976682Y-13399173D01*
X2976682Y-13399173D02*
X2986205Y-13418221D01*
X2986205Y-13418221D02*
X2995729Y-13456316D01*
X2995729Y-13456316D02*
X2995729Y-13503935D01*
X2995729Y-13503935D02*
X2986205Y-13542031D01*
X2986205Y-13542031D02*
X2976682Y-13561078D01*
X2976682Y-13561078D02*
X2967158Y-13570602D01*
X2967158Y-13570602D02*
X2948110Y-13580126D01*
X2948110Y-13580126D02*
X2929062Y-13580126D01*
X2929062Y-13580126D02*
X2910015Y-13570602D01*
X2910015Y-13570602D02*
X2900491Y-13561078D01*
X2900491Y-13561078D02*
X2890967Y-13542031D01*
X2890967Y-13542031D02*
X2881443Y-13503935D01*
X2881443Y-13503935D02*
X2881443Y-13456316D01*
X2881443Y-13456316D02*
X2890967Y-13418221D01*
X2890967Y-13418221D02*
X2900491Y-13399173D01*
X2900491Y-13399173D02*
X2910015Y-13389650D01*
X2910015Y-13389650D02*
X2929062Y-13380126D01*
X3119539Y-13380126D02*
X3138586Y-13380126D01*
X3138586Y-13380126D02*
X3157634Y-13389650D01*
X3157634Y-13389650D02*
X3167158Y-13399173D01*
X3167158Y-13399173D02*
X3176682Y-13418221D01*
X3176682Y-13418221D02*
X3186205Y-13456316D01*
X3186205Y-13456316D02*
X3186205Y-13503935D01*
X3186205Y-13503935D02*
X3176682Y-13542031D01*
X3176682Y-13542031D02*
X3167158Y-13561078D01*
X3167158Y-13561078D02*
X3157634Y-13570602D01*
X3157634Y-13570602D02*
X3138586Y-13580126D01*
X3138586Y-13580126D02*
X3119539Y-13580126D01*
X3119539Y-13580126D02*
X3100491Y-13570602D01*
X3100491Y-13570602D02*
X3090967Y-13561078D01*
X3090967Y-13561078D02*
X3081443Y-13542031D01*
X3081443Y-13542031D02*
X3071920Y-13503935D01*
X3071920Y-13503935D02*
X3071920Y-13456316D01*
X3071920Y-13456316D02*
X3081443Y-13418221D01*
X3081443Y-13418221D02*
X3090967Y-13399173D01*
X3090967Y-13399173D02*
X3100491Y-13389650D01*
X3100491Y-13389650D02*
X3119539Y-13380126D01*
X3271920Y-13580126D02*
X3271920Y-13446792D01*
X3271920Y-13465840D02*
X3281443Y-13456316D01*
X3281443Y-13456316D02*
X3300491Y-13446792D01*
X3300491Y-13446792D02*
X3329063Y-13446792D01*
X3329063Y-13446792D02*
X3348110Y-13456316D01*
X3348110Y-13456316D02*
X3357634Y-13475364D01*
X3357634Y-13475364D02*
X3357634Y-13580126D01*
X3357634Y-13475364D02*
X3367158Y-13456316D01*
X3367158Y-13456316D02*
X3386205Y-13446792D01*
X3386205Y-13446792D02*
X3414777Y-13446792D01*
X3414777Y-13446792D02*
X3433824Y-13456316D01*
X3433824Y-13456316D02*
X3443348Y-13475364D01*
X3443348Y-13475364D02*
X3443348Y-13580126D01*
X3538586Y-13580126D02*
X3538586Y-13446792D01*
X3538586Y-13465840D02*
X3548110Y-13456316D01*
X3548110Y-13456316D02*
X3567158Y-13446792D01*
X3567158Y-13446792D02*
X3595729Y-13446792D01*
X3595729Y-13446792D02*
X3614777Y-13456316D01*
X3614777Y-13456316D02*
X3624301Y-13475364D01*
X3624301Y-13475364D02*
X3624301Y-13580126D01*
X3624301Y-13475364D02*
X3633824Y-13456316D01*
X3633824Y-13456316D02*
X3652872Y-13446792D01*
X3652872Y-13446792D02*
X3681443Y-13446792D01*
X3681443Y-13446792D02*
X3700491Y-13456316D01*
X3700491Y-13456316D02*
X3710015Y-13475364D01*
X3710015Y-13475364D02*
X3710015Y-13580126D01*
X4100491Y-13370602D02*
X3929063Y-13627745D01*
X4357634Y-13380126D02*
X4376682Y-13380126D01*
X4376682Y-13380126D02*
X4395729Y-13389650D01*
X4395729Y-13389650D02*
X4405253Y-13399173D01*
X4405253Y-13399173D02*
X4414777Y-13418221D01*
X4414777Y-13418221D02*
X4424301Y-13456316D01*
X4424301Y-13456316D02*
X4424301Y-13503935D01*
X4424301Y-13503935D02*
X4414777Y-13542031D01*
X4414777Y-13542031D02*
X4405253Y-13561078D01*
X4405253Y-13561078D02*
X4395729Y-13570602D01*
X4395729Y-13570602D02*
X4376682Y-13580126D01*
X4376682Y-13580126D02*
X4357634Y-13580126D01*
X4357634Y-13580126D02*
X4338587Y-13570602D01*
X4338587Y-13570602D02*
X4329063Y-13561078D01*
X4329063Y-13561078D02*
X4319539Y-13542031D01*
X4319539Y-13542031D02*
X4310015Y-13503935D01*
X4310015Y-13503935D02*
X4310015Y-13456316D01*
X4310015Y-13456316D02*
X4319539Y-13418221D01*
X4319539Y-13418221D02*
X4329063Y-13399173D01*
X4329063Y-13399173D02*
X4338587Y-13389650D01*
X4338587Y-13389650D02*
X4357634Y-13380126D01*
X4510015Y-13561078D02*
X4519539Y-13570602D01*
X4519539Y-13570602D02*
X4510015Y-13580126D01*
X4510015Y-13580126D02*
X4500491Y-13570602D01*
X4500491Y-13570602D02*
X4510015Y-13561078D01*
X4510015Y-13561078D02*
X4510015Y-13580126D01*
X4643348Y-13380126D02*
X4662396Y-13380126D01*
X4662396Y-13380126D02*
X4681444Y-13389650D01*
X4681444Y-13389650D02*
X4690968Y-13399173D01*
X4690968Y-13399173D02*
X4700491Y-13418221D01*
X4700491Y-13418221D02*
X4710015Y-13456316D01*
X4710015Y-13456316D02*
X4710015Y-13503935D01*
X4710015Y-13503935D02*
X4700491Y-13542031D01*
X4700491Y-13542031D02*
X4690968Y-13561078D01*
X4690968Y-13561078D02*
X4681444Y-13570602D01*
X4681444Y-13570602D02*
X4662396Y-13580126D01*
X4662396Y-13580126D02*
X4643348Y-13580126D01*
X4643348Y-13580126D02*
X4624301Y-13570602D01*
X4624301Y-13570602D02*
X4614777Y-13561078D01*
X4614777Y-13561078D02*
X4605253Y-13542031D01*
X4605253Y-13542031D02*
X4595729Y-13503935D01*
X4595729Y-13503935D02*
X4595729Y-13456316D01*
X4595729Y-13456316D02*
X4605253Y-13418221D01*
X4605253Y-13418221D02*
X4614777Y-13399173D01*
X4614777Y-13399173D02*
X4624301Y-13389650D01*
X4624301Y-13389650D02*
X4643348Y-13380126D01*
X4881444Y-13380126D02*
X4843348Y-13380126D01*
X4843348Y-13380126D02*
X4824301Y-13389650D01*
X4824301Y-13389650D02*
X4814777Y-13399173D01*
X4814777Y-13399173D02*
X4795729Y-13427745D01*
X4795729Y-13427745D02*
X4786206Y-13465840D01*
X4786206Y-13465840D02*
X4786206Y-13542031D01*
X4786206Y-13542031D02*
X4795729Y-13561078D01*
X4795729Y-13561078D02*
X4805253Y-13570602D01*
X4805253Y-13570602D02*
X4824301Y-13580126D01*
X4824301Y-13580126D02*
X4862396Y-13580126D01*
X4862396Y-13580126D02*
X4881444Y-13570602D01*
X4881444Y-13570602D02*
X4890968Y-13561078D01*
X4890968Y-13561078D02*
X4900491Y-13542031D01*
X4900491Y-13542031D02*
X4900491Y-13494412D01*
X4900491Y-13494412D02*
X4890968Y-13475364D01*
X4890968Y-13475364D02*
X4881444Y-13465840D01*
X4881444Y-13465840D02*
X4862396Y-13456316D01*
X4862396Y-13456316D02*
X4824301Y-13456316D01*
X4824301Y-13456316D02*
X4805253Y-13465840D01*
X4805253Y-13465840D02*
X4795729Y-13475364D01*
X4795729Y-13475364D02*
X4786206Y-13494412D01*
X4967158Y-13380126D02*
X5090968Y-13380126D01*
X5090968Y-13380126D02*
X5024301Y-13456316D01*
X5024301Y-13456316D02*
X5052872Y-13456316D01*
X5052872Y-13456316D02*
X5071920Y-13465840D01*
X5071920Y-13465840D02*
X5081444Y-13475364D01*
X5081444Y-13475364D02*
X5090968Y-13494412D01*
X5090968Y-13494412D02*
X5090968Y-13542031D01*
X5090968Y-13542031D02*
X5081444Y-13561078D01*
X5081444Y-13561078D02*
X5071920Y-13570602D01*
X5071920Y-13570602D02*
X5052872Y-13580126D01*
X5052872Y-13580126D02*
X4995729Y-13580126D01*
X4995729Y-13580126D02*
X4976682Y-13570602D01*
X4976682Y-13570602D02*
X4967158Y-13561078D01*
X5214777Y-13380126D02*
X5233825Y-13380126D01*
X5233825Y-13380126D02*
X5252872Y-13389650D01*
X5252872Y-13389650D02*
X5262396Y-13399173D01*
X5262396Y-13399173D02*
X5271920Y-13418221D01*
X5271920Y-13418221D02*
X5281444Y-13456316D01*
X5281444Y-13456316D02*
X5281444Y-13503935D01*
X5281444Y-13503935D02*
X5271920Y-13542031D01*
X5271920Y-13542031D02*
X5262396Y-13561078D01*
X5262396Y-13561078D02*
X5252872Y-13570602D01*
X5252872Y-13570602D02*
X5233825Y-13580126D01*
X5233825Y-13580126D02*
X5214777Y-13580126D01*
X5214777Y-13580126D02*
X5195729Y-13570602D01*
X5195729Y-13570602D02*
X5186206Y-13561078D01*
X5186206Y-13561078D02*
X5176682Y-13542031D01*
X5176682Y-13542031D02*
X5167158Y-13503935D01*
X5167158Y-13503935D02*
X5167158Y-13456316D01*
X5167158Y-13456316D02*
X5176682Y-13418221D01*
X5176682Y-13418221D02*
X5186206Y-13399173D01*
X5186206Y-13399173D02*
X5195729Y-13389650D01*
X5195729Y-13389650D02*
X5214777Y-13380126D01*
X5357634Y-13380126D02*
X5357634Y-13418221D01*
X5433825Y-13380126D02*
X5433825Y-13418221D01*
X5729063Y-13656316D02*
X5719539Y-13646792D01*
X5719539Y-13646792D02*
X5700491Y-13618221D01*
X5700491Y-13618221D02*
X5690968Y-13599173D01*
X5690968Y-13599173D02*
X5681444Y-13570602D01*
X5681444Y-13570602D02*
X5671920Y-13522983D01*
X5671920Y-13522983D02*
X5671920Y-13484888D01*
X5671920Y-13484888D02*
X5681444Y-13437269D01*
X5681444Y-13437269D02*
X5690968Y-13408697D01*
X5690968Y-13408697D02*
X5700491Y-13389650D01*
X5700491Y-13389650D02*
X5719539Y-13361078D01*
X5719539Y-13361078D02*
X5729063Y-13351554D01*
X5890968Y-13446792D02*
X5890968Y-13580126D01*
X5843348Y-13370602D02*
X5795729Y-13513459D01*
X5795729Y-13513459D02*
X5919539Y-13513459D01*
X6148110Y-13580126D02*
X6148110Y-13380126D01*
X6233825Y-13580126D02*
X6233825Y-13475364D01*
X6233825Y-13475364D02*
X6224301Y-13456316D01*
X6224301Y-13456316D02*
X6205253Y-13446792D01*
X6205253Y-13446792D02*
X6176682Y-13446792D01*
X6176682Y-13446792D02*
X6157634Y-13456316D01*
X6157634Y-13456316D02*
X6148110Y-13465840D01*
X6357634Y-13580126D02*
X6338587Y-13570602D01*
X6338587Y-13570602D02*
X6329063Y-13561078D01*
X6329063Y-13561078D02*
X6319539Y-13542031D01*
X6319539Y-13542031D02*
X6319539Y-13484888D01*
X6319539Y-13484888D02*
X6329063Y-13465840D01*
X6329063Y-13465840D02*
X6338587Y-13456316D01*
X6338587Y-13456316D02*
X6357634Y-13446792D01*
X6357634Y-13446792D02*
X6386206Y-13446792D01*
X6386206Y-13446792D02*
X6405253Y-13456316D01*
X6405253Y-13456316D02*
X6414777Y-13465840D01*
X6414777Y-13465840D02*
X6424301Y-13484888D01*
X6424301Y-13484888D02*
X6424301Y-13542031D01*
X6424301Y-13542031D02*
X6414777Y-13561078D01*
X6414777Y-13561078D02*
X6405253Y-13570602D01*
X6405253Y-13570602D02*
X6386206Y-13580126D01*
X6386206Y-13580126D02*
X6357634Y-13580126D01*
X6538587Y-13580126D02*
X6519539Y-13570602D01*
X6519539Y-13570602D02*
X6510015Y-13551554D01*
X6510015Y-13551554D02*
X6510015Y-13380126D01*
X6690968Y-13570602D02*
X6671920Y-13580126D01*
X6671920Y-13580126D02*
X6633825Y-13580126D01*
X6633825Y-13580126D02*
X6614777Y-13570602D01*
X6614777Y-13570602D02*
X6605253Y-13551554D01*
X6605253Y-13551554D02*
X6605253Y-13475364D01*
X6605253Y-13475364D02*
X6614777Y-13456316D01*
X6614777Y-13456316D02*
X6633825Y-13446792D01*
X6633825Y-13446792D02*
X6671920Y-13446792D01*
X6671920Y-13446792D02*
X6690968Y-13456316D01*
X6690968Y-13456316D02*
X6700491Y-13475364D01*
X6700491Y-13475364D02*
X6700491Y-13494412D01*
X6700491Y-13494412D02*
X6605253Y-13513459D01*
X6776682Y-13570602D02*
X6795730Y-13580126D01*
X6795730Y-13580126D02*
X6833825Y-13580126D01*
X6833825Y-13580126D02*
X6852872Y-13570602D01*
X6852872Y-13570602D02*
X6862396Y-13551554D01*
X6862396Y-13551554D02*
X6862396Y-13542031D01*
X6862396Y-13542031D02*
X6852872Y-13522983D01*
X6852872Y-13522983D02*
X6833825Y-13513459D01*
X6833825Y-13513459D02*
X6805253Y-13513459D01*
X6805253Y-13513459D02*
X6786206Y-13503935D01*
X6786206Y-13503935D02*
X6776682Y-13484888D01*
X6776682Y-13484888D02*
X6776682Y-13475364D01*
X6776682Y-13475364D02*
X6786206Y-13456316D01*
X6786206Y-13456316D02*
X6805253Y-13446792D01*
X6805253Y-13446792D02*
X6833825Y-13446792D01*
X6833825Y-13446792D02*
X6852872Y-13456316D01*
X6929063Y-13656316D02*
X6938587Y-13646792D01*
X6938587Y-13646792D02*
X6957634Y-13618221D01*
X6957634Y-13618221D02*
X6967158Y-13599173D01*
X6967158Y-13599173D02*
X6976682Y-13570602D01*
X6976682Y-13570602D02*
X6986206Y-13522983D01*
X6986206Y-13522983D02*
X6986206Y-13484888D01*
X6986206Y-13484888D02*
X6976682Y-13437269D01*
X6976682Y-13437269D02*
X6967158Y-13408697D01*
X6967158Y-13408697D02*
X6957634Y-13389650D01*
X6957634Y-13389650D02*
X6938587Y-13361078D01*
X6938587Y-13361078D02*
X6929063Y-13351554D01*
X2054000Y-13668642D02*
X2054000Y-13868642D01*
X1954000Y-13768642D02*
X2154000Y-13768642D01*
X2154000Y-13768642D02*
G75*
G03*
X2154000Y-13768642I-100000J0D01*
G01*
X2405253Y-13679173D02*
X2414777Y-13669650D01*
X2414777Y-13669650D02*
X2433824Y-13660126D01*
X2433824Y-13660126D02*
X2481444Y-13660126D01*
X2481444Y-13660126D02*
X2500491Y-13669650D01*
X2500491Y-13669650D02*
X2510015Y-13679173D01*
X2510015Y-13679173D02*
X2519539Y-13698221D01*
X2519539Y-13698221D02*
X2519539Y-13717269D01*
X2519539Y-13717269D02*
X2510015Y-13745840D01*
X2510015Y-13745840D02*
X2395729Y-13860126D01*
X2395729Y-13860126D02*
X2519539Y-13860126D01*
X2605253Y-13841078D02*
X2614777Y-13850602D01*
X2614777Y-13850602D02*
X2605253Y-13860126D01*
X2605253Y-13860126D02*
X2595729Y-13850602D01*
X2595729Y-13850602D02*
X2605253Y-13841078D01*
X2605253Y-13841078D02*
X2605253Y-13860126D01*
X2795729Y-13660126D02*
X2700491Y-13660126D01*
X2700491Y-13660126D02*
X2690967Y-13755364D01*
X2690967Y-13755364D02*
X2700491Y-13745840D01*
X2700491Y-13745840D02*
X2719539Y-13736316D01*
X2719539Y-13736316D02*
X2767158Y-13736316D01*
X2767158Y-13736316D02*
X2786205Y-13745840D01*
X2786205Y-13745840D02*
X2795729Y-13755364D01*
X2795729Y-13755364D02*
X2805253Y-13774412D01*
X2805253Y-13774412D02*
X2805253Y-13822031D01*
X2805253Y-13822031D02*
X2795729Y-13841078D01*
X2795729Y-13841078D02*
X2786205Y-13850602D01*
X2786205Y-13850602D02*
X2767158Y-13860126D01*
X2767158Y-13860126D02*
X2719539Y-13860126D01*
X2719539Y-13860126D02*
X2700491Y-13850602D01*
X2700491Y-13850602D02*
X2690967Y-13841078D01*
X2929062Y-13660126D02*
X2948110Y-13660126D01*
X2948110Y-13660126D02*
X2967158Y-13669650D01*
X2967158Y-13669650D02*
X2976682Y-13679173D01*
X2976682Y-13679173D02*
X2986205Y-13698221D01*
X2986205Y-13698221D02*
X2995729Y-13736316D01*
X2995729Y-13736316D02*
X2995729Y-13783935D01*
X2995729Y-13783935D02*
X2986205Y-13822031D01*
X2986205Y-13822031D02*
X2976682Y-13841078D01*
X2976682Y-13841078D02*
X2967158Y-13850602D01*
X2967158Y-13850602D02*
X2948110Y-13860126D01*
X2948110Y-13860126D02*
X2929062Y-13860126D01*
X2929062Y-13860126D02*
X2910015Y-13850602D01*
X2910015Y-13850602D02*
X2900491Y-13841078D01*
X2900491Y-13841078D02*
X2890967Y-13822031D01*
X2890967Y-13822031D02*
X2881443Y-13783935D01*
X2881443Y-13783935D02*
X2881443Y-13736316D01*
X2881443Y-13736316D02*
X2890967Y-13698221D01*
X2890967Y-13698221D02*
X2900491Y-13679173D01*
X2900491Y-13679173D02*
X2910015Y-13669650D01*
X2910015Y-13669650D02*
X2929062Y-13660126D01*
X3119539Y-13660126D02*
X3138586Y-13660126D01*
X3138586Y-13660126D02*
X3157634Y-13669650D01*
X3157634Y-13669650D02*
X3167158Y-13679173D01*
X3167158Y-13679173D02*
X3176682Y-13698221D01*
X3176682Y-13698221D02*
X3186205Y-13736316D01*
X3186205Y-13736316D02*
X3186205Y-13783935D01*
X3186205Y-13783935D02*
X3176682Y-13822031D01*
X3176682Y-13822031D02*
X3167158Y-13841078D01*
X3167158Y-13841078D02*
X3157634Y-13850602D01*
X3157634Y-13850602D02*
X3138586Y-13860126D01*
X3138586Y-13860126D02*
X3119539Y-13860126D01*
X3119539Y-13860126D02*
X3100491Y-13850602D01*
X3100491Y-13850602D02*
X3090967Y-13841078D01*
X3090967Y-13841078D02*
X3081443Y-13822031D01*
X3081443Y-13822031D02*
X3071920Y-13783935D01*
X3071920Y-13783935D02*
X3071920Y-13736316D01*
X3071920Y-13736316D02*
X3081443Y-13698221D01*
X3081443Y-13698221D02*
X3090967Y-13679173D01*
X3090967Y-13679173D02*
X3100491Y-13669650D01*
X3100491Y-13669650D02*
X3119539Y-13660126D01*
X3271920Y-13860126D02*
X3271920Y-13726792D01*
X3271920Y-13745840D02*
X3281443Y-13736316D01*
X3281443Y-13736316D02*
X3300491Y-13726792D01*
X3300491Y-13726792D02*
X3329063Y-13726792D01*
X3329063Y-13726792D02*
X3348110Y-13736316D01*
X3348110Y-13736316D02*
X3357634Y-13755364D01*
X3357634Y-13755364D02*
X3357634Y-13860126D01*
X3357634Y-13755364D02*
X3367158Y-13736316D01*
X3367158Y-13736316D02*
X3386205Y-13726792D01*
X3386205Y-13726792D02*
X3414777Y-13726792D01*
X3414777Y-13726792D02*
X3433824Y-13736316D01*
X3433824Y-13736316D02*
X3443348Y-13755364D01*
X3443348Y-13755364D02*
X3443348Y-13860126D01*
X3538586Y-13860126D02*
X3538586Y-13726792D01*
X3538586Y-13745840D02*
X3548110Y-13736316D01*
X3548110Y-13736316D02*
X3567158Y-13726792D01*
X3567158Y-13726792D02*
X3595729Y-13726792D01*
X3595729Y-13726792D02*
X3614777Y-13736316D01*
X3614777Y-13736316D02*
X3624301Y-13755364D01*
X3624301Y-13755364D02*
X3624301Y-13860126D01*
X3624301Y-13755364D02*
X3633824Y-13736316D01*
X3633824Y-13736316D02*
X3652872Y-13726792D01*
X3652872Y-13726792D02*
X3681443Y-13726792D01*
X3681443Y-13726792D02*
X3700491Y-13736316D01*
X3700491Y-13736316D02*
X3710015Y-13755364D01*
X3710015Y-13755364D02*
X3710015Y-13860126D01*
X4100491Y-13650602D02*
X3929063Y-13907745D01*
X4357634Y-13660126D02*
X4376682Y-13660126D01*
X4376682Y-13660126D02*
X4395729Y-13669650D01*
X4395729Y-13669650D02*
X4405253Y-13679173D01*
X4405253Y-13679173D02*
X4414777Y-13698221D01*
X4414777Y-13698221D02*
X4424301Y-13736316D01*
X4424301Y-13736316D02*
X4424301Y-13783935D01*
X4424301Y-13783935D02*
X4414777Y-13822031D01*
X4414777Y-13822031D02*
X4405253Y-13841078D01*
X4405253Y-13841078D02*
X4395729Y-13850602D01*
X4395729Y-13850602D02*
X4376682Y-13860126D01*
X4376682Y-13860126D02*
X4357634Y-13860126D01*
X4357634Y-13860126D02*
X4338587Y-13850602D01*
X4338587Y-13850602D02*
X4329063Y-13841078D01*
X4329063Y-13841078D02*
X4319539Y-13822031D01*
X4319539Y-13822031D02*
X4310015Y-13783935D01*
X4310015Y-13783935D02*
X4310015Y-13736316D01*
X4310015Y-13736316D02*
X4319539Y-13698221D01*
X4319539Y-13698221D02*
X4329063Y-13679173D01*
X4329063Y-13679173D02*
X4338587Y-13669650D01*
X4338587Y-13669650D02*
X4357634Y-13660126D01*
X4510015Y-13841078D02*
X4519539Y-13850602D01*
X4519539Y-13850602D02*
X4510015Y-13860126D01*
X4510015Y-13860126D02*
X4500491Y-13850602D01*
X4500491Y-13850602D02*
X4510015Y-13841078D01*
X4510015Y-13841078D02*
X4510015Y-13860126D01*
X4643348Y-13660126D02*
X4662396Y-13660126D01*
X4662396Y-13660126D02*
X4681444Y-13669650D01*
X4681444Y-13669650D02*
X4690968Y-13679173D01*
X4690968Y-13679173D02*
X4700491Y-13698221D01*
X4700491Y-13698221D02*
X4710015Y-13736316D01*
X4710015Y-13736316D02*
X4710015Y-13783935D01*
X4710015Y-13783935D02*
X4700491Y-13822031D01*
X4700491Y-13822031D02*
X4690968Y-13841078D01*
X4690968Y-13841078D02*
X4681444Y-13850602D01*
X4681444Y-13850602D02*
X4662396Y-13860126D01*
X4662396Y-13860126D02*
X4643348Y-13860126D01*
X4643348Y-13860126D02*
X4624301Y-13850602D01*
X4624301Y-13850602D02*
X4614777Y-13841078D01*
X4614777Y-13841078D02*
X4605253Y-13822031D01*
X4605253Y-13822031D02*
X4595729Y-13783935D01*
X4595729Y-13783935D02*
X4595729Y-13736316D01*
X4595729Y-13736316D02*
X4605253Y-13698221D01*
X4605253Y-13698221D02*
X4614777Y-13679173D01*
X4614777Y-13679173D02*
X4624301Y-13669650D01*
X4624301Y-13669650D02*
X4643348Y-13660126D01*
X4805253Y-13860126D02*
X4843348Y-13860126D01*
X4843348Y-13860126D02*
X4862396Y-13850602D01*
X4862396Y-13850602D02*
X4871920Y-13841078D01*
X4871920Y-13841078D02*
X4890968Y-13812507D01*
X4890968Y-13812507D02*
X4900491Y-13774412D01*
X4900491Y-13774412D02*
X4900491Y-13698221D01*
X4900491Y-13698221D02*
X4890968Y-13679173D01*
X4890968Y-13679173D02*
X4881444Y-13669650D01*
X4881444Y-13669650D02*
X4862396Y-13660126D01*
X4862396Y-13660126D02*
X4824301Y-13660126D01*
X4824301Y-13660126D02*
X4805253Y-13669650D01*
X4805253Y-13669650D02*
X4795729Y-13679173D01*
X4795729Y-13679173D02*
X4786206Y-13698221D01*
X4786206Y-13698221D02*
X4786206Y-13745840D01*
X4786206Y-13745840D02*
X4795729Y-13764888D01*
X4795729Y-13764888D02*
X4805253Y-13774412D01*
X4805253Y-13774412D02*
X4824301Y-13783935D01*
X4824301Y-13783935D02*
X4862396Y-13783935D01*
X4862396Y-13783935D02*
X4881444Y-13774412D01*
X4881444Y-13774412D02*
X4890968Y-13764888D01*
X4890968Y-13764888D02*
X4900491Y-13745840D01*
X5014777Y-13745840D02*
X4995729Y-13736316D01*
X4995729Y-13736316D02*
X4986206Y-13726792D01*
X4986206Y-13726792D02*
X4976682Y-13707745D01*
X4976682Y-13707745D02*
X4976682Y-13698221D01*
X4976682Y-13698221D02*
X4986206Y-13679173D01*
X4986206Y-13679173D02*
X4995729Y-13669650D01*
X4995729Y-13669650D02*
X5014777Y-13660126D01*
X5014777Y-13660126D02*
X5052872Y-13660126D01*
X5052872Y-13660126D02*
X5071920Y-13669650D01*
X5071920Y-13669650D02*
X5081444Y-13679173D01*
X5081444Y-13679173D02*
X5090968Y-13698221D01*
X5090968Y-13698221D02*
X5090968Y-13707745D01*
X5090968Y-13707745D02*
X5081444Y-13726792D01*
X5081444Y-13726792D02*
X5071920Y-13736316D01*
X5071920Y-13736316D02*
X5052872Y-13745840D01*
X5052872Y-13745840D02*
X5014777Y-13745840D01*
X5014777Y-13745840D02*
X4995729Y-13755364D01*
X4995729Y-13755364D02*
X4986206Y-13764888D01*
X4986206Y-13764888D02*
X4976682Y-13783935D01*
X4976682Y-13783935D02*
X4976682Y-13822031D01*
X4976682Y-13822031D02*
X4986206Y-13841078D01*
X4986206Y-13841078D02*
X4995729Y-13850602D01*
X4995729Y-13850602D02*
X5014777Y-13860126D01*
X5014777Y-13860126D02*
X5052872Y-13860126D01*
X5052872Y-13860126D02*
X5071920Y-13850602D01*
X5071920Y-13850602D02*
X5081444Y-13841078D01*
X5081444Y-13841078D02*
X5090968Y-13822031D01*
X5090968Y-13822031D02*
X5090968Y-13783935D01*
X5090968Y-13783935D02*
X5081444Y-13764888D01*
X5081444Y-13764888D02*
X5071920Y-13755364D01*
X5071920Y-13755364D02*
X5052872Y-13745840D01*
X5262396Y-13726792D02*
X5262396Y-13860126D01*
X5214777Y-13650602D02*
X5167158Y-13793459D01*
X5167158Y-13793459D02*
X5290968Y-13793459D01*
X5357634Y-13660126D02*
X5357634Y-13698221D01*
X5433825Y-13660126D02*
X5433825Y-13698221D01*
X5729063Y-13936316D02*
X5719539Y-13926792D01*
X5719539Y-13926792D02*
X5700491Y-13898221D01*
X5700491Y-13898221D02*
X5690968Y-13879173D01*
X5690968Y-13879173D02*
X5681444Y-13850602D01*
X5681444Y-13850602D02*
X5671920Y-13802983D01*
X5671920Y-13802983D02*
X5671920Y-13764888D01*
X5671920Y-13764888D02*
X5681444Y-13717269D01*
X5681444Y-13717269D02*
X5690968Y-13688697D01*
X5690968Y-13688697D02*
X5700491Y-13669650D01*
X5700491Y-13669650D02*
X5719539Y-13641078D01*
X5719539Y-13641078D02*
X5729063Y-13631554D01*
X5786206Y-13660126D02*
X5910015Y-13660126D01*
X5910015Y-13660126D02*
X5843348Y-13736316D01*
X5843348Y-13736316D02*
X5871920Y-13736316D01*
X5871920Y-13736316D02*
X5890968Y-13745840D01*
X5890968Y-13745840D02*
X5900491Y-13755364D01*
X5900491Y-13755364D02*
X5910015Y-13774412D01*
X5910015Y-13774412D02*
X5910015Y-13822031D01*
X5910015Y-13822031D02*
X5900491Y-13841078D01*
X5900491Y-13841078D02*
X5890968Y-13850602D01*
X5890968Y-13850602D02*
X5871920Y-13860126D01*
X5871920Y-13860126D02*
X5814777Y-13860126D01*
X5814777Y-13860126D02*
X5795729Y-13850602D01*
X5795729Y-13850602D02*
X5786206Y-13841078D01*
X6148110Y-13860126D02*
X6148110Y-13660126D01*
X6233825Y-13860126D02*
X6233825Y-13755364D01*
X6233825Y-13755364D02*
X6224301Y-13736316D01*
X6224301Y-13736316D02*
X6205253Y-13726792D01*
X6205253Y-13726792D02*
X6176682Y-13726792D01*
X6176682Y-13726792D02*
X6157634Y-13736316D01*
X6157634Y-13736316D02*
X6148110Y-13745840D01*
X6357634Y-13860126D02*
X6338587Y-13850602D01*
X6338587Y-13850602D02*
X6329063Y-13841078D01*
X6329063Y-13841078D02*
X6319539Y-13822031D01*
X6319539Y-13822031D02*
X6319539Y-13764888D01*
X6319539Y-13764888D02*
X6329063Y-13745840D01*
X6329063Y-13745840D02*
X6338587Y-13736316D01*
X6338587Y-13736316D02*
X6357634Y-13726792D01*
X6357634Y-13726792D02*
X6386206Y-13726792D01*
X6386206Y-13726792D02*
X6405253Y-13736316D01*
X6405253Y-13736316D02*
X6414777Y-13745840D01*
X6414777Y-13745840D02*
X6424301Y-13764888D01*
X6424301Y-13764888D02*
X6424301Y-13822031D01*
X6424301Y-13822031D02*
X6414777Y-13841078D01*
X6414777Y-13841078D02*
X6405253Y-13850602D01*
X6405253Y-13850602D02*
X6386206Y-13860126D01*
X6386206Y-13860126D02*
X6357634Y-13860126D01*
X6538587Y-13860126D02*
X6519539Y-13850602D01*
X6519539Y-13850602D02*
X6510015Y-13831554D01*
X6510015Y-13831554D02*
X6510015Y-13660126D01*
X6690968Y-13850602D02*
X6671920Y-13860126D01*
X6671920Y-13860126D02*
X6633825Y-13860126D01*
X6633825Y-13860126D02*
X6614777Y-13850602D01*
X6614777Y-13850602D02*
X6605253Y-13831554D01*
X6605253Y-13831554D02*
X6605253Y-13755364D01*
X6605253Y-13755364D02*
X6614777Y-13736316D01*
X6614777Y-13736316D02*
X6633825Y-13726792D01*
X6633825Y-13726792D02*
X6671920Y-13726792D01*
X6671920Y-13726792D02*
X6690968Y-13736316D01*
X6690968Y-13736316D02*
X6700491Y-13755364D01*
X6700491Y-13755364D02*
X6700491Y-13774412D01*
X6700491Y-13774412D02*
X6605253Y-13793459D01*
X6776682Y-13850602D02*
X6795730Y-13860126D01*
X6795730Y-13860126D02*
X6833825Y-13860126D01*
X6833825Y-13860126D02*
X6852872Y-13850602D01*
X6852872Y-13850602D02*
X6862396Y-13831554D01*
X6862396Y-13831554D02*
X6862396Y-13822031D01*
X6862396Y-13822031D02*
X6852872Y-13802983D01*
X6852872Y-13802983D02*
X6833825Y-13793459D01*
X6833825Y-13793459D02*
X6805253Y-13793459D01*
X6805253Y-13793459D02*
X6786206Y-13783935D01*
X6786206Y-13783935D02*
X6776682Y-13764888D01*
X6776682Y-13764888D02*
X6776682Y-13755364D01*
X6776682Y-13755364D02*
X6786206Y-13736316D01*
X6786206Y-13736316D02*
X6805253Y-13726792D01*
X6805253Y-13726792D02*
X6833825Y-13726792D01*
X6833825Y-13726792D02*
X6852872Y-13736316D01*
X6929063Y-13936316D02*
X6938587Y-13926792D01*
X6938587Y-13926792D02*
X6957634Y-13898221D01*
X6957634Y-13898221D02*
X6967158Y-13879173D01*
X6967158Y-13879173D02*
X6976682Y-13850602D01*
X6976682Y-13850602D02*
X6986206Y-13802983D01*
X6986206Y-13802983D02*
X6986206Y-13764888D01*
X6986206Y-13764888D02*
X6976682Y-13717269D01*
X6976682Y-13717269D02*
X6967158Y-13688697D01*
X6967158Y-13688697D02*
X6957634Y-13669650D01*
X6957634Y-13669650D02*
X6938587Y-13641078D01*
X6938587Y-13641078D02*
X6929063Y-13631554D01*
M02*
