%TF.GenerationSoftware,KiCad,Pcbnew,7.0.7-7.0.7~ubuntu22.04.1*%
%TF.CreationDate,2023-10-02T11:26:06+02:00*%
%TF.ProjectId,interrupter,696e7465-7272-4757-9074-65722e6b6963,rev?*%
%TF.SameCoordinates,Original*%
%TF.FileFunction,Legend,Bot*%
%TF.FilePolarity,Positive*%
%FSLAX46Y46*%
G04 Gerber Fmt 4.6, Leading zero omitted, Abs format (unit mm)*
G04 Created by KiCad (PCBNEW 7.0.7-7.0.7~ubuntu22.04.1) date 2023-10-02 11:26:06*
%MOMM*%
%LPD*%
G01*
G04 APERTURE LIST*
%ADD10C,0.150000*%
%ADD11C,0.120000*%
G04 APERTURE END LIST*
D10*
X66238333Y-26759819D02*
X66238333Y-27474104D01*
X66238333Y-27474104D02*
X66285952Y-27616961D01*
X66285952Y-27616961D02*
X66381190Y-27712200D01*
X66381190Y-27712200D02*
X66524047Y-27759819D01*
X66524047Y-27759819D02*
X66619285Y-27759819D01*
X65762142Y-27759819D02*
X65762142Y-26759819D01*
X65762142Y-26759819D02*
X65381190Y-26759819D01*
X65381190Y-26759819D02*
X65285952Y-26807438D01*
X65285952Y-26807438D02*
X65238333Y-26855057D01*
X65238333Y-26855057D02*
X65190714Y-26950295D01*
X65190714Y-26950295D02*
X65190714Y-27093152D01*
X65190714Y-27093152D02*
X65238333Y-27188390D01*
X65238333Y-27188390D02*
X65285952Y-27236009D01*
X65285952Y-27236009D02*
X65381190Y-27283628D01*
X65381190Y-27283628D02*
X65762142Y-27283628D01*
X64238333Y-27759819D02*
X64809761Y-27759819D01*
X64524047Y-27759819D02*
X64524047Y-26759819D01*
X64524047Y-26759819D02*
X64619285Y-26902676D01*
X64619285Y-26902676D02*
X64714523Y-26997914D01*
X64714523Y-26997914D02*
X64809761Y-27045533D01*
D11*
%TO.C,JP1*%
X69280000Y-28305000D02*
G75*
G03*
X69980000Y-27605000I0J700000D01*
G01*
X69980000Y-27005000D02*
G75*
G03*
X69280000Y-26305000I-700000J0D01*
G01*
X67180000Y-27605000D02*
G75*
G03*
X67880000Y-28305000I699999J-1D01*
G01*
X67880000Y-26305000D02*
G75*
G03*
X67180000Y-27005000I-1J-699999D01*
G01*
X69980000Y-27605000D02*
X69980000Y-27005000D01*
X69280000Y-26305000D02*
X67880000Y-26305000D01*
X67880000Y-28305000D02*
X69280000Y-28305000D01*
X67180000Y-27005000D02*
X67180000Y-27605000D01*
%TD*%
M02*
