%TF.GenerationSoftware,KiCad,Pcbnew,7.0.7-7.0.7~ubuntu22.04.1*%
%TF.CreationDate,2023-10-02T11:26:38+02:00*%
%TF.ProjectId,interrupter,696e7465-7272-4757-9074-65722e6b6963,rev?*%
%TF.SameCoordinates,Original*%
%TF.FileFunction,Soldermask,Bot*%
%TF.FilePolarity,Negative*%
%FSLAX46Y46*%
G04 Gerber Fmt 4.6, Leading zero omitted, Abs format (unit mm)*
G04 Created by KiCad (PCBNEW 7.0.7-7.0.7~ubuntu22.04.1) date 2023-10-02 11:26:38*
%MOMM*%
%LPD*%
G01*
G04 APERTURE LIST*
G04 Aperture macros list*
%AMRoundRect*
0 Rectangle with rounded corners*
0 $1 Rounding radius*
0 $2 $3 $4 $5 $6 $7 $8 $9 X,Y pos of 4 corners*
0 Add a 4 corners polygon primitive as box body*
4,1,4,$2,$3,$4,$5,$6,$7,$8,$9,$2,$3,0*
0 Add four circle primitives for the rounded corners*
1,1,$1+$1,$2,$3*
1,1,$1+$1,$4,$5*
1,1,$1+$1,$6,$7*
1,1,$1+$1,$8,$9*
0 Add four rect primitives between the rounded corners*
20,1,$1+$1,$2,$3,$4,$5,0*
20,1,$1+$1,$4,$5,$6,$7,0*
20,1,$1+$1,$6,$7,$8,$9,0*
20,1,$1+$1,$8,$9,$2,$3,0*%
%AMFreePoly0*
4,1,19,0.000000,0.744911,0.071157,0.744911,0.207708,0.704816,0.327430,0.627875,0.420627,0.520320,0.479746,0.390866,0.500000,0.250000,0.500000,-0.250000,0.479746,-0.390866,0.420627,-0.520320,0.327430,-0.627875,0.207708,-0.704816,0.071157,-0.744911,0.000000,-0.744911,0.000000,-0.750000,-0.500000,-0.750000,-0.500000,0.750000,0.000000,0.750000,0.000000,0.744911,0.000000,0.744911,
$1*%
%AMFreePoly1*
4,1,19,0.500000,-0.750000,0.000000,-0.750000,0.000000,-0.744911,-0.071157,-0.744911,-0.207708,-0.704816,-0.327430,-0.627875,-0.420627,-0.520320,-0.479746,-0.390866,-0.500000,-0.250000,-0.500000,0.250000,-0.479746,0.390866,-0.420627,0.520320,-0.327430,0.627875,-0.207708,0.704816,-0.071157,0.744911,0.000000,0.744911,0.000000,0.750000,0.500000,0.750000,0.500000,-0.750000,0.500000,-0.750000,
$1*%
G04 Aperture macros list end*
%ADD10R,1.700000X1.700000*%
%ADD11O,1.700000X1.700000*%
%ADD12C,2.500000*%
%ADD13R,3.500000X3.500000*%
%ADD14RoundRect,0.750000X-0.750000X-1.000000X0.750000X-1.000000X0.750000X1.000000X-0.750000X1.000000X0*%
%ADD15RoundRect,0.875000X-0.875000X-0.875000X0.875000X-0.875000X0.875000X0.875000X-0.875000X0.875000X0*%
%ADD16O,3.500000X3.500000*%
%ADD17R,1.905000X2.000000*%
%ADD18O,1.905000X2.000000*%
%ADD19C,1.600000*%
%ADD20C,3.200000*%
%ADD21R,1.208000X1.208000*%
%ADD22O,2.200000X3.500000*%
%ADD23R,1.500000X2.500000*%
%ADD24O,1.500000X2.500000*%
%ADD25O,1.400000X1.400000*%
%ADD26C,1.400000*%
%ADD27C,1.500000*%
%ADD28O,1.800000X2.600000*%
%ADD29R,1.800000X2.600000*%
%ADD30C,3.000000*%
%ADD31O,1.600000X1.600000*%
%ADD32R,1.600000X1.600000*%
%ADD33C,2.000000*%
%ADD34C,1.200000*%
%ADD35R,1.200000X1.200000*%
%ADD36O,2.500000X1.500000*%
%ADD37R,2.500000X1.500000*%
%ADD38O,3.500000X2.200000*%
%ADD39FreePoly0,0.000000*%
%ADD40FreePoly1,0.000000*%
G04 APERTURE END LIST*
D10*
%TO.C,J3*%
X89535000Y-50800000D03*
D11*
X92075000Y-50800000D03*
X89535000Y-48260000D03*
X92075000Y-48260000D03*
X89535000Y-45720000D03*
X92075000Y-45720000D03*
%TD*%
D12*
%TO.C,J4*%
X92250000Y-87115000D03*
X92250000Y-94615000D03*
X92250000Y-102115000D03*
X89750000Y-89615000D03*
X89750000Y-99615000D03*
X102250000Y-99615000D03*
X102250000Y-89615000D03*
%TD*%
D13*
%TO.C,J1*%
X36480000Y-86360000D03*
D14*
X30480000Y-86360000D03*
D15*
X33480000Y-91060000D03*
%TD*%
D16*
%TO.C,U2*%
X39370000Y-46840000D03*
D17*
X41910000Y-63500000D03*
D18*
X39370000Y-63500000D03*
X36830000Y-63500000D03*
%TD*%
D19*
%TO.C,U3*%
X91186000Y-27178000D03*
D20*
X93686000Y-34778000D03*
D19*
X96186000Y-27178000D03*
D21*
X94886000Y-29678000D03*
X92286000Y-29678000D03*
%TD*%
D19*
%TO.C,C5*%
X83820000Y-78780000D03*
X83820000Y-83780000D03*
%TD*%
D22*
%TO.C,SW2*%
X75230000Y-29210000D03*
X87330000Y-29210000D03*
D23*
X78280000Y-29210000D03*
D24*
X81280000Y-29210000D03*
X84280000Y-29210000D03*
%TD*%
D25*
%TO.C,R14*%
X65405000Y-94615000D03*
D26*
X65405000Y-102235000D03*
%TD*%
D27*
%TO.C,Y1*%
X63500000Y-40640000D03*
X58620000Y-40640000D03*
%TD*%
D28*
%TO.C,DS1*%
X70269100Y-30480000D03*
X67729100Y-30480000D03*
X65189100Y-30480000D03*
X62649100Y-30480000D03*
X60109100Y-30480000D03*
X57569100Y-30480000D03*
X55029100Y-30480000D03*
X52489100Y-30480000D03*
X49949100Y-30480000D03*
X47409100Y-30480000D03*
X44869100Y-30480000D03*
X42329100Y-30480000D03*
X39789100Y-30480000D03*
X37249100Y-30480000D03*
X34709100Y-30480000D03*
D29*
X32169100Y-30480000D03*
D30*
X101669100Y-30480000D03*
X101668580Y-61480700D03*
X26670000Y-30480000D03*
%TD*%
D31*
%TO.C,U5*%
X69205000Y-102220000D03*
X69205000Y-99680000D03*
X69205000Y-97140000D03*
X76825000Y-97140000D03*
X76825000Y-99680000D03*
D32*
X76825000Y-102220000D03*
%TD*%
D25*
%TO.C,R11*%
X69850000Y-55880000D03*
D26*
X69850000Y-63500000D03*
%TD*%
D25*
%TO.C,R13*%
X76200000Y-34290000D03*
D26*
X76200000Y-41910000D03*
%TD*%
D25*
%TO.C,R5*%
X44450000Y-80010000D03*
D26*
X44450000Y-87630000D03*
%TD*%
D33*
%TO.C,SW5*%
X48550000Y-87070000D03*
X48550000Y-80570000D03*
X53050000Y-87070000D03*
X53050000Y-80570000D03*
%TD*%
%TO.C,SW3*%
X73950000Y-87070000D03*
X73950000Y-80570000D03*
X78450000Y-87070000D03*
X78450000Y-80570000D03*
%TD*%
D31*
%TO.C,D1*%
X83185000Y-94615000D03*
D32*
X83185000Y-102235000D03*
%TD*%
D18*
%TO.C,U1*%
X25110000Y-63500000D03*
X27650000Y-63500000D03*
D17*
X30190000Y-63500000D03*
D16*
X27650000Y-46840000D03*
%TD*%
D25*
%TO.C,R10*%
X67310000Y-55880000D03*
D26*
X67310000Y-63500000D03*
%TD*%
D25*
%TO.C,R2*%
X34290000Y-33370000D03*
D26*
X34290000Y-40990000D03*
%TD*%
D31*
%TO.C,U4*%
X83810000Y-52510000D03*
X81270000Y-52510000D03*
X78730000Y-52510000D03*
X76190000Y-52510000D03*
X73650000Y-52510000D03*
X71110000Y-52510000D03*
X68570000Y-52510000D03*
X66030000Y-52510000D03*
X63490000Y-52510000D03*
X60950000Y-52510000D03*
X58410000Y-52510000D03*
X55870000Y-52510000D03*
X53330000Y-52510000D03*
X50790000Y-52510000D03*
X50790000Y-44890000D03*
X53330000Y-44890000D03*
X55870000Y-44890000D03*
X58410000Y-44890000D03*
X60950000Y-44890000D03*
X63490000Y-44890000D03*
X66030000Y-44890000D03*
X68570000Y-44890000D03*
X71110000Y-44890000D03*
X73650000Y-44890000D03*
X76190000Y-44890000D03*
X78730000Y-44890000D03*
X81270000Y-44890000D03*
D32*
X83810000Y-44890000D03*
%TD*%
D34*
%TO.C,C2*%
X45720000Y-69850000D03*
D35*
X44220000Y-69850000D03*
%TD*%
D19*
%TO.C,C6*%
X67270000Y-35560000D03*
X62270000Y-35560000D03*
%TD*%
D25*
%TO.C,R7*%
X53340000Y-63500000D03*
D26*
X53340000Y-55880000D03*
%TD*%
D25*
%TO.C,R15*%
X61595000Y-94615000D03*
D26*
X61595000Y-102235000D03*
%TD*%
D25*
%TO.C,R12*%
X64770000Y-55880000D03*
D26*
X64770000Y-63500000D03*
%TD*%
D34*
%TO.C,C3*%
X50800000Y-69850000D03*
D35*
X49300000Y-69850000D03*
%TD*%
D25*
%TO.C,R16*%
X80010000Y-102235000D03*
D26*
X80010000Y-94615000D03*
%TD*%
D36*
%TO.C,SW1*%
X25400000Y-75850000D03*
X25400000Y-72850000D03*
D37*
X25400000Y-69850000D03*
D38*
X25400000Y-78900000D03*
X25400000Y-66800000D03*
%TD*%
D25*
%TO.C,R9*%
X83820000Y-42545000D03*
D26*
X83820000Y-34925000D03*
%TD*%
D25*
%TO.C,R1*%
X31750000Y-33370000D03*
D26*
X31750000Y-40990000D03*
%TD*%
D19*
%TO.C,C7*%
X52705000Y-42390000D03*
X52705000Y-37390000D03*
%TD*%
D25*
%TO.C,R3*%
X69850000Y-80010000D03*
D26*
X69850000Y-87630000D03*
%TD*%
D19*
%TO.C,C4*%
X70485000Y-37390000D03*
X70485000Y-42390000D03*
%TD*%
D34*
%TO.C,C1*%
X34290000Y-68580000D03*
D35*
X32790000Y-68580000D03*
%TD*%
D33*
%TO.C,SW4*%
X61250000Y-87070000D03*
X61250000Y-80570000D03*
X65750000Y-87070000D03*
X65750000Y-80570000D03*
%TD*%
D25*
%TO.C,R8*%
X60960000Y-63500000D03*
D26*
X60960000Y-55880000D03*
%TD*%
D25*
%TO.C,R6*%
X55880000Y-63500000D03*
D26*
X55880000Y-55880000D03*
%TD*%
D25*
%TO.C,R4*%
X57150000Y-80010000D03*
D26*
X57150000Y-87630000D03*
%TD*%
D39*
%TO.C,JP1*%
X69230000Y-27305000D03*
D40*
X67930000Y-27305000D03*
%TD*%
M02*
