%TF.GenerationSoftware,KiCad,Pcbnew,7.0.7-7.0.7~ubuntu22.04.1*%
%TF.CreationDate,2023-10-02T11:26:38+02:00*%
%TF.ProjectId,interrupter,696e7465-7272-4757-9074-65722e6b6963,rev?*%
%TF.SameCoordinates,Original*%
%TF.FileFunction,Soldermask,Top*%
%TF.FilePolarity,Negative*%
%FSLAX46Y46*%
G04 Gerber Fmt 4.6, Leading zero omitted, Abs format (unit mm)*
G04 Created by KiCad (PCBNEW 7.0.7-7.0.7~ubuntu22.04.1) date 2023-10-02 11:26:38*
%MOMM*%
%LPD*%
G01*
G04 APERTURE LIST*
G04 Aperture macros list*
%AMRoundRect*
0 Rectangle with rounded corners*
0 $1 Rounding radius*
0 $2 $3 $4 $5 $6 $7 $8 $9 X,Y pos of 4 corners*
0 Add a 4 corners polygon primitive as box body*
4,1,4,$2,$3,$4,$5,$6,$7,$8,$9,$2,$3,0*
0 Add four circle primitives for the rounded corners*
1,1,$1+$1,$2,$3*
1,1,$1+$1,$4,$5*
1,1,$1+$1,$6,$7*
1,1,$1+$1,$8,$9*
0 Add four rect primitives between the rounded corners*
20,1,$1+$1,$2,$3,$4,$5,0*
20,1,$1+$1,$4,$5,$6,$7,0*
20,1,$1+$1,$6,$7,$8,$9,0*
20,1,$1+$1,$8,$9,$2,$3,0*%
G04 Aperture macros list end*
%ADD10R,1.200000X0.700000*%
%ADD11R,0.800000X1.000000*%
%ADD12R,1.200000X1.000000*%
%ADD13R,2.800000X1.000000*%
%ADD14R,1.900000X1.300000*%
%ADD15R,1.700000X1.700000*%
%ADD16O,1.700000X1.700000*%
%ADD17C,2.500000*%
%ADD18R,3.500000X3.500000*%
%ADD19RoundRect,0.750000X-0.750000X-1.000000X0.750000X-1.000000X0.750000X1.000000X-0.750000X1.000000X0*%
%ADD20RoundRect,0.875000X-0.875000X-0.875000X0.875000X-0.875000X0.875000X0.875000X-0.875000X0.875000X0*%
%ADD21O,3.500000X3.500000*%
%ADD22R,1.905000X2.000000*%
%ADD23O,1.905000X2.000000*%
%ADD24C,1.600000*%
%ADD25C,3.200000*%
%ADD26R,1.208000X1.208000*%
%ADD27O,2.200000X3.500000*%
%ADD28R,1.500000X2.500000*%
%ADD29O,1.500000X2.500000*%
%ADD30O,1.400000X1.400000*%
%ADD31C,1.400000*%
%ADD32C,1.500000*%
%ADD33O,1.800000X2.600000*%
%ADD34R,1.800000X2.600000*%
%ADD35C,3.000000*%
%ADD36O,1.600000X1.600000*%
%ADD37R,1.600000X1.600000*%
%ADD38C,2.000000*%
%ADD39C,1.200000*%
%ADD40R,1.200000X1.200000*%
%ADD41O,2.500000X1.500000*%
%ADD42R,2.500000X1.500000*%
%ADD43O,3.500000X2.200000*%
G04 APERTURE END LIST*
%TO.C,G\u002A\u002A\u002A*%
G36*
X35775146Y-100766429D02*
G01*
X35920772Y-100884011D01*
X36013598Y-101055426D01*
X36040172Y-101232296D01*
X36002290Y-101428433D01*
X35899923Y-101585247D01*
X35750615Y-101692255D01*
X35571913Y-101738975D01*
X35381362Y-101714925D01*
X35295033Y-101677467D01*
X35142325Y-101547891D01*
X35055983Y-101366294D01*
X35038277Y-101217238D01*
X35076074Y-101011790D01*
X35183737Y-100850957D01*
X35352673Y-100746710D01*
X35383420Y-100736497D01*
X35591201Y-100713613D01*
X35775146Y-100766429D01*
G37*
G36*
X47702883Y-102230831D02*
G01*
X47994247Y-102243713D01*
X48269263Y-102676648D01*
X48544280Y-103109583D01*
X48544280Y-102665756D01*
X48544280Y-102221930D01*
X48783903Y-102221930D01*
X49023525Y-102221930D01*
X49023525Y-103180420D01*
X49023525Y-104138911D01*
X48788132Y-104138911D01*
X48552739Y-104138911D01*
X48280056Y-103692341D01*
X48169198Y-103511361D01*
X48071497Y-103352912D01*
X47997833Y-103234571D01*
X47959961Y-103175209D01*
X47938916Y-103165982D01*
X47924614Y-103217199D01*
X47916179Y-103336896D01*
X47912738Y-103533111D01*
X47912548Y-103610887D01*
X47912548Y-104117127D01*
X47662033Y-104130193D01*
X47411518Y-104143259D01*
X47411518Y-103180604D01*
X47411518Y-102217948D01*
X47702883Y-102230831D01*
G37*
G36*
X36832396Y-99074670D02*
G01*
X36925877Y-99126947D01*
X36987204Y-99168777D01*
X37326411Y-99464350D01*
X37609209Y-99813449D01*
X37827462Y-100202210D01*
X37973037Y-100616767D01*
X38030752Y-100947573D01*
X38057052Y-101219871D01*
X37157613Y-101219871D01*
X36856383Y-101219588D01*
X36631225Y-101218000D01*
X36471074Y-101214000D01*
X36364868Y-101206482D01*
X36301543Y-101194337D01*
X36270034Y-101176460D01*
X36259279Y-101151743D01*
X36258174Y-101129871D01*
X36223877Y-100979857D01*
X36117403Y-100811463D01*
X36028458Y-100709908D01*
X35896334Y-100570271D01*
X36323152Y-99826354D01*
X36455934Y-99596667D01*
X36575138Y-99393758D01*
X36673645Y-99229484D01*
X36744332Y-99115700D01*
X36780078Y-99064262D01*
X36781820Y-99062753D01*
X36832396Y-99074670D01*
G37*
G36*
X34326838Y-99104684D02*
G01*
X34393495Y-99210993D01*
X34488884Y-99369354D01*
X34605870Y-99567901D01*
X34737318Y-99794767D01*
X34755460Y-99826354D01*
X35182278Y-100570271D01*
X35050153Y-100709908D01*
X34902658Y-100892245D01*
X34830229Y-101050918D01*
X34820438Y-101129871D01*
X34817589Y-101160105D01*
X34801641Y-101182678D01*
X34761491Y-101198707D01*
X34686037Y-101209312D01*
X34564177Y-101215612D01*
X34384807Y-101218725D01*
X34136826Y-101219771D01*
X33927299Y-101219871D01*
X33034160Y-101219871D01*
X33034160Y-101069529D01*
X33068324Y-100755102D01*
X33164745Y-100414893D01*
X33314315Y-100073120D01*
X33507926Y-99753996D01*
X33551147Y-99695000D01*
X33653538Y-99574608D01*
X33783496Y-99442662D01*
X33925448Y-99312391D01*
X34063819Y-99197024D01*
X34183034Y-99109788D01*
X34267519Y-99063914D01*
X34296049Y-99062293D01*
X34326838Y-99104684D01*
G37*
G36*
X36349912Y-102578270D02*
G01*
X36479608Y-102804465D01*
X36593853Y-103006586D01*
X36685544Y-103171832D01*
X36747576Y-103287400D01*
X36772846Y-103340489D01*
X36772848Y-103340496D01*
X36744470Y-103394263D01*
X36646509Y-103461844D01*
X36493783Y-103535399D01*
X36301113Y-103607087D01*
X36222922Y-103631492D01*
X36033092Y-103674121D01*
X35801716Y-103706482D01*
X35562777Y-103725572D01*
X35350261Y-103728384D01*
X35234331Y-103718895D01*
X35032730Y-103678617D01*
X34827779Y-103621250D01*
X34636077Y-103553558D01*
X34474219Y-103482304D01*
X34358804Y-103414252D01*
X34306427Y-103356164D01*
X34305763Y-103340496D01*
X34331016Y-103287438D01*
X34393034Y-103171894D01*
X34484713Y-103006667D01*
X34598950Y-102804559D01*
X34728641Y-102578372D01*
X34728700Y-102578270D01*
X35137991Y-101869227D01*
X35273297Y-101902638D01*
X35418308Y-101927584D01*
X35539306Y-101936049D01*
X35682430Y-101924805D01*
X35805315Y-101902638D01*
X35940621Y-101869227D01*
X36349912Y-102578270D01*
G37*
G36*
X43261690Y-95259690D02*
G01*
X43503951Y-95271878D01*
X43679869Y-95289370D01*
X43810218Y-95315561D01*
X43915770Y-95353843D01*
X43955105Y-95372993D01*
X44155467Y-95522012D01*
X44301794Y-95722600D01*
X44392619Y-95957448D01*
X44426475Y-96209246D01*
X44401895Y-96460686D01*
X44317413Y-96694459D01*
X44171562Y-96893255D01*
X44089879Y-96963474D01*
X43949365Y-97052987D01*
X43798625Y-97113290D01*
X43616649Y-97149217D01*
X43382429Y-97165604D01*
X43200729Y-97168070D01*
X42749769Y-97168070D01*
X42749769Y-96204210D01*
X42749769Y-95730334D01*
X43359717Y-95730334D01*
X43359717Y-96209580D01*
X43359717Y-96688825D01*
X43468637Y-96688825D01*
X43582328Y-96658490D01*
X43662262Y-96604119D01*
X43750446Y-96468716D01*
X43790283Y-96303586D01*
X43786222Y-96128825D01*
X43742719Y-95964524D01*
X43664223Y-95830777D01*
X43555189Y-95747677D01*
X43468637Y-95730334D01*
X43359717Y-95730334D01*
X42749769Y-95730334D01*
X42749769Y-95240349D01*
X43261690Y-95259690D01*
G37*
G36*
X49230637Y-95257720D02*
G01*
X49476231Y-95279793D01*
X49662942Y-95320576D01*
X49804470Y-95383337D01*
X49914513Y-95471346D01*
X49936793Y-95495483D01*
X50019049Y-95604551D01*
X50058340Y-95712327D01*
X50069090Y-95860551D01*
X50069151Y-95878462D01*
X50036508Y-96105196D01*
X49937877Y-96276759D01*
X49772211Y-96393992D01*
X49538458Y-96457736D01*
X49329899Y-96470986D01*
X49067093Y-96470986D01*
X49067093Y-96819528D01*
X49067093Y-97168070D01*
X48762119Y-97168070D01*
X48457145Y-97168070D01*
X48457145Y-96209580D01*
X48457145Y-95725324D01*
X49067093Y-95725324D01*
X49067093Y-95882821D01*
X49067093Y-96040319D01*
X49252256Y-96026922D01*
X49368623Y-96013484D01*
X49422096Y-95983162D01*
X49436894Y-95917107D01*
X49437419Y-95882821D01*
X49430309Y-95800166D01*
X49392834Y-95759709D01*
X49300774Y-95742602D01*
X49252256Y-95738721D01*
X49067093Y-95725324D01*
X48457145Y-95725324D01*
X48457145Y-95251089D01*
X48912461Y-95251089D01*
X49230637Y-95257720D01*
G37*
G36*
X46191621Y-102888516D02*
G01*
X46194632Y-103186613D01*
X46203891Y-103402433D01*
X46219735Y-103540637D01*
X46242505Y-103605882D01*
X46243903Y-103607384D01*
X46338432Y-103653300D01*
X46460853Y-103658181D01*
X46572000Y-103625309D01*
X46625766Y-103575394D01*
X46642228Y-103502070D01*
X46655909Y-103359091D01*
X46665715Y-103163918D01*
X46670549Y-102934014D01*
X46670867Y-102856526D01*
X46670867Y-102221930D01*
X46910489Y-102221930D01*
X47150112Y-102221930D01*
X47150044Y-102929905D01*
X47147037Y-103241155D01*
X47135772Y-103479223D01*
X47112780Y-103657932D01*
X47074594Y-103791105D01*
X47017745Y-103892563D01*
X46938767Y-103976130D01*
X46874872Y-104026705D01*
X46729483Y-104092487D01*
X46531251Y-104129271D01*
X46309762Y-104136310D01*
X46094602Y-104112856D01*
X45915355Y-104058164D01*
X45901203Y-104051282D01*
X45794660Y-103989583D01*
X45714566Y-103918798D01*
X45657233Y-103826154D01*
X45618968Y-103698876D01*
X45596084Y-103524191D01*
X45584889Y-103289323D01*
X45581694Y-102981500D01*
X45581673Y-102945105D01*
X45581673Y-102221930D01*
X45886647Y-102221930D01*
X46191621Y-102221930D01*
X46191621Y-102888516D01*
G37*
G36*
X47684373Y-95300501D02*
G01*
X47792748Y-95343503D01*
X47990124Y-95483733D01*
X48134056Y-95676714D01*
X48224403Y-95906267D01*
X48261021Y-96156210D01*
X48243769Y-96410363D01*
X48172502Y-96652545D01*
X48047079Y-96866576D01*
X47867358Y-97036276D01*
X47807989Y-97073249D01*
X47611832Y-97143530D01*
X47376863Y-97169058D01*
X47139178Y-97149591D01*
X46934874Y-97084887D01*
X46923720Y-97079168D01*
X46724072Y-96926530D01*
X46575172Y-96714478D01*
X46484413Y-96459181D01*
X46461352Y-96201017D01*
X47128328Y-96201017D01*
X47132570Y-96390140D01*
X47148108Y-96514747D01*
X47179159Y-96597170D01*
X47211324Y-96640560D01*
X47322566Y-96720177D01*
X47429672Y-96713774D01*
X47525189Y-96622336D01*
X47575576Y-96491050D01*
X47601455Y-96310346D01*
X47602618Y-96113468D01*
X47578857Y-95933664D01*
X47530325Y-95804733D01*
X47446026Y-95710493D01*
X47357187Y-95695995D01*
X47245012Y-95759059D01*
X47231182Y-95770038D01*
X47179155Y-95820821D01*
X47148293Y-95883933D01*
X47133209Y-95981951D01*
X47128516Y-96137451D01*
X47128328Y-96201017D01*
X46461352Y-96201017D01*
X46459189Y-96176806D01*
X46466624Y-96079435D01*
X46515955Y-95859975D01*
X46603252Y-95652483D01*
X46713634Y-95490197D01*
X46744069Y-95459697D01*
X46938190Y-95337872D01*
X47177298Y-95268771D01*
X47434867Y-95255334D01*
X47684373Y-95300501D01*
G37*
G36*
X45491911Y-95260211D02*
G01*
X45782389Y-95289641D01*
X46001856Y-95350334D01*
X46156523Y-95445356D01*
X46252602Y-95577772D01*
X46296304Y-95750650D01*
X46300541Y-95839695D01*
X46293367Y-95988724D01*
X46261877Y-96090889D01*
X46191115Y-96185957D01*
X46156536Y-96222612D01*
X46012531Y-96371188D01*
X46167428Y-96745379D01*
X46235060Y-96911395D01*
X46287723Y-97045678D01*
X46317950Y-97128938D01*
X46322325Y-97145653D01*
X46282334Y-97156483D01*
X46176400Y-97161626D01*
X46025579Y-97160235D01*
X45989584Y-97159011D01*
X45656843Y-97146286D01*
X45528442Y-96808636D01*
X45456143Y-96631876D01*
X45398457Y-96525982D01*
X45347098Y-96477747D01*
X45316586Y-96470986D01*
X45274919Y-96479198D01*
X45249940Y-96515438D01*
X45237479Y-96597113D01*
X45233370Y-96741631D01*
X45233131Y-96819528D01*
X45233131Y-97168070D01*
X44927307Y-97168070D01*
X44621483Y-97168070D01*
X44633225Y-96220472D01*
X44637678Y-95861038D01*
X45233131Y-95861038D01*
X45239208Y-95973443D01*
X45267334Y-96023394D01*
X45332351Y-96035273D01*
X45339214Y-96035309D01*
X45464535Y-96019212D01*
X45557053Y-95992819D01*
X45648323Y-95925985D01*
X45668808Y-95844993D01*
X45645954Y-95755828D01*
X45568502Y-95705714D01*
X45423118Y-95687296D01*
X45382055Y-95686767D01*
X45286692Y-95692261D01*
X45244310Y-95725483D01*
X45233454Y-95811540D01*
X45233131Y-95861038D01*
X44637678Y-95861038D01*
X44644966Y-95272873D01*
X45124211Y-95258977D01*
X45491911Y-95260211D01*
G37*
G36*
X44220181Y-102222172D02*
G01*
X44517831Y-102226279D01*
X44743857Y-102240553D01*
X44913502Y-102268373D01*
X45042012Y-102313118D01*
X45144633Y-102378166D01*
X45213824Y-102442353D01*
X45291217Y-102536574D01*
X45329571Y-102632866D01*
X45341642Y-102768452D01*
X45342050Y-102816529D01*
X45336462Y-102962773D01*
X45310275Y-103057817D01*
X45249356Y-103137356D01*
X45194791Y-103188441D01*
X45047532Y-103320017D01*
X45205683Y-103706702D01*
X45273732Y-103875494D01*
X45327100Y-104012451D01*
X45358524Y-104098689D01*
X45363834Y-104117982D01*
X45323836Y-104128096D01*
X45217860Y-104132720D01*
X45066934Y-104131105D01*
X45030117Y-104129851D01*
X44696399Y-104117127D01*
X44562736Y-103757693D01*
X44487342Y-103569582D01*
X44426936Y-103455191D01*
X44375201Y-103403752D01*
X44351857Y-103398259D01*
X44314054Y-103408002D01*
X44290941Y-103448323D01*
X44279047Y-103535861D01*
X44274904Y-103687255D01*
X44274640Y-103768585D01*
X44274640Y-104138911D01*
X43969666Y-104138911D01*
X43664692Y-104138911D01*
X43664692Y-103180420D01*
X43664692Y-102967356D01*
X44274640Y-102967356D01*
X44481587Y-102954077D01*
X44609339Y-102940219D01*
X44674137Y-102911591D01*
X44700141Y-102855411D01*
X44703238Y-102836805D01*
X44692025Y-102737908D01*
X44617988Y-102680611D01*
X44472156Y-102658874D01*
X44438019Y-102658274D01*
X44331081Y-102663306D01*
X44285310Y-102695899D01*
X44274796Y-102780510D01*
X44274640Y-102812481D01*
X44274640Y-102967356D01*
X43664692Y-102967356D01*
X43664692Y-102221930D01*
X44220181Y-102222172D01*
G37*
G36*
X46107408Y-98759954D02*
G01*
X46221691Y-98769695D01*
X46297281Y-98794653D01*
X46358400Y-98841965D01*
X46413034Y-98900576D01*
X46517121Y-99072250D01*
X46537450Y-99252270D01*
X46475205Y-99429557D01*
X46339815Y-99586080D01*
X46272822Y-99653690D01*
X46269186Y-99707165D01*
X46301040Y-99756693D01*
X46343479Y-99803539D01*
X46375264Y-99794984D01*
X46414222Y-99720038D01*
X46433223Y-99675200D01*
X46482814Y-99570997D01*
X46534525Y-99529139D01*
X46620571Y-99530200D01*
X46662753Y-99536784D01*
X46790796Y-99554778D01*
X46891380Y-99563643D01*
X46899597Y-99563817D01*
X46955630Y-99597331D01*
X46967476Y-99684421D01*
X46939652Y-99806409D01*
X46876677Y-99944618D01*
X46783066Y-100080369D01*
X46771351Y-100094056D01*
X46732731Y-100152580D01*
X46765936Y-100183912D01*
X46793876Y-100193587D01*
X46893358Y-100210788D01*
X46938653Y-100208425D01*
X46975887Y-100226303D01*
X46994159Y-100308569D01*
X46997625Y-100413868D01*
X46997625Y-100631707D01*
X46792951Y-100644893D01*
X46600840Y-100634745D01*
X46455301Y-100589314D01*
X46353846Y-100546372D01*
X46273860Y-100550951D01*
X46193785Y-100587020D01*
X46055209Y-100628889D01*
X45866827Y-100648713D01*
X45663183Y-100646297D01*
X45478824Y-100621449D01*
X45381923Y-100591563D01*
X45212723Y-100475104D01*
X45085927Y-100305216D01*
X45036587Y-100172018D01*
X45040198Y-100050943D01*
X45626803Y-100050943D01*
X45643887Y-100144894D01*
X45679700Y-100188959D01*
X45774406Y-100210431D01*
X45877564Y-100212303D01*
X45954356Y-100196234D01*
X45973783Y-100174932D01*
X45945583Y-100107283D01*
X45877045Y-100021889D01*
X45792262Y-99942067D01*
X45715327Y-99891132D01*
X45675900Y-99886672D01*
X45637300Y-99950999D01*
X45626803Y-100050943D01*
X45040198Y-100050943D01*
X45041302Y-100013946D01*
X45108349Y-99844558D01*
X45223164Y-99693528D01*
X45303813Y-99627421D01*
X45389746Y-99562943D01*
X45411222Y-99514298D01*
X45380057Y-99455140D01*
X45322238Y-99307987D01*
X45327356Y-99179552D01*
X45854652Y-99179552D01*
X45875661Y-99265578D01*
X45888312Y-99283112D01*
X45962178Y-99333543D01*
X46018293Y-99305051D01*
X46039134Y-99212721D01*
X46010291Y-99120681D01*
X45962759Y-99093320D01*
X45887886Y-99111423D01*
X45854652Y-99179552D01*
X45327356Y-99179552D01*
X45329099Y-99135819D01*
X45397096Y-98967821D01*
X45447396Y-98900576D01*
X45514349Y-98830289D01*
X45576436Y-98788055D01*
X45657875Y-98766738D01*
X45782885Y-98759199D01*
X45930215Y-98758293D01*
X46107408Y-98759954D01*
G37*
G36*
X35693988Y-94858771D02*
G01*
X35793702Y-94957007D01*
X35833526Y-95018144D01*
X35912336Y-95147503D01*
X36030460Y-95345646D01*
X36188224Y-95613135D01*
X36385957Y-95950535D01*
X36623985Y-96358408D01*
X36902634Y-96837317D01*
X37222234Y-97387825D01*
X37583110Y-98010495D01*
X37985589Y-98705890D01*
X38429999Y-99474573D01*
X38916667Y-100317107D01*
X39445921Y-101234055D01*
X40018086Y-102225980D01*
X40105724Y-102377960D01*
X40356683Y-102814013D01*
X40566537Y-103181390D01*
X40738206Y-103486612D01*
X40874614Y-103736197D01*
X40978683Y-103936663D01*
X41053334Y-104094530D01*
X41101490Y-104216317D01*
X41126073Y-104308543D01*
X41130005Y-104377725D01*
X41116210Y-104430384D01*
X41087608Y-104473038D01*
X41058088Y-104502484D01*
X41041375Y-104513137D01*
X41013025Y-104522694D01*
X40968523Y-104531213D01*
X40903354Y-104538754D01*
X40813002Y-104545376D01*
X40692953Y-104551137D01*
X40538692Y-104556096D01*
X40345704Y-104560313D01*
X40109474Y-104563845D01*
X39825488Y-104566753D01*
X39489229Y-104569095D01*
X39096183Y-104570929D01*
X38641836Y-104572315D01*
X38121672Y-104573312D01*
X37531176Y-104573978D01*
X36865833Y-104574373D01*
X36121130Y-104574556D01*
X35531736Y-104574588D01*
X34729765Y-104574548D01*
X34010381Y-104574386D01*
X33369033Y-104574034D01*
X32801172Y-104573427D01*
X32302249Y-104572501D01*
X31867713Y-104571188D01*
X31493016Y-104569424D01*
X31173609Y-104567143D01*
X30904941Y-104564278D01*
X30682463Y-104560765D01*
X30501625Y-104556538D01*
X30357879Y-104551530D01*
X30246675Y-104545677D01*
X30163462Y-104538912D01*
X30103693Y-104531171D01*
X30062816Y-104522387D01*
X30036283Y-104512494D01*
X30019545Y-104501427D01*
X30012954Y-104494914D01*
X29958362Y-104391469D01*
X29940850Y-104291511D01*
X29963725Y-104218009D01*
X30032219Y-104070758D01*
X30098614Y-103942161D01*
X30812205Y-103942161D01*
X30854839Y-103945175D01*
X30979009Y-103948070D01*
X31179115Y-103950820D01*
X31449558Y-103953399D01*
X31784736Y-103955778D01*
X32179052Y-103957932D01*
X32626904Y-103959835D01*
X33122694Y-103961459D01*
X33660821Y-103962778D01*
X34235686Y-103963765D01*
X34841689Y-103964394D01*
X35473230Y-103964637D01*
X35539306Y-103964640D01*
X36173152Y-103964438D01*
X36782036Y-103963850D01*
X37360356Y-103962903D01*
X37902514Y-103961623D01*
X38402909Y-103960036D01*
X38855942Y-103958170D01*
X39256013Y-103956050D01*
X39597522Y-103953703D01*
X39874871Y-103951156D01*
X40082457Y-103948435D01*
X40214683Y-103945567D01*
X40265949Y-103942577D01*
X40266407Y-103942264D01*
X40245049Y-103897208D01*
X40183268Y-103783578D01*
X40084507Y-103607273D01*
X39952207Y-103374190D01*
X39789810Y-103090226D01*
X39600758Y-102761281D01*
X39388493Y-102393251D01*
X39156456Y-101992034D01*
X38908090Y-101563528D01*
X38646836Y-101113630D01*
X38376136Y-100648240D01*
X38099432Y-100173253D01*
X37820165Y-99694569D01*
X37541778Y-99218084D01*
X37267712Y-98749697D01*
X37001410Y-98295305D01*
X36746312Y-97860806D01*
X36505861Y-97452098D01*
X36283498Y-97075078D01*
X36082666Y-96735645D01*
X35906806Y-96439695D01*
X35759360Y-96193128D01*
X35643770Y-96001840D01*
X35563477Y-95871730D01*
X35521924Y-95808694D01*
X35516861Y-95803630D01*
X35490523Y-95845958D01*
X35424318Y-95957517D01*
X35321688Y-96132353D01*
X35186075Y-96364514D01*
X35020920Y-96648045D01*
X34829665Y-96976993D01*
X34615751Y-97345404D01*
X34382620Y-97747325D01*
X34133713Y-98176803D01*
X33872472Y-98627884D01*
X33602338Y-99094614D01*
X33326753Y-99571041D01*
X33049159Y-100051209D01*
X32772997Y-100529167D01*
X32501708Y-100998960D01*
X32238735Y-101454635D01*
X31987518Y-101890239D01*
X31751499Y-102299818D01*
X31534121Y-102677418D01*
X31338823Y-103017086D01*
X31169049Y-103312869D01*
X31028239Y-103558812D01*
X30919835Y-103748963D01*
X30847279Y-103877368D01*
X30814012Y-103938074D01*
X30812205Y-103942161D01*
X30098614Y-103942161D01*
X30146132Y-103850127D01*
X30305265Y-103556485D01*
X30509421Y-103190200D01*
X30758399Y-102751641D01*
X30973017Y-102377960D01*
X31531532Y-101409684D01*
X32047557Y-100515521D01*
X32521948Y-99693996D01*
X32955562Y-98943634D01*
X33349257Y-98262960D01*
X33703889Y-97650500D01*
X34020316Y-97104778D01*
X34299393Y-96624319D01*
X34541979Y-96207648D01*
X34748930Y-95853290D01*
X34921104Y-95559771D01*
X35059356Y-95325614D01*
X35164545Y-95149346D01*
X35237527Y-95029491D01*
X35279159Y-94964573D01*
X35284579Y-94957007D01*
X35413787Y-94840792D01*
X35554645Y-94808048D01*
X35693988Y-94858771D01*
G37*
%TD*%
D10*
%TO.C,J2*%
X87600000Y-70090000D03*
X87600000Y-71190000D03*
X87600000Y-72290000D03*
X87600000Y-73390000D03*
X87600000Y-74490000D03*
X87600000Y-75590000D03*
X87600000Y-76690000D03*
X87600000Y-77790000D03*
X87600000Y-78740000D03*
D11*
X98100000Y-79690000D03*
D12*
X91900000Y-79690000D03*
D13*
X102250000Y-79690000D03*
D12*
X87600000Y-68540000D03*
D14*
X102700000Y-66190000D03*
%TD*%
D15*
%TO.C,J3*%
X89535000Y-50800000D03*
D16*
X92075000Y-50800000D03*
X89535000Y-48260000D03*
X92075000Y-48260000D03*
X89535000Y-45720000D03*
X92075000Y-45720000D03*
%TD*%
D17*
%TO.C,J4*%
X92250000Y-87115000D03*
X92250000Y-94615000D03*
X92250000Y-102115000D03*
X89750000Y-89615000D03*
X89750000Y-99615000D03*
X102250000Y-99615000D03*
X102250000Y-89615000D03*
%TD*%
D18*
%TO.C,J1*%
X36480000Y-86360000D03*
D19*
X30480000Y-86360000D03*
D20*
X33480000Y-91060000D03*
%TD*%
D21*
%TO.C,U2*%
X39370000Y-46840000D03*
D22*
X41910000Y-63500000D03*
D23*
X39370000Y-63500000D03*
X36830000Y-63500000D03*
%TD*%
D24*
%TO.C,U3*%
X91186000Y-27178000D03*
D25*
X93686000Y-34778000D03*
D24*
X96186000Y-27178000D03*
D26*
X94886000Y-29678000D03*
X92286000Y-29678000D03*
%TD*%
D24*
%TO.C,C5*%
X83820000Y-78780000D03*
X83820000Y-83780000D03*
%TD*%
D27*
%TO.C,SW2*%
X75230000Y-29210000D03*
X87330000Y-29210000D03*
D28*
X78280000Y-29210000D03*
D29*
X81280000Y-29210000D03*
X84280000Y-29210000D03*
%TD*%
D30*
%TO.C,R14*%
X65405000Y-94615000D03*
D31*
X65405000Y-102235000D03*
%TD*%
D32*
%TO.C,Y1*%
X63500000Y-40640000D03*
X58620000Y-40640000D03*
%TD*%
D33*
%TO.C,DS1*%
X70269100Y-30480000D03*
X67729100Y-30480000D03*
X65189100Y-30480000D03*
X62649100Y-30480000D03*
X60109100Y-30480000D03*
X57569100Y-30480000D03*
X55029100Y-30480000D03*
X52489100Y-30480000D03*
X49949100Y-30480000D03*
X47409100Y-30480000D03*
X44869100Y-30480000D03*
X42329100Y-30480000D03*
X39789100Y-30480000D03*
X37249100Y-30480000D03*
X34709100Y-30480000D03*
D34*
X32169100Y-30480000D03*
D35*
X101669100Y-30480000D03*
X101668580Y-61480700D03*
X26670000Y-30480000D03*
%TD*%
D36*
%TO.C,U5*%
X69205000Y-102220000D03*
X69205000Y-99680000D03*
X69205000Y-97140000D03*
X76825000Y-97140000D03*
X76825000Y-99680000D03*
D37*
X76825000Y-102220000D03*
%TD*%
D30*
%TO.C,R11*%
X69850000Y-55880000D03*
D31*
X69850000Y-63500000D03*
%TD*%
D30*
%TO.C,R13*%
X76200000Y-34290000D03*
D31*
X76200000Y-41910000D03*
%TD*%
D30*
%TO.C,R5*%
X44450000Y-80010000D03*
D31*
X44450000Y-87630000D03*
%TD*%
D38*
%TO.C,SW5*%
X48550000Y-87070000D03*
X48550000Y-80570000D03*
X53050000Y-87070000D03*
X53050000Y-80570000D03*
%TD*%
%TO.C,SW3*%
X73950000Y-87070000D03*
X73950000Y-80570000D03*
X78450000Y-87070000D03*
X78450000Y-80570000D03*
%TD*%
D36*
%TO.C,D1*%
X83185000Y-94615000D03*
D37*
X83185000Y-102235000D03*
%TD*%
D23*
%TO.C,U1*%
X25110000Y-63500000D03*
X27650000Y-63500000D03*
D22*
X30190000Y-63500000D03*
D21*
X27650000Y-46840000D03*
%TD*%
D30*
%TO.C,R10*%
X67310000Y-55880000D03*
D31*
X67310000Y-63500000D03*
%TD*%
D30*
%TO.C,R2*%
X34290000Y-33370000D03*
D31*
X34290000Y-40990000D03*
%TD*%
D36*
%TO.C,U4*%
X83810000Y-52510000D03*
X81270000Y-52510000D03*
X78730000Y-52510000D03*
X76190000Y-52510000D03*
X73650000Y-52510000D03*
X71110000Y-52510000D03*
X68570000Y-52510000D03*
X66030000Y-52510000D03*
X63490000Y-52510000D03*
X60950000Y-52510000D03*
X58410000Y-52510000D03*
X55870000Y-52510000D03*
X53330000Y-52510000D03*
X50790000Y-52510000D03*
X50790000Y-44890000D03*
X53330000Y-44890000D03*
X55870000Y-44890000D03*
X58410000Y-44890000D03*
X60950000Y-44890000D03*
X63490000Y-44890000D03*
X66030000Y-44890000D03*
X68570000Y-44890000D03*
X71110000Y-44890000D03*
X73650000Y-44890000D03*
X76190000Y-44890000D03*
X78730000Y-44890000D03*
X81270000Y-44890000D03*
D37*
X83810000Y-44890000D03*
%TD*%
D39*
%TO.C,C2*%
X45720000Y-69850000D03*
D40*
X44220000Y-69850000D03*
%TD*%
D24*
%TO.C,C6*%
X67270000Y-35560000D03*
X62270000Y-35560000D03*
%TD*%
D30*
%TO.C,R7*%
X53340000Y-63500000D03*
D31*
X53340000Y-55880000D03*
%TD*%
D30*
%TO.C,R15*%
X61595000Y-94615000D03*
D31*
X61595000Y-102235000D03*
%TD*%
D30*
%TO.C,R12*%
X64770000Y-55880000D03*
D31*
X64770000Y-63500000D03*
%TD*%
D39*
%TO.C,C3*%
X50800000Y-69850000D03*
D40*
X49300000Y-69850000D03*
%TD*%
D30*
%TO.C,R16*%
X80010000Y-102235000D03*
D31*
X80010000Y-94615000D03*
%TD*%
D41*
%TO.C,SW1*%
X25400000Y-75850000D03*
X25400000Y-72850000D03*
D42*
X25400000Y-69850000D03*
D43*
X25400000Y-78900000D03*
X25400000Y-66800000D03*
%TD*%
D30*
%TO.C,R9*%
X83820000Y-42545000D03*
D31*
X83820000Y-34925000D03*
%TD*%
D30*
%TO.C,R1*%
X31750000Y-33370000D03*
D31*
X31750000Y-40990000D03*
%TD*%
D24*
%TO.C,C7*%
X52705000Y-42390000D03*
X52705000Y-37390000D03*
%TD*%
D30*
%TO.C,R3*%
X69850000Y-80010000D03*
D31*
X69850000Y-87630000D03*
%TD*%
D24*
%TO.C,C4*%
X70485000Y-37390000D03*
X70485000Y-42390000D03*
%TD*%
D39*
%TO.C,C1*%
X34290000Y-68580000D03*
D40*
X32790000Y-68580000D03*
%TD*%
D38*
%TO.C,SW4*%
X61250000Y-87070000D03*
X61250000Y-80570000D03*
X65750000Y-87070000D03*
X65750000Y-80570000D03*
%TD*%
D30*
%TO.C,R8*%
X60960000Y-63500000D03*
D31*
X60960000Y-55880000D03*
%TD*%
D30*
%TO.C,R6*%
X55880000Y-63500000D03*
D31*
X55880000Y-55880000D03*
%TD*%
D30*
%TO.C,R4*%
X57150000Y-80010000D03*
D31*
X57150000Y-87630000D03*
%TD*%
M02*
