%TF.GenerationSoftware,KiCad,Pcbnew,7.0.7-7.0.7~ubuntu22.04.1*%
%TF.CreationDate,2023-10-02T11:26:35+02:00*%
%TF.ProjectId,interrupter,696e7465-7272-4757-9074-65722e6b6963,rev?*%
%TF.SameCoordinates,Original*%
%TF.FileFunction,Drillmap*%
%TF.FilePolarity,Positive*%
%FSLAX45Y45*%
G04 Gerber Fmt 4.5, Leading zero omitted, Abs format (unit mm)*
G04 Created by KiCad (PCBNEW 7.0.7-7.0.7~ubuntu22.04.1) date 2023-10-02 11:26:35*
%MOMM*%
%LPD*%
G01*
G04 APERTURE LIST*
%ADD10C,0.100000*%
%ADD11C,0.200000*%
%ADD12C,0.160000*%
%ADD13C,0.320000*%
%ADD14C,0.350000*%
G04 APERTURE END LIST*
D10*
X10604500Y-2794000D02*
G75*
G03*
X10350500Y-2540000I-254000J0D01*
G01*
X2413000Y-2540000D02*
G75*
G03*
X2159000Y-2794000I0J-254000D01*
G01*
X2159000Y-10477500D02*
G75*
G03*
X2413000Y-10731500I254000J0D01*
G01*
X2159000Y-2794000D02*
X2159000Y-10477500D01*
X2413000Y-2540000D02*
X10350500Y-2540000D01*
X10604500Y-10486000D02*
X10604500Y-2794000D01*
X10350500Y-10731642D02*
G75*
G03*
X10604500Y-10486000I0J254142D01*
G01*
X10350500Y-10731642D02*
X2413000Y-10731500D01*
D11*
D12*
X9038600Y-2637800D02*
X9198600Y-2797800D01*
X9198600Y-2637800D02*
X9038600Y-2797800D01*
X9538600Y-2637800D02*
X9698600Y-2797800D01*
X9698600Y-2637800D02*
X9538600Y-2797800D01*
D13*
X9528600Y-3477800D02*
G75*
G03*
X9528600Y-3477800I-160000J0D01*
G01*
D14*
X2765000Y-4509000D02*
X2765000Y-4859000D01*
X2590000Y-4684000D02*
X2940000Y-4684000D01*
X3937000Y-4509000D02*
X3937000Y-4859000D01*
X3762000Y-4684000D02*
X4112000Y-4684000D01*
D11*
X2414777Y-11048126D02*
X2414777Y-10848126D01*
X2414777Y-10848126D02*
X2462396Y-10848126D01*
X2462396Y-10848126D02*
X2490967Y-10857650D01*
X2490967Y-10857650D02*
X2510015Y-10876697D01*
X2510015Y-10876697D02*
X2519539Y-10895745D01*
X2519539Y-10895745D02*
X2529063Y-10933840D01*
X2529063Y-10933840D02*
X2529063Y-10962412D01*
X2529063Y-10962412D02*
X2519539Y-11000507D01*
X2519539Y-11000507D02*
X2510015Y-11019554D01*
X2510015Y-11019554D02*
X2490967Y-11038602D01*
X2490967Y-11038602D02*
X2462396Y-11048126D01*
X2462396Y-11048126D02*
X2414777Y-11048126D01*
X2614777Y-11048126D02*
X2614777Y-10914793D01*
X2614777Y-10952888D02*
X2624301Y-10933840D01*
X2624301Y-10933840D02*
X2633824Y-10924316D01*
X2633824Y-10924316D02*
X2652872Y-10914793D01*
X2652872Y-10914793D02*
X2671920Y-10914793D01*
X2738586Y-11048126D02*
X2738586Y-10914793D01*
X2738586Y-10848126D02*
X2729063Y-10857650D01*
X2729063Y-10857650D02*
X2738586Y-10867174D01*
X2738586Y-10867174D02*
X2748110Y-10857650D01*
X2748110Y-10857650D02*
X2738586Y-10848126D01*
X2738586Y-10848126D02*
X2738586Y-10867174D01*
X2862396Y-11048126D02*
X2843348Y-11038602D01*
X2843348Y-11038602D02*
X2833824Y-11019554D01*
X2833824Y-11019554D02*
X2833824Y-10848126D01*
X2967158Y-11048126D02*
X2948110Y-11038602D01*
X2948110Y-11038602D02*
X2938586Y-11019554D01*
X2938586Y-11019554D02*
X2938586Y-10848126D01*
X3195729Y-11048126D02*
X3195729Y-10848126D01*
X3195729Y-10848126D02*
X3262396Y-10990983D01*
X3262396Y-10990983D02*
X3329062Y-10848126D01*
X3329062Y-10848126D02*
X3329062Y-11048126D01*
X3510015Y-11048126D02*
X3510015Y-10943364D01*
X3510015Y-10943364D02*
X3500491Y-10924316D01*
X3500491Y-10924316D02*
X3481443Y-10914793D01*
X3481443Y-10914793D02*
X3443348Y-10914793D01*
X3443348Y-10914793D02*
X3424301Y-10924316D01*
X3510015Y-11038602D02*
X3490967Y-11048126D01*
X3490967Y-11048126D02*
X3443348Y-11048126D01*
X3443348Y-11048126D02*
X3424301Y-11038602D01*
X3424301Y-11038602D02*
X3414777Y-11019554D01*
X3414777Y-11019554D02*
X3414777Y-11000507D01*
X3414777Y-11000507D02*
X3424301Y-10981459D01*
X3424301Y-10981459D02*
X3443348Y-10971935D01*
X3443348Y-10971935D02*
X3490967Y-10971935D01*
X3490967Y-10971935D02*
X3510015Y-10962412D01*
X3605253Y-10914793D02*
X3605253Y-11114793D01*
X3605253Y-10924316D02*
X3624301Y-10914793D01*
X3624301Y-10914793D02*
X3662396Y-10914793D01*
X3662396Y-10914793D02*
X3681443Y-10924316D01*
X3681443Y-10924316D02*
X3690967Y-10933840D01*
X3690967Y-10933840D02*
X3700491Y-10952888D01*
X3700491Y-10952888D02*
X3700491Y-11010031D01*
X3700491Y-11010031D02*
X3690967Y-11029078D01*
X3690967Y-11029078D02*
X3681443Y-11038602D01*
X3681443Y-11038602D02*
X3662396Y-11048126D01*
X3662396Y-11048126D02*
X3624301Y-11048126D01*
X3624301Y-11048126D02*
X3605253Y-11038602D01*
X3786205Y-11029078D02*
X3795729Y-11038602D01*
X3795729Y-11038602D02*
X3786205Y-11048126D01*
X3786205Y-11048126D02*
X3776682Y-11038602D01*
X3776682Y-11038602D02*
X3786205Y-11029078D01*
X3786205Y-11029078D02*
X3786205Y-11048126D01*
X3786205Y-10924316D02*
X3795729Y-10933840D01*
X3795729Y-10933840D02*
X3786205Y-10943364D01*
X3786205Y-10943364D02*
X3776682Y-10933840D01*
X3776682Y-10933840D02*
X3786205Y-10924316D01*
X3786205Y-10924316D02*
X3786205Y-10943364D01*
D12*
X1994000Y-11296642D02*
X2154000Y-11456642D01*
X2154000Y-11296642D02*
X1994000Y-11456642D01*
D11*
X2519539Y-11468126D02*
X2405253Y-11468126D01*
X2462396Y-11468126D02*
X2462396Y-11268126D01*
X2462396Y-11268126D02*
X2443348Y-11296697D01*
X2443348Y-11296697D02*
X2424301Y-11315745D01*
X2424301Y-11315745D02*
X2405253Y-11325269D01*
X2605253Y-11449078D02*
X2614777Y-11458602D01*
X2614777Y-11458602D02*
X2605253Y-11468126D01*
X2605253Y-11468126D02*
X2595729Y-11458602D01*
X2595729Y-11458602D02*
X2605253Y-11449078D01*
X2605253Y-11449078D02*
X2605253Y-11468126D01*
X2786205Y-11268126D02*
X2748110Y-11268126D01*
X2748110Y-11268126D02*
X2729063Y-11277650D01*
X2729063Y-11277650D02*
X2719539Y-11287173D01*
X2719539Y-11287173D02*
X2700491Y-11315745D01*
X2700491Y-11315745D02*
X2690967Y-11353840D01*
X2690967Y-11353840D02*
X2690967Y-11430031D01*
X2690967Y-11430031D02*
X2700491Y-11449078D01*
X2700491Y-11449078D02*
X2710015Y-11458602D01*
X2710015Y-11458602D02*
X2729063Y-11468126D01*
X2729063Y-11468126D02*
X2767158Y-11468126D01*
X2767158Y-11468126D02*
X2786205Y-11458602D01*
X2786205Y-11458602D02*
X2795729Y-11449078D01*
X2795729Y-11449078D02*
X2805253Y-11430031D01*
X2805253Y-11430031D02*
X2805253Y-11382412D01*
X2805253Y-11382412D02*
X2795729Y-11363364D01*
X2795729Y-11363364D02*
X2786205Y-11353840D01*
X2786205Y-11353840D02*
X2767158Y-11344316D01*
X2767158Y-11344316D02*
X2729063Y-11344316D01*
X2729063Y-11344316D02*
X2710015Y-11353840D01*
X2710015Y-11353840D02*
X2700491Y-11363364D01*
X2700491Y-11363364D02*
X2690967Y-11382412D01*
X2929062Y-11268126D02*
X2948110Y-11268126D01*
X2948110Y-11268126D02*
X2967158Y-11277650D01*
X2967158Y-11277650D02*
X2976682Y-11287173D01*
X2976682Y-11287173D02*
X2986205Y-11306221D01*
X2986205Y-11306221D02*
X2995729Y-11344316D01*
X2995729Y-11344316D02*
X2995729Y-11391935D01*
X2995729Y-11391935D02*
X2986205Y-11430031D01*
X2986205Y-11430031D02*
X2976682Y-11449078D01*
X2976682Y-11449078D02*
X2967158Y-11458602D01*
X2967158Y-11458602D02*
X2948110Y-11468126D01*
X2948110Y-11468126D02*
X2929062Y-11468126D01*
X2929062Y-11468126D02*
X2910015Y-11458602D01*
X2910015Y-11458602D02*
X2900491Y-11449078D01*
X2900491Y-11449078D02*
X2890967Y-11430031D01*
X2890967Y-11430031D02*
X2881443Y-11391935D01*
X2881443Y-11391935D02*
X2881443Y-11344316D01*
X2881443Y-11344316D02*
X2890967Y-11306221D01*
X2890967Y-11306221D02*
X2900491Y-11287173D01*
X2900491Y-11287173D02*
X2910015Y-11277650D01*
X2910015Y-11277650D02*
X2929062Y-11268126D01*
X3119539Y-11268126D02*
X3138586Y-11268126D01*
X3138586Y-11268126D02*
X3157634Y-11277650D01*
X3157634Y-11277650D02*
X3167158Y-11287173D01*
X3167158Y-11287173D02*
X3176682Y-11306221D01*
X3176682Y-11306221D02*
X3186205Y-11344316D01*
X3186205Y-11344316D02*
X3186205Y-11391935D01*
X3186205Y-11391935D02*
X3176682Y-11430031D01*
X3176682Y-11430031D02*
X3167158Y-11449078D01*
X3167158Y-11449078D02*
X3157634Y-11458602D01*
X3157634Y-11458602D02*
X3138586Y-11468126D01*
X3138586Y-11468126D02*
X3119539Y-11468126D01*
X3119539Y-11468126D02*
X3100491Y-11458602D01*
X3100491Y-11458602D02*
X3090967Y-11449078D01*
X3090967Y-11449078D02*
X3081443Y-11430031D01*
X3081443Y-11430031D02*
X3071920Y-11391935D01*
X3071920Y-11391935D02*
X3071920Y-11344316D01*
X3071920Y-11344316D02*
X3081443Y-11306221D01*
X3081443Y-11306221D02*
X3090967Y-11287173D01*
X3090967Y-11287173D02*
X3100491Y-11277650D01*
X3100491Y-11277650D02*
X3119539Y-11268126D01*
X3271920Y-11468126D02*
X3271920Y-11334792D01*
X3271920Y-11353840D02*
X3281443Y-11344316D01*
X3281443Y-11344316D02*
X3300491Y-11334792D01*
X3300491Y-11334792D02*
X3329063Y-11334792D01*
X3329063Y-11334792D02*
X3348110Y-11344316D01*
X3348110Y-11344316D02*
X3357634Y-11363364D01*
X3357634Y-11363364D02*
X3357634Y-11468126D01*
X3357634Y-11363364D02*
X3367158Y-11344316D01*
X3367158Y-11344316D02*
X3386205Y-11334792D01*
X3386205Y-11334792D02*
X3414777Y-11334792D01*
X3414777Y-11334792D02*
X3433824Y-11344316D01*
X3433824Y-11344316D02*
X3443348Y-11363364D01*
X3443348Y-11363364D02*
X3443348Y-11468126D01*
X3538586Y-11468126D02*
X3538586Y-11334792D01*
X3538586Y-11353840D02*
X3548110Y-11344316D01*
X3548110Y-11344316D02*
X3567158Y-11334792D01*
X3567158Y-11334792D02*
X3595729Y-11334792D01*
X3595729Y-11334792D02*
X3614777Y-11344316D01*
X3614777Y-11344316D02*
X3624301Y-11363364D01*
X3624301Y-11363364D02*
X3624301Y-11468126D01*
X3624301Y-11363364D02*
X3633824Y-11344316D01*
X3633824Y-11344316D02*
X3652872Y-11334792D01*
X3652872Y-11334792D02*
X3681443Y-11334792D01*
X3681443Y-11334792D02*
X3700491Y-11344316D01*
X3700491Y-11344316D02*
X3710015Y-11363364D01*
X3710015Y-11363364D02*
X3710015Y-11468126D01*
X4100491Y-11258602D02*
X3929063Y-11515745D01*
X4357634Y-11268126D02*
X4376682Y-11268126D01*
X4376682Y-11268126D02*
X4395729Y-11277650D01*
X4395729Y-11277650D02*
X4405253Y-11287173D01*
X4405253Y-11287173D02*
X4414777Y-11306221D01*
X4414777Y-11306221D02*
X4424301Y-11344316D01*
X4424301Y-11344316D02*
X4424301Y-11391935D01*
X4424301Y-11391935D02*
X4414777Y-11430031D01*
X4414777Y-11430031D02*
X4405253Y-11449078D01*
X4405253Y-11449078D02*
X4395729Y-11458602D01*
X4395729Y-11458602D02*
X4376682Y-11468126D01*
X4376682Y-11468126D02*
X4357634Y-11468126D01*
X4357634Y-11468126D02*
X4338587Y-11458602D01*
X4338587Y-11458602D02*
X4329063Y-11449078D01*
X4329063Y-11449078D02*
X4319539Y-11430031D01*
X4319539Y-11430031D02*
X4310015Y-11391935D01*
X4310015Y-11391935D02*
X4310015Y-11344316D01*
X4310015Y-11344316D02*
X4319539Y-11306221D01*
X4319539Y-11306221D02*
X4329063Y-11287173D01*
X4329063Y-11287173D02*
X4338587Y-11277650D01*
X4338587Y-11277650D02*
X4357634Y-11268126D01*
X4510015Y-11449078D02*
X4519539Y-11458602D01*
X4519539Y-11458602D02*
X4510015Y-11468126D01*
X4510015Y-11468126D02*
X4500491Y-11458602D01*
X4500491Y-11458602D02*
X4510015Y-11449078D01*
X4510015Y-11449078D02*
X4510015Y-11468126D01*
X4643348Y-11268126D02*
X4662396Y-11268126D01*
X4662396Y-11268126D02*
X4681444Y-11277650D01*
X4681444Y-11277650D02*
X4690968Y-11287173D01*
X4690968Y-11287173D02*
X4700491Y-11306221D01*
X4700491Y-11306221D02*
X4710015Y-11344316D01*
X4710015Y-11344316D02*
X4710015Y-11391935D01*
X4710015Y-11391935D02*
X4700491Y-11430031D01*
X4700491Y-11430031D02*
X4690968Y-11449078D01*
X4690968Y-11449078D02*
X4681444Y-11458602D01*
X4681444Y-11458602D02*
X4662396Y-11468126D01*
X4662396Y-11468126D02*
X4643348Y-11468126D01*
X4643348Y-11468126D02*
X4624301Y-11458602D01*
X4624301Y-11458602D02*
X4614777Y-11449078D01*
X4614777Y-11449078D02*
X4605253Y-11430031D01*
X4605253Y-11430031D02*
X4595729Y-11391935D01*
X4595729Y-11391935D02*
X4595729Y-11344316D01*
X4595729Y-11344316D02*
X4605253Y-11306221D01*
X4605253Y-11306221D02*
X4614777Y-11287173D01*
X4614777Y-11287173D02*
X4624301Y-11277650D01*
X4624301Y-11277650D02*
X4643348Y-11268126D01*
X4881444Y-11268126D02*
X4843348Y-11268126D01*
X4843348Y-11268126D02*
X4824301Y-11277650D01*
X4824301Y-11277650D02*
X4814777Y-11287173D01*
X4814777Y-11287173D02*
X4795729Y-11315745D01*
X4795729Y-11315745D02*
X4786206Y-11353840D01*
X4786206Y-11353840D02*
X4786206Y-11430031D01*
X4786206Y-11430031D02*
X4795729Y-11449078D01*
X4795729Y-11449078D02*
X4805253Y-11458602D01*
X4805253Y-11458602D02*
X4824301Y-11468126D01*
X4824301Y-11468126D02*
X4862396Y-11468126D01*
X4862396Y-11468126D02*
X4881444Y-11458602D01*
X4881444Y-11458602D02*
X4890968Y-11449078D01*
X4890968Y-11449078D02*
X4900491Y-11430031D01*
X4900491Y-11430031D02*
X4900491Y-11382412D01*
X4900491Y-11382412D02*
X4890968Y-11363364D01*
X4890968Y-11363364D02*
X4881444Y-11353840D01*
X4881444Y-11353840D02*
X4862396Y-11344316D01*
X4862396Y-11344316D02*
X4824301Y-11344316D01*
X4824301Y-11344316D02*
X4805253Y-11353840D01*
X4805253Y-11353840D02*
X4795729Y-11363364D01*
X4795729Y-11363364D02*
X4786206Y-11382412D01*
X4967158Y-11268126D02*
X5090968Y-11268126D01*
X5090968Y-11268126D02*
X5024301Y-11344316D01*
X5024301Y-11344316D02*
X5052872Y-11344316D01*
X5052872Y-11344316D02*
X5071920Y-11353840D01*
X5071920Y-11353840D02*
X5081444Y-11363364D01*
X5081444Y-11363364D02*
X5090968Y-11382412D01*
X5090968Y-11382412D02*
X5090968Y-11430031D01*
X5090968Y-11430031D02*
X5081444Y-11449078D01*
X5081444Y-11449078D02*
X5071920Y-11458602D01*
X5071920Y-11458602D02*
X5052872Y-11468126D01*
X5052872Y-11468126D02*
X4995729Y-11468126D01*
X4995729Y-11468126D02*
X4976682Y-11458602D01*
X4976682Y-11458602D02*
X4967158Y-11449078D01*
X5214777Y-11268126D02*
X5233825Y-11268126D01*
X5233825Y-11268126D02*
X5252872Y-11277650D01*
X5252872Y-11277650D02*
X5262396Y-11287173D01*
X5262396Y-11287173D02*
X5271920Y-11306221D01*
X5271920Y-11306221D02*
X5281444Y-11344316D01*
X5281444Y-11344316D02*
X5281444Y-11391935D01*
X5281444Y-11391935D02*
X5271920Y-11430031D01*
X5271920Y-11430031D02*
X5262396Y-11449078D01*
X5262396Y-11449078D02*
X5252872Y-11458602D01*
X5252872Y-11458602D02*
X5233825Y-11468126D01*
X5233825Y-11468126D02*
X5214777Y-11468126D01*
X5214777Y-11468126D02*
X5195729Y-11458602D01*
X5195729Y-11458602D02*
X5186206Y-11449078D01*
X5186206Y-11449078D02*
X5176682Y-11430031D01*
X5176682Y-11430031D02*
X5167158Y-11391935D01*
X5167158Y-11391935D02*
X5167158Y-11344316D01*
X5167158Y-11344316D02*
X5176682Y-11306221D01*
X5176682Y-11306221D02*
X5186206Y-11287173D01*
X5186206Y-11287173D02*
X5195729Y-11277650D01*
X5195729Y-11277650D02*
X5214777Y-11268126D01*
X5357634Y-11268126D02*
X5357634Y-11306221D01*
X5433825Y-11268126D02*
X5433825Y-11306221D01*
X5729063Y-11544316D02*
X5719539Y-11534792D01*
X5719539Y-11534792D02*
X5700491Y-11506221D01*
X5700491Y-11506221D02*
X5690968Y-11487173D01*
X5690968Y-11487173D02*
X5681444Y-11458602D01*
X5681444Y-11458602D02*
X5671920Y-11410983D01*
X5671920Y-11410983D02*
X5671920Y-11372888D01*
X5671920Y-11372888D02*
X5681444Y-11325269D01*
X5681444Y-11325269D02*
X5690968Y-11296697D01*
X5690968Y-11296697D02*
X5700491Y-11277650D01*
X5700491Y-11277650D02*
X5719539Y-11249078D01*
X5719539Y-11249078D02*
X5729063Y-11239554D01*
X5795729Y-11287173D02*
X5805253Y-11277650D01*
X5805253Y-11277650D02*
X5824301Y-11268126D01*
X5824301Y-11268126D02*
X5871920Y-11268126D01*
X5871920Y-11268126D02*
X5890968Y-11277650D01*
X5890968Y-11277650D02*
X5900491Y-11287173D01*
X5900491Y-11287173D02*
X5910015Y-11306221D01*
X5910015Y-11306221D02*
X5910015Y-11325269D01*
X5910015Y-11325269D02*
X5900491Y-11353840D01*
X5900491Y-11353840D02*
X5786206Y-11468126D01*
X5786206Y-11468126D02*
X5910015Y-11468126D01*
X6148110Y-11468126D02*
X6148110Y-11268126D01*
X6233825Y-11468126D02*
X6233825Y-11363364D01*
X6233825Y-11363364D02*
X6224301Y-11344316D01*
X6224301Y-11344316D02*
X6205253Y-11334792D01*
X6205253Y-11334792D02*
X6176682Y-11334792D01*
X6176682Y-11334792D02*
X6157634Y-11344316D01*
X6157634Y-11344316D02*
X6148110Y-11353840D01*
X6357634Y-11468126D02*
X6338587Y-11458602D01*
X6338587Y-11458602D02*
X6329063Y-11449078D01*
X6329063Y-11449078D02*
X6319539Y-11430031D01*
X6319539Y-11430031D02*
X6319539Y-11372888D01*
X6319539Y-11372888D02*
X6329063Y-11353840D01*
X6329063Y-11353840D02*
X6338587Y-11344316D01*
X6338587Y-11344316D02*
X6357634Y-11334792D01*
X6357634Y-11334792D02*
X6386206Y-11334792D01*
X6386206Y-11334792D02*
X6405253Y-11344316D01*
X6405253Y-11344316D02*
X6414777Y-11353840D01*
X6414777Y-11353840D02*
X6424301Y-11372888D01*
X6424301Y-11372888D02*
X6424301Y-11430031D01*
X6424301Y-11430031D02*
X6414777Y-11449078D01*
X6414777Y-11449078D02*
X6405253Y-11458602D01*
X6405253Y-11458602D02*
X6386206Y-11468126D01*
X6386206Y-11468126D02*
X6357634Y-11468126D01*
X6538587Y-11468126D02*
X6519539Y-11458602D01*
X6519539Y-11458602D02*
X6510015Y-11439554D01*
X6510015Y-11439554D02*
X6510015Y-11268126D01*
X6690968Y-11458602D02*
X6671920Y-11468126D01*
X6671920Y-11468126D02*
X6633825Y-11468126D01*
X6633825Y-11468126D02*
X6614777Y-11458602D01*
X6614777Y-11458602D02*
X6605253Y-11439554D01*
X6605253Y-11439554D02*
X6605253Y-11363364D01*
X6605253Y-11363364D02*
X6614777Y-11344316D01*
X6614777Y-11344316D02*
X6633825Y-11334792D01*
X6633825Y-11334792D02*
X6671920Y-11334792D01*
X6671920Y-11334792D02*
X6690968Y-11344316D01*
X6690968Y-11344316D02*
X6700491Y-11363364D01*
X6700491Y-11363364D02*
X6700491Y-11382412D01*
X6700491Y-11382412D02*
X6605253Y-11401459D01*
X6776682Y-11458602D02*
X6795730Y-11468126D01*
X6795730Y-11468126D02*
X6833825Y-11468126D01*
X6833825Y-11468126D02*
X6852872Y-11458602D01*
X6852872Y-11458602D02*
X6862396Y-11439554D01*
X6862396Y-11439554D02*
X6862396Y-11430031D01*
X6862396Y-11430031D02*
X6852872Y-11410983D01*
X6852872Y-11410983D02*
X6833825Y-11401459D01*
X6833825Y-11401459D02*
X6805253Y-11401459D01*
X6805253Y-11401459D02*
X6786206Y-11391935D01*
X6786206Y-11391935D02*
X6776682Y-11372888D01*
X6776682Y-11372888D02*
X6776682Y-11363364D01*
X6776682Y-11363364D02*
X6786206Y-11344316D01*
X6786206Y-11344316D02*
X6805253Y-11334792D01*
X6805253Y-11334792D02*
X6833825Y-11334792D01*
X6833825Y-11334792D02*
X6852872Y-11344316D01*
X6929063Y-11544316D02*
X6938587Y-11534792D01*
X6938587Y-11534792D02*
X6957634Y-11506221D01*
X6957634Y-11506221D02*
X6967158Y-11487173D01*
X6967158Y-11487173D02*
X6976682Y-11458602D01*
X6976682Y-11458602D02*
X6986206Y-11410983D01*
X6986206Y-11410983D02*
X6986206Y-11372888D01*
X6986206Y-11372888D02*
X6976682Y-11325269D01*
X6976682Y-11325269D02*
X6967158Y-11296697D01*
X6967158Y-11296697D02*
X6957634Y-11277650D01*
X6957634Y-11277650D02*
X6938587Y-11249078D01*
X6938587Y-11249078D02*
X6929063Y-11239554D01*
X7290968Y-11544316D02*
X7281444Y-11534792D01*
X7281444Y-11534792D02*
X7262396Y-11506221D01*
X7262396Y-11506221D02*
X7252872Y-11487173D01*
X7252872Y-11487173D02*
X7243349Y-11458602D01*
X7243349Y-11458602D02*
X7233825Y-11410983D01*
X7233825Y-11410983D02*
X7233825Y-11372888D01*
X7233825Y-11372888D02*
X7243349Y-11325269D01*
X7243349Y-11325269D02*
X7252872Y-11296697D01*
X7252872Y-11296697D02*
X7262396Y-11277650D01*
X7262396Y-11277650D02*
X7281444Y-11249078D01*
X7281444Y-11249078D02*
X7290968Y-11239554D01*
X7367158Y-11334792D02*
X7367158Y-11468126D01*
X7367158Y-11353840D02*
X7376682Y-11344316D01*
X7376682Y-11344316D02*
X7395730Y-11334792D01*
X7395730Y-11334792D02*
X7424301Y-11334792D01*
X7424301Y-11334792D02*
X7443349Y-11344316D01*
X7443349Y-11344316D02*
X7452872Y-11363364D01*
X7452872Y-11363364D02*
X7452872Y-11468126D01*
X7576682Y-11468126D02*
X7557634Y-11458602D01*
X7557634Y-11458602D02*
X7548111Y-11449078D01*
X7548111Y-11449078D02*
X7538587Y-11430031D01*
X7538587Y-11430031D02*
X7538587Y-11372888D01*
X7538587Y-11372888D02*
X7548111Y-11353840D01*
X7548111Y-11353840D02*
X7557634Y-11344316D01*
X7557634Y-11344316D02*
X7576682Y-11334792D01*
X7576682Y-11334792D02*
X7605253Y-11334792D01*
X7605253Y-11334792D02*
X7624301Y-11344316D01*
X7624301Y-11344316D02*
X7633825Y-11353840D01*
X7633825Y-11353840D02*
X7643349Y-11372888D01*
X7643349Y-11372888D02*
X7643349Y-11430031D01*
X7643349Y-11430031D02*
X7633825Y-11449078D01*
X7633825Y-11449078D02*
X7624301Y-11458602D01*
X7624301Y-11458602D02*
X7605253Y-11468126D01*
X7605253Y-11468126D02*
X7576682Y-11468126D01*
X7700492Y-11334792D02*
X7776682Y-11334792D01*
X7729063Y-11268126D02*
X7729063Y-11439554D01*
X7729063Y-11439554D02*
X7738587Y-11458602D01*
X7738587Y-11458602D02*
X7757634Y-11468126D01*
X7757634Y-11468126D02*
X7776682Y-11468126D01*
X7995730Y-11334792D02*
X7995730Y-11534792D01*
X7995730Y-11344316D02*
X8014777Y-11334792D01*
X8014777Y-11334792D02*
X8052873Y-11334792D01*
X8052873Y-11334792D02*
X8071920Y-11344316D01*
X8071920Y-11344316D02*
X8081444Y-11353840D01*
X8081444Y-11353840D02*
X8090968Y-11372888D01*
X8090968Y-11372888D02*
X8090968Y-11430031D01*
X8090968Y-11430031D02*
X8081444Y-11449078D01*
X8081444Y-11449078D02*
X8071920Y-11458602D01*
X8071920Y-11458602D02*
X8052873Y-11468126D01*
X8052873Y-11468126D02*
X8014777Y-11468126D01*
X8014777Y-11468126D02*
X7995730Y-11458602D01*
X8205253Y-11468126D02*
X8186206Y-11458602D01*
X8186206Y-11458602D02*
X8176682Y-11439554D01*
X8176682Y-11439554D02*
X8176682Y-11268126D01*
X8367158Y-11468126D02*
X8367158Y-11363364D01*
X8367158Y-11363364D02*
X8357634Y-11344316D01*
X8357634Y-11344316D02*
X8338587Y-11334792D01*
X8338587Y-11334792D02*
X8300492Y-11334792D01*
X8300492Y-11334792D02*
X8281444Y-11344316D01*
X8367158Y-11458602D02*
X8348111Y-11468126D01*
X8348111Y-11468126D02*
X8300492Y-11468126D01*
X8300492Y-11468126D02*
X8281444Y-11458602D01*
X8281444Y-11458602D02*
X8271920Y-11439554D01*
X8271920Y-11439554D02*
X8271920Y-11420507D01*
X8271920Y-11420507D02*
X8281444Y-11401459D01*
X8281444Y-11401459D02*
X8300492Y-11391935D01*
X8300492Y-11391935D02*
X8348111Y-11391935D01*
X8348111Y-11391935D02*
X8367158Y-11382412D01*
X8433825Y-11334792D02*
X8510015Y-11334792D01*
X8462396Y-11268126D02*
X8462396Y-11439554D01*
X8462396Y-11439554D02*
X8471920Y-11458602D01*
X8471920Y-11458602D02*
X8490968Y-11468126D01*
X8490968Y-11468126D02*
X8510015Y-11468126D01*
X8652873Y-11458602D02*
X8633825Y-11468126D01*
X8633825Y-11468126D02*
X8595730Y-11468126D01*
X8595730Y-11468126D02*
X8576682Y-11458602D01*
X8576682Y-11458602D02*
X8567158Y-11439554D01*
X8567158Y-11439554D02*
X8567158Y-11363364D01*
X8567158Y-11363364D02*
X8576682Y-11344316D01*
X8576682Y-11344316D02*
X8595730Y-11334792D01*
X8595730Y-11334792D02*
X8633825Y-11334792D01*
X8633825Y-11334792D02*
X8652873Y-11344316D01*
X8652873Y-11344316D02*
X8662396Y-11363364D01*
X8662396Y-11363364D02*
X8662396Y-11382412D01*
X8662396Y-11382412D02*
X8567158Y-11401459D01*
X8833825Y-11468126D02*
X8833825Y-11268126D01*
X8833825Y-11458602D02*
X8814777Y-11468126D01*
X8814777Y-11468126D02*
X8776682Y-11468126D01*
X8776682Y-11468126D02*
X8757635Y-11458602D01*
X8757635Y-11458602D02*
X8748111Y-11449078D01*
X8748111Y-11449078D02*
X8738587Y-11430031D01*
X8738587Y-11430031D02*
X8738587Y-11372888D01*
X8738587Y-11372888D02*
X8748111Y-11353840D01*
X8748111Y-11353840D02*
X8757635Y-11344316D01*
X8757635Y-11344316D02*
X8776682Y-11334792D01*
X8776682Y-11334792D02*
X8814777Y-11334792D01*
X8814777Y-11334792D02*
X8833825Y-11344316D01*
X8910016Y-11544316D02*
X8919539Y-11534792D01*
X8919539Y-11534792D02*
X8938587Y-11506221D01*
X8938587Y-11506221D02*
X8948111Y-11487173D01*
X8948111Y-11487173D02*
X8957635Y-11458602D01*
X8957635Y-11458602D02*
X8967158Y-11410983D01*
X8967158Y-11410983D02*
X8967158Y-11372888D01*
X8967158Y-11372888D02*
X8957635Y-11325269D01*
X8957635Y-11325269D02*
X8948111Y-11296697D01*
X8948111Y-11296697D02*
X8938587Y-11277650D01*
X8938587Y-11277650D02*
X8919539Y-11249078D01*
X8919539Y-11249078D02*
X8910016Y-11239554D01*
X2154000Y-11656642D02*
G75*
G03*
X2154000Y-11656642I-100000J0D01*
G01*
X2395729Y-11548126D02*
X2519539Y-11548126D01*
X2519539Y-11548126D02*
X2452872Y-11624316D01*
X2452872Y-11624316D02*
X2481444Y-11624316D01*
X2481444Y-11624316D02*
X2500491Y-11633840D01*
X2500491Y-11633840D02*
X2510015Y-11643364D01*
X2510015Y-11643364D02*
X2519539Y-11662412D01*
X2519539Y-11662412D02*
X2519539Y-11710031D01*
X2519539Y-11710031D02*
X2510015Y-11729078D01*
X2510015Y-11729078D02*
X2500491Y-11738602D01*
X2500491Y-11738602D02*
X2481444Y-11748126D01*
X2481444Y-11748126D02*
X2424301Y-11748126D01*
X2424301Y-11748126D02*
X2405253Y-11738602D01*
X2405253Y-11738602D02*
X2395729Y-11729078D01*
X2605253Y-11729078D02*
X2614777Y-11738602D01*
X2614777Y-11738602D02*
X2605253Y-11748126D01*
X2605253Y-11748126D02*
X2595729Y-11738602D01*
X2595729Y-11738602D02*
X2605253Y-11729078D01*
X2605253Y-11729078D02*
X2605253Y-11748126D01*
X2690967Y-11567173D02*
X2700491Y-11557650D01*
X2700491Y-11557650D02*
X2719539Y-11548126D01*
X2719539Y-11548126D02*
X2767158Y-11548126D01*
X2767158Y-11548126D02*
X2786205Y-11557650D01*
X2786205Y-11557650D02*
X2795729Y-11567173D01*
X2795729Y-11567173D02*
X2805253Y-11586221D01*
X2805253Y-11586221D02*
X2805253Y-11605269D01*
X2805253Y-11605269D02*
X2795729Y-11633840D01*
X2795729Y-11633840D02*
X2681444Y-11748126D01*
X2681444Y-11748126D02*
X2805253Y-11748126D01*
X2929062Y-11548126D02*
X2948110Y-11548126D01*
X2948110Y-11548126D02*
X2967158Y-11557650D01*
X2967158Y-11557650D02*
X2976682Y-11567173D01*
X2976682Y-11567173D02*
X2986205Y-11586221D01*
X2986205Y-11586221D02*
X2995729Y-11624316D01*
X2995729Y-11624316D02*
X2995729Y-11671935D01*
X2995729Y-11671935D02*
X2986205Y-11710031D01*
X2986205Y-11710031D02*
X2976682Y-11729078D01*
X2976682Y-11729078D02*
X2967158Y-11738602D01*
X2967158Y-11738602D02*
X2948110Y-11748126D01*
X2948110Y-11748126D02*
X2929062Y-11748126D01*
X2929062Y-11748126D02*
X2910015Y-11738602D01*
X2910015Y-11738602D02*
X2900491Y-11729078D01*
X2900491Y-11729078D02*
X2890967Y-11710031D01*
X2890967Y-11710031D02*
X2881443Y-11671935D01*
X2881443Y-11671935D02*
X2881443Y-11624316D01*
X2881443Y-11624316D02*
X2890967Y-11586221D01*
X2890967Y-11586221D02*
X2900491Y-11567173D01*
X2900491Y-11567173D02*
X2910015Y-11557650D01*
X2910015Y-11557650D02*
X2929062Y-11548126D01*
X3119539Y-11548126D02*
X3138586Y-11548126D01*
X3138586Y-11548126D02*
X3157634Y-11557650D01*
X3157634Y-11557650D02*
X3167158Y-11567173D01*
X3167158Y-11567173D02*
X3176682Y-11586221D01*
X3176682Y-11586221D02*
X3186205Y-11624316D01*
X3186205Y-11624316D02*
X3186205Y-11671935D01*
X3186205Y-11671935D02*
X3176682Y-11710031D01*
X3176682Y-11710031D02*
X3167158Y-11729078D01*
X3167158Y-11729078D02*
X3157634Y-11738602D01*
X3157634Y-11738602D02*
X3138586Y-11748126D01*
X3138586Y-11748126D02*
X3119539Y-11748126D01*
X3119539Y-11748126D02*
X3100491Y-11738602D01*
X3100491Y-11738602D02*
X3090967Y-11729078D01*
X3090967Y-11729078D02*
X3081443Y-11710031D01*
X3081443Y-11710031D02*
X3071920Y-11671935D01*
X3071920Y-11671935D02*
X3071920Y-11624316D01*
X3071920Y-11624316D02*
X3081443Y-11586221D01*
X3081443Y-11586221D02*
X3090967Y-11567173D01*
X3090967Y-11567173D02*
X3100491Y-11557650D01*
X3100491Y-11557650D02*
X3119539Y-11548126D01*
X3271920Y-11748126D02*
X3271920Y-11614792D01*
X3271920Y-11633840D02*
X3281443Y-11624316D01*
X3281443Y-11624316D02*
X3300491Y-11614792D01*
X3300491Y-11614792D02*
X3329063Y-11614792D01*
X3329063Y-11614792D02*
X3348110Y-11624316D01*
X3348110Y-11624316D02*
X3357634Y-11643364D01*
X3357634Y-11643364D02*
X3357634Y-11748126D01*
X3357634Y-11643364D02*
X3367158Y-11624316D01*
X3367158Y-11624316D02*
X3386205Y-11614792D01*
X3386205Y-11614792D02*
X3414777Y-11614792D01*
X3414777Y-11614792D02*
X3433824Y-11624316D01*
X3433824Y-11624316D02*
X3443348Y-11643364D01*
X3443348Y-11643364D02*
X3443348Y-11748126D01*
X3538586Y-11748126D02*
X3538586Y-11614792D01*
X3538586Y-11633840D02*
X3548110Y-11624316D01*
X3548110Y-11624316D02*
X3567158Y-11614792D01*
X3567158Y-11614792D02*
X3595729Y-11614792D01*
X3595729Y-11614792D02*
X3614777Y-11624316D01*
X3614777Y-11624316D02*
X3624301Y-11643364D01*
X3624301Y-11643364D02*
X3624301Y-11748126D01*
X3624301Y-11643364D02*
X3633824Y-11624316D01*
X3633824Y-11624316D02*
X3652872Y-11614792D01*
X3652872Y-11614792D02*
X3681443Y-11614792D01*
X3681443Y-11614792D02*
X3700491Y-11624316D01*
X3700491Y-11624316D02*
X3710015Y-11643364D01*
X3710015Y-11643364D02*
X3710015Y-11748126D01*
X4100491Y-11538602D02*
X3929063Y-11795745D01*
X4357634Y-11548126D02*
X4376682Y-11548126D01*
X4376682Y-11548126D02*
X4395729Y-11557650D01*
X4395729Y-11557650D02*
X4405253Y-11567173D01*
X4405253Y-11567173D02*
X4414777Y-11586221D01*
X4414777Y-11586221D02*
X4424301Y-11624316D01*
X4424301Y-11624316D02*
X4424301Y-11671935D01*
X4424301Y-11671935D02*
X4414777Y-11710031D01*
X4414777Y-11710031D02*
X4405253Y-11729078D01*
X4405253Y-11729078D02*
X4395729Y-11738602D01*
X4395729Y-11738602D02*
X4376682Y-11748126D01*
X4376682Y-11748126D02*
X4357634Y-11748126D01*
X4357634Y-11748126D02*
X4338587Y-11738602D01*
X4338587Y-11738602D02*
X4329063Y-11729078D01*
X4329063Y-11729078D02*
X4319539Y-11710031D01*
X4319539Y-11710031D02*
X4310015Y-11671935D01*
X4310015Y-11671935D02*
X4310015Y-11624316D01*
X4310015Y-11624316D02*
X4319539Y-11586221D01*
X4319539Y-11586221D02*
X4329063Y-11567173D01*
X4329063Y-11567173D02*
X4338587Y-11557650D01*
X4338587Y-11557650D02*
X4357634Y-11548126D01*
X4510015Y-11729078D02*
X4519539Y-11738602D01*
X4519539Y-11738602D02*
X4510015Y-11748126D01*
X4510015Y-11748126D02*
X4500491Y-11738602D01*
X4500491Y-11738602D02*
X4510015Y-11729078D01*
X4510015Y-11729078D02*
X4510015Y-11748126D01*
X4710015Y-11748126D02*
X4595729Y-11748126D01*
X4652872Y-11748126D02*
X4652872Y-11548126D01*
X4652872Y-11548126D02*
X4633825Y-11576697D01*
X4633825Y-11576697D02*
X4614777Y-11595745D01*
X4614777Y-11595745D02*
X4595729Y-11605269D01*
X4786206Y-11567173D02*
X4795729Y-11557650D01*
X4795729Y-11557650D02*
X4814777Y-11548126D01*
X4814777Y-11548126D02*
X4862396Y-11548126D01*
X4862396Y-11548126D02*
X4881444Y-11557650D01*
X4881444Y-11557650D02*
X4890968Y-11567173D01*
X4890968Y-11567173D02*
X4900491Y-11586221D01*
X4900491Y-11586221D02*
X4900491Y-11605269D01*
X4900491Y-11605269D02*
X4890968Y-11633840D01*
X4890968Y-11633840D02*
X4776682Y-11748126D01*
X4776682Y-11748126D02*
X4900491Y-11748126D01*
X5071920Y-11548126D02*
X5033825Y-11548126D01*
X5033825Y-11548126D02*
X5014777Y-11557650D01*
X5014777Y-11557650D02*
X5005253Y-11567173D01*
X5005253Y-11567173D02*
X4986206Y-11595745D01*
X4986206Y-11595745D02*
X4976682Y-11633840D01*
X4976682Y-11633840D02*
X4976682Y-11710031D01*
X4976682Y-11710031D02*
X4986206Y-11729078D01*
X4986206Y-11729078D02*
X4995729Y-11738602D01*
X4995729Y-11738602D02*
X5014777Y-11748126D01*
X5014777Y-11748126D02*
X5052872Y-11748126D01*
X5052872Y-11748126D02*
X5071920Y-11738602D01*
X5071920Y-11738602D02*
X5081444Y-11729078D01*
X5081444Y-11729078D02*
X5090968Y-11710031D01*
X5090968Y-11710031D02*
X5090968Y-11662412D01*
X5090968Y-11662412D02*
X5081444Y-11643364D01*
X5081444Y-11643364D02*
X5071920Y-11633840D01*
X5071920Y-11633840D02*
X5052872Y-11624316D01*
X5052872Y-11624316D02*
X5014777Y-11624316D01*
X5014777Y-11624316D02*
X4995729Y-11633840D01*
X4995729Y-11633840D02*
X4986206Y-11643364D01*
X4986206Y-11643364D02*
X4976682Y-11662412D01*
X5214777Y-11548126D02*
X5233825Y-11548126D01*
X5233825Y-11548126D02*
X5252872Y-11557650D01*
X5252872Y-11557650D02*
X5262396Y-11567173D01*
X5262396Y-11567173D02*
X5271920Y-11586221D01*
X5271920Y-11586221D02*
X5281444Y-11624316D01*
X5281444Y-11624316D02*
X5281444Y-11671935D01*
X5281444Y-11671935D02*
X5271920Y-11710031D01*
X5271920Y-11710031D02*
X5262396Y-11729078D01*
X5262396Y-11729078D02*
X5252872Y-11738602D01*
X5252872Y-11738602D02*
X5233825Y-11748126D01*
X5233825Y-11748126D02*
X5214777Y-11748126D01*
X5214777Y-11748126D02*
X5195729Y-11738602D01*
X5195729Y-11738602D02*
X5186206Y-11729078D01*
X5186206Y-11729078D02*
X5176682Y-11710031D01*
X5176682Y-11710031D02*
X5167158Y-11671935D01*
X5167158Y-11671935D02*
X5167158Y-11624316D01*
X5167158Y-11624316D02*
X5176682Y-11586221D01*
X5176682Y-11586221D02*
X5186206Y-11567173D01*
X5186206Y-11567173D02*
X5195729Y-11557650D01*
X5195729Y-11557650D02*
X5214777Y-11548126D01*
X5357634Y-11548126D02*
X5357634Y-11586221D01*
X5433825Y-11548126D02*
X5433825Y-11586221D01*
X5729063Y-11824316D02*
X5719539Y-11814792D01*
X5719539Y-11814792D02*
X5700491Y-11786221D01*
X5700491Y-11786221D02*
X5690968Y-11767173D01*
X5690968Y-11767173D02*
X5681444Y-11738602D01*
X5681444Y-11738602D02*
X5671920Y-11690983D01*
X5671920Y-11690983D02*
X5671920Y-11652888D01*
X5671920Y-11652888D02*
X5681444Y-11605269D01*
X5681444Y-11605269D02*
X5690968Y-11576697D01*
X5690968Y-11576697D02*
X5700491Y-11557650D01*
X5700491Y-11557650D02*
X5719539Y-11529078D01*
X5719539Y-11529078D02*
X5729063Y-11519554D01*
X5910015Y-11748126D02*
X5795729Y-11748126D01*
X5852872Y-11748126D02*
X5852872Y-11548126D01*
X5852872Y-11548126D02*
X5833825Y-11576697D01*
X5833825Y-11576697D02*
X5814777Y-11595745D01*
X5814777Y-11595745D02*
X5795729Y-11605269D01*
X6148110Y-11748126D02*
X6148110Y-11548126D01*
X6233825Y-11748126D02*
X6233825Y-11643364D01*
X6233825Y-11643364D02*
X6224301Y-11624316D01*
X6224301Y-11624316D02*
X6205253Y-11614792D01*
X6205253Y-11614792D02*
X6176682Y-11614792D01*
X6176682Y-11614792D02*
X6157634Y-11624316D01*
X6157634Y-11624316D02*
X6148110Y-11633840D01*
X6357634Y-11748126D02*
X6338587Y-11738602D01*
X6338587Y-11738602D02*
X6329063Y-11729078D01*
X6329063Y-11729078D02*
X6319539Y-11710031D01*
X6319539Y-11710031D02*
X6319539Y-11652888D01*
X6319539Y-11652888D02*
X6329063Y-11633840D01*
X6329063Y-11633840D02*
X6338587Y-11624316D01*
X6338587Y-11624316D02*
X6357634Y-11614792D01*
X6357634Y-11614792D02*
X6386206Y-11614792D01*
X6386206Y-11614792D02*
X6405253Y-11624316D01*
X6405253Y-11624316D02*
X6414777Y-11633840D01*
X6414777Y-11633840D02*
X6424301Y-11652888D01*
X6424301Y-11652888D02*
X6424301Y-11710031D01*
X6424301Y-11710031D02*
X6414777Y-11729078D01*
X6414777Y-11729078D02*
X6405253Y-11738602D01*
X6405253Y-11738602D02*
X6386206Y-11748126D01*
X6386206Y-11748126D02*
X6357634Y-11748126D01*
X6538587Y-11748126D02*
X6519539Y-11738602D01*
X6519539Y-11738602D02*
X6510015Y-11719554D01*
X6510015Y-11719554D02*
X6510015Y-11548126D01*
X6690968Y-11738602D02*
X6671920Y-11748126D01*
X6671920Y-11748126D02*
X6633825Y-11748126D01*
X6633825Y-11748126D02*
X6614777Y-11738602D01*
X6614777Y-11738602D02*
X6605253Y-11719554D01*
X6605253Y-11719554D02*
X6605253Y-11643364D01*
X6605253Y-11643364D02*
X6614777Y-11624316D01*
X6614777Y-11624316D02*
X6633825Y-11614792D01*
X6633825Y-11614792D02*
X6671920Y-11614792D01*
X6671920Y-11614792D02*
X6690968Y-11624316D01*
X6690968Y-11624316D02*
X6700491Y-11643364D01*
X6700491Y-11643364D02*
X6700491Y-11662412D01*
X6700491Y-11662412D02*
X6605253Y-11681459D01*
X6767158Y-11824316D02*
X6776682Y-11814792D01*
X6776682Y-11814792D02*
X6795730Y-11786221D01*
X6795730Y-11786221D02*
X6805253Y-11767173D01*
X6805253Y-11767173D02*
X6814777Y-11738602D01*
X6814777Y-11738602D02*
X6824301Y-11690983D01*
X6824301Y-11690983D02*
X6824301Y-11652888D01*
X6824301Y-11652888D02*
X6814777Y-11605269D01*
X6814777Y-11605269D02*
X6805253Y-11576697D01*
X6805253Y-11576697D02*
X6795730Y-11557650D01*
X6795730Y-11557650D02*
X6776682Y-11529078D01*
X6776682Y-11529078D02*
X6767158Y-11519554D01*
X7129063Y-11824316D02*
X7119539Y-11814792D01*
X7119539Y-11814792D02*
X7100491Y-11786221D01*
X7100491Y-11786221D02*
X7090968Y-11767173D01*
X7090968Y-11767173D02*
X7081444Y-11738602D01*
X7081444Y-11738602D02*
X7071920Y-11690983D01*
X7071920Y-11690983D02*
X7071920Y-11652888D01*
X7071920Y-11652888D02*
X7081444Y-11605269D01*
X7081444Y-11605269D02*
X7090968Y-11576697D01*
X7090968Y-11576697D02*
X7100491Y-11557650D01*
X7100491Y-11557650D02*
X7119539Y-11529078D01*
X7119539Y-11529078D02*
X7129063Y-11519554D01*
X7205253Y-11614792D02*
X7205253Y-11748126D01*
X7205253Y-11633840D02*
X7214777Y-11624316D01*
X7214777Y-11624316D02*
X7233825Y-11614792D01*
X7233825Y-11614792D02*
X7262396Y-11614792D01*
X7262396Y-11614792D02*
X7281444Y-11624316D01*
X7281444Y-11624316D02*
X7290968Y-11643364D01*
X7290968Y-11643364D02*
X7290968Y-11748126D01*
X7414777Y-11748126D02*
X7395730Y-11738602D01*
X7395730Y-11738602D02*
X7386206Y-11729078D01*
X7386206Y-11729078D02*
X7376682Y-11710031D01*
X7376682Y-11710031D02*
X7376682Y-11652888D01*
X7376682Y-11652888D02*
X7386206Y-11633840D01*
X7386206Y-11633840D02*
X7395730Y-11624316D01*
X7395730Y-11624316D02*
X7414777Y-11614792D01*
X7414777Y-11614792D02*
X7443349Y-11614792D01*
X7443349Y-11614792D02*
X7462396Y-11624316D01*
X7462396Y-11624316D02*
X7471920Y-11633840D01*
X7471920Y-11633840D02*
X7481444Y-11652888D01*
X7481444Y-11652888D02*
X7481444Y-11710031D01*
X7481444Y-11710031D02*
X7471920Y-11729078D01*
X7471920Y-11729078D02*
X7462396Y-11738602D01*
X7462396Y-11738602D02*
X7443349Y-11748126D01*
X7443349Y-11748126D02*
X7414777Y-11748126D01*
X7538587Y-11614792D02*
X7614777Y-11614792D01*
X7567158Y-11548126D02*
X7567158Y-11719554D01*
X7567158Y-11719554D02*
X7576682Y-11738602D01*
X7576682Y-11738602D02*
X7595730Y-11748126D01*
X7595730Y-11748126D02*
X7614777Y-11748126D01*
X7833825Y-11614792D02*
X7833825Y-11814792D01*
X7833825Y-11624316D02*
X7852872Y-11614792D01*
X7852872Y-11614792D02*
X7890968Y-11614792D01*
X7890968Y-11614792D02*
X7910015Y-11624316D01*
X7910015Y-11624316D02*
X7919539Y-11633840D01*
X7919539Y-11633840D02*
X7929063Y-11652888D01*
X7929063Y-11652888D02*
X7929063Y-11710031D01*
X7929063Y-11710031D02*
X7919539Y-11729078D01*
X7919539Y-11729078D02*
X7910015Y-11738602D01*
X7910015Y-11738602D02*
X7890968Y-11748126D01*
X7890968Y-11748126D02*
X7852872Y-11748126D01*
X7852872Y-11748126D02*
X7833825Y-11738602D01*
X8043349Y-11748126D02*
X8024301Y-11738602D01*
X8024301Y-11738602D02*
X8014777Y-11719554D01*
X8014777Y-11719554D02*
X8014777Y-11548126D01*
X8205253Y-11748126D02*
X8205253Y-11643364D01*
X8205253Y-11643364D02*
X8195730Y-11624316D01*
X8195730Y-11624316D02*
X8176682Y-11614792D01*
X8176682Y-11614792D02*
X8138587Y-11614792D01*
X8138587Y-11614792D02*
X8119539Y-11624316D01*
X8205253Y-11738602D02*
X8186206Y-11748126D01*
X8186206Y-11748126D02*
X8138587Y-11748126D01*
X8138587Y-11748126D02*
X8119539Y-11738602D01*
X8119539Y-11738602D02*
X8110015Y-11719554D01*
X8110015Y-11719554D02*
X8110015Y-11700507D01*
X8110015Y-11700507D02*
X8119539Y-11681459D01*
X8119539Y-11681459D02*
X8138587Y-11671935D01*
X8138587Y-11671935D02*
X8186206Y-11671935D01*
X8186206Y-11671935D02*
X8205253Y-11662412D01*
X8271920Y-11614792D02*
X8348111Y-11614792D01*
X8300492Y-11548126D02*
X8300492Y-11719554D01*
X8300492Y-11719554D02*
X8310015Y-11738602D01*
X8310015Y-11738602D02*
X8329063Y-11748126D01*
X8329063Y-11748126D02*
X8348111Y-11748126D01*
X8490968Y-11738602D02*
X8471920Y-11748126D01*
X8471920Y-11748126D02*
X8433825Y-11748126D01*
X8433825Y-11748126D02*
X8414777Y-11738602D01*
X8414777Y-11738602D02*
X8405254Y-11719554D01*
X8405254Y-11719554D02*
X8405254Y-11643364D01*
X8405254Y-11643364D02*
X8414777Y-11624316D01*
X8414777Y-11624316D02*
X8433825Y-11614792D01*
X8433825Y-11614792D02*
X8471920Y-11614792D01*
X8471920Y-11614792D02*
X8490968Y-11624316D01*
X8490968Y-11624316D02*
X8500492Y-11643364D01*
X8500492Y-11643364D02*
X8500492Y-11662412D01*
X8500492Y-11662412D02*
X8405254Y-11681459D01*
X8671920Y-11748126D02*
X8671920Y-11548126D01*
X8671920Y-11738602D02*
X8652873Y-11748126D01*
X8652873Y-11748126D02*
X8614777Y-11748126D01*
X8614777Y-11748126D02*
X8595730Y-11738602D01*
X8595730Y-11738602D02*
X8586206Y-11729078D01*
X8586206Y-11729078D02*
X8576682Y-11710031D01*
X8576682Y-11710031D02*
X8576682Y-11652888D01*
X8576682Y-11652888D02*
X8586206Y-11633840D01*
X8586206Y-11633840D02*
X8595730Y-11624316D01*
X8595730Y-11624316D02*
X8614777Y-11614792D01*
X8614777Y-11614792D02*
X8652873Y-11614792D01*
X8652873Y-11614792D02*
X8671920Y-11624316D01*
X8748111Y-11824316D02*
X8757635Y-11814792D01*
X8757635Y-11814792D02*
X8776682Y-11786221D01*
X8776682Y-11786221D02*
X8786206Y-11767173D01*
X8786206Y-11767173D02*
X8795730Y-11738602D01*
X8795730Y-11738602D02*
X8805254Y-11690983D01*
X8805254Y-11690983D02*
X8805254Y-11652888D01*
X8805254Y-11652888D02*
X8795730Y-11605269D01*
X8795730Y-11605269D02*
X8786206Y-11576697D01*
X8786206Y-11576697D02*
X8776682Y-11557650D01*
X8776682Y-11557650D02*
X8757635Y-11529078D01*
X8757635Y-11529078D02*
X8748111Y-11519554D01*
X2054000Y-11876642D02*
X2054000Y-12076642D01*
X1954000Y-11976642D02*
X2154000Y-11976642D01*
X2395729Y-11868126D02*
X2519539Y-11868126D01*
X2519539Y-11868126D02*
X2452872Y-11944316D01*
X2452872Y-11944316D02*
X2481444Y-11944316D01*
X2481444Y-11944316D02*
X2500491Y-11953840D01*
X2500491Y-11953840D02*
X2510015Y-11963364D01*
X2510015Y-11963364D02*
X2519539Y-11982412D01*
X2519539Y-11982412D02*
X2519539Y-12030031D01*
X2519539Y-12030031D02*
X2510015Y-12049078D01*
X2510015Y-12049078D02*
X2500491Y-12058602D01*
X2500491Y-12058602D02*
X2481444Y-12068126D01*
X2481444Y-12068126D02*
X2424301Y-12068126D01*
X2424301Y-12068126D02*
X2405253Y-12058602D01*
X2405253Y-12058602D02*
X2395729Y-12049078D01*
X2605253Y-12049078D02*
X2614777Y-12058602D01*
X2614777Y-12058602D02*
X2605253Y-12068126D01*
X2605253Y-12068126D02*
X2595729Y-12058602D01*
X2595729Y-12058602D02*
X2605253Y-12049078D01*
X2605253Y-12049078D02*
X2605253Y-12068126D01*
X2795729Y-11868126D02*
X2700491Y-11868126D01*
X2700491Y-11868126D02*
X2690967Y-11963364D01*
X2690967Y-11963364D02*
X2700491Y-11953840D01*
X2700491Y-11953840D02*
X2719539Y-11944316D01*
X2719539Y-11944316D02*
X2767158Y-11944316D01*
X2767158Y-11944316D02*
X2786205Y-11953840D01*
X2786205Y-11953840D02*
X2795729Y-11963364D01*
X2795729Y-11963364D02*
X2805253Y-11982412D01*
X2805253Y-11982412D02*
X2805253Y-12030031D01*
X2805253Y-12030031D02*
X2795729Y-12049078D01*
X2795729Y-12049078D02*
X2786205Y-12058602D01*
X2786205Y-12058602D02*
X2767158Y-12068126D01*
X2767158Y-12068126D02*
X2719539Y-12068126D01*
X2719539Y-12068126D02*
X2700491Y-12058602D01*
X2700491Y-12058602D02*
X2690967Y-12049078D01*
X2929062Y-11868126D02*
X2948110Y-11868126D01*
X2948110Y-11868126D02*
X2967158Y-11877650D01*
X2967158Y-11877650D02*
X2976682Y-11887173D01*
X2976682Y-11887173D02*
X2986205Y-11906221D01*
X2986205Y-11906221D02*
X2995729Y-11944316D01*
X2995729Y-11944316D02*
X2995729Y-11991935D01*
X2995729Y-11991935D02*
X2986205Y-12030031D01*
X2986205Y-12030031D02*
X2976682Y-12049078D01*
X2976682Y-12049078D02*
X2967158Y-12058602D01*
X2967158Y-12058602D02*
X2948110Y-12068126D01*
X2948110Y-12068126D02*
X2929062Y-12068126D01*
X2929062Y-12068126D02*
X2910015Y-12058602D01*
X2910015Y-12058602D02*
X2900491Y-12049078D01*
X2900491Y-12049078D02*
X2890967Y-12030031D01*
X2890967Y-12030031D02*
X2881443Y-11991935D01*
X2881443Y-11991935D02*
X2881443Y-11944316D01*
X2881443Y-11944316D02*
X2890967Y-11906221D01*
X2890967Y-11906221D02*
X2900491Y-11887173D01*
X2900491Y-11887173D02*
X2910015Y-11877650D01*
X2910015Y-11877650D02*
X2929062Y-11868126D01*
X3119539Y-11868126D02*
X3138586Y-11868126D01*
X3138586Y-11868126D02*
X3157634Y-11877650D01*
X3157634Y-11877650D02*
X3167158Y-11887173D01*
X3167158Y-11887173D02*
X3176682Y-11906221D01*
X3176682Y-11906221D02*
X3186205Y-11944316D01*
X3186205Y-11944316D02*
X3186205Y-11991935D01*
X3186205Y-11991935D02*
X3176682Y-12030031D01*
X3176682Y-12030031D02*
X3167158Y-12049078D01*
X3167158Y-12049078D02*
X3157634Y-12058602D01*
X3157634Y-12058602D02*
X3138586Y-12068126D01*
X3138586Y-12068126D02*
X3119539Y-12068126D01*
X3119539Y-12068126D02*
X3100491Y-12058602D01*
X3100491Y-12058602D02*
X3090967Y-12049078D01*
X3090967Y-12049078D02*
X3081443Y-12030031D01*
X3081443Y-12030031D02*
X3071920Y-11991935D01*
X3071920Y-11991935D02*
X3071920Y-11944316D01*
X3071920Y-11944316D02*
X3081443Y-11906221D01*
X3081443Y-11906221D02*
X3090967Y-11887173D01*
X3090967Y-11887173D02*
X3100491Y-11877650D01*
X3100491Y-11877650D02*
X3119539Y-11868126D01*
X3271920Y-12068126D02*
X3271920Y-11934792D01*
X3271920Y-11953840D02*
X3281443Y-11944316D01*
X3281443Y-11944316D02*
X3300491Y-11934792D01*
X3300491Y-11934792D02*
X3329063Y-11934792D01*
X3329063Y-11934792D02*
X3348110Y-11944316D01*
X3348110Y-11944316D02*
X3357634Y-11963364D01*
X3357634Y-11963364D02*
X3357634Y-12068126D01*
X3357634Y-11963364D02*
X3367158Y-11944316D01*
X3367158Y-11944316D02*
X3386205Y-11934792D01*
X3386205Y-11934792D02*
X3414777Y-11934792D01*
X3414777Y-11934792D02*
X3433824Y-11944316D01*
X3433824Y-11944316D02*
X3443348Y-11963364D01*
X3443348Y-11963364D02*
X3443348Y-12068126D01*
X3538586Y-12068126D02*
X3538586Y-11934792D01*
X3538586Y-11953840D02*
X3548110Y-11944316D01*
X3548110Y-11944316D02*
X3567158Y-11934792D01*
X3567158Y-11934792D02*
X3595729Y-11934792D01*
X3595729Y-11934792D02*
X3614777Y-11944316D01*
X3614777Y-11944316D02*
X3624301Y-11963364D01*
X3624301Y-11963364D02*
X3624301Y-12068126D01*
X3624301Y-11963364D02*
X3633824Y-11944316D01*
X3633824Y-11944316D02*
X3652872Y-11934792D01*
X3652872Y-11934792D02*
X3681443Y-11934792D01*
X3681443Y-11934792D02*
X3700491Y-11944316D01*
X3700491Y-11944316D02*
X3710015Y-11963364D01*
X3710015Y-11963364D02*
X3710015Y-12068126D01*
X4100491Y-11858602D02*
X3929063Y-12115745D01*
X4357634Y-11868126D02*
X4376682Y-11868126D01*
X4376682Y-11868126D02*
X4395729Y-11877650D01*
X4395729Y-11877650D02*
X4405253Y-11887173D01*
X4405253Y-11887173D02*
X4414777Y-11906221D01*
X4414777Y-11906221D02*
X4424301Y-11944316D01*
X4424301Y-11944316D02*
X4424301Y-11991935D01*
X4424301Y-11991935D02*
X4414777Y-12030031D01*
X4414777Y-12030031D02*
X4405253Y-12049078D01*
X4405253Y-12049078D02*
X4395729Y-12058602D01*
X4395729Y-12058602D02*
X4376682Y-12068126D01*
X4376682Y-12068126D02*
X4357634Y-12068126D01*
X4357634Y-12068126D02*
X4338587Y-12058602D01*
X4338587Y-12058602D02*
X4329063Y-12049078D01*
X4329063Y-12049078D02*
X4319539Y-12030031D01*
X4319539Y-12030031D02*
X4310015Y-11991935D01*
X4310015Y-11991935D02*
X4310015Y-11944316D01*
X4310015Y-11944316D02*
X4319539Y-11906221D01*
X4319539Y-11906221D02*
X4329063Y-11887173D01*
X4329063Y-11887173D02*
X4338587Y-11877650D01*
X4338587Y-11877650D02*
X4357634Y-11868126D01*
X4510015Y-12049078D02*
X4519539Y-12058602D01*
X4519539Y-12058602D02*
X4510015Y-12068126D01*
X4510015Y-12068126D02*
X4500491Y-12058602D01*
X4500491Y-12058602D02*
X4510015Y-12049078D01*
X4510015Y-12049078D02*
X4510015Y-12068126D01*
X4710015Y-12068126D02*
X4595729Y-12068126D01*
X4652872Y-12068126D02*
X4652872Y-11868126D01*
X4652872Y-11868126D02*
X4633825Y-11896697D01*
X4633825Y-11896697D02*
X4614777Y-11915745D01*
X4614777Y-11915745D02*
X4595729Y-11925269D01*
X4776682Y-11868126D02*
X4900491Y-11868126D01*
X4900491Y-11868126D02*
X4833825Y-11944316D01*
X4833825Y-11944316D02*
X4862396Y-11944316D01*
X4862396Y-11944316D02*
X4881444Y-11953840D01*
X4881444Y-11953840D02*
X4890968Y-11963364D01*
X4890968Y-11963364D02*
X4900491Y-11982412D01*
X4900491Y-11982412D02*
X4900491Y-12030031D01*
X4900491Y-12030031D02*
X4890968Y-12049078D01*
X4890968Y-12049078D02*
X4881444Y-12058602D01*
X4881444Y-12058602D02*
X4862396Y-12068126D01*
X4862396Y-12068126D02*
X4805253Y-12068126D01*
X4805253Y-12068126D02*
X4786206Y-12058602D01*
X4786206Y-12058602D02*
X4776682Y-12049078D01*
X4967158Y-11868126D02*
X5100491Y-11868126D01*
X5100491Y-11868126D02*
X5014777Y-12068126D01*
X5205253Y-11953840D02*
X5186206Y-11944316D01*
X5186206Y-11944316D02*
X5176682Y-11934792D01*
X5176682Y-11934792D02*
X5167158Y-11915745D01*
X5167158Y-11915745D02*
X5167158Y-11906221D01*
X5167158Y-11906221D02*
X5176682Y-11887173D01*
X5176682Y-11887173D02*
X5186206Y-11877650D01*
X5186206Y-11877650D02*
X5205253Y-11868126D01*
X5205253Y-11868126D02*
X5243349Y-11868126D01*
X5243349Y-11868126D02*
X5262396Y-11877650D01*
X5262396Y-11877650D02*
X5271920Y-11887173D01*
X5271920Y-11887173D02*
X5281444Y-11906221D01*
X5281444Y-11906221D02*
X5281444Y-11915745D01*
X5281444Y-11915745D02*
X5271920Y-11934792D01*
X5271920Y-11934792D02*
X5262396Y-11944316D01*
X5262396Y-11944316D02*
X5243349Y-11953840D01*
X5243349Y-11953840D02*
X5205253Y-11953840D01*
X5205253Y-11953840D02*
X5186206Y-11963364D01*
X5186206Y-11963364D02*
X5176682Y-11972888D01*
X5176682Y-11972888D02*
X5167158Y-11991935D01*
X5167158Y-11991935D02*
X5167158Y-12030031D01*
X5167158Y-12030031D02*
X5176682Y-12049078D01*
X5176682Y-12049078D02*
X5186206Y-12058602D01*
X5186206Y-12058602D02*
X5205253Y-12068126D01*
X5205253Y-12068126D02*
X5243349Y-12068126D01*
X5243349Y-12068126D02*
X5262396Y-12058602D01*
X5262396Y-12058602D02*
X5271920Y-12049078D01*
X5271920Y-12049078D02*
X5281444Y-12030031D01*
X5281444Y-12030031D02*
X5281444Y-11991935D01*
X5281444Y-11991935D02*
X5271920Y-11972888D01*
X5271920Y-11972888D02*
X5262396Y-11963364D01*
X5262396Y-11963364D02*
X5243349Y-11953840D01*
X5357634Y-11868126D02*
X5357634Y-11906221D01*
X5433825Y-11868126D02*
X5433825Y-11906221D01*
X5729063Y-12144316D02*
X5719539Y-12134792D01*
X5719539Y-12134792D02*
X5700491Y-12106221D01*
X5700491Y-12106221D02*
X5690968Y-12087173D01*
X5690968Y-12087173D02*
X5681444Y-12058602D01*
X5681444Y-12058602D02*
X5671920Y-12010983D01*
X5671920Y-12010983D02*
X5671920Y-11972888D01*
X5671920Y-11972888D02*
X5681444Y-11925269D01*
X5681444Y-11925269D02*
X5690968Y-11896697D01*
X5690968Y-11896697D02*
X5700491Y-11877650D01*
X5700491Y-11877650D02*
X5719539Y-11849078D01*
X5719539Y-11849078D02*
X5729063Y-11839554D01*
X5795729Y-11887173D02*
X5805253Y-11877650D01*
X5805253Y-11877650D02*
X5824301Y-11868126D01*
X5824301Y-11868126D02*
X5871920Y-11868126D01*
X5871920Y-11868126D02*
X5890968Y-11877650D01*
X5890968Y-11877650D02*
X5900491Y-11887173D01*
X5900491Y-11887173D02*
X5910015Y-11906221D01*
X5910015Y-11906221D02*
X5910015Y-11925269D01*
X5910015Y-11925269D02*
X5900491Y-11953840D01*
X5900491Y-11953840D02*
X5786206Y-12068126D01*
X5786206Y-12068126D02*
X5910015Y-12068126D01*
X6148110Y-12068126D02*
X6148110Y-11868126D01*
X6233825Y-12068126D02*
X6233825Y-11963364D01*
X6233825Y-11963364D02*
X6224301Y-11944316D01*
X6224301Y-11944316D02*
X6205253Y-11934792D01*
X6205253Y-11934792D02*
X6176682Y-11934792D01*
X6176682Y-11934792D02*
X6157634Y-11944316D01*
X6157634Y-11944316D02*
X6148110Y-11953840D01*
X6357634Y-12068126D02*
X6338587Y-12058602D01*
X6338587Y-12058602D02*
X6329063Y-12049078D01*
X6329063Y-12049078D02*
X6319539Y-12030031D01*
X6319539Y-12030031D02*
X6319539Y-11972888D01*
X6319539Y-11972888D02*
X6329063Y-11953840D01*
X6329063Y-11953840D02*
X6338587Y-11944316D01*
X6338587Y-11944316D02*
X6357634Y-11934792D01*
X6357634Y-11934792D02*
X6386206Y-11934792D01*
X6386206Y-11934792D02*
X6405253Y-11944316D01*
X6405253Y-11944316D02*
X6414777Y-11953840D01*
X6414777Y-11953840D02*
X6424301Y-11972888D01*
X6424301Y-11972888D02*
X6424301Y-12030031D01*
X6424301Y-12030031D02*
X6414777Y-12049078D01*
X6414777Y-12049078D02*
X6405253Y-12058602D01*
X6405253Y-12058602D02*
X6386206Y-12068126D01*
X6386206Y-12068126D02*
X6357634Y-12068126D01*
X6538587Y-12068126D02*
X6519539Y-12058602D01*
X6519539Y-12058602D02*
X6510015Y-12039554D01*
X6510015Y-12039554D02*
X6510015Y-11868126D01*
X6690968Y-12058602D02*
X6671920Y-12068126D01*
X6671920Y-12068126D02*
X6633825Y-12068126D01*
X6633825Y-12068126D02*
X6614777Y-12058602D01*
X6614777Y-12058602D02*
X6605253Y-12039554D01*
X6605253Y-12039554D02*
X6605253Y-11963364D01*
X6605253Y-11963364D02*
X6614777Y-11944316D01*
X6614777Y-11944316D02*
X6633825Y-11934792D01*
X6633825Y-11934792D02*
X6671920Y-11934792D01*
X6671920Y-11934792D02*
X6690968Y-11944316D01*
X6690968Y-11944316D02*
X6700491Y-11963364D01*
X6700491Y-11963364D02*
X6700491Y-11982412D01*
X6700491Y-11982412D02*
X6605253Y-12001459D01*
X6776682Y-12058602D02*
X6795730Y-12068126D01*
X6795730Y-12068126D02*
X6833825Y-12068126D01*
X6833825Y-12068126D02*
X6852872Y-12058602D01*
X6852872Y-12058602D02*
X6862396Y-12039554D01*
X6862396Y-12039554D02*
X6862396Y-12030031D01*
X6862396Y-12030031D02*
X6852872Y-12010983D01*
X6852872Y-12010983D02*
X6833825Y-12001459D01*
X6833825Y-12001459D02*
X6805253Y-12001459D01*
X6805253Y-12001459D02*
X6786206Y-11991935D01*
X6786206Y-11991935D02*
X6776682Y-11972888D01*
X6776682Y-11972888D02*
X6776682Y-11963364D01*
X6776682Y-11963364D02*
X6786206Y-11944316D01*
X6786206Y-11944316D02*
X6805253Y-11934792D01*
X6805253Y-11934792D02*
X6833825Y-11934792D01*
X6833825Y-11934792D02*
X6852872Y-11944316D01*
X6929063Y-12144316D02*
X6938587Y-12134792D01*
X6938587Y-12134792D02*
X6957634Y-12106221D01*
X6957634Y-12106221D02*
X6967158Y-12087173D01*
X6967158Y-12087173D02*
X6976682Y-12058602D01*
X6976682Y-12058602D02*
X6986206Y-12010983D01*
X6986206Y-12010983D02*
X6986206Y-11972888D01*
X6986206Y-11972888D02*
X6976682Y-11925269D01*
X6976682Y-11925269D02*
X6967158Y-11896697D01*
X6967158Y-11896697D02*
X6957634Y-11877650D01*
X6957634Y-11877650D02*
X6938587Y-11849078D01*
X6938587Y-11849078D02*
X6929063Y-11839554D01*
X7290968Y-12144316D02*
X7281444Y-12134792D01*
X7281444Y-12134792D02*
X7262396Y-12106221D01*
X7262396Y-12106221D02*
X7252872Y-12087173D01*
X7252872Y-12087173D02*
X7243349Y-12058602D01*
X7243349Y-12058602D02*
X7233825Y-12010983D01*
X7233825Y-12010983D02*
X7233825Y-11972888D01*
X7233825Y-11972888D02*
X7243349Y-11925269D01*
X7243349Y-11925269D02*
X7252872Y-11896697D01*
X7252872Y-11896697D02*
X7262396Y-11877650D01*
X7262396Y-11877650D02*
X7281444Y-11849078D01*
X7281444Y-11849078D02*
X7290968Y-11839554D01*
X7367158Y-11934792D02*
X7367158Y-12068126D01*
X7367158Y-11953840D02*
X7376682Y-11944316D01*
X7376682Y-11944316D02*
X7395730Y-11934792D01*
X7395730Y-11934792D02*
X7424301Y-11934792D01*
X7424301Y-11934792D02*
X7443349Y-11944316D01*
X7443349Y-11944316D02*
X7452872Y-11963364D01*
X7452872Y-11963364D02*
X7452872Y-12068126D01*
X7576682Y-12068126D02*
X7557634Y-12058602D01*
X7557634Y-12058602D02*
X7548111Y-12049078D01*
X7548111Y-12049078D02*
X7538587Y-12030031D01*
X7538587Y-12030031D02*
X7538587Y-11972888D01*
X7538587Y-11972888D02*
X7548111Y-11953840D01*
X7548111Y-11953840D02*
X7557634Y-11944316D01*
X7557634Y-11944316D02*
X7576682Y-11934792D01*
X7576682Y-11934792D02*
X7605253Y-11934792D01*
X7605253Y-11934792D02*
X7624301Y-11944316D01*
X7624301Y-11944316D02*
X7633825Y-11953840D01*
X7633825Y-11953840D02*
X7643349Y-11972888D01*
X7643349Y-11972888D02*
X7643349Y-12030031D01*
X7643349Y-12030031D02*
X7633825Y-12049078D01*
X7633825Y-12049078D02*
X7624301Y-12058602D01*
X7624301Y-12058602D02*
X7605253Y-12068126D01*
X7605253Y-12068126D02*
X7576682Y-12068126D01*
X7700492Y-11934792D02*
X7776682Y-11934792D01*
X7729063Y-11868126D02*
X7729063Y-12039554D01*
X7729063Y-12039554D02*
X7738587Y-12058602D01*
X7738587Y-12058602D02*
X7757634Y-12068126D01*
X7757634Y-12068126D02*
X7776682Y-12068126D01*
X7995730Y-11934792D02*
X7995730Y-12134792D01*
X7995730Y-11944316D02*
X8014777Y-11934792D01*
X8014777Y-11934792D02*
X8052873Y-11934792D01*
X8052873Y-11934792D02*
X8071920Y-11944316D01*
X8071920Y-11944316D02*
X8081444Y-11953840D01*
X8081444Y-11953840D02*
X8090968Y-11972888D01*
X8090968Y-11972888D02*
X8090968Y-12030031D01*
X8090968Y-12030031D02*
X8081444Y-12049078D01*
X8081444Y-12049078D02*
X8071920Y-12058602D01*
X8071920Y-12058602D02*
X8052873Y-12068126D01*
X8052873Y-12068126D02*
X8014777Y-12068126D01*
X8014777Y-12068126D02*
X7995730Y-12058602D01*
X8205253Y-12068126D02*
X8186206Y-12058602D01*
X8186206Y-12058602D02*
X8176682Y-12039554D01*
X8176682Y-12039554D02*
X8176682Y-11868126D01*
X8367158Y-12068126D02*
X8367158Y-11963364D01*
X8367158Y-11963364D02*
X8357634Y-11944316D01*
X8357634Y-11944316D02*
X8338587Y-11934792D01*
X8338587Y-11934792D02*
X8300492Y-11934792D01*
X8300492Y-11934792D02*
X8281444Y-11944316D01*
X8367158Y-12058602D02*
X8348111Y-12068126D01*
X8348111Y-12068126D02*
X8300492Y-12068126D01*
X8300492Y-12068126D02*
X8281444Y-12058602D01*
X8281444Y-12058602D02*
X8271920Y-12039554D01*
X8271920Y-12039554D02*
X8271920Y-12020507D01*
X8271920Y-12020507D02*
X8281444Y-12001459D01*
X8281444Y-12001459D02*
X8300492Y-11991935D01*
X8300492Y-11991935D02*
X8348111Y-11991935D01*
X8348111Y-11991935D02*
X8367158Y-11982412D01*
X8433825Y-11934792D02*
X8510015Y-11934792D01*
X8462396Y-11868126D02*
X8462396Y-12039554D01*
X8462396Y-12039554D02*
X8471920Y-12058602D01*
X8471920Y-12058602D02*
X8490968Y-12068126D01*
X8490968Y-12068126D02*
X8510015Y-12068126D01*
X8652873Y-12058602D02*
X8633825Y-12068126D01*
X8633825Y-12068126D02*
X8595730Y-12068126D01*
X8595730Y-12068126D02*
X8576682Y-12058602D01*
X8576682Y-12058602D02*
X8567158Y-12039554D01*
X8567158Y-12039554D02*
X8567158Y-11963364D01*
X8567158Y-11963364D02*
X8576682Y-11944316D01*
X8576682Y-11944316D02*
X8595730Y-11934792D01*
X8595730Y-11934792D02*
X8633825Y-11934792D01*
X8633825Y-11934792D02*
X8652873Y-11944316D01*
X8652873Y-11944316D02*
X8662396Y-11963364D01*
X8662396Y-11963364D02*
X8662396Y-11982412D01*
X8662396Y-11982412D02*
X8567158Y-12001459D01*
X8833825Y-12068126D02*
X8833825Y-11868126D01*
X8833825Y-12058602D02*
X8814777Y-12068126D01*
X8814777Y-12068126D02*
X8776682Y-12068126D01*
X8776682Y-12068126D02*
X8757635Y-12058602D01*
X8757635Y-12058602D02*
X8748111Y-12049078D01*
X8748111Y-12049078D02*
X8738587Y-12030031D01*
X8738587Y-12030031D02*
X8738587Y-11972888D01*
X8738587Y-11972888D02*
X8748111Y-11953840D01*
X8748111Y-11953840D02*
X8757635Y-11944316D01*
X8757635Y-11944316D02*
X8776682Y-11934792D01*
X8776682Y-11934792D02*
X8814777Y-11934792D01*
X8814777Y-11934792D02*
X8833825Y-11944316D01*
X8910016Y-12144316D02*
X8919539Y-12134792D01*
X8919539Y-12134792D02*
X8938587Y-12106221D01*
X8938587Y-12106221D02*
X8948111Y-12087173D01*
X8948111Y-12087173D02*
X8957635Y-12058602D01*
X8957635Y-12058602D02*
X8967158Y-12010983D01*
X8967158Y-12010983D02*
X8967158Y-11972888D01*
X8967158Y-11972888D02*
X8957635Y-11925269D01*
X8957635Y-11925269D02*
X8948111Y-11896697D01*
X8948111Y-11896697D02*
X8938587Y-11877650D01*
X8938587Y-11877650D02*
X8919539Y-11849078D01*
X8919539Y-11849078D02*
X8910016Y-11839554D01*
M02*
