%TF.GenerationSoftware,KiCad,Pcbnew,7.0.2*%
%TF.CreationDate,2023-10-16T20:56:56+02:00*%
%TF.ProjectId,interrupter,696e7465-7272-4757-9074-65722e6b6963,rev?*%
%TF.SameCoordinates,Original*%
%TF.FileFunction,Soldermask,Bot*%
%TF.FilePolarity,Negative*%
%FSLAX46Y46*%
G04 Gerber Fmt 4.6, Leading zero omitted, Abs format (unit mm)*
G04 Created by KiCad (PCBNEW 7.0.2) date 2023-10-16 20:56:56*
%MOMM*%
%LPD*%
G01*
G04 APERTURE LIST*
G04 Aperture macros list*
%AMRoundRect*
0 Rectangle with rounded corners*
0 $1 Rounding radius*
0 $2 $3 $4 $5 $6 $7 $8 $9 X,Y pos of 4 corners*
0 Add a 4 corners polygon primitive as box body*
4,1,4,$2,$3,$4,$5,$6,$7,$8,$9,$2,$3,0*
0 Add four circle primitives for the rounded corners*
1,1,$1+$1,$2,$3*
1,1,$1+$1,$4,$5*
1,1,$1+$1,$6,$7*
1,1,$1+$1,$8,$9*
0 Add four rect primitives between the rounded corners*
20,1,$1+$1,$2,$3,$4,$5,0*
20,1,$1+$1,$4,$5,$6,$7,0*
20,1,$1+$1,$6,$7,$8,$9,0*
20,1,$1+$1,$8,$9,$2,$3,0*%
%AMFreePoly0*
4,1,19,0.000000,0.744911,0.071157,0.744911,0.207708,0.704816,0.327430,0.627875,0.420627,0.520320,0.479746,0.390866,0.500000,0.250000,0.500000,-0.250000,0.479746,-0.390866,0.420627,-0.520320,0.327430,-0.627875,0.207708,-0.704816,0.071157,-0.744911,0.000000,-0.744911,0.000000,-0.750000,-0.500000,-0.750000,-0.500000,0.750000,0.000000,0.750000,0.000000,0.744911,0.000000,0.744911,
$1*%
%AMFreePoly1*
4,1,19,0.500000,-0.750000,0.000000,-0.750000,0.000000,-0.744911,-0.071157,-0.744911,-0.207708,-0.704816,-0.327430,-0.627875,-0.420627,-0.520320,-0.479746,-0.390866,-0.500000,-0.250000,-0.500000,0.250000,-0.479746,0.390866,-0.420627,0.520320,-0.327430,0.627875,-0.207708,0.704816,-0.071157,0.744911,0.000000,0.744911,0.000000,0.750000,0.500000,0.750000,0.500000,-0.750000,0.500000,-0.750000,
$1*%
G04 Aperture macros list end*
%ADD10R,1.208000X1.208000*%
%ADD11C,1.600000*%
%ADD12C,3.200000*%
%ADD13O,1.800000X2.600000*%
%ADD14R,1.800000X2.600000*%
%ADD15C,3.000000*%
%ADD16C,1.200000*%
%ADD17R,1.200000X1.200000*%
%ADD18O,1.600000X1.600000*%
%ADD19R,1.600000X1.600000*%
%ADD20C,2.500000*%
%ADD21RoundRect,0.875000X-0.875000X-0.875000X0.875000X-0.875000X0.875000X0.875000X-0.875000X0.875000X0*%
%ADD22RoundRect,0.750000X-0.750000X-1.000000X0.750000X-1.000000X0.750000X1.000000X-0.750000X1.000000X0*%
%ADD23R,3.500000X3.500000*%
%ADD24O,2.500000X1.500000*%
%ADD25R,2.500000X1.500000*%
%ADD26O,3.500000X2.200000*%
%ADD27C,1.500000*%
%ADD28O,1.500000X2.500000*%
%ADD29R,1.500000X2.500000*%
%ADD30O,2.200000X3.500000*%
%ADD31O,1.700000X1.700000*%
%ADD32R,1.700000X1.700000*%
%ADD33C,2.000000*%
%ADD34FreePoly0,0.000000*%
%ADD35FreePoly1,0.000000*%
G04 APERTURE END LIST*
D10*
%TO.C,U3*%
X93442000Y-29718000D03*
X96042000Y-29718000D03*
D11*
X97342000Y-27218000D03*
D12*
X94842000Y-34818000D03*
D11*
X92342000Y-27218000D03*
%TD*%
D13*
%TO.C,DS1*%
X70269100Y-30480000D03*
X67729100Y-30480000D03*
X65189100Y-30480000D03*
X62649100Y-30480000D03*
X60109100Y-30480000D03*
X57569100Y-30480000D03*
X55029100Y-30480000D03*
X52489100Y-30480000D03*
X49949100Y-30480000D03*
X47409100Y-30480000D03*
X44869100Y-30480000D03*
X42329100Y-30480000D03*
X39789100Y-30480000D03*
X37249100Y-30480000D03*
X34709100Y-30480000D03*
D14*
X32169100Y-30480000D03*
D15*
X101669100Y-30480000D03*
X101668580Y-61480700D03*
X26670000Y-30480000D03*
%TD*%
D16*
%TO.C,C2*%
X36830000Y-58420000D03*
D17*
X36830000Y-56920000D03*
%TD*%
D16*
%TO.C,C3*%
X42672000Y-58650000D03*
D17*
X42672000Y-57150000D03*
%TD*%
D18*
%TO.C,U5*%
X78120000Y-67300000D03*
X80660000Y-67300000D03*
X83200000Y-67300000D03*
X83200000Y-74920000D03*
X80660000Y-74920000D03*
D19*
X78120000Y-74920000D03*
%TD*%
D20*
%TO.C,J4*%
X102250000Y-71200000D03*
X102250000Y-81200000D03*
X89750000Y-81200000D03*
X89750000Y-71200000D03*
X92250000Y-83700000D03*
X92250000Y-76200000D03*
X92250000Y-68700000D03*
%TD*%
D21*
%TO.C,J1*%
X33400000Y-74227500D03*
D22*
X30400000Y-69527500D03*
D23*
X36400000Y-69527500D03*
%TD*%
D24*
%TO.C,SW1*%
X25400000Y-59340000D03*
X25400000Y-56340000D03*
D25*
X25400000Y-53340000D03*
D26*
X25400000Y-62390000D03*
X25400000Y-50290000D03*
%TD*%
D27*
%TO.C,Y1*%
X41365000Y-42020000D03*
X41365000Y-46900000D03*
%TD*%
D28*
%TO.C,SW2*%
X84382500Y-29210000D03*
X81382500Y-29210000D03*
D29*
X78382500Y-29210000D03*
D30*
X87432500Y-29210000D03*
X75332500Y-29210000D03*
%TD*%
D16*
%TO.C,C1*%
X31750000Y-58650000D03*
D17*
X31750000Y-57150000D03*
%TD*%
D31*
%TO.C,J3*%
X67290000Y-37620000D03*
X64750000Y-37620000D03*
X67290000Y-40160000D03*
X64750000Y-40160000D03*
X67290000Y-42700000D03*
D32*
X64750000Y-42700000D03*
%TD*%
D33*
%TO.C,SW4*%
X58130000Y-72950000D03*
X58130000Y-79450000D03*
X53630000Y-72950000D03*
X53630000Y-79450000D03*
%TD*%
%TO.C,SW5*%
X68290000Y-72950000D03*
X68290000Y-79450000D03*
X63790000Y-72950000D03*
X63790000Y-79450000D03*
%TD*%
%TO.C,SW3*%
X48260000Y-72950000D03*
X48260000Y-79450000D03*
X43760000Y-72950000D03*
X43760000Y-79450000D03*
%TD*%
D34*
%TO.C,JP1*%
X69230000Y-27305000D03*
D35*
X67930000Y-27305000D03*
%TD*%
M02*
