%TF.GenerationSoftware,KiCad,Pcbnew,7.0.7-7.0.7~ubuntu22.04.1*%
%TF.CreationDate,2023-10-02T16:44:26+02:00*%
%TF.ProjectId,interrupter,696e7465-7272-4757-9074-65722e6b6963,rev?*%
%TF.SameCoordinates,Original*%
%TF.FileFunction,Legend,Top*%
%TF.FilePolarity,Positive*%
%FSLAX46Y46*%
G04 Gerber Fmt 4.6, Leading zero omitted, Abs format (unit mm)*
G04 Created by KiCad (PCBNEW 7.0.7-7.0.7~ubuntu22.04.1) date 2023-10-02 16:44:26*
%MOMM*%
%LPD*%
G01*
G04 APERTURE LIST*
%ADD10C,0.125000*%
%ADD11C,0.150000*%
%ADD12C,0.300000*%
%ADD13C,0.100000*%
%ADD14C,0.120000*%
%ADD15C,0.127000*%
%ADD16C,0.304800*%
G04 APERTURE END LIST*
D10*
X92535951Y-45176119D02*
X92535951Y-45890404D01*
X92535951Y-45890404D02*
X92488332Y-46033261D01*
X92488332Y-46033261D02*
X92393094Y-46128500D01*
X92393094Y-46128500D02*
X92250237Y-46176119D01*
X92250237Y-46176119D02*
X92154999Y-46176119D01*
X93488332Y-46176119D02*
X93012142Y-46176119D01*
X93012142Y-46176119D02*
X93012142Y-45176119D01*
X94393094Y-46080880D02*
X94345475Y-46128500D01*
X94345475Y-46128500D02*
X94202618Y-46176119D01*
X94202618Y-46176119D02*
X94107380Y-46176119D01*
X94107380Y-46176119D02*
X93964523Y-46128500D01*
X93964523Y-46128500D02*
X93869285Y-46033261D01*
X93869285Y-46033261D02*
X93821666Y-45938023D01*
X93821666Y-45938023D02*
X93774047Y-45747547D01*
X93774047Y-45747547D02*
X93774047Y-45604690D01*
X93774047Y-45604690D02*
X93821666Y-45414214D01*
X93821666Y-45414214D02*
X93869285Y-45318976D01*
X93869285Y-45318976D02*
X93964523Y-45223738D01*
X93964523Y-45223738D02*
X94107380Y-45176119D01*
X94107380Y-45176119D02*
X94202618Y-45176119D01*
X94202618Y-45176119D02*
X94345475Y-45223738D01*
X94345475Y-45223738D02*
X94393094Y-45271357D01*
X95107380Y-45176119D02*
X95107380Y-45890404D01*
X95107380Y-45890404D02*
X95059761Y-46033261D01*
X95059761Y-46033261D02*
X94964523Y-46128500D01*
X94964523Y-46128500D02*
X94821666Y-46176119D01*
X94821666Y-46176119D02*
X94726428Y-46176119D01*
X96059761Y-46176119D02*
X95583571Y-46176119D01*
X95583571Y-46176119D02*
X95583571Y-45176119D01*
X96964523Y-46080880D02*
X96916904Y-46128500D01*
X96916904Y-46128500D02*
X96774047Y-46176119D01*
X96774047Y-46176119D02*
X96678809Y-46176119D01*
X96678809Y-46176119D02*
X96535952Y-46128500D01*
X96535952Y-46128500D02*
X96440714Y-46033261D01*
X96440714Y-46033261D02*
X96393095Y-45938023D01*
X96393095Y-45938023D02*
X96345476Y-45747547D01*
X96345476Y-45747547D02*
X96345476Y-45604690D01*
X96345476Y-45604690D02*
X96393095Y-45414214D01*
X96393095Y-45414214D02*
X96440714Y-45318976D01*
X96440714Y-45318976D02*
X96535952Y-45223738D01*
X96535952Y-45223738D02*
X96678809Y-45176119D01*
X96678809Y-45176119D02*
X96774047Y-45176119D01*
X96774047Y-45176119D02*
X96916904Y-45223738D01*
X96916904Y-45223738D02*
X96964523Y-45271357D01*
X97678809Y-45176119D02*
X97678809Y-45890404D01*
X97678809Y-45890404D02*
X97631190Y-46033261D01*
X97631190Y-46033261D02*
X97535952Y-46128500D01*
X97535952Y-46128500D02*
X97393095Y-46176119D01*
X97393095Y-46176119D02*
X97297857Y-46176119D01*
X98631190Y-46176119D02*
X98155000Y-46176119D01*
X98155000Y-46176119D02*
X98155000Y-45176119D01*
X99535952Y-46080880D02*
X99488333Y-46128500D01*
X99488333Y-46128500D02*
X99345476Y-46176119D01*
X99345476Y-46176119D02*
X99250238Y-46176119D01*
X99250238Y-46176119D02*
X99107381Y-46128500D01*
X99107381Y-46128500D02*
X99012143Y-46033261D01*
X99012143Y-46033261D02*
X98964524Y-45938023D01*
X98964524Y-45938023D02*
X98916905Y-45747547D01*
X98916905Y-45747547D02*
X98916905Y-45604690D01*
X98916905Y-45604690D02*
X98964524Y-45414214D01*
X98964524Y-45414214D02*
X99012143Y-45318976D01*
X99012143Y-45318976D02*
X99107381Y-45223738D01*
X99107381Y-45223738D02*
X99250238Y-45176119D01*
X99250238Y-45176119D02*
X99345476Y-45176119D01*
X99345476Y-45176119D02*
X99488333Y-45223738D01*
X99488333Y-45223738D02*
X99535952Y-45271357D01*
X100250238Y-45176119D02*
X100250238Y-45890404D01*
X100250238Y-45890404D02*
X100202619Y-46033261D01*
X100202619Y-46033261D02*
X100107381Y-46128500D01*
X100107381Y-46128500D02*
X99964524Y-46176119D01*
X99964524Y-46176119D02*
X99869286Y-46176119D01*
X101202619Y-46176119D02*
X100726429Y-46176119D01*
X100726429Y-46176119D02*
X100726429Y-45176119D01*
X102107381Y-46080880D02*
X102059762Y-46128500D01*
X102059762Y-46128500D02*
X101916905Y-46176119D01*
X101916905Y-46176119D02*
X101821667Y-46176119D01*
X101821667Y-46176119D02*
X101678810Y-46128500D01*
X101678810Y-46128500D02*
X101583572Y-46033261D01*
X101583572Y-46033261D02*
X101535953Y-45938023D01*
X101535953Y-45938023D02*
X101488334Y-45747547D01*
X101488334Y-45747547D02*
X101488334Y-45604690D01*
X101488334Y-45604690D02*
X101535953Y-45414214D01*
X101535953Y-45414214D02*
X101583572Y-45318976D01*
X101583572Y-45318976D02*
X101678810Y-45223738D01*
X101678810Y-45223738D02*
X101821667Y-45176119D01*
X101821667Y-45176119D02*
X101916905Y-45176119D01*
X101916905Y-45176119D02*
X102059762Y-45223738D01*
X102059762Y-45223738D02*
X102107381Y-45271357D01*
D11*
X82193808Y-61414819D02*
X82193808Y-60414819D01*
X82193808Y-60414819D02*
X82574760Y-60414819D01*
X82574760Y-60414819D02*
X82669998Y-60462438D01*
X82669998Y-60462438D02*
X82717617Y-60510057D01*
X82717617Y-60510057D02*
X82765236Y-60605295D01*
X82765236Y-60605295D02*
X82765236Y-60748152D01*
X82765236Y-60748152D02*
X82717617Y-60843390D01*
X82717617Y-60843390D02*
X82669998Y-60891009D01*
X82669998Y-60891009D02*
X82574760Y-60938628D01*
X82574760Y-60938628D02*
X82193808Y-60938628D01*
X83765236Y-61319580D02*
X83717617Y-61367200D01*
X83717617Y-61367200D02*
X83574760Y-61414819D01*
X83574760Y-61414819D02*
X83479522Y-61414819D01*
X83479522Y-61414819D02*
X83336665Y-61367200D01*
X83336665Y-61367200D02*
X83241427Y-61271961D01*
X83241427Y-61271961D02*
X83193808Y-61176723D01*
X83193808Y-61176723D02*
X83146189Y-60986247D01*
X83146189Y-60986247D02*
X83146189Y-60843390D01*
X83146189Y-60843390D02*
X83193808Y-60652914D01*
X83193808Y-60652914D02*
X83241427Y-60557676D01*
X83241427Y-60557676D02*
X83336665Y-60462438D01*
X83336665Y-60462438D02*
X83479522Y-60414819D01*
X83479522Y-60414819D02*
X83574760Y-60414819D01*
X83574760Y-60414819D02*
X83717617Y-60462438D01*
X83717617Y-60462438D02*
X83765236Y-60510057D01*
X84527141Y-60891009D02*
X84669998Y-60938628D01*
X84669998Y-60938628D02*
X84717617Y-60986247D01*
X84717617Y-60986247D02*
X84765236Y-61081485D01*
X84765236Y-61081485D02*
X84765236Y-61224342D01*
X84765236Y-61224342D02*
X84717617Y-61319580D01*
X84717617Y-61319580D02*
X84669998Y-61367200D01*
X84669998Y-61367200D02*
X84574760Y-61414819D01*
X84574760Y-61414819D02*
X84193808Y-61414819D01*
X84193808Y-61414819D02*
X84193808Y-60414819D01*
X84193808Y-60414819D02*
X84527141Y-60414819D01*
X84527141Y-60414819D02*
X84622379Y-60462438D01*
X84622379Y-60462438D02*
X84669998Y-60510057D01*
X84669998Y-60510057D02*
X84717617Y-60605295D01*
X84717617Y-60605295D02*
X84717617Y-60700533D01*
X84717617Y-60700533D02*
X84669998Y-60795771D01*
X84669998Y-60795771D02*
X84622379Y-60843390D01*
X84622379Y-60843390D02*
X84527141Y-60891009D01*
X84527141Y-60891009D02*
X84193808Y-60891009D01*
X85955713Y-61414819D02*
X85955713Y-60748152D01*
X85955713Y-60843390D02*
X86003332Y-60795771D01*
X86003332Y-60795771D02*
X86098570Y-60748152D01*
X86098570Y-60748152D02*
X86241427Y-60748152D01*
X86241427Y-60748152D02*
X86336665Y-60795771D01*
X86336665Y-60795771D02*
X86384284Y-60891009D01*
X86384284Y-60891009D02*
X86384284Y-61414819D01*
X86384284Y-60891009D02*
X86431903Y-60795771D01*
X86431903Y-60795771D02*
X86527141Y-60748152D01*
X86527141Y-60748152D02*
X86669998Y-60748152D01*
X86669998Y-60748152D02*
X86765237Y-60795771D01*
X86765237Y-60795771D02*
X86812856Y-60891009D01*
X86812856Y-60891009D02*
X86812856Y-61414819D01*
X87717617Y-61414819D02*
X87717617Y-60891009D01*
X87717617Y-60891009D02*
X87669998Y-60795771D01*
X87669998Y-60795771D02*
X87574760Y-60748152D01*
X87574760Y-60748152D02*
X87384284Y-60748152D01*
X87384284Y-60748152D02*
X87289046Y-60795771D01*
X87717617Y-61367200D02*
X87622379Y-61414819D01*
X87622379Y-61414819D02*
X87384284Y-61414819D01*
X87384284Y-61414819D02*
X87289046Y-61367200D01*
X87289046Y-61367200D02*
X87241427Y-61271961D01*
X87241427Y-61271961D02*
X87241427Y-61176723D01*
X87241427Y-61176723D02*
X87289046Y-61081485D01*
X87289046Y-61081485D02*
X87384284Y-61033866D01*
X87384284Y-61033866D02*
X87622379Y-61033866D01*
X87622379Y-61033866D02*
X87717617Y-60986247D01*
X88622379Y-61414819D02*
X88622379Y-60414819D01*
X88622379Y-61367200D02*
X88527141Y-61414819D01*
X88527141Y-61414819D02*
X88336665Y-61414819D01*
X88336665Y-61414819D02*
X88241427Y-61367200D01*
X88241427Y-61367200D02*
X88193808Y-61319580D01*
X88193808Y-61319580D02*
X88146189Y-61224342D01*
X88146189Y-61224342D02*
X88146189Y-60938628D01*
X88146189Y-60938628D02*
X88193808Y-60843390D01*
X88193808Y-60843390D02*
X88241427Y-60795771D01*
X88241427Y-60795771D02*
X88336665Y-60748152D01*
X88336665Y-60748152D02*
X88527141Y-60748152D01*
X88527141Y-60748152D02*
X88622379Y-60795771D01*
X89479522Y-61367200D02*
X89384284Y-61414819D01*
X89384284Y-61414819D02*
X89193808Y-61414819D01*
X89193808Y-61414819D02*
X89098570Y-61367200D01*
X89098570Y-61367200D02*
X89050951Y-61271961D01*
X89050951Y-61271961D02*
X89050951Y-60891009D01*
X89050951Y-60891009D02*
X89098570Y-60795771D01*
X89098570Y-60795771D02*
X89193808Y-60748152D01*
X89193808Y-60748152D02*
X89384284Y-60748152D01*
X89384284Y-60748152D02*
X89479522Y-60795771D01*
X89479522Y-60795771D02*
X89527141Y-60891009D01*
X89527141Y-60891009D02*
X89527141Y-60986247D01*
X89527141Y-60986247D02*
X89050951Y-61081485D01*
X90717618Y-61414819D02*
X90717618Y-60414819D01*
X90717618Y-60795771D02*
X90812856Y-60748152D01*
X90812856Y-60748152D02*
X91003332Y-60748152D01*
X91003332Y-60748152D02*
X91098570Y-60795771D01*
X91098570Y-60795771D02*
X91146189Y-60843390D01*
X91146189Y-60843390D02*
X91193808Y-60938628D01*
X91193808Y-60938628D02*
X91193808Y-61224342D01*
X91193808Y-61224342D02*
X91146189Y-61319580D01*
X91146189Y-61319580D02*
X91098570Y-61367200D01*
X91098570Y-61367200D02*
X91003332Y-61414819D01*
X91003332Y-61414819D02*
X90812856Y-61414819D01*
X90812856Y-61414819D02*
X90717618Y-61367200D01*
X91527142Y-60748152D02*
X91765237Y-61414819D01*
X92003332Y-60748152D02*
X91765237Y-61414819D01*
X91765237Y-61414819D02*
X91669999Y-61652914D01*
X91669999Y-61652914D02*
X91622380Y-61700533D01*
X91622380Y-61700533D02*
X91527142Y-61748152D01*
X93717618Y-61319580D02*
X93669999Y-61367200D01*
X93669999Y-61367200D02*
X93527142Y-61414819D01*
X93527142Y-61414819D02*
X93431904Y-61414819D01*
X93431904Y-61414819D02*
X93289047Y-61367200D01*
X93289047Y-61367200D02*
X93193809Y-61271961D01*
X93193809Y-61271961D02*
X93146190Y-61176723D01*
X93146190Y-61176723D02*
X93098571Y-60986247D01*
X93098571Y-60986247D02*
X93098571Y-60843390D01*
X93098571Y-60843390D02*
X93146190Y-60652914D01*
X93146190Y-60652914D02*
X93193809Y-60557676D01*
X93193809Y-60557676D02*
X93289047Y-60462438D01*
X93289047Y-60462438D02*
X93431904Y-60414819D01*
X93431904Y-60414819D02*
X93527142Y-60414819D01*
X93527142Y-60414819D02*
X93669999Y-60462438D01*
X93669999Y-60462438D02*
X93717618Y-60510057D01*
X94574761Y-61414819D02*
X94574761Y-60891009D01*
X94574761Y-60891009D02*
X94527142Y-60795771D01*
X94527142Y-60795771D02*
X94431904Y-60748152D01*
X94431904Y-60748152D02*
X94241428Y-60748152D01*
X94241428Y-60748152D02*
X94146190Y-60795771D01*
X94574761Y-61367200D02*
X94479523Y-61414819D01*
X94479523Y-61414819D02*
X94241428Y-61414819D01*
X94241428Y-61414819D02*
X94146190Y-61367200D01*
X94146190Y-61367200D02*
X94098571Y-61271961D01*
X94098571Y-61271961D02*
X94098571Y-61176723D01*
X94098571Y-61176723D02*
X94146190Y-61081485D01*
X94146190Y-61081485D02*
X94241428Y-61033866D01*
X94241428Y-61033866D02*
X94479523Y-61033866D01*
X94479523Y-61033866D02*
X94574761Y-60986247D01*
X95050952Y-61414819D02*
X95050952Y-60748152D01*
X95050952Y-60938628D02*
X95098571Y-60843390D01*
X95098571Y-60843390D02*
X95146190Y-60795771D01*
X95146190Y-60795771D02*
X95241428Y-60748152D01*
X95241428Y-60748152D02*
X95336666Y-60748152D01*
X96098571Y-61414819D02*
X96098571Y-60891009D01*
X96098571Y-60891009D02*
X96050952Y-60795771D01*
X96050952Y-60795771D02*
X95955714Y-60748152D01*
X95955714Y-60748152D02*
X95765238Y-60748152D01*
X95765238Y-60748152D02*
X95670000Y-60795771D01*
X96098571Y-61367200D02*
X96003333Y-61414819D01*
X96003333Y-61414819D02*
X95765238Y-61414819D01*
X95765238Y-61414819D02*
X95670000Y-61367200D01*
X95670000Y-61367200D02*
X95622381Y-61271961D01*
X95622381Y-61271961D02*
X95622381Y-61176723D01*
X95622381Y-61176723D02*
X95670000Y-61081485D01*
X95670000Y-61081485D02*
X95765238Y-61033866D01*
X95765238Y-61033866D02*
X96003333Y-61033866D01*
X96003333Y-61033866D02*
X96098571Y-60986247D01*
X96431905Y-60748152D02*
X96812857Y-60748152D01*
X96574762Y-61414819D02*
X96574762Y-60557676D01*
X96574762Y-60557676D02*
X96622381Y-60462438D01*
X96622381Y-60462438D02*
X96717619Y-60414819D01*
X96717619Y-60414819D02*
X96812857Y-60414819D01*
X97003334Y-60748152D02*
X97384286Y-60748152D01*
X97146191Y-61414819D02*
X97146191Y-60557676D01*
X97146191Y-60557676D02*
X97193810Y-60462438D01*
X97193810Y-60462438D02*
X97289048Y-60414819D01*
X97289048Y-60414819D02*
X97384286Y-60414819D01*
X98146191Y-61414819D02*
X98146191Y-60891009D01*
X98146191Y-60891009D02*
X98098572Y-60795771D01*
X98098572Y-60795771D02*
X98003334Y-60748152D01*
X98003334Y-60748152D02*
X97812858Y-60748152D01*
X97812858Y-60748152D02*
X97717620Y-60795771D01*
X98146191Y-61367200D02*
X98050953Y-61414819D01*
X98050953Y-61414819D02*
X97812858Y-61414819D01*
X97812858Y-61414819D02*
X97717620Y-61367200D01*
X97717620Y-61367200D02*
X97670001Y-61271961D01*
X97670001Y-61271961D02*
X97670001Y-61176723D01*
X97670001Y-61176723D02*
X97717620Y-61081485D01*
X97717620Y-61081485D02*
X97812858Y-61033866D01*
X97812858Y-61033866D02*
X98050953Y-61033866D01*
X98050953Y-61033866D02*
X98146191Y-60986247D01*
X25455714Y-34744819D02*
X25455714Y-33744819D01*
X25455714Y-33744819D02*
X25693809Y-33744819D01*
X25693809Y-33744819D02*
X25836666Y-33792438D01*
X25836666Y-33792438D02*
X25931904Y-33887676D01*
X25931904Y-33887676D02*
X25979523Y-33982914D01*
X25979523Y-33982914D02*
X26027142Y-34173390D01*
X26027142Y-34173390D02*
X26027142Y-34316247D01*
X26027142Y-34316247D02*
X25979523Y-34506723D01*
X25979523Y-34506723D02*
X25931904Y-34601961D01*
X25931904Y-34601961D02*
X25836666Y-34697200D01*
X25836666Y-34697200D02*
X25693809Y-34744819D01*
X25693809Y-34744819D02*
X25455714Y-34744819D01*
X26408095Y-34697200D02*
X26550952Y-34744819D01*
X26550952Y-34744819D02*
X26789047Y-34744819D01*
X26789047Y-34744819D02*
X26884285Y-34697200D01*
X26884285Y-34697200D02*
X26931904Y-34649580D01*
X26931904Y-34649580D02*
X26979523Y-34554342D01*
X26979523Y-34554342D02*
X26979523Y-34459104D01*
X26979523Y-34459104D02*
X26931904Y-34363866D01*
X26931904Y-34363866D02*
X26884285Y-34316247D01*
X26884285Y-34316247D02*
X26789047Y-34268628D01*
X26789047Y-34268628D02*
X26598571Y-34221009D01*
X26598571Y-34221009D02*
X26503333Y-34173390D01*
X26503333Y-34173390D02*
X26455714Y-34125771D01*
X26455714Y-34125771D02*
X26408095Y-34030533D01*
X26408095Y-34030533D02*
X26408095Y-33935295D01*
X26408095Y-33935295D02*
X26455714Y-33840057D01*
X26455714Y-33840057D02*
X26503333Y-33792438D01*
X26503333Y-33792438D02*
X26598571Y-33744819D01*
X26598571Y-33744819D02*
X26836666Y-33744819D01*
X26836666Y-33744819D02*
X26979523Y-33792438D01*
X27931904Y-34744819D02*
X27360476Y-34744819D01*
X27646190Y-34744819D02*
X27646190Y-33744819D01*
X27646190Y-33744819D02*
X27550952Y-33887676D01*
X27550952Y-33887676D02*
X27455714Y-33982914D01*
X27455714Y-33982914D02*
X27360476Y-34030533D01*
X37363809Y-44438628D02*
X37363809Y-44914819D01*
X37030476Y-43914819D02*
X37363809Y-44438628D01*
X37363809Y-44438628D02*
X37697142Y-43914819D01*
X38554285Y-44914819D02*
X37982857Y-44914819D01*
X38268571Y-44914819D02*
X38268571Y-43914819D01*
X38268571Y-43914819D02*
X38173333Y-44057676D01*
X38173333Y-44057676D02*
X38078095Y-44152914D01*
X38078095Y-44152914D02*
X37982857Y-44200533D01*
X79883095Y-70574819D02*
X79883095Y-71384342D01*
X79883095Y-71384342D02*
X79930714Y-71479580D01*
X79930714Y-71479580D02*
X79978333Y-71527200D01*
X79978333Y-71527200D02*
X80073571Y-71574819D01*
X80073571Y-71574819D02*
X80264047Y-71574819D01*
X80264047Y-71574819D02*
X80359285Y-71527200D01*
X80359285Y-71527200D02*
X80406904Y-71479580D01*
X80406904Y-71479580D02*
X80454523Y-71384342D01*
X80454523Y-71384342D02*
X80454523Y-70574819D01*
X81406904Y-70574819D02*
X80930714Y-70574819D01*
X80930714Y-70574819D02*
X80883095Y-71051009D01*
X80883095Y-71051009D02*
X80930714Y-71003390D01*
X80930714Y-71003390D02*
X81025952Y-70955771D01*
X81025952Y-70955771D02*
X81264047Y-70955771D01*
X81264047Y-70955771D02*
X81359285Y-71003390D01*
X81359285Y-71003390D02*
X81406904Y-71051009D01*
X81406904Y-71051009D02*
X81454523Y-71146247D01*
X81454523Y-71146247D02*
X81454523Y-71384342D01*
X81454523Y-71384342D02*
X81406904Y-71479580D01*
X81406904Y-71479580D02*
X81359285Y-71527200D01*
X81359285Y-71527200D02*
X81264047Y-71574819D01*
X81264047Y-71574819D02*
X81025952Y-71574819D01*
X81025952Y-71574819D02*
X80930714Y-71527200D01*
X80930714Y-71527200D02*
X80883095Y-71479580D01*
X51308095Y-34554819D02*
X51308095Y-35364342D01*
X51308095Y-35364342D02*
X51355714Y-35459580D01*
X51355714Y-35459580D02*
X51403333Y-35507200D01*
X51403333Y-35507200D02*
X51498571Y-35554819D01*
X51498571Y-35554819D02*
X51689047Y-35554819D01*
X51689047Y-35554819D02*
X51784285Y-35507200D01*
X51784285Y-35507200D02*
X51831904Y-35459580D01*
X51831904Y-35459580D02*
X51879523Y-35364342D01*
X51879523Y-35364342D02*
X51879523Y-34554819D01*
X52784285Y-34888152D02*
X52784285Y-35554819D01*
X52546190Y-34507200D02*
X52308095Y-35221485D01*
X52308095Y-35221485D02*
X52927142Y-35221485D01*
X97825074Y-36399065D02*
X97825074Y-37036486D01*
X97825074Y-37036486D02*
X97862570Y-37111476D01*
X97862570Y-37111476D02*
X97900065Y-37148972D01*
X97900065Y-37148972D02*
X97975056Y-37186467D01*
X97975056Y-37186467D02*
X98125037Y-37186467D01*
X98125037Y-37186467D02*
X98200028Y-37148972D01*
X98200028Y-37148972D02*
X98237523Y-37111476D01*
X98237523Y-37111476D02*
X98275018Y-37036486D01*
X98275018Y-37036486D02*
X98275018Y-36399065D01*
X98574981Y-36399065D02*
X99062420Y-36399065D01*
X99062420Y-36399065D02*
X98799953Y-36699028D01*
X98799953Y-36699028D02*
X98912439Y-36699028D01*
X98912439Y-36699028D02*
X98987429Y-36736523D01*
X98987429Y-36736523D02*
X99024925Y-36774018D01*
X99024925Y-36774018D02*
X99062420Y-36849009D01*
X99062420Y-36849009D02*
X99062420Y-37036486D01*
X99062420Y-37036486D02*
X99024925Y-37111476D01*
X99024925Y-37111476D02*
X98987429Y-37148972D01*
X98987429Y-37148972D02*
X98912439Y-37186467D01*
X98912439Y-37186467D02*
X98687467Y-37186467D01*
X98687467Y-37186467D02*
X98612476Y-37148972D01*
X98612476Y-37148972D02*
X98574981Y-37111476D01*
X51308095Y-52104819D02*
X51308095Y-52914342D01*
X51308095Y-52914342D02*
X51355714Y-53009580D01*
X51355714Y-53009580D02*
X51403333Y-53057200D01*
X51403333Y-53057200D02*
X51498571Y-53104819D01*
X51498571Y-53104819D02*
X51689047Y-53104819D01*
X51689047Y-53104819D02*
X51784285Y-53057200D01*
X51784285Y-53057200D02*
X51831904Y-53009580D01*
X51831904Y-53009580D02*
X51879523Y-52914342D01*
X51879523Y-52914342D02*
X51879523Y-52104819D01*
X52308095Y-52200057D02*
X52355714Y-52152438D01*
X52355714Y-52152438D02*
X52450952Y-52104819D01*
X52450952Y-52104819D02*
X52689047Y-52104819D01*
X52689047Y-52104819D02*
X52784285Y-52152438D01*
X52784285Y-52152438D02*
X52831904Y-52200057D01*
X52831904Y-52200057D02*
X52879523Y-52295295D01*
X52879523Y-52295295D02*
X52879523Y-52390533D01*
X52879523Y-52390533D02*
X52831904Y-52533390D01*
X52831904Y-52533390D02*
X52260476Y-53104819D01*
X52260476Y-53104819D02*
X52879523Y-53104819D01*
X32893095Y-46008819D02*
X32893095Y-46818342D01*
X32893095Y-46818342D02*
X32940714Y-46913580D01*
X32940714Y-46913580D02*
X32988333Y-46961200D01*
X32988333Y-46961200D02*
X33083571Y-47008819D01*
X33083571Y-47008819D02*
X33274047Y-47008819D01*
X33274047Y-47008819D02*
X33369285Y-46961200D01*
X33369285Y-46961200D02*
X33416904Y-46913580D01*
X33416904Y-46913580D02*
X33464523Y-46818342D01*
X33464523Y-46818342D02*
X33464523Y-46008819D01*
X34464523Y-47008819D02*
X33893095Y-47008819D01*
X34178809Y-47008819D02*
X34178809Y-46008819D01*
X34178809Y-46008819D02*
X34083571Y-46151676D01*
X34083571Y-46151676D02*
X33988333Y-46246914D01*
X33988333Y-46246914D02*
X33893095Y-46294533D01*
X64706667Y-76607200D02*
X64849524Y-76654819D01*
X64849524Y-76654819D02*
X65087619Y-76654819D01*
X65087619Y-76654819D02*
X65182857Y-76607200D01*
X65182857Y-76607200D02*
X65230476Y-76559580D01*
X65230476Y-76559580D02*
X65278095Y-76464342D01*
X65278095Y-76464342D02*
X65278095Y-76369104D01*
X65278095Y-76369104D02*
X65230476Y-76273866D01*
X65230476Y-76273866D02*
X65182857Y-76226247D01*
X65182857Y-76226247D02*
X65087619Y-76178628D01*
X65087619Y-76178628D02*
X64897143Y-76131009D01*
X64897143Y-76131009D02*
X64801905Y-76083390D01*
X64801905Y-76083390D02*
X64754286Y-76035771D01*
X64754286Y-76035771D02*
X64706667Y-75940533D01*
X64706667Y-75940533D02*
X64706667Y-75845295D01*
X64706667Y-75845295D02*
X64754286Y-75750057D01*
X64754286Y-75750057D02*
X64801905Y-75702438D01*
X64801905Y-75702438D02*
X64897143Y-75654819D01*
X64897143Y-75654819D02*
X65135238Y-75654819D01*
X65135238Y-75654819D02*
X65278095Y-75702438D01*
X65611429Y-75654819D02*
X65849524Y-76654819D01*
X65849524Y-76654819D02*
X66040000Y-75940533D01*
X66040000Y-75940533D02*
X66230476Y-76654819D01*
X66230476Y-76654819D02*
X66468572Y-75654819D01*
X67325714Y-75654819D02*
X66849524Y-75654819D01*
X66849524Y-75654819D02*
X66801905Y-76131009D01*
X66801905Y-76131009D02*
X66849524Y-76083390D01*
X66849524Y-76083390D02*
X66944762Y-76035771D01*
X66944762Y-76035771D02*
X67182857Y-76035771D01*
X67182857Y-76035771D02*
X67278095Y-76083390D01*
X67278095Y-76083390D02*
X67325714Y-76131009D01*
X67325714Y-76131009D02*
X67373333Y-76226247D01*
X67373333Y-76226247D02*
X67373333Y-76464342D01*
X67373333Y-76464342D02*
X67325714Y-76559580D01*
X67325714Y-76559580D02*
X67278095Y-76607200D01*
X67278095Y-76607200D02*
X67182857Y-76654819D01*
X67182857Y-76654819D02*
X66944762Y-76654819D01*
X66944762Y-76654819D02*
X66849524Y-76607200D01*
X66849524Y-76607200D02*
X66801905Y-76559580D01*
X54546667Y-76607200D02*
X54689524Y-76654819D01*
X54689524Y-76654819D02*
X54927619Y-76654819D01*
X54927619Y-76654819D02*
X55022857Y-76607200D01*
X55022857Y-76607200D02*
X55070476Y-76559580D01*
X55070476Y-76559580D02*
X55118095Y-76464342D01*
X55118095Y-76464342D02*
X55118095Y-76369104D01*
X55118095Y-76369104D02*
X55070476Y-76273866D01*
X55070476Y-76273866D02*
X55022857Y-76226247D01*
X55022857Y-76226247D02*
X54927619Y-76178628D01*
X54927619Y-76178628D02*
X54737143Y-76131009D01*
X54737143Y-76131009D02*
X54641905Y-76083390D01*
X54641905Y-76083390D02*
X54594286Y-76035771D01*
X54594286Y-76035771D02*
X54546667Y-75940533D01*
X54546667Y-75940533D02*
X54546667Y-75845295D01*
X54546667Y-75845295D02*
X54594286Y-75750057D01*
X54594286Y-75750057D02*
X54641905Y-75702438D01*
X54641905Y-75702438D02*
X54737143Y-75654819D01*
X54737143Y-75654819D02*
X54975238Y-75654819D01*
X54975238Y-75654819D02*
X55118095Y-75702438D01*
X55451429Y-75654819D02*
X55689524Y-76654819D01*
X55689524Y-76654819D02*
X55880000Y-75940533D01*
X55880000Y-75940533D02*
X56070476Y-76654819D01*
X56070476Y-76654819D02*
X56308572Y-75654819D01*
X57118095Y-75988152D02*
X57118095Y-76654819D01*
X56880000Y-75607200D02*
X56641905Y-76321485D01*
X56641905Y-76321485D02*
X57260952Y-76321485D01*
X44386667Y-76607200D02*
X44529524Y-76654819D01*
X44529524Y-76654819D02*
X44767619Y-76654819D01*
X44767619Y-76654819D02*
X44862857Y-76607200D01*
X44862857Y-76607200D02*
X44910476Y-76559580D01*
X44910476Y-76559580D02*
X44958095Y-76464342D01*
X44958095Y-76464342D02*
X44958095Y-76369104D01*
X44958095Y-76369104D02*
X44910476Y-76273866D01*
X44910476Y-76273866D02*
X44862857Y-76226247D01*
X44862857Y-76226247D02*
X44767619Y-76178628D01*
X44767619Y-76178628D02*
X44577143Y-76131009D01*
X44577143Y-76131009D02*
X44481905Y-76083390D01*
X44481905Y-76083390D02*
X44434286Y-76035771D01*
X44434286Y-76035771D02*
X44386667Y-75940533D01*
X44386667Y-75940533D02*
X44386667Y-75845295D01*
X44386667Y-75845295D02*
X44434286Y-75750057D01*
X44434286Y-75750057D02*
X44481905Y-75702438D01*
X44481905Y-75702438D02*
X44577143Y-75654819D01*
X44577143Y-75654819D02*
X44815238Y-75654819D01*
X44815238Y-75654819D02*
X44958095Y-75702438D01*
X45291429Y-75654819D02*
X45529524Y-76654819D01*
X45529524Y-76654819D02*
X45720000Y-75940533D01*
X45720000Y-75940533D02*
X45910476Y-76654819D01*
X45910476Y-76654819D02*
X46148572Y-75654819D01*
X46434286Y-75654819D02*
X47053333Y-75654819D01*
X47053333Y-75654819D02*
X46720000Y-76035771D01*
X46720000Y-76035771D02*
X46862857Y-76035771D01*
X46862857Y-76035771D02*
X46958095Y-76083390D01*
X46958095Y-76083390D02*
X47005714Y-76131009D01*
X47005714Y-76131009D02*
X47053333Y-76226247D01*
X47053333Y-76226247D02*
X47053333Y-76464342D01*
X47053333Y-76464342D02*
X47005714Y-76559580D01*
X47005714Y-76559580D02*
X46958095Y-76607200D01*
X46958095Y-76607200D02*
X46862857Y-76654819D01*
X46862857Y-76654819D02*
X46577143Y-76654819D01*
X46577143Y-76654819D02*
X46481905Y-76607200D01*
X46481905Y-76607200D02*
X46434286Y-76559580D01*
X86296667Y-33427200D02*
X86439524Y-33474819D01*
X86439524Y-33474819D02*
X86677619Y-33474819D01*
X86677619Y-33474819D02*
X86772857Y-33427200D01*
X86772857Y-33427200D02*
X86820476Y-33379580D01*
X86820476Y-33379580D02*
X86868095Y-33284342D01*
X86868095Y-33284342D02*
X86868095Y-33189104D01*
X86868095Y-33189104D02*
X86820476Y-33093866D01*
X86820476Y-33093866D02*
X86772857Y-33046247D01*
X86772857Y-33046247D02*
X86677619Y-32998628D01*
X86677619Y-32998628D02*
X86487143Y-32951009D01*
X86487143Y-32951009D02*
X86391905Y-32903390D01*
X86391905Y-32903390D02*
X86344286Y-32855771D01*
X86344286Y-32855771D02*
X86296667Y-32760533D01*
X86296667Y-32760533D02*
X86296667Y-32665295D01*
X86296667Y-32665295D02*
X86344286Y-32570057D01*
X86344286Y-32570057D02*
X86391905Y-32522438D01*
X86391905Y-32522438D02*
X86487143Y-32474819D01*
X86487143Y-32474819D02*
X86725238Y-32474819D01*
X86725238Y-32474819D02*
X86868095Y-32522438D01*
X87201429Y-32474819D02*
X87439524Y-33474819D01*
X87439524Y-33474819D02*
X87630000Y-32760533D01*
X87630000Y-32760533D02*
X87820476Y-33474819D01*
X87820476Y-33474819D02*
X88058572Y-32474819D01*
X88391905Y-32570057D02*
X88439524Y-32522438D01*
X88439524Y-32522438D02*
X88534762Y-32474819D01*
X88534762Y-32474819D02*
X88772857Y-32474819D01*
X88772857Y-32474819D02*
X88868095Y-32522438D01*
X88868095Y-32522438D02*
X88915714Y-32570057D01*
X88915714Y-32570057D02*
X88963333Y-32665295D01*
X88963333Y-32665295D02*
X88963333Y-32760533D01*
X88963333Y-32760533D02*
X88915714Y-32903390D01*
X88915714Y-32903390D02*
X88344286Y-33474819D01*
X88344286Y-33474819D02*
X88963333Y-33474819D01*
X25971667Y-48032200D02*
X26114524Y-48079819D01*
X26114524Y-48079819D02*
X26352619Y-48079819D01*
X26352619Y-48079819D02*
X26447857Y-48032200D01*
X26447857Y-48032200D02*
X26495476Y-47984580D01*
X26495476Y-47984580D02*
X26543095Y-47889342D01*
X26543095Y-47889342D02*
X26543095Y-47794104D01*
X26543095Y-47794104D02*
X26495476Y-47698866D01*
X26495476Y-47698866D02*
X26447857Y-47651247D01*
X26447857Y-47651247D02*
X26352619Y-47603628D01*
X26352619Y-47603628D02*
X26162143Y-47556009D01*
X26162143Y-47556009D02*
X26066905Y-47508390D01*
X26066905Y-47508390D02*
X26019286Y-47460771D01*
X26019286Y-47460771D02*
X25971667Y-47365533D01*
X25971667Y-47365533D02*
X25971667Y-47270295D01*
X25971667Y-47270295D02*
X26019286Y-47175057D01*
X26019286Y-47175057D02*
X26066905Y-47127438D01*
X26066905Y-47127438D02*
X26162143Y-47079819D01*
X26162143Y-47079819D02*
X26400238Y-47079819D01*
X26400238Y-47079819D02*
X26543095Y-47127438D01*
X26876429Y-47079819D02*
X27114524Y-48079819D01*
X27114524Y-48079819D02*
X27305000Y-47365533D01*
X27305000Y-47365533D02*
X27495476Y-48079819D01*
X27495476Y-48079819D02*
X27733572Y-47079819D01*
X28638333Y-48079819D02*
X28066905Y-48079819D01*
X28352619Y-48079819D02*
X28352619Y-47079819D01*
X28352619Y-47079819D02*
X28257381Y-47222676D01*
X28257381Y-47222676D02*
X28162143Y-47317914D01*
X28162143Y-47317914D02*
X28066905Y-47365533D01*
X74602142Y-80464819D02*
X74268809Y-79988628D01*
X74030714Y-80464819D02*
X74030714Y-79464819D01*
X74030714Y-79464819D02*
X74411666Y-79464819D01*
X74411666Y-79464819D02*
X74506904Y-79512438D01*
X74506904Y-79512438D02*
X74554523Y-79560057D01*
X74554523Y-79560057D02*
X74602142Y-79655295D01*
X74602142Y-79655295D02*
X74602142Y-79798152D01*
X74602142Y-79798152D02*
X74554523Y-79893390D01*
X74554523Y-79893390D02*
X74506904Y-79941009D01*
X74506904Y-79941009D02*
X74411666Y-79988628D01*
X74411666Y-79988628D02*
X74030714Y-79988628D01*
X75554523Y-80464819D02*
X74983095Y-80464819D01*
X75268809Y-80464819D02*
X75268809Y-79464819D01*
X75268809Y-79464819D02*
X75173571Y-79607676D01*
X75173571Y-79607676D02*
X75078333Y-79702914D01*
X75078333Y-79702914D02*
X74983095Y-79750533D01*
X76411666Y-79464819D02*
X76221190Y-79464819D01*
X76221190Y-79464819D02*
X76125952Y-79512438D01*
X76125952Y-79512438D02*
X76078333Y-79560057D01*
X76078333Y-79560057D02*
X75983095Y-79702914D01*
X75983095Y-79702914D02*
X75935476Y-79893390D01*
X75935476Y-79893390D02*
X75935476Y-80274342D01*
X75935476Y-80274342D02*
X75983095Y-80369580D01*
X75983095Y-80369580D02*
X76030714Y-80417200D01*
X76030714Y-80417200D02*
X76125952Y-80464819D01*
X76125952Y-80464819D02*
X76316428Y-80464819D01*
X76316428Y-80464819D02*
X76411666Y-80417200D01*
X76411666Y-80417200D02*
X76459285Y-80369580D01*
X76459285Y-80369580D02*
X76506904Y-80274342D01*
X76506904Y-80274342D02*
X76506904Y-80036247D01*
X76506904Y-80036247D02*
X76459285Y-79941009D01*
X76459285Y-79941009D02*
X76411666Y-79893390D01*
X76411666Y-79893390D02*
X76316428Y-79845771D01*
X76316428Y-79845771D02*
X76125952Y-79845771D01*
X76125952Y-79845771D02*
X76030714Y-79893390D01*
X76030714Y-79893390D02*
X75983095Y-79941009D01*
X75983095Y-79941009D02*
X75935476Y-80036247D01*
X71112142Y-66494819D02*
X70778809Y-66018628D01*
X70540714Y-66494819D02*
X70540714Y-65494819D01*
X70540714Y-65494819D02*
X70921666Y-65494819D01*
X70921666Y-65494819D02*
X71016904Y-65542438D01*
X71016904Y-65542438D02*
X71064523Y-65590057D01*
X71064523Y-65590057D02*
X71112142Y-65685295D01*
X71112142Y-65685295D02*
X71112142Y-65828152D01*
X71112142Y-65828152D02*
X71064523Y-65923390D01*
X71064523Y-65923390D02*
X71016904Y-65971009D01*
X71016904Y-65971009D02*
X70921666Y-66018628D01*
X70921666Y-66018628D02*
X70540714Y-66018628D01*
X72064523Y-66494819D02*
X71493095Y-66494819D01*
X71778809Y-66494819D02*
X71778809Y-65494819D01*
X71778809Y-65494819D02*
X71683571Y-65637676D01*
X71683571Y-65637676D02*
X71588333Y-65732914D01*
X71588333Y-65732914D02*
X71493095Y-65780533D01*
X72969285Y-65494819D02*
X72493095Y-65494819D01*
X72493095Y-65494819D02*
X72445476Y-65971009D01*
X72445476Y-65971009D02*
X72493095Y-65923390D01*
X72493095Y-65923390D02*
X72588333Y-65875771D01*
X72588333Y-65875771D02*
X72826428Y-65875771D01*
X72826428Y-65875771D02*
X72921666Y-65923390D01*
X72921666Y-65923390D02*
X72969285Y-65971009D01*
X72969285Y-65971009D02*
X73016904Y-66066247D01*
X73016904Y-66066247D02*
X73016904Y-66304342D01*
X73016904Y-66304342D02*
X72969285Y-66399580D01*
X72969285Y-66399580D02*
X72921666Y-66447200D01*
X72921666Y-66447200D02*
X72826428Y-66494819D01*
X72826428Y-66494819D02*
X72588333Y-66494819D01*
X72588333Y-66494819D02*
X72493095Y-66447200D01*
X72493095Y-66447200D02*
X72445476Y-66399580D01*
X74287142Y-66494819D02*
X73953809Y-66018628D01*
X73715714Y-66494819D02*
X73715714Y-65494819D01*
X73715714Y-65494819D02*
X74096666Y-65494819D01*
X74096666Y-65494819D02*
X74191904Y-65542438D01*
X74191904Y-65542438D02*
X74239523Y-65590057D01*
X74239523Y-65590057D02*
X74287142Y-65685295D01*
X74287142Y-65685295D02*
X74287142Y-65828152D01*
X74287142Y-65828152D02*
X74239523Y-65923390D01*
X74239523Y-65923390D02*
X74191904Y-65971009D01*
X74191904Y-65971009D02*
X74096666Y-66018628D01*
X74096666Y-66018628D02*
X73715714Y-66018628D01*
X75239523Y-66494819D02*
X74668095Y-66494819D01*
X74953809Y-66494819D02*
X74953809Y-65494819D01*
X74953809Y-65494819D02*
X74858571Y-65637676D01*
X74858571Y-65637676D02*
X74763333Y-65732914D01*
X74763333Y-65732914D02*
X74668095Y-65780533D01*
X76096666Y-65828152D02*
X76096666Y-66494819D01*
X75858571Y-65447200D02*
X75620476Y-66161485D01*
X75620476Y-66161485D02*
X76239523Y-66161485D01*
X80129142Y-34744819D02*
X79795809Y-34268628D01*
X79557714Y-34744819D02*
X79557714Y-33744819D01*
X79557714Y-33744819D02*
X79938666Y-33744819D01*
X79938666Y-33744819D02*
X80033904Y-33792438D01*
X80033904Y-33792438D02*
X80081523Y-33840057D01*
X80081523Y-33840057D02*
X80129142Y-33935295D01*
X80129142Y-33935295D02*
X80129142Y-34078152D01*
X80129142Y-34078152D02*
X80081523Y-34173390D01*
X80081523Y-34173390D02*
X80033904Y-34221009D01*
X80033904Y-34221009D02*
X79938666Y-34268628D01*
X79938666Y-34268628D02*
X79557714Y-34268628D01*
X81081523Y-34744819D02*
X80510095Y-34744819D01*
X80795809Y-34744819D02*
X80795809Y-33744819D01*
X80795809Y-33744819D02*
X80700571Y-33887676D01*
X80700571Y-33887676D02*
X80605333Y-33982914D01*
X80605333Y-33982914D02*
X80510095Y-34030533D01*
X81414857Y-33744819D02*
X82033904Y-33744819D01*
X82033904Y-33744819D02*
X81700571Y-34125771D01*
X81700571Y-34125771D02*
X81843428Y-34125771D01*
X81843428Y-34125771D02*
X81938666Y-34173390D01*
X81938666Y-34173390D02*
X81986285Y-34221009D01*
X81986285Y-34221009D02*
X82033904Y-34316247D01*
X82033904Y-34316247D02*
X82033904Y-34554342D01*
X82033904Y-34554342D02*
X81986285Y-34649580D01*
X81986285Y-34649580D02*
X81938666Y-34697200D01*
X81938666Y-34697200D02*
X81843428Y-34744819D01*
X81843428Y-34744819D02*
X81557714Y-34744819D01*
X81557714Y-34744819D02*
X81462476Y-34697200D01*
X81462476Y-34697200D02*
X81414857Y-34649580D01*
X80002142Y-57304819D02*
X79668809Y-56828628D01*
X79430714Y-57304819D02*
X79430714Y-56304819D01*
X79430714Y-56304819D02*
X79811666Y-56304819D01*
X79811666Y-56304819D02*
X79906904Y-56352438D01*
X79906904Y-56352438D02*
X79954523Y-56400057D01*
X79954523Y-56400057D02*
X80002142Y-56495295D01*
X80002142Y-56495295D02*
X80002142Y-56638152D01*
X80002142Y-56638152D02*
X79954523Y-56733390D01*
X79954523Y-56733390D02*
X79906904Y-56781009D01*
X79906904Y-56781009D02*
X79811666Y-56828628D01*
X79811666Y-56828628D02*
X79430714Y-56828628D01*
X80954523Y-57304819D02*
X80383095Y-57304819D01*
X80668809Y-57304819D02*
X80668809Y-56304819D01*
X80668809Y-56304819D02*
X80573571Y-56447676D01*
X80573571Y-56447676D02*
X80478333Y-56542914D01*
X80478333Y-56542914D02*
X80383095Y-56590533D01*
X81335476Y-56400057D02*
X81383095Y-56352438D01*
X81383095Y-56352438D02*
X81478333Y-56304819D01*
X81478333Y-56304819D02*
X81716428Y-56304819D01*
X81716428Y-56304819D02*
X81811666Y-56352438D01*
X81811666Y-56352438D02*
X81859285Y-56400057D01*
X81859285Y-56400057D02*
X81906904Y-56495295D01*
X81906904Y-56495295D02*
X81906904Y-56590533D01*
X81906904Y-56590533D02*
X81859285Y-56733390D01*
X81859285Y-56733390D02*
X81287857Y-57304819D01*
X81287857Y-57304819D02*
X81906904Y-57304819D01*
X80002142Y-44650819D02*
X79668809Y-44174628D01*
X79430714Y-44650819D02*
X79430714Y-43650819D01*
X79430714Y-43650819D02*
X79811666Y-43650819D01*
X79811666Y-43650819D02*
X79906904Y-43698438D01*
X79906904Y-43698438D02*
X79954523Y-43746057D01*
X79954523Y-43746057D02*
X80002142Y-43841295D01*
X80002142Y-43841295D02*
X80002142Y-43984152D01*
X80002142Y-43984152D02*
X79954523Y-44079390D01*
X79954523Y-44079390D02*
X79906904Y-44127009D01*
X79906904Y-44127009D02*
X79811666Y-44174628D01*
X79811666Y-44174628D02*
X79430714Y-44174628D01*
X80954523Y-44650819D02*
X80383095Y-44650819D01*
X80668809Y-44650819D02*
X80668809Y-43650819D01*
X80668809Y-43650819D02*
X80573571Y-43793676D01*
X80573571Y-43793676D02*
X80478333Y-43888914D01*
X80478333Y-43888914D02*
X80383095Y-43936533D01*
X81906904Y-44650819D02*
X81335476Y-44650819D01*
X81621190Y-44650819D02*
X81621190Y-43650819D01*
X81621190Y-43650819D02*
X81525952Y-43793676D01*
X81525952Y-43793676D02*
X81430714Y-43888914D01*
X81430714Y-43888914D02*
X81335476Y-43936533D01*
X80002142Y-49684819D02*
X79668809Y-49208628D01*
X79430714Y-49684819D02*
X79430714Y-48684819D01*
X79430714Y-48684819D02*
X79811666Y-48684819D01*
X79811666Y-48684819D02*
X79906904Y-48732438D01*
X79906904Y-48732438D02*
X79954523Y-48780057D01*
X79954523Y-48780057D02*
X80002142Y-48875295D01*
X80002142Y-48875295D02*
X80002142Y-49018152D01*
X80002142Y-49018152D02*
X79954523Y-49113390D01*
X79954523Y-49113390D02*
X79906904Y-49161009D01*
X79906904Y-49161009D02*
X79811666Y-49208628D01*
X79811666Y-49208628D02*
X79430714Y-49208628D01*
X80954523Y-49684819D02*
X80383095Y-49684819D01*
X80668809Y-49684819D02*
X80668809Y-48684819D01*
X80668809Y-48684819D02*
X80573571Y-48827676D01*
X80573571Y-48827676D02*
X80478333Y-48922914D01*
X80478333Y-48922914D02*
X80383095Y-48970533D01*
X81573571Y-48684819D02*
X81668809Y-48684819D01*
X81668809Y-48684819D02*
X81764047Y-48732438D01*
X81764047Y-48732438D02*
X81811666Y-48780057D01*
X81811666Y-48780057D02*
X81859285Y-48875295D01*
X81859285Y-48875295D02*
X81906904Y-49065771D01*
X81906904Y-49065771D02*
X81906904Y-49303866D01*
X81906904Y-49303866D02*
X81859285Y-49494342D01*
X81859285Y-49494342D02*
X81811666Y-49589580D01*
X81811666Y-49589580D02*
X81764047Y-49637200D01*
X81764047Y-49637200D02*
X81668809Y-49684819D01*
X81668809Y-49684819D02*
X81573571Y-49684819D01*
X81573571Y-49684819D02*
X81478333Y-49637200D01*
X81478333Y-49637200D02*
X81430714Y-49589580D01*
X81430714Y-49589580D02*
X81383095Y-49494342D01*
X81383095Y-49494342D02*
X81335476Y-49303866D01*
X81335476Y-49303866D02*
X81335476Y-49065771D01*
X81335476Y-49065771D02*
X81383095Y-48875295D01*
X81383095Y-48875295D02*
X81430714Y-48780057D01*
X81430714Y-48780057D02*
X81478333Y-48732438D01*
X81478333Y-48732438D02*
X81573571Y-48684819D01*
X59523333Y-38808819D02*
X59190000Y-38332628D01*
X58951905Y-38808819D02*
X58951905Y-37808819D01*
X58951905Y-37808819D02*
X59332857Y-37808819D01*
X59332857Y-37808819D02*
X59428095Y-37856438D01*
X59428095Y-37856438D02*
X59475714Y-37904057D01*
X59475714Y-37904057D02*
X59523333Y-37999295D01*
X59523333Y-37999295D02*
X59523333Y-38142152D01*
X59523333Y-38142152D02*
X59475714Y-38237390D01*
X59475714Y-38237390D02*
X59428095Y-38285009D01*
X59428095Y-38285009D02*
X59332857Y-38332628D01*
X59332857Y-38332628D02*
X58951905Y-38332628D01*
X59999524Y-38808819D02*
X60190000Y-38808819D01*
X60190000Y-38808819D02*
X60285238Y-38761200D01*
X60285238Y-38761200D02*
X60332857Y-38713580D01*
X60332857Y-38713580D02*
X60428095Y-38570723D01*
X60428095Y-38570723D02*
X60475714Y-38380247D01*
X60475714Y-38380247D02*
X60475714Y-37999295D01*
X60475714Y-37999295D02*
X60428095Y-37904057D01*
X60428095Y-37904057D02*
X60380476Y-37856438D01*
X60380476Y-37856438D02*
X60285238Y-37808819D01*
X60285238Y-37808819D02*
X60094762Y-37808819D01*
X60094762Y-37808819D02*
X59999524Y-37856438D01*
X59999524Y-37856438D02*
X59951905Y-37904057D01*
X59951905Y-37904057D02*
X59904286Y-37999295D01*
X59904286Y-37999295D02*
X59904286Y-38237390D01*
X59904286Y-38237390D02*
X59951905Y-38332628D01*
X59951905Y-38332628D02*
X59999524Y-38380247D01*
X59999524Y-38380247D02*
X60094762Y-38427866D01*
X60094762Y-38427866D02*
X60285238Y-38427866D01*
X60285238Y-38427866D02*
X60380476Y-38380247D01*
X60380476Y-38380247D02*
X60428095Y-38332628D01*
X60428095Y-38332628D02*
X60475714Y-38237390D01*
X80002142Y-54764819D02*
X79668809Y-54288628D01*
X79430714Y-54764819D02*
X79430714Y-53764819D01*
X79430714Y-53764819D02*
X79811666Y-53764819D01*
X79811666Y-53764819D02*
X79906904Y-53812438D01*
X79906904Y-53812438D02*
X79954523Y-53860057D01*
X79954523Y-53860057D02*
X80002142Y-53955295D01*
X80002142Y-53955295D02*
X80002142Y-54098152D01*
X80002142Y-54098152D02*
X79954523Y-54193390D01*
X79954523Y-54193390D02*
X79906904Y-54241009D01*
X79906904Y-54241009D02*
X79811666Y-54288628D01*
X79811666Y-54288628D02*
X79430714Y-54288628D01*
X80573571Y-54193390D02*
X80478333Y-54145771D01*
X80478333Y-54145771D02*
X80430714Y-54098152D01*
X80430714Y-54098152D02*
X80383095Y-54002914D01*
X80383095Y-54002914D02*
X80383095Y-53955295D01*
X80383095Y-53955295D02*
X80430714Y-53860057D01*
X80430714Y-53860057D02*
X80478333Y-53812438D01*
X80478333Y-53812438D02*
X80573571Y-53764819D01*
X80573571Y-53764819D02*
X80764047Y-53764819D01*
X80764047Y-53764819D02*
X80859285Y-53812438D01*
X80859285Y-53812438D02*
X80906904Y-53860057D01*
X80906904Y-53860057D02*
X80954523Y-53955295D01*
X80954523Y-53955295D02*
X80954523Y-54002914D01*
X80954523Y-54002914D02*
X80906904Y-54098152D01*
X80906904Y-54098152D02*
X80859285Y-54145771D01*
X80859285Y-54145771D02*
X80764047Y-54193390D01*
X80764047Y-54193390D02*
X80573571Y-54193390D01*
X80573571Y-54193390D02*
X80478333Y-54241009D01*
X80478333Y-54241009D02*
X80430714Y-54288628D01*
X80430714Y-54288628D02*
X80383095Y-54383866D01*
X80383095Y-54383866D02*
X80383095Y-54574342D01*
X80383095Y-54574342D02*
X80430714Y-54669580D01*
X80430714Y-54669580D02*
X80478333Y-54717200D01*
X80478333Y-54717200D02*
X80573571Y-54764819D01*
X80573571Y-54764819D02*
X80764047Y-54764819D01*
X80764047Y-54764819D02*
X80859285Y-54717200D01*
X80859285Y-54717200D02*
X80906904Y-54669580D01*
X80906904Y-54669580D02*
X80954523Y-54574342D01*
X80954523Y-54574342D02*
X80954523Y-54383866D01*
X80954523Y-54383866D02*
X80906904Y-54288628D01*
X80906904Y-54288628D02*
X80859285Y-54241009D01*
X80859285Y-54241009D02*
X80764047Y-54193390D01*
X80002142Y-47190819D02*
X79668809Y-46714628D01*
X79430714Y-47190819D02*
X79430714Y-46190819D01*
X79430714Y-46190819D02*
X79811666Y-46190819D01*
X79811666Y-46190819D02*
X79906904Y-46238438D01*
X79906904Y-46238438D02*
X79954523Y-46286057D01*
X79954523Y-46286057D02*
X80002142Y-46381295D01*
X80002142Y-46381295D02*
X80002142Y-46524152D01*
X80002142Y-46524152D02*
X79954523Y-46619390D01*
X79954523Y-46619390D02*
X79906904Y-46667009D01*
X79906904Y-46667009D02*
X79811666Y-46714628D01*
X79811666Y-46714628D02*
X79430714Y-46714628D01*
X80335476Y-46190819D02*
X81002142Y-46190819D01*
X81002142Y-46190819D02*
X80573571Y-47190819D01*
X80002142Y-52224819D02*
X79668809Y-51748628D01*
X79430714Y-52224819D02*
X79430714Y-51224819D01*
X79430714Y-51224819D02*
X79811666Y-51224819D01*
X79811666Y-51224819D02*
X79906904Y-51272438D01*
X79906904Y-51272438D02*
X79954523Y-51320057D01*
X79954523Y-51320057D02*
X80002142Y-51415295D01*
X80002142Y-51415295D02*
X80002142Y-51558152D01*
X80002142Y-51558152D02*
X79954523Y-51653390D01*
X79954523Y-51653390D02*
X79906904Y-51701009D01*
X79906904Y-51701009D02*
X79811666Y-51748628D01*
X79811666Y-51748628D02*
X79430714Y-51748628D01*
X80859285Y-51224819D02*
X80668809Y-51224819D01*
X80668809Y-51224819D02*
X80573571Y-51272438D01*
X80573571Y-51272438D02*
X80525952Y-51320057D01*
X80525952Y-51320057D02*
X80430714Y-51462914D01*
X80430714Y-51462914D02*
X80383095Y-51653390D01*
X80383095Y-51653390D02*
X80383095Y-52034342D01*
X80383095Y-52034342D02*
X80430714Y-52129580D01*
X80430714Y-52129580D02*
X80478333Y-52177200D01*
X80478333Y-52177200D02*
X80573571Y-52224819D01*
X80573571Y-52224819D02*
X80764047Y-52224819D01*
X80764047Y-52224819D02*
X80859285Y-52177200D01*
X80859285Y-52177200D02*
X80906904Y-52129580D01*
X80906904Y-52129580D02*
X80954523Y-52034342D01*
X80954523Y-52034342D02*
X80954523Y-51796247D01*
X80954523Y-51796247D02*
X80906904Y-51701009D01*
X80906904Y-51701009D02*
X80859285Y-51653390D01*
X80859285Y-51653390D02*
X80764047Y-51605771D01*
X80764047Y-51605771D02*
X80573571Y-51605771D01*
X80573571Y-51605771D02*
X80478333Y-51653390D01*
X80478333Y-51653390D02*
X80430714Y-51701009D01*
X80430714Y-51701009D02*
X80383095Y-51796247D01*
X68159333Y-66494819D02*
X67826000Y-66018628D01*
X67587905Y-66494819D02*
X67587905Y-65494819D01*
X67587905Y-65494819D02*
X67968857Y-65494819D01*
X67968857Y-65494819D02*
X68064095Y-65542438D01*
X68064095Y-65542438D02*
X68111714Y-65590057D01*
X68111714Y-65590057D02*
X68159333Y-65685295D01*
X68159333Y-65685295D02*
X68159333Y-65828152D01*
X68159333Y-65828152D02*
X68111714Y-65923390D01*
X68111714Y-65923390D02*
X68064095Y-65971009D01*
X68064095Y-65971009D02*
X67968857Y-66018628D01*
X67968857Y-66018628D02*
X67587905Y-66018628D01*
X69064095Y-65494819D02*
X68587905Y-65494819D01*
X68587905Y-65494819D02*
X68540286Y-65971009D01*
X68540286Y-65971009D02*
X68587905Y-65923390D01*
X68587905Y-65923390D02*
X68683143Y-65875771D01*
X68683143Y-65875771D02*
X68921238Y-65875771D01*
X68921238Y-65875771D02*
X69016476Y-65923390D01*
X69016476Y-65923390D02*
X69064095Y-65971009D01*
X69064095Y-65971009D02*
X69111714Y-66066247D01*
X69111714Y-66066247D02*
X69111714Y-66304342D01*
X69111714Y-66304342D02*
X69064095Y-66399580D01*
X69064095Y-66399580D02*
X69016476Y-66447200D01*
X69016476Y-66447200D02*
X68921238Y-66494819D01*
X68921238Y-66494819D02*
X68683143Y-66494819D01*
X68683143Y-66494819D02*
X68587905Y-66447200D01*
X68587905Y-66447200D02*
X68540286Y-66399580D01*
X57999333Y-66494819D02*
X57666000Y-66018628D01*
X57427905Y-66494819D02*
X57427905Y-65494819D01*
X57427905Y-65494819D02*
X57808857Y-65494819D01*
X57808857Y-65494819D02*
X57904095Y-65542438D01*
X57904095Y-65542438D02*
X57951714Y-65590057D01*
X57951714Y-65590057D02*
X57999333Y-65685295D01*
X57999333Y-65685295D02*
X57999333Y-65828152D01*
X57999333Y-65828152D02*
X57951714Y-65923390D01*
X57951714Y-65923390D02*
X57904095Y-65971009D01*
X57904095Y-65971009D02*
X57808857Y-66018628D01*
X57808857Y-66018628D02*
X57427905Y-66018628D01*
X58856476Y-65828152D02*
X58856476Y-66494819D01*
X58618381Y-65447200D02*
X58380286Y-66161485D01*
X58380286Y-66161485D02*
X58999333Y-66161485D01*
X48093333Y-66494819D02*
X47760000Y-66018628D01*
X47521905Y-66494819D02*
X47521905Y-65494819D01*
X47521905Y-65494819D02*
X47902857Y-65494819D01*
X47902857Y-65494819D02*
X47998095Y-65542438D01*
X47998095Y-65542438D02*
X48045714Y-65590057D01*
X48045714Y-65590057D02*
X48093333Y-65685295D01*
X48093333Y-65685295D02*
X48093333Y-65828152D01*
X48093333Y-65828152D02*
X48045714Y-65923390D01*
X48045714Y-65923390D02*
X47998095Y-65971009D01*
X47998095Y-65971009D02*
X47902857Y-66018628D01*
X47902857Y-66018628D02*
X47521905Y-66018628D01*
X48426667Y-65494819D02*
X49045714Y-65494819D01*
X49045714Y-65494819D02*
X48712381Y-65875771D01*
X48712381Y-65875771D02*
X48855238Y-65875771D01*
X48855238Y-65875771D02*
X48950476Y-65923390D01*
X48950476Y-65923390D02*
X48998095Y-65971009D01*
X48998095Y-65971009D02*
X49045714Y-66066247D01*
X49045714Y-66066247D02*
X49045714Y-66304342D01*
X49045714Y-66304342D02*
X48998095Y-66399580D01*
X48998095Y-66399580D02*
X48950476Y-66447200D01*
X48950476Y-66447200D02*
X48855238Y-66494819D01*
X48855238Y-66494819D02*
X48569524Y-66494819D01*
X48569524Y-66494819D02*
X48474286Y-66447200D01*
X48474286Y-66447200D02*
X48426667Y-66399580D01*
X37082433Y-37284819D02*
X36749100Y-36808628D01*
X36511005Y-37284819D02*
X36511005Y-36284819D01*
X36511005Y-36284819D02*
X36891957Y-36284819D01*
X36891957Y-36284819D02*
X36987195Y-36332438D01*
X36987195Y-36332438D02*
X37034814Y-36380057D01*
X37034814Y-36380057D02*
X37082433Y-36475295D01*
X37082433Y-36475295D02*
X37082433Y-36618152D01*
X37082433Y-36618152D02*
X37034814Y-36713390D01*
X37034814Y-36713390D02*
X36987195Y-36761009D01*
X36987195Y-36761009D02*
X36891957Y-36808628D01*
X36891957Y-36808628D02*
X36511005Y-36808628D01*
X37463386Y-36380057D02*
X37511005Y-36332438D01*
X37511005Y-36332438D02*
X37606243Y-36284819D01*
X37606243Y-36284819D02*
X37844338Y-36284819D01*
X37844338Y-36284819D02*
X37939576Y-36332438D01*
X37939576Y-36332438D02*
X37987195Y-36380057D01*
X37987195Y-36380057D02*
X38034814Y-36475295D01*
X38034814Y-36475295D02*
X38034814Y-36570533D01*
X38034814Y-36570533D02*
X37987195Y-36713390D01*
X37987195Y-36713390D02*
X37415767Y-37284819D01*
X37415767Y-37284819D02*
X38034814Y-37284819D01*
X34758333Y-37284819D02*
X34425000Y-36808628D01*
X34186905Y-37284819D02*
X34186905Y-36284819D01*
X34186905Y-36284819D02*
X34567857Y-36284819D01*
X34567857Y-36284819D02*
X34663095Y-36332438D01*
X34663095Y-36332438D02*
X34710714Y-36380057D01*
X34710714Y-36380057D02*
X34758333Y-36475295D01*
X34758333Y-36475295D02*
X34758333Y-36618152D01*
X34758333Y-36618152D02*
X34710714Y-36713390D01*
X34710714Y-36713390D02*
X34663095Y-36761009D01*
X34663095Y-36761009D02*
X34567857Y-36808628D01*
X34567857Y-36808628D02*
X34186905Y-36808628D01*
X35710714Y-37284819D02*
X35139286Y-37284819D01*
X35425000Y-37284819D02*
X35425000Y-36284819D01*
X35425000Y-36284819D02*
X35329762Y-36427676D01*
X35329762Y-36427676D02*
X35234524Y-36522914D01*
X35234524Y-36522914D02*
X35139286Y-36570533D01*
D12*
X97290000Y-75378328D02*
X97290000Y-76449757D01*
X97290000Y-76449757D02*
X97218571Y-76664042D01*
X97218571Y-76664042D02*
X97075714Y-76806900D01*
X97075714Y-76806900D02*
X96861428Y-76878328D01*
X96861428Y-76878328D02*
X96718571Y-76878328D01*
X98647143Y-75878328D02*
X98647143Y-76878328D01*
X98290000Y-75306900D02*
X97932857Y-76378328D01*
X97932857Y-76378328D02*
X98861428Y-76378328D01*
X84928328Y-79378571D02*
X83428328Y-79378571D01*
X83428328Y-79378571D02*
X83428328Y-79021428D01*
X83428328Y-79021428D02*
X83499757Y-78807142D01*
X83499757Y-78807142D02*
X83642614Y-78664285D01*
X83642614Y-78664285D02*
X83785471Y-78592856D01*
X83785471Y-78592856D02*
X84071185Y-78521428D01*
X84071185Y-78521428D02*
X84285471Y-78521428D01*
X84285471Y-78521428D02*
X84571185Y-78592856D01*
X84571185Y-78592856D02*
X84714042Y-78664285D01*
X84714042Y-78664285D02*
X84856900Y-78807142D01*
X84856900Y-78807142D02*
X84928328Y-79021428D01*
X84928328Y-79021428D02*
X84928328Y-79378571D01*
X84928328Y-77878571D02*
X83428328Y-77878571D01*
X84928328Y-77164285D02*
X83428328Y-77164285D01*
X83428328Y-77164285D02*
X84928328Y-76307142D01*
X84928328Y-76307142D02*
X83428328Y-76307142D01*
X84356900Y-75592856D02*
X84356900Y-74449999D01*
X83428328Y-73021427D02*
X83428328Y-73735713D01*
X83428328Y-73735713D02*
X84142614Y-73807141D01*
X84142614Y-73807141D02*
X84071185Y-73735713D01*
X84071185Y-73735713D02*
X83999757Y-73592856D01*
X83999757Y-73592856D02*
X83999757Y-73235713D01*
X83999757Y-73235713D02*
X84071185Y-73092856D01*
X84071185Y-73092856D02*
X84142614Y-73021427D01*
X84142614Y-73021427D02*
X84285471Y-72949998D01*
X84285471Y-72949998D02*
X84642614Y-72949998D01*
X84642614Y-72949998D02*
X84785471Y-73021427D01*
X84785471Y-73021427D02*
X84856900Y-73092856D01*
X84856900Y-73092856D02*
X84928328Y-73235713D01*
X84928328Y-73235713D02*
X84928328Y-73592856D01*
X84928328Y-73592856D02*
X84856900Y-73735713D01*
X84856900Y-73735713D02*
X84785471Y-73807141D01*
D11*
X65686666Y-44924819D02*
X65686666Y-45639104D01*
X65686666Y-45639104D02*
X65639047Y-45781961D01*
X65639047Y-45781961D02*
X65543809Y-45877200D01*
X65543809Y-45877200D02*
X65400952Y-45924819D01*
X65400952Y-45924819D02*
X65305714Y-45924819D01*
X66067619Y-44924819D02*
X66686666Y-44924819D01*
X66686666Y-44924819D02*
X66353333Y-45305771D01*
X66353333Y-45305771D02*
X66496190Y-45305771D01*
X66496190Y-45305771D02*
X66591428Y-45353390D01*
X66591428Y-45353390D02*
X66639047Y-45401009D01*
X66639047Y-45401009D02*
X66686666Y-45496247D01*
X66686666Y-45496247D02*
X66686666Y-45734342D01*
X66686666Y-45734342D02*
X66639047Y-45829580D01*
X66639047Y-45829580D02*
X66591428Y-45877200D01*
X66591428Y-45877200D02*
X66496190Y-45924819D01*
X66496190Y-45924819D02*
X66210476Y-45924819D01*
X66210476Y-45924819D02*
X66115238Y-45877200D01*
X66115238Y-45877200D02*
X66067619Y-45829580D01*
X102536666Y-41364819D02*
X102536666Y-42079104D01*
X102536666Y-42079104D02*
X102489047Y-42221961D01*
X102489047Y-42221961D02*
X102393809Y-42317200D01*
X102393809Y-42317200D02*
X102250952Y-42364819D01*
X102250952Y-42364819D02*
X102155714Y-42364819D01*
X102965238Y-41460057D02*
X103012857Y-41412438D01*
X103012857Y-41412438D02*
X103108095Y-41364819D01*
X103108095Y-41364819D02*
X103346190Y-41364819D01*
X103346190Y-41364819D02*
X103441428Y-41412438D01*
X103441428Y-41412438D02*
X103489047Y-41460057D01*
X103489047Y-41460057D02*
X103536666Y-41555295D01*
X103536666Y-41555295D02*
X103536666Y-41650533D01*
X103536666Y-41650533D02*
X103489047Y-41793390D01*
X103489047Y-41793390D02*
X102917619Y-42364819D01*
X102917619Y-42364819D02*
X103536666Y-42364819D01*
X39671666Y-68669819D02*
X39671666Y-69384104D01*
X39671666Y-69384104D02*
X39624047Y-69526961D01*
X39624047Y-69526961D02*
X39528809Y-69622200D01*
X39528809Y-69622200D02*
X39385952Y-69669819D01*
X39385952Y-69669819D02*
X39290714Y-69669819D01*
X40671666Y-69669819D02*
X40100238Y-69669819D01*
X40385952Y-69669819D02*
X40385952Y-68669819D01*
X40385952Y-68669819D02*
X40290714Y-68812676D01*
X40290714Y-68812676D02*
X40195476Y-68907914D01*
X40195476Y-68907914D02*
X40100238Y-68955533D01*
X75221905Y-77924819D02*
X75221905Y-76924819D01*
X75221905Y-76924819D02*
X75460000Y-76924819D01*
X75460000Y-76924819D02*
X75602857Y-76972438D01*
X75602857Y-76972438D02*
X75698095Y-77067676D01*
X75698095Y-77067676D02*
X75745714Y-77162914D01*
X75745714Y-77162914D02*
X75793333Y-77353390D01*
X75793333Y-77353390D02*
X75793333Y-77496247D01*
X75793333Y-77496247D02*
X75745714Y-77686723D01*
X75745714Y-77686723D02*
X75698095Y-77781961D01*
X75698095Y-77781961D02*
X75602857Y-77877200D01*
X75602857Y-77877200D02*
X75460000Y-77924819D01*
X75460000Y-77924819D02*
X75221905Y-77924819D01*
X76745714Y-77924819D02*
X76174286Y-77924819D01*
X76460000Y-77924819D02*
X76460000Y-76924819D01*
X76460000Y-76924819D02*
X76364762Y-77067676D01*
X76364762Y-77067676D02*
X76269524Y-77162914D01*
X76269524Y-77162914D02*
X76174286Y-77210533D01*
X39203333Y-52429580D02*
X39155714Y-52477200D01*
X39155714Y-52477200D02*
X39012857Y-52524819D01*
X39012857Y-52524819D02*
X38917619Y-52524819D01*
X38917619Y-52524819D02*
X38774762Y-52477200D01*
X38774762Y-52477200D02*
X38679524Y-52381961D01*
X38679524Y-52381961D02*
X38631905Y-52286723D01*
X38631905Y-52286723D02*
X38584286Y-52096247D01*
X38584286Y-52096247D02*
X38584286Y-51953390D01*
X38584286Y-51953390D02*
X38631905Y-51762914D01*
X38631905Y-51762914D02*
X38679524Y-51667676D01*
X38679524Y-51667676D02*
X38774762Y-51572438D01*
X38774762Y-51572438D02*
X38917619Y-51524819D01*
X38917619Y-51524819D02*
X39012857Y-51524819D01*
X39012857Y-51524819D02*
X39155714Y-51572438D01*
X39155714Y-51572438D02*
X39203333Y-51620057D01*
X39536667Y-51524819D02*
X40203333Y-51524819D01*
X40203333Y-51524819D02*
X39774762Y-52524819D01*
X42298333Y-35509580D02*
X42250714Y-35557200D01*
X42250714Y-35557200D02*
X42107857Y-35604819D01*
X42107857Y-35604819D02*
X42012619Y-35604819D01*
X42012619Y-35604819D02*
X41869762Y-35557200D01*
X41869762Y-35557200D02*
X41774524Y-35461961D01*
X41774524Y-35461961D02*
X41726905Y-35366723D01*
X41726905Y-35366723D02*
X41679286Y-35176247D01*
X41679286Y-35176247D02*
X41679286Y-35033390D01*
X41679286Y-35033390D02*
X41726905Y-34842914D01*
X41726905Y-34842914D02*
X41774524Y-34747676D01*
X41774524Y-34747676D02*
X41869762Y-34652438D01*
X41869762Y-34652438D02*
X42012619Y-34604819D01*
X42012619Y-34604819D02*
X42107857Y-34604819D01*
X42107857Y-34604819D02*
X42250714Y-34652438D01*
X42250714Y-34652438D02*
X42298333Y-34700057D01*
X43155476Y-34604819D02*
X42965000Y-34604819D01*
X42965000Y-34604819D02*
X42869762Y-34652438D01*
X42869762Y-34652438D02*
X42822143Y-34700057D01*
X42822143Y-34700057D02*
X42726905Y-34842914D01*
X42726905Y-34842914D02*
X42679286Y-35033390D01*
X42679286Y-35033390D02*
X42679286Y-35414342D01*
X42679286Y-35414342D02*
X42726905Y-35509580D01*
X42726905Y-35509580D02*
X42774524Y-35557200D01*
X42774524Y-35557200D02*
X42869762Y-35604819D01*
X42869762Y-35604819D02*
X43060238Y-35604819D01*
X43060238Y-35604819D02*
X43155476Y-35557200D01*
X43155476Y-35557200D02*
X43203095Y-35509580D01*
X43203095Y-35509580D02*
X43250714Y-35414342D01*
X43250714Y-35414342D02*
X43250714Y-35176247D01*
X43250714Y-35176247D02*
X43203095Y-35081009D01*
X43203095Y-35081009D02*
X43155476Y-35033390D01*
X43155476Y-35033390D02*
X43060238Y-34985771D01*
X43060238Y-34985771D02*
X42869762Y-34985771D01*
X42869762Y-34985771D02*
X42774524Y-35033390D01*
X42774524Y-35033390D02*
X42726905Y-35081009D01*
X42726905Y-35081009D02*
X42679286Y-35176247D01*
X85558333Y-55604580D02*
X85510714Y-55652200D01*
X85510714Y-55652200D02*
X85367857Y-55699819D01*
X85367857Y-55699819D02*
X85272619Y-55699819D01*
X85272619Y-55699819D02*
X85129762Y-55652200D01*
X85129762Y-55652200D02*
X85034524Y-55556961D01*
X85034524Y-55556961D02*
X84986905Y-55461723D01*
X84986905Y-55461723D02*
X84939286Y-55271247D01*
X84939286Y-55271247D02*
X84939286Y-55128390D01*
X84939286Y-55128390D02*
X84986905Y-54937914D01*
X84986905Y-54937914D02*
X85034524Y-54842676D01*
X85034524Y-54842676D02*
X85129762Y-54747438D01*
X85129762Y-54747438D02*
X85272619Y-54699819D01*
X85272619Y-54699819D02*
X85367857Y-54699819D01*
X85367857Y-54699819D02*
X85510714Y-54747438D01*
X85510714Y-54747438D02*
X85558333Y-54795057D01*
X86463095Y-54699819D02*
X85986905Y-54699819D01*
X85986905Y-54699819D02*
X85939286Y-55176009D01*
X85939286Y-55176009D02*
X85986905Y-55128390D01*
X85986905Y-55128390D02*
X86082143Y-55080771D01*
X86082143Y-55080771D02*
X86320238Y-55080771D01*
X86320238Y-55080771D02*
X86415476Y-55128390D01*
X86415476Y-55128390D02*
X86463095Y-55176009D01*
X86463095Y-55176009D02*
X86510714Y-55271247D01*
X86510714Y-55271247D02*
X86510714Y-55509342D01*
X86510714Y-55509342D02*
X86463095Y-55604580D01*
X86463095Y-55604580D02*
X86415476Y-55652200D01*
X86415476Y-55652200D02*
X86320238Y-55699819D01*
X86320238Y-55699819D02*
X86082143Y-55699819D01*
X86082143Y-55699819D02*
X85986905Y-55652200D01*
X85986905Y-55652200D02*
X85939286Y-55604580D01*
X59523333Y-41859580D02*
X59475714Y-41907200D01*
X59475714Y-41907200D02*
X59332857Y-41954819D01*
X59332857Y-41954819D02*
X59237619Y-41954819D01*
X59237619Y-41954819D02*
X59094762Y-41907200D01*
X59094762Y-41907200D02*
X58999524Y-41811961D01*
X58999524Y-41811961D02*
X58951905Y-41716723D01*
X58951905Y-41716723D02*
X58904286Y-41526247D01*
X58904286Y-41526247D02*
X58904286Y-41383390D01*
X58904286Y-41383390D02*
X58951905Y-41192914D01*
X58951905Y-41192914D02*
X58999524Y-41097676D01*
X58999524Y-41097676D02*
X59094762Y-41002438D01*
X59094762Y-41002438D02*
X59237619Y-40954819D01*
X59237619Y-40954819D02*
X59332857Y-40954819D01*
X59332857Y-40954819D02*
X59475714Y-41002438D01*
X59475714Y-41002438D02*
X59523333Y-41050057D01*
X60380476Y-41288152D02*
X60380476Y-41954819D01*
X60142381Y-40907200D02*
X59904286Y-41621485D01*
X59904286Y-41621485D02*
X60523333Y-41621485D01*
X42378333Y-61319580D02*
X42330714Y-61367200D01*
X42330714Y-61367200D02*
X42187857Y-61414819D01*
X42187857Y-61414819D02*
X42092619Y-61414819D01*
X42092619Y-61414819D02*
X41949762Y-61367200D01*
X41949762Y-61367200D02*
X41854524Y-61271961D01*
X41854524Y-61271961D02*
X41806905Y-61176723D01*
X41806905Y-61176723D02*
X41759286Y-60986247D01*
X41759286Y-60986247D02*
X41759286Y-60843390D01*
X41759286Y-60843390D02*
X41806905Y-60652914D01*
X41806905Y-60652914D02*
X41854524Y-60557676D01*
X41854524Y-60557676D02*
X41949762Y-60462438D01*
X41949762Y-60462438D02*
X42092619Y-60414819D01*
X42092619Y-60414819D02*
X42187857Y-60414819D01*
X42187857Y-60414819D02*
X42330714Y-60462438D01*
X42330714Y-60462438D02*
X42378333Y-60510057D01*
X42711667Y-60414819D02*
X43330714Y-60414819D01*
X43330714Y-60414819D02*
X42997381Y-60795771D01*
X42997381Y-60795771D02*
X43140238Y-60795771D01*
X43140238Y-60795771D02*
X43235476Y-60843390D01*
X43235476Y-60843390D02*
X43283095Y-60891009D01*
X43283095Y-60891009D02*
X43330714Y-60986247D01*
X43330714Y-60986247D02*
X43330714Y-61224342D01*
X43330714Y-61224342D02*
X43283095Y-61319580D01*
X43283095Y-61319580D02*
X43235476Y-61367200D01*
X43235476Y-61367200D02*
X43140238Y-61414819D01*
X43140238Y-61414819D02*
X42854524Y-61414819D01*
X42854524Y-61414819D02*
X42759286Y-61367200D01*
X42759286Y-61367200D02*
X42711667Y-61319580D01*
X36663333Y-61319580D02*
X36615714Y-61367200D01*
X36615714Y-61367200D02*
X36472857Y-61414819D01*
X36472857Y-61414819D02*
X36377619Y-61414819D01*
X36377619Y-61414819D02*
X36234762Y-61367200D01*
X36234762Y-61367200D02*
X36139524Y-61271961D01*
X36139524Y-61271961D02*
X36091905Y-61176723D01*
X36091905Y-61176723D02*
X36044286Y-60986247D01*
X36044286Y-60986247D02*
X36044286Y-60843390D01*
X36044286Y-60843390D02*
X36091905Y-60652914D01*
X36091905Y-60652914D02*
X36139524Y-60557676D01*
X36139524Y-60557676D02*
X36234762Y-60462438D01*
X36234762Y-60462438D02*
X36377619Y-60414819D01*
X36377619Y-60414819D02*
X36472857Y-60414819D01*
X36472857Y-60414819D02*
X36615714Y-60462438D01*
X36615714Y-60462438D02*
X36663333Y-60510057D01*
X37044286Y-60510057D02*
X37091905Y-60462438D01*
X37091905Y-60462438D02*
X37187143Y-60414819D01*
X37187143Y-60414819D02*
X37425238Y-60414819D01*
X37425238Y-60414819D02*
X37520476Y-60462438D01*
X37520476Y-60462438D02*
X37568095Y-60510057D01*
X37568095Y-60510057D02*
X37615714Y-60605295D01*
X37615714Y-60605295D02*
X37615714Y-60700533D01*
X37615714Y-60700533D02*
X37568095Y-60843390D01*
X37568095Y-60843390D02*
X36996667Y-61414819D01*
X36996667Y-61414819D02*
X37615714Y-61414819D01*
X31583333Y-61319580D02*
X31535714Y-61367200D01*
X31535714Y-61367200D02*
X31392857Y-61414819D01*
X31392857Y-61414819D02*
X31297619Y-61414819D01*
X31297619Y-61414819D02*
X31154762Y-61367200D01*
X31154762Y-61367200D02*
X31059524Y-61271961D01*
X31059524Y-61271961D02*
X31011905Y-61176723D01*
X31011905Y-61176723D02*
X30964286Y-60986247D01*
X30964286Y-60986247D02*
X30964286Y-60843390D01*
X30964286Y-60843390D02*
X31011905Y-60652914D01*
X31011905Y-60652914D02*
X31059524Y-60557676D01*
X31059524Y-60557676D02*
X31154762Y-60462438D01*
X31154762Y-60462438D02*
X31297619Y-60414819D01*
X31297619Y-60414819D02*
X31392857Y-60414819D01*
X31392857Y-60414819D02*
X31535714Y-60462438D01*
X31535714Y-60462438D02*
X31583333Y-60510057D01*
X32535714Y-61414819D02*
X31964286Y-61414819D01*
X32250000Y-61414819D02*
X32250000Y-60414819D01*
X32250000Y-60414819D02*
X32154762Y-60557676D01*
X32154762Y-60557676D02*
X32059524Y-60652914D01*
X32059524Y-60652914D02*
X31964286Y-60700533D01*
D13*
%TO.C,DS1*%
X104309100Y-27840000D02*
X98844100Y-27840000D01*
X104309100Y-64120000D02*
X104309100Y-59055000D01*
D14*
X24029100Y-27840000D02*
X24029100Y-48260000D01*
X29629100Y-64120000D02*
X104309100Y-64120000D01*
X24039100Y-27840000D02*
X24829100Y-27840000D01*
X30669100Y-27480000D02*
X33669100Y-27480000D01*
X73444100Y-27840000D02*
X24829100Y-27840000D01*
X104309100Y-42545000D02*
X104309100Y-27840000D01*
%TO.C,Y1*%
X38840000Y-47660000D02*
X38840000Y-41260000D01*
X43890000Y-47660000D02*
X43890000Y-41260000D01*
X38840000Y-47660000D02*
G75*
G03*
X43890000Y-47660000I2525000J0D01*
G01*
X43890000Y-41260000D02*
G75*
G03*
X38840000Y-41260000I-2525000J0D01*
G01*
%TO.C,U5*%
X76790000Y-72110000D02*
G75*
G03*
X76790000Y-70110000I0J1000000D01*
G01*
X76790000Y-72110000D02*
X76790000Y-73760000D01*
X84530000Y-73760000D02*
X84530000Y-68460000D01*
X76790000Y-73760000D02*
X84530000Y-73760000D01*
X84530000Y-68460000D02*
X76790000Y-68460000D01*
X76790000Y-68460000D02*
X76790000Y-70110000D01*
D11*
%TO.C,U4*%
X48445000Y-37750000D02*
X47020000Y-37750000D01*
X48445000Y-44775000D02*
X48445000Y-44450000D01*
X55695000Y-44775000D02*
X55370000Y-44775000D01*
X55695000Y-44775000D02*
X55695000Y-44450000D01*
X55695000Y-37525000D02*
X55695000Y-37850000D01*
X55695000Y-37525000D02*
X55370000Y-37525000D01*
X48445000Y-37525000D02*
X48770000Y-37525000D01*
X48445000Y-37525000D02*
X48445000Y-37750000D01*
X48445000Y-44775000D02*
X48770000Y-44775000D01*
D15*
%TO.C,U3*%
X91242000Y-26218000D02*
X91242000Y-31718000D01*
X91242000Y-26218000D02*
X98442000Y-26218000D01*
X98442000Y-26218000D02*
X98442000Y-31518000D01*
X91242000Y-31718000D02*
X92442000Y-37318000D01*
X92442000Y-37318000D02*
X97142000Y-37318000D01*
X97142000Y-37318000D02*
X98442000Y-31518000D01*
X96042000Y-29718000D02*
G75*
G03*
X96042000Y-29718000I-1300000J0D01*
G01*
D14*
%TO.C,U2*%
X47970000Y-53740000D02*
X53980000Y-53740000D01*
X50220000Y-60560000D02*
X53980000Y-60560000D01*
X53980000Y-60560000D02*
X53980000Y-59300000D01*
X53980000Y-53740000D02*
X53980000Y-55000000D01*
%TO.C,U1*%
X35565000Y-47644000D02*
X35565000Y-48904000D01*
X35565000Y-54464000D02*
X35565000Y-53204000D01*
X31805000Y-54464000D02*
X35565000Y-54464000D01*
X29555000Y-47644000D02*
X35565000Y-47644000D01*
%TO.C,SW5*%
X69290000Y-78450000D02*
X69290000Y-73950000D01*
X66790000Y-72700000D02*
X65290000Y-72700000D01*
X65290000Y-79700000D02*
X66790000Y-79700000D01*
X62790000Y-73950000D02*
X62790000Y-78450000D01*
%TO.C,SW4*%
X59130000Y-78450000D02*
X59130000Y-73950000D01*
X56630000Y-72700000D02*
X55130000Y-72700000D01*
X55130000Y-79700000D02*
X56630000Y-79700000D01*
X52630000Y-73950000D02*
X52630000Y-78450000D01*
%TO.C,SW3*%
X42760000Y-73950000D02*
X42760000Y-78450000D01*
X45260000Y-79700000D02*
X46760000Y-79700000D01*
X46760000Y-72700000D02*
X45260000Y-72700000D01*
X49260000Y-78450000D02*
X49260000Y-73950000D01*
D11*
%TO.C,SW2*%
X74082500Y-26610000D02*
X88682500Y-26610000D01*
X74082500Y-31810000D02*
X88682500Y-31810000D01*
%TO.C,SW1*%
X28000000Y-49040000D02*
X28000000Y-63640000D01*
X22800000Y-49040000D02*
X22800000Y-63640000D01*
D14*
%TO.C,R16*%
X79282064Y-79275000D02*
X78827936Y-79275000D01*
X79282064Y-80745000D02*
X78827936Y-80745000D01*
%TO.C,R15*%
X71020000Y-68352936D02*
X71020000Y-68807064D01*
X72490000Y-68352936D02*
X72490000Y-68807064D01*
%TO.C,R14*%
X75665000Y-68352936D02*
X75665000Y-68807064D01*
X74195000Y-68352936D02*
X74195000Y-68807064D01*
%TO.C,R13*%
X77242936Y-35025000D02*
X77697064Y-35025000D01*
X77242936Y-33555000D02*
X77697064Y-33555000D01*
%TO.C,R12*%
X77697064Y-56115000D02*
X77242936Y-56115000D01*
X77697064Y-57585000D02*
X77242936Y-57585000D01*
%TO.C,R11*%
X77697064Y-44885000D02*
X77242936Y-44885000D01*
X77697064Y-43415000D02*
X77242936Y-43415000D01*
%TO.C,R10*%
X77697064Y-49965000D02*
X77242936Y-49965000D01*
X77697064Y-48495000D02*
X77242936Y-48495000D01*
%TO.C,R9*%
X62457000Y-38581064D02*
X62457000Y-38126936D01*
X60987000Y-38581064D02*
X60987000Y-38126936D01*
%TO.C,R8*%
X77242936Y-55045000D02*
X77697064Y-55045000D01*
X77242936Y-53575000D02*
X77697064Y-53575000D01*
%TO.C,R7*%
X77242936Y-45955000D02*
X77697064Y-45955000D01*
X77242936Y-47425000D02*
X77697064Y-47425000D01*
%TO.C,R6*%
X77242936Y-51035000D02*
X77697064Y-51035000D01*
X77242936Y-52505000D02*
X77697064Y-52505000D01*
%TO.C,R5*%
X67555000Y-68352936D02*
X67555000Y-68807064D01*
X69025000Y-68352936D02*
X69025000Y-68807064D01*
%TO.C,R4*%
X57395000Y-68352936D02*
X57395000Y-68807064D01*
X58865000Y-68352936D02*
X58865000Y-68807064D01*
%TO.C,R3*%
X48995000Y-68352936D02*
X48995000Y-68807064D01*
X47525000Y-68352936D02*
X47525000Y-68807064D01*
%TO.C,R2*%
X36514100Y-34062936D02*
X36514100Y-34517064D01*
X37984100Y-34062936D02*
X37984100Y-34517064D01*
%TO.C,R1*%
X35660000Y-34062936D02*
X35660000Y-34517064D01*
X34190000Y-34062936D02*
X34190000Y-34517064D01*
D16*
%TO.C,J4*%
X103748840Y-65699640D02*
X104249220Y-65699640D01*
X104749600Y-86700360D02*
X104249220Y-86700360D01*
X103251000Y-84698840D02*
X103748840Y-84698840D01*
X103748840Y-67701160D02*
X103251000Y-67701160D01*
X103251000Y-85199220D02*
X103251000Y-84698840D01*
X103251000Y-67200780D02*
X103251000Y-67701160D01*
X103748840Y-85199220D02*
X103748840Y-65699640D01*
X104249220Y-85199220D02*
X103748840Y-85199220D01*
X104249220Y-86700360D02*
X104249220Y-85199220D01*
X104749600Y-67200780D02*
X104749600Y-86700360D01*
X104249220Y-67200780D02*
X104749600Y-67200780D01*
X104249220Y-65699640D02*
X104249220Y-67200780D01*
X86250780Y-74201020D02*
X88249760Y-74201020D01*
X85750400Y-74698860D02*
X86250780Y-74201020D01*
X85750400Y-77701140D02*
X85750400Y-74698860D01*
X86250780Y-78198980D02*
X88249760Y-78198980D01*
X85750400Y-77701140D02*
X86250780Y-78198980D01*
X88249760Y-70700900D02*
X88249760Y-74201020D01*
X86250780Y-70700900D02*
X88249760Y-70700900D01*
X85750400Y-70200520D02*
X86250780Y-70700900D01*
X85750400Y-69700140D02*
X85750400Y-70200520D01*
X85750400Y-67701160D02*
X85750400Y-69700140D01*
X86250780Y-67200780D02*
X85750400Y-67701160D01*
X86250780Y-67200780D02*
X103251000Y-67200780D01*
X88249760Y-81699100D02*
X88249760Y-78198980D01*
X86250780Y-81699100D02*
X88249760Y-81699100D01*
X85750400Y-82199480D02*
X86250780Y-81699100D01*
X85750400Y-84698840D02*
X85750400Y-82199480D01*
X86250780Y-85199220D02*
X85750400Y-84698840D01*
X86250780Y-85199220D02*
X103251000Y-85199220D01*
X104500680Y-86700360D02*
X104500680Y-67200780D01*
X104249220Y-67200780D02*
X104249220Y-85199220D01*
X104000300Y-85199220D02*
X104000300Y-65699640D01*
D14*
%TO.C,J3*%
X68620000Y-36290000D02*
X63420000Y-36290000D01*
X66020000Y-41430000D02*
X63420000Y-41430000D01*
X68620000Y-44030000D02*
X68620000Y-36290000D01*
X64750000Y-44030000D02*
X63420000Y-44030000D01*
X63420000Y-41430000D02*
X63420000Y-36290000D01*
X68620000Y-44030000D02*
X66020000Y-44030000D01*
X66020000Y-44030000D02*
X66020000Y-41430000D01*
X63420000Y-44030000D02*
X63420000Y-42700000D01*
%TO.C,J2*%
X104980000Y-45515000D02*
X104980000Y-47825000D01*
X104980000Y-56775000D02*
X104780000Y-56975000D01*
X104630000Y-54705000D02*
X104630000Y-48335000D01*
X94020000Y-57805000D02*
X98720000Y-57805000D01*
X104980000Y-54915000D02*
X104780000Y-54705000D01*
X104980000Y-45515000D02*
X104780000Y-45315000D01*
X100020000Y-57805000D02*
X101820000Y-57805000D01*
X88710000Y-45755000D02*
X88710000Y-43835000D01*
X104980000Y-56775000D02*
X104980000Y-54915000D01*
X88710000Y-57805000D02*
X92320000Y-57805000D01*
X104780000Y-45315000D02*
X104780000Y-45055000D01*
X88710000Y-57355000D02*
X88710000Y-57805000D01*
X104630000Y-54705000D02*
X104780000Y-54705000D01*
X104980000Y-47825000D02*
X104630000Y-48335000D01*
X88710000Y-43835000D02*
X102720000Y-43835000D01*
%TO.C,J1*%
X36450000Y-64727500D02*
X37500000Y-64727500D01*
X37500000Y-65777500D02*
X37500000Y-64727500D01*
X31400000Y-74127500D02*
X22600000Y-74127500D01*
X37300000Y-64927500D02*
X37300000Y-67527500D01*
X37300000Y-71427500D02*
X37300000Y-74127500D01*
X37300000Y-74127500D02*
X35400000Y-74127500D01*
X22600000Y-74127500D02*
X22600000Y-64927500D01*
X22600000Y-64927500D02*
X37300000Y-64927500D01*
%TO.C,D1*%
X77410000Y-76470000D02*
X77410000Y-78470000D01*
X77410000Y-76470000D02*
X81420000Y-76470000D01*
X77410000Y-78470000D02*
X81420000Y-78470000D01*
%TO.C,C7*%
X42203748Y-52805000D02*
X42726252Y-52805000D01*
X42203748Y-51335000D02*
X42726252Y-51335000D01*
%TO.C,C6*%
X42203748Y-37565000D02*
X42726252Y-37565000D01*
X42203748Y-36095000D02*
X42726252Y-36095000D01*
%TO.C,C5*%
X86460000Y-52043748D02*
X86460000Y-52566252D01*
X84990000Y-52043748D02*
X84990000Y-52566252D01*
%TO.C,C4*%
X59428748Y-42445000D02*
X59951252Y-42445000D01*
X59428748Y-43915000D02*
X59951252Y-43915000D01*
%TO.C,C3*%
X41832000Y-59181000D02*
X41022000Y-59181000D01*
X41832000Y-57940000D02*
X40592000Y-57940000D01*
X44666000Y-58500000D02*
X43512000Y-58500000D01*
X41832000Y-59301000D02*
X41120000Y-59301000D01*
X41832000Y-59341000D02*
X41156000Y-59341000D01*
X44596000Y-58701000D02*
X43512000Y-58701000D01*
X43926000Y-59581000D02*
X41418000Y-59581000D01*
X44688000Y-58420000D02*
X43512000Y-58420000D01*
X44752000Y-57900000D02*
X43512000Y-57900000D01*
X44432000Y-59021000D02*
X43512000Y-59021000D01*
X41832000Y-59061000D02*
X40937000Y-59061000D01*
X44752000Y-57940000D02*
X43512000Y-57940000D01*
X41832000Y-59461000D02*
X41276000Y-59461000D01*
X44722000Y-58260000D02*
X43512000Y-58260000D01*
X44502000Y-58901000D02*
X43512000Y-58901000D01*
X44626000Y-58621000D02*
X43512000Y-58621000D01*
X41832000Y-58621000D02*
X40718000Y-58621000D01*
X41832000Y-58060000D02*
X40598000Y-58060000D01*
X43209000Y-59941000D02*
X42135000Y-59941000D01*
X43685000Y-59741000D02*
X41659000Y-59741000D01*
X43042000Y-59981000D02*
X42302000Y-59981000D01*
X44677000Y-58460000D02*
X43512000Y-58460000D01*
X44612000Y-58661000D02*
X43512000Y-58661000D01*
X41832000Y-58140000D02*
X40605000Y-58140000D01*
X41832000Y-58661000D02*
X40732000Y-58661000D01*
X44322000Y-59181000D02*
X43512000Y-59181000D01*
X44640000Y-58580000D02*
X43512000Y-58580000D01*
X41832000Y-58220000D02*
X40616000Y-58220000D01*
X41832000Y-59141000D02*
X40992000Y-59141000D01*
X41832000Y-58340000D02*
X40638000Y-58340000D01*
X43814000Y-59661000D02*
X41530000Y-59661000D01*
X41832000Y-58701000D02*
X40748000Y-58701000D01*
X44654000Y-58540000D02*
X43512000Y-58540000D01*
X44224000Y-59301000D02*
X43512000Y-59301000D01*
X41832000Y-58380000D02*
X40647000Y-58380000D01*
X43752000Y-59701000D02*
X41592000Y-59701000D01*
X41832000Y-59381000D02*
X41194000Y-59381000D01*
X44561000Y-58781000D02*
X43512000Y-58781000D01*
X43867000Y-55630199D02*
X43867000Y-56030199D01*
X41832000Y-58901000D02*
X40842000Y-58901000D01*
X44067000Y-55830199D02*
X43667000Y-55830199D01*
X41832000Y-58260000D02*
X40622000Y-58260000D01*
X44751000Y-57980000D02*
X43512000Y-57980000D01*
X41832000Y-58420000D02*
X40656000Y-58420000D01*
X44734000Y-58180000D02*
X43512000Y-58180000D01*
X43531000Y-59821000D02*
X41813000Y-59821000D01*
X41832000Y-58100000D02*
X40601000Y-58100000D01*
X44706000Y-58340000D02*
X43512000Y-58340000D01*
X41832000Y-59021000D02*
X40912000Y-59021000D01*
X44150000Y-59381000D02*
X43512000Y-59381000D01*
X41832000Y-58500000D02*
X40678000Y-58500000D01*
X41832000Y-59421000D02*
X41234000Y-59421000D01*
X44352000Y-59141000D02*
X43512000Y-59141000D01*
X41832000Y-58741000D02*
X40765000Y-58741000D01*
X44739000Y-58140000D02*
X43512000Y-58140000D01*
X44407000Y-59061000D02*
X43512000Y-59061000D01*
X44023000Y-59501000D02*
X41321000Y-59501000D01*
X44480000Y-58941000D02*
X43512000Y-58941000D01*
X44697000Y-58380000D02*
X43512000Y-58380000D01*
X44068000Y-59461000D02*
X43512000Y-59461000D01*
X41832000Y-57980000D02*
X40593000Y-57980000D01*
X41832000Y-58861000D02*
X40821000Y-58861000D01*
X41832000Y-57900000D02*
X40592000Y-57900000D01*
X41832000Y-58180000D02*
X40610000Y-58180000D01*
X43612000Y-59781000D02*
X41732000Y-59781000D01*
X44457000Y-58981000D02*
X43512000Y-58981000D01*
X44714000Y-58300000D02*
X43512000Y-58300000D01*
X41832000Y-58540000D02*
X40690000Y-58540000D01*
X41832000Y-59221000D02*
X41053000Y-59221000D01*
X41832000Y-58941000D02*
X40864000Y-58941000D01*
X44523000Y-58861000D02*
X43512000Y-58861000D01*
X44749000Y-58020000D02*
X43512000Y-58020000D01*
X43872000Y-59621000D02*
X41472000Y-59621000D01*
X41832000Y-58981000D02*
X40887000Y-58981000D01*
X44291000Y-59221000D02*
X43512000Y-59221000D01*
X41832000Y-58020000D02*
X40595000Y-58020000D01*
X44579000Y-58741000D02*
X43512000Y-58741000D01*
X41832000Y-58821000D02*
X40802000Y-58821000D01*
X41832000Y-58300000D02*
X40630000Y-58300000D01*
X43336000Y-59901000D02*
X42008000Y-59901000D01*
X44380000Y-59101000D02*
X43512000Y-59101000D01*
X44542000Y-58821000D02*
X43512000Y-58821000D01*
X44743000Y-58100000D02*
X43512000Y-58100000D01*
X41832000Y-58781000D02*
X40783000Y-58781000D01*
X41832000Y-58460000D02*
X40667000Y-58460000D01*
X41832000Y-59261000D02*
X41085000Y-59261000D01*
X44188000Y-59341000D02*
X43512000Y-59341000D01*
X44728000Y-58220000D02*
X43512000Y-58220000D01*
X43440000Y-59861000D02*
X41904000Y-59861000D01*
X41832000Y-59101000D02*
X40964000Y-59101000D01*
X44259000Y-59261000D02*
X43512000Y-59261000D01*
X41832000Y-58580000D02*
X40704000Y-58580000D01*
X44110000Y-59421000D02*
X43512000Y-59421000D01*
X43976000Y-59541000D02*
X41368000Y-59541000D01*
X44746000Y-58060000D02*
X43512000Y-58060000D01*
X44792000Y-57900000D02*
G75*
G03*
X44792000Y-57900000I-2120000J0D01*
G01*
%TO.C,C2*%
X35990000Y-58951000D02*
X35180000Y-58951000D01*
X35990000Y-57710000D02*
X34750000Y-57710000D01*
X38824000Y-58270000D02*
X37670000Y-58270000D01*
X35990000Y-59071000D02*
X35278000Y-59071000D01*
X35990000Y-59111000D02*
X35314000Y-59111000D01*
X38754000Y-58471000D02*
X37670000Y-58471000D01*
X38084000Y-59351000D02*
X35576000Y-59351000D01*
X38846000Y-58190000D02*
X37670000Y-58190000D01*
X38910000Y-57670000D02*
X37670000Y-57670000D01*
X38590000Y-58791000D02*
X37670000Y-58791000D01*
X35990000Y-58831000D02*
X35095000Y-58831000D01*
X38910000Y-57710000D02*
X37670000Y-57710000D01*
X35990000Y-59231000D02*
X35434000Y-59231000D01*
X38880000Y-58030000D02*
X37670000Y-58030000D01*
X38660000Y-58671000D02*
X37670000Y-58671000D01*
X38784000Y-58391000D02*
X37670000Y-58391000D01*
X35990000Y-58391000D02*
X34876000Y-58391000D01*
X35990000Y-57830000D02*
X34756000Y-57830000D01*
X37367000Y-59711000D02*
X36293000Y-59711000D01*
X37843000Y-59511000D02*
X35817000Y-59511000D01*
X37200000Y-59751000D02*
X36460000Y-59751000D01*
X38835000Y-58230000D02*
X37670000Y-58230000D01*
X38770000Y-58431000D02*
X37670000Y-58431000D01*
X35990000Y-57910000D02*
X34763000Y-57910000D01*
X35990000Y-58431000D02*
X34890000Y-58431000D01*
X38480000Y-58951000D02*
X37670000Y-58951000D01*
X38798000Y-58350000D02*
X37670000Y-58350000D01*
X35990000Y-57990000D02*
X34774000Y-57990000D01*
X35990000Y-58911000D02*
X35150000Y-58911000D01*
X35990000Y-58110000D02*
X34796000Y-58110000D01*
X37972000Y-59431000D02*
X35688000Y-59431000D01*
X35990000Y-58471000D02*
X34906000Y-58471000D01*
X38812000Y-58310000D02*
X37670000Y-58310000D01*
X38382000Y-59071000D02*
X37670000Y-59071000D01*
X35990000Y-58150000D02*
X34805000Y-58150000D01*
X37910000Y-59471000D02*
X35750000Y-59471000D01*
X35990000Y-59151000D02*
X35352000Y-59151000D01*
X38719000Y-58551000D02*
X37670000Y-58551000D01*
X38025000Y-55400199D02*
X38025000Y-55800199D01*
X35990000Y-58671000D02*
X35000000Y-58671000D01*
X38225000Y-55600199D02*
X37825000Y-55600199D01*
X35990000Y-58030000D02*
X34780000Y-58030000D01*
X38909000Y-57750000D02*
X37670000Y-57750000D01*
X35990000Y-58190000D02*
X34814000Y-58190000D01*
X38892000Y-57950000D02*
X37670000Y-57950000D01*
X37689000Y-59591000D02*
X35971000Y-59591000D01*
X35990000Y-57870000D02*
X34759000Y-57870000D01*
X38864000Y-58110000D02*
X37670000Y-58110000D01*
X35990000Y-58791000D02*
X35070000Y-58791000D01*
X38308000Y-59151000D02*
X37670000Y-59151000D01*
X35990000Y-58270000D02*
X34836000Y-58270000D01*
X35990000Y-59191000D02*
X35392000Y-59191000D01*
X38510000Y-58911000D02*
X37670000Y-58911000D01*
X35990000Y-58511000D02*
X34923000Y-58511000D01*
X38897000Y-57910000D02*
X37670000Y-57910000D01*
X38565000Y-58831000D02*
X37670000Y-58831000D01*
X38181000Y-59271000D02*
X35479000Y-59271000D01*
X38638000Y-58711000D02*
X37670000Y-58711000D01*
X38855000Y-58150000D02*
X37670000Y-58150000D01*
X38226000Y-59231000D02*
X37670000Y-59231000D01*
X35990000Y-57750000D02*
X34751000Y-57750000D01*
X35990000Y-58631000D02*
X34979000Y-58631000D01*
X35990000Y-57670000D02*
X34750000Y-57670000D01*
X35990000Y-57950000D02*
X34768000Y-57950000D01*
X37770000Y-59551000D02*
X35890000Y-59551000D01*
X38615000Y-58751000D02*
X37670000Y-58751000D01*
X38872000Y-58070000D02*
X37670000Y-58070000D01*
X35990000Y-58310000D02*
X34848000Y-58310000D01*
X35990000Y-58991000D02*
X35211000Y-58991000D01*
X35990000Y-58711000D02*
X35022000Y-58711000D01*
X38681000Y-58631000D02*
X37670000Y-58631000D01*
X38907000Y-57790000D02*
X37670000Y-57790000D01*
X38030000Y-59391000D02*
X35630000Y-59391000D01*
X35990000Y-58751000D02*
X35045000Y-58751000D01*
X38449000Y-58991000D02*
X37670000Y-58991000D01*
X35990000Y-57790000D02*
X34753000Y-57790000D01*
X38737000Y-58511000D02*
X37670000Y-58511000D01*
X35990000Y-58591000D02*
X34960000Y-58591000D01*
X35990000Y-58070000D02*
X34788000Y-58070000D01*
X37494000Y-59671000D02*
X36166000Y-59671000D01*
X38538000Y-58871000D02*
X37670000Y-58871000D01*
X38700000Y-58591000D02*
X37670000Y-58591000D01*
X38901000Y-57870000D02*
X37670000Y-57870000D01*
X35990000Y-58551000D02*
X34941000Y-58551000D01*
X35990000Y-58230000D02*
X34825000Y-58230000D01*
X35990000Y-59031000D02*
X35243000Y-59031000D01*
X38346000Y-59111000D02*
X37670000Y-59111000D01*
X38886000Y-57990000D02*
X37670000Y-57990000D01*
X37598000Y-59631000D02*
X36062000Y-59631000D01*
X35990000Y-58871000D02*
X35122000Y-58871000D01*
X38417000Y-59031000D02*
X37670000Y-59031000D01*
X35990000Y-58350000D02*
X34862000Y-58350000D01*
X38268000Y-59191000D02*
X37670000Y-59191000D01*
X38134000Y-59311000D02*
X35526000Y-59311000D01*
X38904000Y-57830000D02*
X37670000Y-57830000D01*
X38950000Y-57670000D02*
G75*
G03*
X38950000Y-57670000I-2120000J0D01*
G01*
%TO.C,C1*%
X30910000Y-59181000D02*
X30100000Y-59181000D01*
X30910000Y-57940000D02*
X29670000Y-57940000D01*
X33744000Y-58500000D02*
X32590000Y-58500000D01*
X30910000Y-59301000D02*
X30198000Y-59301000D01*
X30910000Y-59341000D02*
X30234000Y-59341000D01*
X33674000Y-58701000D02*
X32590000Y-58701000D01*
X33004000Y-59581000D02*
X30496000Y-59581000D01*
X33766000Y-58420000D02*
X32590000Y-58420000D01*
X33830000Y-57900000D02*
X32590000Y-57900000D01*
X33510000Y-59021000D02*
X32590000Y-59021000D01*
X30910000Y-59061000D02*
X30015000Y-59061000D01*
X33830000Y-57940000D02*
X32590000Y-57940000D01*
X30910000Y-59461000D02*
X30354000Y-59461000D01*
X33800000Y-58260000D02*
X32590000Y-58260000D01*
X33580000Y-58901000D02*
X32590000Y-58901000D01*
X33704000Y-58621000D02*
X32590000Y-58621000D01*
X30910000Y-58621000D02*
X29796000Y-58621000D01*
X30910000Y-58060000D02*
X29676000Y-58060000D01*
X32287000Y-59941000D02*
X31213000Y-59941000D01*
X32763000Y-59741000D02*
X30737000Y-59741000D01*
X32120000Y-59981000D02*
X31380000Y-59981000D01*
X33755000Y-58460000D02*
X32590000Y-58460000D01*
X33690000Y-58661000D02*
X32590000Y-58661000D01*
X30910000Y-58140000D02*
X29683000Y-58140000D01*
X30910000Y-58661000D02*
X29810000Y-58661000D01*
X33400000Y-59181000D02*
X32590000Y-59181000D01*
X33718000Y-58580000D02*
X32590000Y-58580000D01*
X30910000Y-58220000D02*
X29694000Y-58220000D01*
X30910000Y-59141000D02*
X30070000Y-59141000D01*
X30910000Y-58340000D02*
X29716000Y-58340000D01*
X32892000Y-59661000D02*
X30608000Y-59661000D01*
X30910000Y-58701000D02*
X29826000Y-58701000D01*
X33732000Y-58540000D02*
X32590000Y-58540000D01*
X33302000Y-59301000D02*
X32590000Y-59301000D01*
X30910000Y-58380000D02*
X29725000Y-58380000D01*
X32830000Y-59701000D02*
X30670000Y-59701000D01*
X30910000Y-59381000D02*
X30272000Y-59381000D01*
X33639000Y-58781000D02*
X32590000Y-58781000D01*
X32945000Y-55630199D02*
X32945000Y-56030199D01*
X30910000Y-58901000D02*
X29920000Y-58901000D01*
X33145000Y-55830199D02*
X32745000Y-55830199D01*
X30910000Y-58260000D02*
X29700000Y-58260000D01*
X33829000Y-57980000D02*
X32590000Y-57980000D01*
X30910000Y-58420000D02*
X29734000Y-58420000D01*
X33812000Y-58180000D02*
X32590000Y-58180000D01*
X32609000Y-59821000D02*
X30891000Y-59821000D01*
X30910000Y-58100000D02*
X29679000Y-58100000D01*
X33784000Y-58340000D02*
X32590000Y-58340000D01*
X30910000Y-59021000D02*
X29990000Y-59021000D01*
X33228000Y-59381000D02*
X32590000Y-59381000D01*
X30910000Y-58500000D02*
X29756000Y-58500000D01*
X30910000Y-59421000D02*
X30312000Y-59421000D01*
X33430000Y-59141000D02*
X32590000Y-59141000D01*
X30910000Y-58741000D02*
X29843000Y-58741000D01*
X33817000Y-58140000D02*
X32590000Y-58140000D01*
X33485000Y-59061000D02*
X32590000Y-59061000D01*
X33101000Y-59501000D02*
X30399000Y-59501000D01*
X33558000Y-58941000D02*
X32590000Y-58941000D01*
X33775000Y-58380000D02*
X32590000Y-58380000D01*
X33146000Y-59461000D02*
X32590000Y-59461000D01*
X30910000Y-57980000D02*
X29671000Y-57980000D01*
X30910000Y-58861000D02*
X29899000Y-58861000D01*
X30910000Y-57900000D02*
X29670000Y-57900000D01*
X30910000Y-58180000D02*
X29688000Y-58180000D01*
X32690000Y-59781000D02*
X30810000Y-59781000D01*
X33535000Y-58981000D02*
X32590000Y-58981000D01*
X33792000Y-58300000D02*
X32590000Y-58300000D01*
X30910000Y-58540000D02*
X29768000Y-58540000D01*
X30910000Y-59221000D02*
X30131000Y-59221000D01*
X30910000Y-58941000D02*
X29942000Y-58941000D01*
X33601000Y-58861000D02*
X32590000Y-58861000D01*
X33827000Y-58020000D02*
X32590000Y-58020000D01*
X32950000Y-59621000D02*
X30550000Y-59621000D01*
X30910000Y-58981000D02*
X29965000Y-58981000D01*
X33369000Y-59221000D02*
X32590000Y-59221000D01*
X30910000Y-58020000D02*
X29673000Y-58020000D01*
X33657000Y-58741000D02*
X32590000Y-58741000D01*
X30910000Y-58821000D02*
X29880000Y-58821000D01*
X30910000Y-58300000D02*
X29708000Y-58300000D01*
X32414000Y-59901000D02*
X31086000Y-59901000D01*
X33458000Y-59101000D02*
X32590000Y-59101000D01*
X33620000Y-58821000D02*
X32590000Y-58821000D01*
X33821000Y-58100000D02*
X32590000Y-58100000D01*
X30910000Y-58781000D02*
X29861000Y-58781000D01*
X30910000Y-58460000D02*
X29745000Y-58460000D01*
X30910000Y-59261000D02*
X30163000Y-59261000D01*
X33266000Y-59341000D02*
X32590000Y-59341000D01*
X33806000Y-58220000D02*
X32590000Y-58220000D01*
X32518000Y-59861000D02*
X30982000Y-59861000D01*
X30910000Y-59101000D02*
X30042000Y-59101000D01*
X33337000Y-59261000D02*
X32590000Y-59261000D01*
X30910000Y-58580000D02*
X29782000Y-58580000D01*
X33188000Y-59421000D02*
X32590000Y-59421000D01*
X33054000Y-59541000D02*
X30446000Y-59541000D01*
X33824000Y-58060000D02*
X32590000Y-58060000D01*
X33870000Y-57900000D02*
G75*
G03*
X33870000Y-57900000I-2120000J0D01*
G01*
%TD*%
M02*
