%TF.GenerationSoftware,KiCad,Pcbnew,7.0.2*%
%TF.CreationDate,2023-10-16T20:56:55+02:00*%
%TF.ProjectId,interrupter,696e7465-7272-4757-9074-65722e6b6963,rev?*%
%TF.SameCoordinates,Original*%
%TF.FileFunction,Paste,Top*%
%TF.FilePolarity,Positive*%
%FSLAX46Y46*%
G04 Gerber Fmt 4.6, Leading zero omitted, Abs format (unit mm)*
G04 Created by KiCad (PCBNEW 7.0.2) date 2023-10-16 20:56:55*
%MOMM*%
%LPD*%
G01*
G04 APERTURE LIST*
G04 Aperture macros list*
%AMRoundRect*
0 Rectangle with rounded corners*
0 $1 Rounding radius*
0 $2 $3 $4 $5 $6 $7 $8 $9 X,Y pos of 4 corners*
0 Add a 4 corners polygon primitive as box body*
4,1,4,$2,$3,$4,$5,$6,$7,$8,$9,$2,$3,0*
0 Add four circle primitives for the rounded corners*
1,1,$1+$1,$2,$3*
1,1,$1+$1,$4,$5*
1,1,$1+$1,$6,$7*
1,1,$1+$1,$8,$9*
0 Add four rect primitives between the rounded corners*
20,1,$1+$1,$2,$3,$4,$5,0*
20,1,$1+$1,$4,$5,$6,$7,0*
20,1,$1+$1,$6,$7,$8,$9,0*
20,1,$1+$1,$8,$9,$2,$3,0*%
G04 Aperture macros list end*
%ADD10R,0.550000X1.600000*%
%ADD11R,1.600000X0.550000*%
%ADD12RoundRect,0.250000X-0.450000X0.262500X-0.450000X-0.262500X0.450000X-0.262500X0.450000X0.262500X0*%
%ADD13RoundRect,0.250000X-0.250000X-0.475000X0.250000X-0.475000X0.250000X0.475000X-0.250000X0.475000X0*%
%ADD14R,2.000000X1.500000*%
%ADD15R,2.000000X3.800000*%
%ADD16RoundRect,0.250000X-0.262500X-0.450000X0.262500X-0.450000X0.262500X0.450000X-0.262500X0.450000X0*%
%ADD17RoundRect,0.250000X0.262500X0.450000X-0.262500X0.450000X-0.262500X-0.450000X0.262500X-0.450000X0*%
%ADD18RoundRect,0.250000X-0.475000X0.250000X-0.475000X-0.250000X0.475000X-0.250000X0.475000X0.250000X0*%
%ADD19RoundRect,0.225000X-0.225000X-0.375000X0.225000X-0.375000X0.225000X0.375000X-0.225000X0.375000X0*%
%ADD20R,1.900000X1.300000*%
%ADD21R,1.200000X1.000000*%
%ADD22R,2.800000X1.000000*%
%ADD23R,0.800000X1.000000*%
%ADD24R,1.200000X0.700000*%
%ADD25RoundRect,0.250000X0.450000X-0.262500X0.450000X0.262500X-0.450000X0.262500X-0.450000X-0.262500X0*%
G04 APERTURE END LIST*
D10*
%TO.C,U4*%
X49270000Y-36900000D03*
X50070000Y-36900000D03*
X50870000Y-36900000D03*
X51670000Y-36900000D03*
X52470000Y-36900000D03*
X53270000Y-36900000D03*
X54070000Y-36900000D03*
X54870000Y-36900000D03*
D11*
X56320000Y-38350000D03*
X56320000Y-39150000D03*
X56320000Y-39950000D03*
X56320000Y-40750000D03*
X56320000Y-41550000D03*
X56320000Y-42350000D03*
X56320000Y-43150000D03*
X56320000Y-43950000D03*
D10*
X54870000Y-45400000D03*
X54070000Y-45400000D03*
X53270000Y-45400000D03*
X52470000Y-45400000D03*
X51670000Y-45400000D03*
X50870000Y-45400000D03*
X50070000Y-45400000D03*
X49270000Y-45400000D03*
D11*
X47820000Y-43950000D03*
X47820000Y-43150000D03*
X47820000Y-42350000D03*
X47820000Y-41550000D03*
X47820000Y-40750000D03*
X47820000Y-39950000D03*
X47820000Y-39150000D03*
X47820000Y-38350000D03*
%TD*%
D12*
%TO.C,R15*%
X71755000Y-69492500D03*
X71755000Y-67667500D03*
%TD*%
D13*
%TO.C,C6*%
X43415000Y-36830000D03*
X41515000Y-36830000D03*
%TD*%
D12*
%TO.C,R14*%
X74930000Y-69492500D03*
X74930000Y-67667500D03*
%TD*%
D14*
%TO.C,U2*%
X48920000Y-59450000D03*
D15*
X55220000Y-57150000D03*
D14*
X48920000Y-57150000D03*
X48920000Y-54850000D03*
%TD*%
D16*
%TO.C,R7*%
X78382500Y-46690000D03*
X76557500Y-46690000D03*
%TD*%
D17*
%TO.C,R12*%
X76557500Y-56850000D03*
X78382500Y-56850000D03*
%TD*%
D18*
%TO.C,C5*%
X85725000Y-53255000D03*
X85725000Y-51355000D03*
%TD*%
D17*
%TO.C,R16*%
X78142500Y-80010000D03*
X79967500Y-80010000D03*
%TD*%
D12*
%TO.C,R1*%
X34925000Y-35202500D03*
X34925000Y-33377500D03*
%TD*%
D16*
%TO.C,R13*%
X78382500Y-34290000D03*
X76557500Y-34290000D03*
%TD*%
D13*
%TO.C,C7*%
X43415000Y-52070000D03*
X41515000Y-52070000D03*
%TD*%
D17*
%TO.C,R11*%
X76557500Y-44150000D03*
X78382500Y-44150000D03*
%TD*%
D19*
%TO.C,D1*%
X81420000Y-77470000D03*
X78120000Y-77470000D03*
%TD*%
D12*
%TO.C,R2*%
X37249100Y-35202500D03*
X37249100Y-33377500D03*
%TD*%
D14*
%TO.C,U1*%
X30505000Y-53354000D03*
D15*
X36805000Y-51054000D03*
D14*
X30505000Y-51054000D03*
X30505000Y-48754000D03*
%TD*%
D16*
%TO.C,R8*%
X78382500Y-54310000D03*
X76557500Y-54310000D03*
%TD*%
D12*
%TO.C,R5*%
X68290000Y-69492500D03*
X68290000Y-67667500D03*
%TD*%
%TO.C,R4*%
X58130000Y-69492500D03*
X58130000Y-67667500D03*
%TD*%
D13*
%TO.C,C4*%
X60640000Y-43180000D03*
X58740000Y-43180000D03*
%TD*%
D12*
%TO.C,R3*%
X48260000Y-69492500D03*
X48260000Y-67667500D03*
%TD*%
D16*
%TO.C,R6*%
X78382500Y-51770000D03*
X76557500Y-51770000D03*
%TD*%
D17*
%TO.C,R10*%
X76557500Y-49230000D03*
X78382500Y-49230000D03*
%TD*%
D20*
%TO.C,J2*%
X103970000Y-44155000D03*
D21*
X88870000Y-46505000D03*
D22*
X103520000Y-57655000D03*
D21*
X93170000Y-57655000D03*
D23*
X99370000Y-57655000D03*
D24*
X88870000Y-56705000D03*
X88870000Y-55755000D03*
X88870000Y-54655000D03*
X88870000Y-53555000D03*
X88870000Y-52455000D03*
X88870000Y-51355000D03*
X88870000Y-50255000D03*
X88870000Y-49155000D03*
X88870000Y-48055000D03*
%TD*%
D25*
%TO.C,R9*%
X61722000Y-37441500D03*
X61722000Y-39266500D03*
%TD*%
M02*
