%TF.GenerationSoftware,KiCad,Pcbnew,7.0.7-7.0.7~ubuntu22.04.1*%
%TF.CreationDate,2023-10-02T16:44:26+02:00*%
%TF.ProjectId,interrupter,696e7465-7272-4757-9074-65722e6b6963,rev?*%
%TF.SameCoordinates,Original*%
%TF.FileFunction,Soldermask,Top*%
%TF.FilePolarity,Negative*%
%FSLAX46Y46*%
G04 Gerber Fmt 4.6, Leading zero omitted, Abs format (unit mm)*
G04 Created by KiCad (PCBNEW 7.0.7-7.0.7~ubuntu22.04.1) date 2023-10-02 16:44:26*
%MOMM*%
%LPD*%
G01*
G04 APERTURE LIST*
G04 Aperture macros list*
%AMRoundRect*
0 Rectangle with rounded corners*
0 $1 Rounding radius*
0 $2 $3 $4 $5 $6 $7 $8 $9 X,Y pos of 4 corners*
0 Add a 4 corners polygon primitive as box body*
4,1,4,$2,$3,$4,$5,$6,$7,$8,$9,$2,$3,0*
0 Add four circle primitives for the rounded corners*
1,1,$1+$1,$2,$3*
1,1,$1+$1,$4,$5*
1,1,$1+$1,$6,$7*
1,1,$1+$1,$8,$9*
0 Add four rect primitives between the rounded corners*
20,1,$1+$1,$2,$3,$4,$5,0*
20,1,$1+$1,$4,$5,$6,$7,0*
20,1,$1+$1,$6,$7,$8,$9,0*
20,1,$1+$1,$8,$9,$2,$3,0*%
G04 Aperture macros list end*
%ADD10C,3.000000*%
%ADD11R,1.800000X2.600000*%
%ADD12O,1.800000X2.600000*%
%ADD13C,1.500000*%
%ADD14O,1.600000X1.600000*%
%ADD15R,1.600000X1.600000*%
%ADD16R,0.550000X1.600000*%
%ADD17R,1.600000X0.550000*%
%ADD18R,1.208000X1.208000*%
%ADD19C,1.600000*%
%ADD20C,3.200000*%
%ADD21R,2.000000X1.500000*%
%ADD22R,2.000000X3.800000*%
%ADD23C,2.000000*%
%ADD24O,2.200000X3.500000*%
%ADD25R,1.500000X2.500000*%
%ADD26O,1.500000X2.500000*%
%ADD27O,3.500000X2.200000*%
%ADD28R,2.500000X1.500000*%
%ADD29O,2.500000X1.500000*%
%ADD30RoundRect,0.250000X0.262500X0.450000X-0.262500X0.450000X-0.262500X-0.450000X0.262500X-0.450000X0*%
%ADD31RoundRect,0.250000X-0.450000X0.262500X-0.450000X-0.262500X0.450000X-0.262500X0.450000X0.262500X0*%
%ADD32RoundRect,0.250000X-0.262500X-0.450000X0.262500X-0.450000X0.262500X0.450000X-0.262500X0.450000X0*%
%ADD33RoundRect,0.250000X0.450000X-0.262500X0.450000X0.262500X-0.450000X0.262500X-0.450000X-0.262500X0*%
%ADD34C,2.500000*%
%ADD35R,1.700000X1.700000*%
%ADD36O,1.700000X1.700000*%
%ADD37R,1.200000X1.000000*%
%ADD38R,1.900000X1.300000*%
%ADD39R,2.800000X1.000000*%
%ADD40R,0.800000X1.000000*%
%ADD41R,1.200000X0.700000*%
%ADD42RoundRect,0.875000X-0.875000X-0.875000X0.875000X-0.875000X0.875000X0.875000X-0.875000X0.875000X0*%
%ADD43RoundRect,0.750000X-0.750000X-1.000000X0.750000X-1.000000X0.750000X1.000000X-0.750000X1.000000X0*%
%ADD44R,3.500000X3.500000*%
%ADD45RoundRect,0.225000X-0.225000X-0.375000X0.225000X-0.375000X0.225000X0.375000X-0.225000X0.375000X0*%
%ADD46RoundRect,0.250000X-0.250000X-0.475000X0.250000X-0.475000X0.250000X0.475000X-0.250000X0.475000X0*%
%ADD47RoundRect,0.250000X-0.475000X0.250000X-0.475000X-0.250000X0.475000X-0.250000X0.475000X0.250000X0*%
%ADD48R,1.200000X1.200000*%
%ADD49C,1.200000*%
G04 APERTURE END LIST*
%TO.C,G\u002A\u002A\u002A*%
G36*
X28515354Y-78286272D02*
G01*
X28590171Y-78359980D01*
X28620052Y-78405853D01*
X28679185Y-78502914D01*
X28767815Y-78651585D01*
X28886190Y-78852288D01*
X29034553Y-79105446D01*
X29213150Y-79411482D01*
X29422227Y-79770818D01*
X29662029Y-80183876D01*
X29932802Y-80651079D01*
X30234792Y-81172849D01*
X30568242Y-81749608D01*
X30933400Y-82381780D01*
X31330510Y-83069786D01*
X31759818Y-83814049D01*
X31825575Y-83928083D01*
X32013875Y-84255263D01*
X32171333Y-84530914D01*
X32300140Y-84759929D01*
X32402490Y-84947198D01*
X32480575Y-85097612D01*
X32536587Y-85216063D01*
X32572720Y-85307443D01*
X32591165Y-85376641D01*
X32594116Y-85428550D01*
X32583764Y-85468062D01*
X32562304Y-85500066D01*
X32540154Y-85522160D01*
X32527614Y-85530153D01*
X32506343Y-85537324D01*
X32472952Y-85543716D01*
X32424054Y-85549374D01*
X32356261Y-85554343D01*
X32266186Y-85558665D01*
X32150441Y-85562386D01*
X32005637Y-85565550D01*
X31828389Y-85568200D01*
X31615307Y-85570382D01*
X31363005Y-85572139D01*
X31068095Y-85573515D01*
X30727188Y-85574556D01*
X30336897Y-85575303D01*
X29893835Y-85575803D01*
X29394615Y-85576100D01*
X28835847Y-85576237D01*
X28393612Y-85576261D01*
X27791876Y-85576231D01*
X27252106Y-85576109D01*
X26770889Y-85575845D01*
X26344811Y-85575390D01*
X25970458Y-85574695D01*
X25644416Y-85573710D01*
X25363273Y-85572386D01*
X25123615Y-85570674D01*
X24922027Y-85568525D01*
X24755097Y-85565889D01*
X24619411Y-85562717D01*
X24511555Y-85558960D01*
X24428116Y-85554568D01*
X24365680Y-85549493D01*
X24320833Y-85543684D01*
X24290163Y-85537093D01*
X24270255Y-85529670D01*
X24257695Y-85521367D01*
X24252750Y-85516480D01*
X24211788Y-85438863D01*
X24198649Y-85363862D01*
X24215812Y-85308712D01*
X24267205Y-85198226D01*
X24317023Y-85101737D01*
X24852445Y-85101737D01*
X24884435Y-85103999D01*
X24977602Y-85106171D01*
X25127746Y-85108235D01*
X25330665Y-85110169D01*
X25582157Y-85111954D01*
X25878020Y-85113571D01*
X26214054Y-85114998D01*
X26586056Y-85116217D01*
X26989824Y-85117206D01*
X27421158Y-85117947D01*
X27875855Y-85118419D01*
X28349714Y-85118602D01*
X28399292Y-85118603D01*
X28874881Y-85118452D01*
X29331739Y-85118011D01*
X29765666Y-85117300D01*
X30172458Y-85116340D01*
X30547916Y-85115149D01*
X30887836Y-85113749D01*
X31188018Y-85112158D01*
X31444260Y-85110398D01*
X31652361Y-85108486D01*
X31808117Y-85106445D01*
X31907329Y-85104292D01*
X31945795Y-85102049D01*
X31946139Y-85101815D01*
X31930113Y-85068008D01*
X31883758Y-84982749D01*
X31809655Y-84850463D01*
X31710387Y-84675576D01*
X31588538Y-84462512D01*
X31446688Y-84215697D01*
X31287421Y-83939556D01*
X31113319Y-83638514D01*
X30926964Y-83316997D01*
X30730939Y-82979429D01*
X30527827Y-82630236D01*
X30320210Y-82273844D01*
X30110670Y-81914676D01*
X29901791Y-81557159D01*
X29696153Y-81205718D01*
X29496340Y-80864778D01*
X29304935Y-80538764D01*
X29124519Y-80232101D01*
X28957676Y-79949215D01*
X28806987Y-79694531D01*
X28675036Y-79472474D01*
X28564404Y-79287469D01*
X28477674Y-79143942D01*
X28417428Y-79046317D01*
X28386250Y-78999020D01*
X28382451Y-78995220D01*
X28362689Y-79026980D01*
X28313014Y-79110685D01*
X28236009Y-79241869D01*
X28134255Y-79416064D01*
X28010336Y-79628803D01*
X27866833Y-79875620D01*
X27706329Y-80152047D01*
X27531405Y-80453617D01*
X27344645Y-80775864D01*
X27148630Y-81114320D01*
X26945943Y-81464517D01*
X26739166Y-81821990D01*
X26530881Y-82182271D01*
X26323670Y-82540893D01*
X26120116Y-82893390D01*
X25922802Y-83235293D01*
X25734308Y-83562135D01*
X25557218Y-83869451D01*
X25394115Y-84152773D01*
X25247579Y-84407633D01*
X25120193Y-84629565D01*
X25014541Y-84814102D01*
X24933203Y-84956777D01*
X24878762Y-85053122D01*
X24853801Y-85098671D01*
X24852445Y-85101737D01*
X24317023Y-85101737D01*
X24352676Y-85032682D01*
X24472078Y-84812356D01*
X24625260Y-84537524D01*
X24812074Y-84208464D01*
X24973106Y-83928083D01*
X25392172Y-83201565D01*
X25779357Y-82530654D01*
X26135303Y-81914246D01*
X26460653Y-81351234D01*
X26756051Y-80840509D01*
X27022139Y-80380967D01*
X27259561Y-79971500D01*
X27468959Y-79611001D01*
X27650976Y-79298364D01*
X27806256Y-79032482D01*
X27935442Y-78812247D01*
X28039176Y-78636555D01*
X28118101Y-78504297D01*
X28172861Y-78414367D01*
X28204098Y-78365658D01*
X28208165Y-78359980D01*
X28305113Y-78272782D01*
X28410802Y-78248214D01*
X28515354Y-78286272D01*
G37*
G36*
X34912741Y-83811192D02*
G01*
X35136075Y-83814273D01*
X35305667Y-83824983D01*
X35432955Y-83845858D01*
X35529380Y-83879431D01*
X35606378Y-83928237D01*
X35658293Y-83976399D01*
X35716363Y-84047095D01*
X35745141Y-84119344D01*
X35754198Y-84221078D01*
X35754504Y-84257151D01*
X35750311Y-84366881D01*
X35730663Y-84438194D01*
X35684954Y-84497875D01*
X35644012Y-84536204D01*
X35533521Y-84634929D01*
X35652185Y-84925067D01*
X35703244Y-85051715D01*
X35743287Y-85154477D01*
X35766865Y-85219183D01*
X35770849Y-85233659D01*
X35740838Y-85241248D01*
X35661321Y-85244718D01*
X35548079Y-85243506D01*
X35520454Y-85242565D01*
X35270058Y-85233018D01*
X35169768Y-84963327D01*
X35113198Y-84822183D01*
X35067874Y-84736353D01*
X35029056Y-84697757D01*
X35011541Y-84693636D01*
X34983177Y-84700946D01*
X34965834Y-84731200D01*
X34956910Y-84796882D01*
X34953802Y-84910475D01*
X34953603Y-84971499D01*
X34953603Y-85249363D01*
X34724775Y-85249363D01*
X34495946Y-85249363D01*
X34495946Y-84530186D01*
X34495946Y-84370319D01*
X34953603Y-84370319D01*
X35108880Y-84360356D01*
X35204735Y-84349958D01*
X35253355Y-84328478D01*
X35272866Y-84286325D01*
X35275189Y-84272365D01*
X35266776Y-84198160D01*
X35211224Y-84155168D01*
X35101804Y-84138859D01*
X35076190Y-84138409D01*
X34995952Y-84142184D01*
X34961609Y-84166639D01*
X34953721Y-84230125D01*
X34953603Y-84254114D01*
X34953603Y-84370319D01*
X34495946Y-84370319D01*
X34495946Y-83811010D01*
X34912741Y-83811192D01*
G37*
G36*
X36391956Y-84311164D02*
G01*
X36394215Y-84534833D01*
X36401162Y-84696768D01*
X36413051Y-84800465D01*
X36430135Y-84849420D01*
X36431184Y-84850547D01*
X36502111Y-84884998D01*
X36593967Y-84888661D01*
X36677362Y-84863996D01*
X36717704Y-84826544D01*
X36730056Y-84771528D01*
X36740321Y-84664247D01*
X36747679Y-84517804D01*
X36751306Y-84345303D01*
X36751544Y-84287162D01*
X36751544Y-83811010D01*
X36931338Y-83811010D01*
X37111132Y-83811010D01*
X37111082Y-84342220D01*
X37108825Y-84575757D01*
X37100373Y-84754385D01*
X37083121Y-84888474D01*
X37054469Y-84988396D01*
X37011815Y-85064523D01*
X36952556Y-85127225D01*
X36904614Y-85165172D01*
X36795526Y-85214530D01*
X36646788Y-85242130D01*
X36480600Y-85247411D01*
X36319160Y-85229814D01*
X36184668Y-85188777D01*
X36174049Y-85183613D01*
X36094107Y-85137319D01*
X36034011Y-85084208D01*
X35990993Y-85014695D01*
X35962282Y-84919195D01*
X35945111Y-84788125D01*
X35936712Y-84611899D01*
X35934315Y-84380933D01*
X35934298Y-84353624D01*
X35934298Y-83811010D01*
X36163127Y-83811010D01*
X36391956Y-83811010D01*
X36391956Y-84311164D01*
G37*
G36*
X37525888Y-83817689D02*
G01*
X37744505Y-83827355D01*
X37950856Y-84152195D01*
X38157207Y-84477036D01*
X38157207Y-84144023D01*
X38157207Y-83811010D01*
X38337001Y-83811010D01*
X38516795Y-83811010D01*
X38516795Y-84530186D01*
X38516795Y-85249363D01*
X38340174Y-85249363D01*
X38163554Y-85249363D01*
X37958954Y-84914292D01*
X37875775Y-84778498D01*
X37802467Y-84659610D01*
X37747196Y-84570817D01*
X37718780Y-84526277D01*
X37702990Y-84519353D01*
X37692258Y-84557782D01*
X37685929Y-84647594D01*
X37683347Y-84794818D01*
X37683204Y-84853175D01*
X37683204Y-85233018D01*
X37495238Y-85242822D01*
X37307271Y-85252625D01*
X37307271Y-84530324D01*
X37307271Y-83808023D01*
X37525888Y-83817689D01*
G37*
G36*
X36328769Y-81213415D02*
G01*
X36414518Y-81220723D01*
X36471235Y-81239450D01*
X36517094Y-81274949D01*
X36558087Y-81318926D01*
X36636186Y-81447737D01*
X36651439Y-81582810D01*
X36604735Y-81715832D01*
X36503149Y-81833275D01*
X36452882Y-81884004D01*
X36450154Y-81924128D01*
X36474055Y-81961290D01*
X36505899Y-81996439D01*
X36529747Y-81990020D01*
X36558978Y-81933787D01*
X36573235Y-81900144D01*
X36610444Y-81821958D01*
X36649244Y-81790551D01*
X36713806Y-81791347D01*
X36745456Y-81796287D01*
X36841530Y-81809788D01*
X36917000Y-81816440D01*
X36923166Y-81816570D01*
X36965209Y-81841717D01*
X36974097Y-81907062D01*
X36953220Y-81998593D01*
X36905968Y-82102293D01*
X36835730Y-82204151D01*
X36826940Y-82214420D01*
X36797962Y-82258332D01*
X36822877Y-82281841D01*
X36843841Y-82289101D01*
X36918484Y-82302007D01*
X36952470Y-82300234D01*
X36980408Y-82313648D01*
X36994118Y-82375374D01*
X36996718Y-82454382D01*
X36996718Y-82617831D01*
X36843147Y-82627725D01*
X36699002Y-82620111D01*
X36589801Y-82586023D01*
X36513677Y-82553803D01*
X36453661Y-82557239D01*
X36393579Y-82584302D01*
X36289603Y-82615717D01*
X36148256Y-82630592D01*
X35995458Y-82628779D01*
X35857128Y-82610135D01*
X35784422Y-82587710D01*
X35657467Y-82500329D01*
X35562329Y-82372858D01*
X35525308Y-82272917D01*
X35528019Y-82182072D01*
X35968161Y-82182072D01*
X35980979Y-82252565D01*
X36007851Y-82285628D01*
X36078910Y-82301739D01*
X36156312Y-82303144D01*
X36213931Y-82291087D01*
X36228507Y-82275104D01*
X36207348Y-82224344D01*
X36155922Y-82160272D01*
X36092308Y-82100380D01*
X36034582Y-82062162D01*
X36004999Y-82058815D01*
X35976037Y-82107081D01*
X35968161Y-82182072D01*
X35528019Y-82182072D01*
X35528847Y-82154312D01*
X35579153Y-82027216D01*
X35665301Y-81913895D01*
X35725814Y-81864294D01*
X35790291Y-81815915D01*
X35806405Y-81779415D01*
X35783022Y-81735027D01*
X35739639Y-81624616D01*
X35743479Y-81528248D01*
X36139121Y-81528248D01*
X36154884Y-81592795D01*
X36164376Y-81605951D01*
X36219800Y-81643791D01*
X36261904Y-81622413D01*
X36277542Y-81553135D01*
X36255900Y-81484076D01*
X36220236Y-81463546D01*
X36164056Y-81477129D01*
X36139121Y-81528248D01*
X35743479Y-81528248D01*
X35744787Y-81495434D01*
X35795807Y-81369382D01*
X35833547Y-81318926D01*
X35883784Y-81266188D01*
X35930369Y-81234499D01*
X35991474Y-81218504D01*
X36085273Y-81212848D01*
X36195817Y-81212168D01*
X36328769Y-81213415D01*
G37*
G36*
X34193565Y-78587090D02*
G01*
X34375338Y-78596236D01*
X34507334Y-78609360D01*
X34605137Y-78629011D01*
X34684336Y-78657735D01*
X34713849Y-78672104D01*
X34864185Y-78783916D01*
X34973978Y-78934422D01*
X35042125Y-79110633D01*
X35067528Y-79299563D01*
X35049086Y-79488224D01*
X34985697Y-79663629D01*
X34876261Y-79812789D01*
X34814973Y-79865477D01*
X34709542Y-79932640D01*
X34596439Y-79977887D01*
X34459898Y-80004844D01*
X34284158Y-80017139D01*
X34147824Y-80018989D01*
X33809459Y-80018989D01*
X33809459Y-79295784D01*
X33809459Y-78940225D01*
X34267117Y-78940225D01*
X34267117Y-79299813D01*
X34267117Y-79659401D01*
X34348842Y-79659401D01*
X34434147Y-79636640D01*
X34494122Y-79595845D01*
X34560289Y-79494249D01*
X34590179Y-79370348D01*
X34587133Y-79239221D01*
X34554491Y-79115942D01*
X34495594Y-79015589D01*
X34413784Y-78953237D01*
X34348842Y-78940225D01*
X34267117Y-78940225D01*
X33809459Y-78940225D01*
X33809459Y-78572579D01*
X34193565Y-78587090D01*
G37*
G36*
X35866948Y-78587481D02*
G01*
X36084900Y-78609563D01*
X36249571Y-78655103D01*
X36365621Y-78726399D01*
X36437712Y-78825754D01*
X36470502Y-78955468D01*
X36473681Y-79022280D01*
X36468298Y-79134100D01*
X36444671Y-79210757D01*
X36391576Y-79282089D01*
X36365631Y-79309592D01*
X36257581Y-79421071D01*
X36373803Y-79701835D01*
X36424549Y-79826401D01*
X36464063Y-79927156D01*
X36486743Y-79989628D01*
X36490026Y-80002169D01*
X36460020Y-80010295D01*
X36380535Y-80014154D01*
X36267371Y-80013110D01*
X36240363Y-80012192D01*
X35990700Y-80002645D01*
X35894358Y-79749298D01*
X35840111Y-79616671D01*
X35796828Y-79537217D01*
X35758292Y-79501025D01*
X35735398Y-79495952D01*
X35704135Y-79502114D01*
X35685392Y-79529305D01*
X35676043Y-79590588D01*
X35672959Y-79699023D01*
X35672780Y-79757471D01*
X35672780Y-80018989D01*
X35443313Y-80018989D01*
X35213847Y-80018989D01*
X35222657Y-79307986D01*
X35225999Y-79038294D01*
X35672780Y-79038294D01*
X35677340Y-79122635D01*
X35698443Y-79160114D01*
X35747227Y-79169027D01*
X35752376Y-79169054D01*
X35846407Y-79156976D01*
X35915825Y-79137173D01*
X35984307Y-79087026D01*
X35999678Y-79026256D01*
X35982530Y-78959353D01*
X35924416Y-78921752D01*
X35815331Y-78907933D01*
X35784521Y-78907535D01*
X35712968Y-78911658D01*
X35681168Y-78936585D01*
X35673022Y-79001156D01*
X35672780Y-79038294D01*
X35225999Y-79038294D01*
X35231467Y-78596982D01*
X35591055Y-78586555D01*
X35866948Y-78587481D01*
G37*
G36*
X37512000Y-78617711D02*
G01*
X37593316Y-78649977D01*
X37741412Y-78755195D01*
X37849407Y-78899993D01*
X37917197Y-79072231D01*
X37944672Y-79259769D01*
X37931727Y-79450465D01*
X37878254Y-79632180D01*
X37784147Y-79792772D01*
X37649298Y-79920101D01*
X37604752Y-79947843D01*
X37457571Y-80000576D01*
X37281269Y-80019730D01*
X37102929Y-80005124D01*
X36949635Y-79956576D01*
X36941265Y-79952284D01*
X36791465Y-79837757D01*
X36679742Y-79678650D01*
X36611644Y-79487094D01*
X36594341Y-79293389D01*
X37094787Y-79293389D01*
X37097971Y-79435292D01*
X37109629Y-79528787D01*
X37132927Y-79590630D01*
X37157061Y-79623187D01*
X37240529Y-79682926D01*
X37320892Y-79678121D01*
X37392561Y-79609513D01*
X37430367Y-79511007D01*
X37449785Y-79375420D01*
X37450658Y-79227699D01*
X37432829Y-79092788D01*
X37396415Y-78996048D01*
X37333163Y-78925338D01*
X37266505Y-78914460D01*
X37182338Y-78961778D01*
X37171961Y-78970015D01*
X37132924Y-79008119D01*
X37109768Y-79055474D01*
X37098450Y-79129019D01*
X37094928Y-79245693D01*
X37094787Y-79293389D01*
X36594341Y-79293389D01*
X36592718Y-79275223D01*
X36598297Y-79202163D01*
X36635311Y-79037497D01*
X36700811Y-78881811D01*
X36783633Y-78760044D01*
X36806469Y-78737160D01*
X36952123Y-78645752D01*
X37131531Y-78593904D01*
X37324791Y-78583822D01*
X37512000Y-78617711D01*
G37*
G36*
X38672196Y-78585612D02*
G01*
X38856470Y-78602174D01*
X38996563Y-78632774D01*
X39102755Y-78679866D01*
X39185323Y-78745900D01*
X39202040Y-78764011D01*
X39263758Y-78845847D01*
X39293239Y-78926714D01*
X39301306Y-79037929D01*
X39301351Y-79051368D01*
X39276858Y-79221492D01*
X39202853Y-79350219D01*
X39078550Y-79438182D01*
X38903161Y-79486011D01*
X38746674Y-79495952D01*
X38549485Y-79495952D01*
X38549485Y-79757471D01*
X38549485Y-80018989D01*
X38320656Y-80018989D01*
X38091827Y-80018989D01*
X38091827Y-79299813D01*
X38091827Y-78936466D01*
X38549485Y-78936466D01*
X38549485Y-79054639D01*
X38549485Y-79172813D01*
X38688417Y-79162761D01*
X38775730Y-79152678D01*
X38815851Y-79129927D01*
X38826955Y-79080365D01*
X38827349Y-79054639D01*
X38822014Y-78992621D01*
X38793896Y-78962265D01*
X38724821Y-78949430D01*
X38688417Y-78946518D01*
X38549485Y-78936466D01*
X38091827Y-78936466D01*
X38091827Y-78580637D01*
X38433462Y-78580637D01*
X38672196Y-78585612D01*
G37*
G36*
X29007507Y-84078380D02*
G01*
X29104821Y-84248099D01*
X29190542Y-84399755D01*
X29259339Y-84523743D01*
X29305883Y-84610456D01*
X29324844Y-84650289D01*
X29324846Y-84650295D01*
X29303553Y-84690637D01*
X29230050Y-84741345D01*
X29115457Y-84796535D01*
X28970892Y-84850324D01*
X28912224Y-84868636D01*
X28769791Y-84900621D01*
X28596184Y-84924902D01*
X28416903Y-84939225D01*
X28257448Y-84941336D01*
X28170463Y-84934216D01*
X28019197Y-84903994D01*
X27865418Y-84860950D01*
X27721580Y-84810160D01*
X27600135Y-84756696D01*
X27513536Y-84705635D01*
X27474236Y-84662051D01*
X27473738Y-84650295D01*
X27492686Y-84610484D01*
X27539219Y-84523789D01*
X27608008Y-84399816D01*
X27693722Y-84248170D01*
X27791033Y-84078457D01*
X27791077Y-84078380D01*
X28098177Y-83546370D01*
X28199700Y-83571439D01*
X28308505Y-83590156D01*
X28399292Y-83596508D01*
X28506681Y-83588071D01*
X28598884Y-83571439D01*
X28700407Y-83546370D01*
X29007507Y-84078380D01*
G37*
G36*
X28576248Y-82718916D02*
G01*
X28685515Y-82807140D01*
X28755164Y-82935757D01*
X28775103Y-83068466D01*
X28746679Y-83215632D01*
X28669871Y-83333293D01*
X28557842Y-83413584D01*
X28423758Y-83448639D01*
X28280784Y-83430593D01*
X28216009Y-83402488D01*
X28101428Y-83305264D01*
X28036644Y-83169008D01*
X28023359Y-83057168D01*
X28051719Y-82903016D01*
X28132501Y-82782340D01*
X28259257Y-82704121D01*
X28282328Y-82696458D01*
X28438230Y-82679288D01*
X28576248Y-82718916D01*
G37*
G36*
X27489551Y-81472073D02*
G01*
X27539565Y-81551839D01*
X27611138Y-81670661D01*
X27698915Y-81819635D01*
X27797543Y-81989858D01*
X27811155Y-82013557D01*
X28131406Y-82571735D01*
X28032270Y-82676507D01*
X27921601Y-82813319D01*
X27867256Y-82932375D01*
X27859910Y-82991615D01*
X27857772Y-83014300D01*
X27845806Y-83031237D01*
X27815681Y-83043264D01*
X27759066Y-83051221D01*
X27667631Y-83055948D01*
X27533046Y-83058284D01*
X27346981Y-83059068D01*
X27189768Y-83059144D01*
X26519627Y-83059144D01*
X26519627Y-82946339D01*
X26545261Y-82710417D01*
X26617608Y-82455152D01*
X26729833Y-82198711D01*
X26875104Y-81959266D01*
X26907533Y-81915000D01*
X26984359Y-81824667D01*
X27081870Y-81725665D01*
X27188379Y-81627920D01*
X27292202Y-81541357D01*
X27381651Y-81475903D01*
X27445042Y-81441482D01*
X27466449Y-81440266D01*
X27489551Y-81472073D01*
G37*
G36*
X29369526Y-81449553D02*
G01*
X29439667Y-81488777D01*
X29485682Y-81520163D01*
X29740196Y-81741938D01*
X29952385Y-82003875D01*
X30116145Y-82295571D01*
X30225374Y-82606622D01*
X30268678Y-82854832D01*
X30288412Y-83059144D01*
X29613543Y-83059144D01*
X29387524Y-83058931D01*
X29218583Y-83057740D01*
X29098418Y-83054739D01*
X29018730Y-83049097D01*
X28971215Y-83039985D01*
X28947574Y-83026571D01*
X28939504Y-83008025D01*
X28938674Y-82991615D01*
X28912941Y-82879056D01*
X28833051Y-82752706D01*
X28766314Y-82676507D01*
X28667178Y-82571735D01*
X28987429Y-82013557D01*
X29087058Y-81841218D01*
X29176500Y-81688972D01*
X29250411Y-81565713D01*
X29303449Y-81480339D01*
X29330270Y-81441744D01*
X29331577Y-81440611D01*
X29369526Y-81449553D01*
G37*
%TD*%
D10*
%TO.C,DS1*%
X26670000Y-30480000D03*
X101668580Y-61480700D03*
X101669100Y-30480000D03*
D11*
X32169100Y-30480000D03*
D12*
X34709100Y-30480000D03*
X37249100Y-30480000D03*
X39789100Y-30480000D03*
X42329100Y-30480000D03*
X44869100Y-30480000D03*
X47409100Y-30480000D03*
X49949100Y-30480000D03*
X52489100Y-30480000D03*
X55029100Y-30480000D03*
X57569100Y-30480000D03*
X60109100Y-30480000D03*
X62649100Y-30480000D03*
X65189100Y-30480000D03*
X67729100Y-30480000D03*
X70269100Y-30480000D03*
%TD*%
D13*
%TO.C,Y1*%
X41365000Y-46900000D03*
X41365000Y-42020000D03*
%TD*%
D14*
%TO.C,U5*%
X78120000Y-67300000D03*
X80660000Y-67300000D03*
X83200000Y-67300000D03*
X83200000Y-74920000D03*
X80660000Y-74920000D03*
D15*
X78120000Y-74920000D03*
%TD*%
D16*
%TO.C,U4*%
X49270000Y-36900000D03*
X50070000Y-36900000D03*
X50870000Y-36900000D03*
X51670000Y-36900000D03*
X52470000Y-36900000D03*
X53270000Y-36900000D03*
X54070000Y-36900000D03*
X54870000Y-36900000D03*
D17*
X56320000Y-38350000D03*
X56320000Y-39150000D03*
X56320000Y-39950000D03*
X56320000Y-40750000D03*
X56320000Y-41550000D03*
X56320000Y-42350000D03*
X56320000Y-43150000D03*
X56320000Y-43950000D03*
D16*
X54870000Y-45400000D03*
X54070000Y-45400000D03*
X53270000Y-45400000D03*
X52470000Y-45400000D03*
X51670000Y-45400000D03*
X50870000Y-45400000D03*
X50070000Y-45400000D03*
X49270000Y-45400000D03*
D17*
X47820000Y-43950000D03*
X47820000Y-43150000D03*
X47820000Y-42350000D03*
X47820000Y-41550000D03*
X47820000Y-40750000D03*
X47820000Y-39950000D03*
X47820000Y-39150000D03*
X47820000Y-38350000D03*
%TD*%
D18*
%TO.C,U3*%
X93442000Y-29718000D03*
X96042000Y-29718000D03*
D19*
X92342000Y-27218000D03*
X97342000Y-27218000D03*
D20*
X94842000Y-34818000D03*
%TD*%
D21*
%TO.C,U2*%
X48920000Y-54850000D03*
D22*
X55220000Y-57150000D03*
D21*
X48920000Y-57150000D03*
X48920000Y-59450000D03*
%TD*%
%TO.C,U1*%
X30505000Y-53354000D03*
X30505000Y-51054000D03*
D22*
X36805000Y-51054000D03*
D21*
X30505000Y-48754000D03*
%TD*%
D23*
%TO.C,SW5*%
X68290000Y-72950000D03*
X68290000Y-79450000D03*
X63790000Y-79450000D03*
X63790000Y-72950000D03*
%TD*%
%TO.C,SW4*%
X58130000Y-72950000D03*
X58130000Y-79450000D03*
X53630000Y-79450000D03*
X53630000Y-72950000D03*
%TD*%
%TO.C,SW3*%
X43760000Y-72950000D03*
X43760000Y-79450000D03*
X48260000Y-79450000D03*
X48260000Y-72950000D03*
%TD*%
D24*
%TO.C,SW2*%
X75332500Y-29210000D03*
X87432500Y-29210000D03*
D25*
X78382500Y-29210000D03*
D26*
X81382500Y-29210000D03*
X84382500Y-29210000D03*
%TD*%
D27*
%TO.C,SW1*%
X25400000Y-50290000D03*
X25400000Y-62390000D03*
D28*
X25400000Y-53340000D03*
D29*
X25400000Y-56340000D03*
X25400000Y-59340000D03*
%TD*%
D30*
%TO.C,R16*%
X78142500Y-80010000D03*
X79967500Y-80010000D03*
%TD*%
D31*
%TO.C,R15*%
X71755000Y-69492500D03*
X71755000Y-67667500D03*
%TD*%
%TO.C,R14*%
X74930000Y-67667500D03*
X74930000Y-69492500D03*
%TD*%
D32*
%TO.C,R13*%
X78382500Y-34290000D03*
X76557500Y-34290000D03*
%TD*%
D30*
%TO.C,R12*%
X76557500Y-56850000D03*
X78382500Y-56850000D03*
%TD*%
%TO.C,R11*%
X78382500Y-44150000D03*
X76557500Y-44150000D03*
%TD*%
%TO.C,R10*%
X78382500Y-49230000D03*
X76557500Y-49230000D03*
%TD*%
D33*
%TO.C,R9*%
X61722000Y-37441500D03*
X61722000Y-39266500D03*
%TD*%
D32*
%TO.C,R8*%
X78382500Y-54310000D03*
X76557500Y-54310000D03*
%TD*%
%TO.C,R7*%
X76557500Y-46690000D03*
X78382500Y-46690000D03*
%TD*%
%TO.C,R6*%
X76557500Y-51770000D03*
X78382500Y-51770000D03*
%TD*%
D31*
%TO.C,R5*%
X68290000Y-69492500D03*
X68290000Y-67667500D03*
%TD*%
%TO.C,R4*%
X58130000Y-69492500D03*
X58130000Y-67667500D03*
%TD*%
%TO.C,R3*%
X48260000Y-67667500D03*
X48260000Y-69492500D03*
%TD*%
%TO.C,R2*%
X37249100Y-35202500D03*
X37249100Y-33377500D03*
%TD*%
%TO.C,R1*%
X34925000Y-33377500D03*
X34925000Y-35202500D03*
%TD*%
D34*
%TO.C,J4*%
X102250000Y-81200000D03*
X102250000Y-71200000D03*
X89750000Y-81200000D03*
X92250000Y-68700000D03*
X92250000Y-76200000D03*
X89750000Y-71200000D03*
X92250000Y-83700000D03*
%TD*%
D35*
%TO.C,J3*%
X64750000Y-42700000D03*
D36*
X67290000Y-42700000D03*
X64750000Y-40160000D03*
X67290000Y-40160000D03*
X64750000Y-37620000D03*
X67290000Y-37620000D03*
%TD*%
D37*
%TO.C,J2*%
X93170000Y-57655000D03*
X88870000Y-46505000D03*
D38*
X103970000Y-44155000D03*
D39*
X103520000Y-57655000D03*
D40*
X99370000Y-57655000D03*
D41*
X88870000Y-56705000D03*
X88870000Y-55755000D03*
X88870000Y-54655000D03*
X88870000Y-53555000D03*
X88870000Y-52455000D03*
X88870000Y-51355000D03*
X88870000Y-50255000D03*
X88870000Y-49155000D03*
X88870000Y-48055000D03*
%TD*%
D42*
%TO.C,J1*%
X33400000Y-74227500D03*
D43*
X30400000Y-69527500D03*
D44*
X36400000Y-69527500D03*
%TD*%
D45*
%TO.C,D1*%
X81420000Y-77470000D03*
X78120000Y-77470000D03*
%TD*%
D46*
%TO.C,C7*%
X41515000Y-52070000D03*
X43415000Y-52070000D03*
%TD*%
%TO.C,C6*%
X41515000Y-36830000D03*
X43415000Y-36830000D03*
%TD*%
D47*
%TO.C,C5*%
X85725000Y-53255000D03*
X85725000Y-51355000D03*
%TD*%
D46*
%TO.C,C4*%
X60640000Y-43180000D03*
X58740000Y-43180000D03*
%TD*%
D48*
%TO.C,C3*%
X42672000Y-57150000D03*
D49*
X42672000Y-58650000D03*
%TD*%
D48*
%TO.C,C2*%
X36830000Y-56920000D03*
D49*
X36830000Y-58420000D03*
%TD*%
D48*
%TO.C,C1*%
X31750000Y-57150000D03*
D49*
X31750000Y-58650000D03*
%TD*%
M02*
