%TF.GenerationSoftware,KiCad,Pcbnew,7.0.7-7.0.7~ubuntu22.04.1*%
%TF.CreationDate,2023-10-02T16:44:00+02:00*%
%TF.ProjectId,interrupter,696e7465-7272-4757-9074-65722e6b6963,rev?*%
%TF.SameCoordinates,Original*%
%TF.FileFunction,Drillmap*%
%TF.FilePolarity,Positive*%
%FSLAX45Y45*%
G04 Gerber Fmt 4.5, Leading zero omitted, Abs format (unit mm)*
G04 Created by KiCad (PCBNEW 7.0.7-7.0.7~ubuntu22.04.1) date 2023-10-02 16:44:00*
%MOMM*%
%LPD*%
G01*
G04 APERTURE LIST*
%ADD10C,0.100000*%
%ADD11C,0.200000*%
%ADD12C,0.160000*%
%ADD13C,0.320000*%
G04 APERTURE END LIST*
D10*
X10604500Y-2794000D02*
G75*
G03*
X10350500Y-2540000I-254000J0D01*
G01*
X2413000Y-2540000D02*
G75*
G03*
X2159000Y-2794000I0J-254000D01*
G01*
X2159000Y-8572358D02*
G75*
G03*
X2413000Y-8826358I254000J0D01*
G01*
X2159000Y-2794000D02*
X2159000Y-8572358D01*
X2413000Y-2540000D02*
X10350500Y-2540000D01*
X10604500Y-8580858D02*
X10604500Y-2794000D01*
X10350500Y-8826500D02*
G75*
G03*
X10604500Y-8580858I0J254142D01*
G01*
X10350500Y-8826500D02*
X2413000Y-8826358D01*
D11*
D12*
X9154200Y-2641800D02*
X9314200Y-2801800D01*
X9314200Y-2641800D02*
X9154200Y-2801800D01*
X9654200Y-2641800D02*
X9814200Y-2801800D01*
X9814200Y-2641800D02*
X9654200Y-2801800D01*
D13*
X9644200Y-3481800D02*
G75*
G03*
X9644200Y-3481800I-160000J0D01*
G01*
D11*
X2414777Y-9142984D02*
X2414777Y-8942984D01*
X2414777Y-8942984D02*
X2462396Y-8942984D01*
X2462396Y-8942984D02*
X2490967Y-8952508D01*
X2490967Y-8952508D02*
X2510015Y-8971555D01*
X2510015Y-8971555D02*
X2519539Y-8990603D01*
X2519539Y-8990603D02*
X2529063Y-9028698D01*
X2529063Y-9028698D02*
X2529063Y-9057270D01*
X2529063Y-9057270D02*
X2519539Y-9095365D01*
X2519539Y-9095365D02*
X2510015Y-9114412D01*
X2510015Y-9114412D02*
X2490967Y-9133460D01*
X2490967Y-9133460D02*
X2462396Y-9142984D01*
X2462396Y-9142984D02*
X2414777Y-9142984D01*
X2614777Y-9142984D02*
X2614777Y-9009650D01*
X2614777Y-9047746D02*
X2624301Y-9028698D01*
X2624301Y-9028698D02*
X2633824Y-9019174D01*
X2633824Y-9019174D02*
X2652872Y-9009650D01*
X2652872Y-9009650D02*
X2671920Y-9009650D01*
X2738586Y-9142984D02*
X2738586Y-9009650D01*
X2738586Y-8942984D02*
X2729063Y-8952508D01*
X2729063Y-8952508D02*
X2738586Y-8962031D01*
X2738586Y-8962031D02*
X2748110Y-8952508D01*
X2748110Y-8952508D02*
X2738586Y-8942984D01*
X2738586Y-8942984D02*
X2738586Y-8962031D01*
X2862396Y-9142984D02*
X2843348Y-9133460D01*
X2843348Y-9133460D02*
X2833824Y-9114412D01*
X2833824Y-9114412D02*
X2833824Y-8942984D01*
X2967158Y-9142984D02*
X2948110Y-9133460D01*
X2948110Y-9133460D02*
X2938586Y-9114412D01*
X2938586Y-9114412D02*
X2938586Y-8942984D01*
X3195729Y-9142984D02*
X3195729Y-8942984D01*
X3195729Y-8942984D02*
X3262396Y-9085841D01*
X3262396Y-9085841D02*
X3329062Y-8942984D01*
X3329062Y-8942984D02*
X3329062Y-9142984D01*
X3510015Y-9142984D02*
X3510015Y-9038222D01*
X3510015Y-9038222D02*
X3500491Y-9019174D01*
X3500491Y-9019174D02*
X3481443Y-9009650D01*
X3481443Y-9009650D02*
X3443348Y-9009650D01*
X3443348Y-9009650D02*
X3424301Y-9019174D01*
X3510015Y-9133460D02*
X3490967Y-9142984D01*
X3490967Y-9142984D02*
X3443348Y-9142984D01*
X3443348Y-9142984D02*
X3424301Y-9133460D01*
X3424301Y-9133460D02*
X3414777Y-9114412D01*
X3414777Y-9114412D02*
X3414777Y-9095365D01*
X3414777Y-9095365D02*
X3424301Y-9076317D01*
X3424301Y-9076317D02*
X3443348Y-9066793D01*
X3443348Y-9066793D02*
X3490967Y-9066793D01*
X3490967Y-9066793D02*
X3510015Y-9057270D01*
X3605253Y-9009650D02*
X3605253Y-9209650D01*
X3605253Y-9019174D02*
X3624301Y-9009650D01*
X3624301Y-9009650D02*
X3662396Y-9009650D01*
X3662396Y-9009650D02*
X3681443Y-9019174D01*
X3681443Y-9019174D02*
X3690967Y-9028698D01*
X3690967Y-9028698D02*
X3700491Y-9047746D01*
X3700491Y-9047746D02*
X3700491Y-9104889D01*
X3700491Y-9104889D02*
X3690967Y-9123936D01*
X3690967Y-9123936D02*
X3681443Y-9133460D01*
X3681443Y-9133460D02*
X3662396Y-9142984D01*
X3662396Y-9142984D02*
X3624301Y-9142984D01*
X3624301Y-9142984D02*
X3605253Y-9133460D01*
X3786205Y-9123936D02*
X3795729Y-9133460D01*
X3795729Y-9133460D02*
X3786205Y-9142984D01*
X3786205Y-9142984D02*
X3776682Y-9133460D01*
X3776682Y-9133460D02*
X3786205Y-9123936D01*
X3786205Y-9123936D02*
X3786205Y-9142984D01*
X3786205Y-9019174D02*
X3795729Y-9028698D01*
X3795729Y-9028698D02*
X3786205Y-9038222D01*
X3786205Y-9038222D02*
X3776682Y-9028698D01*
X3776682Y-9028698D02*
X3786205Y-9019174D01*
X3786205Y-9019174D02*
X3786205Y-9038222D01*
D12*
X1994000Y-9391500D02*
X2154000Y-9551500D01*
X2154000Y-9391500D02*
X1994000Y-9551500D01*
D11*
X2519539Y-9562984D02*
X2405253Y-9562984D01*
X2462396Y-9562984D02*
X2462396Y-9362984D01*
X2462396Y-9362984D02*
X2443348Y-9391555D01*
X2443348Y-9391555D02*
X2424301Y-9410603D01*
X2424301Y-9410603D02*
X2405253Y-9420127D01*
X2605253Y-9543936D02*
X2614777Y-9553460D01*
X2614777Y-9553460D02*
X2605253Y-9562984D01*
X2605253Y-9562984D02*
X2595729Y-9553460D01*
X2595729Y-9553460D02*
X2605253Y-9543936D01*
X2605253Y-9543936D02*
X2605253Y-9562984D01*
X2786205Y-9362984D02*
X2748110Y-9362984D01*
X2748110Y-9362984D02*
X2729063Y-9372508D01*
X2729063Y-9372508D02*
X2719539Y-9382031D01*
X2719539Y-9382031D02*
X2700491Y-9410603D01*
X2700491Y-9410603D02*
X2690967Y-9448698D01*
X2690967Y-9448698D02*
X2690967Y-9524889D01*
X2690967Y-9524889D02*
X2700491Y-9543936D01*
X2700491Y-9543936D02*
X2710015Y-9553460D01*
X2710015Y-9553460D02*
X2729063Y-9562984D01*
X2729063Y-9562984D02*
X2767158Y-9562984D01*
X2767158Y-9562984D02*
X2786205Y-9553460D01*
X2786205Y-9553460D02*
X2795729Y-9543936D01*
X2795729Y-9543936D02*
X2805253Y-9524889D01*
X2805253Y-9524889D02*
X2805253Y-9477270D01*
X2805253Y-9477270D02*
X2795729Y-9458222D01*
X2795729Y-9458222D02*
X2786205Y-9448698D01*
X2786205Y-9448698D02*
X2767158Y-9439174D01*
X2767158Y-9439174D02*
X2729063Y-9439174D01*
X2729063Y-9439174D02*
X2710015Y-9448698D01*
X2710015Y-9448698D02*
X2700491Y-9458222D01*
X2700491Y-9458222D02*
X2690967Y-9477270D01*
X2929062Y-9362984D02*
X2948110Y-9362984D01*
X2948110Y-9362984D02*
X2967158Y-9372508D01*
X2967158Y-9372508D02*
X2976682Y-9382031D01*
X2976682Y-9382031D02*
X2986205Y-9401079D01*
X2986205Y-9401079D02*
X2995729Y-9439174D01*
X2995729Y-9439174D02*
X2995729Y-9486793D01*
X2995729Y-9486793D02*
X2986205Y-9524889D01*
X2986205Y-9524889D02*
X2976682Y-9543936D01*
X2976682Y-9543936D02*
X2967158Y-9553460D01*
X2967158Y-9553460D02*
X2948110Y-9562984D01*
X2948110Y-9562984D02*
X2929062Y-9562984D01*
X2929062Y-9562984D02*
X2910015Y-9553460D01*
X2910015Y-9553460D02*
X2900491Y-9543936D01*
X2900491Y-9543936D02*
X2890967Y-9524889D01*
X2890967Y-9524889D02*
X2881443Y-9486793D01*
X2881443Y-9486793D02*
X2881443Y-9439174D01*
X2881443Y-9439174D02*
X2890967Y-9401079D01*
X2890967Y-9401079D02*
X2900491Y-9382031D01*
X2900491Y-9382031D02*
X2910015Y-9372508D01*
X2910015Y-9372508D02*
X2929062Y-9362984D01*
X3119539Y-9362984D02*
X3138586Y-9362984D01*
X3138586Y-9362984D02*
X3157634Y-9372508D01*
X3157634Y-9372508D02*
X3167158Y-9382031D01*
X3167158Y-9382031D02*
X3176682Y-9401079D01*
X3176682Y-9401079D02*
X3186205Y-9439174D01*
X3186205Y-9439174D02*
X3186205Y-9486793D01*
X3186205Y-9486793D02*
X3176682Y-9524889D01*
X3176682Y-9524889D02*
X3167158Y-9543936D01*
X3167158Y-9543936D02*
X3157634Y-9553460D01*
X3157634Y-9553460D02*
X3138586Y-9562984D01*
X3138586Y-9562984D02*
X3119539Y-9562984D01*
X3119539Y-9562984D02*
X3100491Y-9553460D01*
X3100491Y-9553460D02*
X3090967Y-9543936D01*
X3090967Y-9543936D02*
X3081443Y-9524889D01*
X3081443Y-9524889D02*
X3071920Y-9486793D01*
X3071920Y-9486793D02*
X3071920Y-9439174D01*
X3071920Y-9439174D02*
X3081443Y-9401079D01*
X3081443Y-9401079D02*
X3090967Y-9382031D01*
X3090967Y-9382031D02*
X3100491Y-9372508D01*
X3100491Y-9372508D02*
X3119539Y-9362984D01*
X3271920Y-9562984D02*
X3271920Y-9429650D01*
X3271920Y-9448698D02*
X3281443Y-9439174D01*
X3281443Y-9439174D02*
X3300491Y-9429650D01*
X3300491Y-9429650D02*
X3329063Y-9429650D01*
X3329063Y-9429650D02*
X3348110Y-9439174D01*
X3348110Y-9439174D02*
X3357634Y-9458222D01*
X3357634Y-9458222D02*
X3357634Y-9562984D01*
X3357634Y-9458222D02*
X3367158Y-9439174D01*
X3367158Y-9439174D02*
X3386205Y-9429650D01*
X3386205Y-9429650D02*
X3414777Y-9429650D01*
X3414777Y-9429650D02*
X3433824Y-9439174D01*
X3433824Y-9439174D02*
X3443348Y-9458222D01*
X3443348Y-9458222D02*
X3443348Y-9562984D01*
X3538586Y-9562984D02*
X3538586Y-9429650D01*
X3538586Y-9448698D02*
X3548110Y-9439174D01*
X3548110Y-9439174D02*
X3567158Y-9429650D01*
X3567158Y-9429650D02*
X3595729Y-9429650D01*
X3595729Y-9429650D02*
X3614777Y-9439174D01*
X3614777Y-9439174D02*
X3624301Y-9458222D01*
X3624301Y-9458222D02*
X3624301Y-9562984D01*
X3624301Y-9458222D02*
X3633824Y-9439174D01*
X3633824Y-9439174D02*
X3652872Y-9429650D01*
X3652872Y-9429650D02*
X3681443Y-9429650D01*
X3681443Y-9429650D02*
X3700491Y-9439174D01*
X3700491Y-9439174D02*
X3710015Y-9458222D01*
X3710015Y-9458222D02*
X3710015Y-9562984D01*
X4100491Y-9353460D02*
X3929063Y-9610603D01*
X4357634Y-9362984D02*
X4376682Y-9362984D01*
X4376682Y-9362984D02*
X4395729Y-9372508D01*
X4395729Y-9372508D02*
X4405253Y-9382031D01*
X4405253Y-9382031D02*
X4414777Y-9401079D01*
X4414777Y-9401079D02*
X4424301Y-9439174D01*
X4424301Y-9439174D02*
X4424301Y-9486793D01*
X4424301Y-9486793D02*
X4414777Y-9524889D01*
X4414777Y-9524889D02*
X4405253Y-9543936D01*
X4405253Y-9543936D02*
X4395729Y-9553460D01*
X4395729Y-9553460D02*
X4376682Y-9562984D01*
X4376682Y-9562984D02*
X4357634Y-9562984D01*
X4357634Y-9562984D02*
X4338587Y-9553460D01*
X4338587Y-9553460D02*
X4329063Y-9543936D01*
X4329063Y-9543936D02*
X4319539Y-9524889D01*
X4319539Y-9524889D02*
X4310015Y-9486793D01*
X4310015Y-9486793D02*
X4310015Y-9439174D01*
X4310015Y-9439174D02*
X4319539Y-9401079D01*
X4319539Y-9401079D02*
X4329063Y-9382031D01*
X4329063Y-9382031D02*
X4338587Y-9372508D01*
X4338587Y-9372508D02*
X4357634Y-9362984D01*
X4510015Y-9543936D02*
X4519539Y-9553460D01*
X4519539Y-9553460D02*
X4510015Y-9562984D01*
X4510015Y-9562984D02*
X4500491Y-9553460D01*
X4500491Y-9553460D02*
X4510015Y-9543936D01*
X4510015Y-9543936D02*
X4510015Y-9562984D01*
X4643348Y-9362984D02*
X4662396Y-9362984D01*
X4662396Y-9362984D02*
X4681444Y-9372508D01*
X4681444Y-9372508D02*
X4690968Y-9382031D01*
X4690968Y-9382031D02*
X4700491Y-9401079D01*
X4700491Y-9401079D02*
X4710015Y-9439174D01*
X4710015Y-9439174D02*
X4710015Y-9486793D01*
X4710015Y-9486793D02*
X4700491Y-9524889D01*
X4700491Y-9524889D02*
X4690968Y-9543936D01*
X4690968Y-9543936D02*
X4681444Y-9553460D01*
X4681444Y-9553460D02*
X4662396Y-9562984D01*
X4662396Y-9562984D02*
X4643348Y-9562984D01*
X4643348Y-9562984D02*
X4624301Y-9553460D01*
X4624301Y-9553460D02*
X4614777Y-9543936D01*
X4614777Y-9543936D02*
X4605253Y-9524889D01*
X4605253Y-9524889D02*
X4595729Y-9486793D01*
X4595729Y-9486793D02*
X4595729Y-9439174D01*
X4595729Y-9439174D02*
X4605253Y-9401079D01*
X4605253Y-9401079D02*
X4614777Y-9382031D01*
X4614777Y-9382031D02*
X4624301Y-9372508D01*
X4624301Y-9372508D02*
X4643348Y-9362984D01*
X4881444Y-9362984D02*
X4843348Y-9362984D01*
X4843348Y-9362984D02*
X4824301Y-9372508D01*
X4824301Y-9372508D02*
X4814777Y-9382031D01*
X4814777Y-9382031D02*
X4795729Y-9410603D01*
X4795729Y-9410603D02*
X4786206Y-9448698D01*
X4786206Y-9448698D02*
X4786206Y-9524889D01*
X4786206Y-9524889D02*
X4795729Y-9543936D01*
X4795729Y-9543936D02*
X4805253Y-9553460D01*
X4805253Y-9553460D02*
X4824301Y-9562984D01*
X4824301Y-9562984D02*
X4862396Y-9562984D01*
X4862396Y-9562984D02*
X4881444Y-9553460D01*
X4881444Y-9553460D02*
X4890968Y-9543936D01*
X4890968Y-9543936D02*
X4900491Y-9524889D01*
X4900491Y-9524889D02*
X4900491Y-9477270D01*
X4900491Y-9477270D02*
X4890968Y-9458222D01*
X4890968Y-9458222D02*
X4881444Y-9448698D01*
X4881444Y-9448698D02*
X4862396Y-9439174D01*
X4862396Y-9439174D02*
X4824301Y-9439174D01*
X4824301Y-9439174D02*
X4805253Y-9448698D01*
X4805253Y-9448698D02*
X4795729Y-9458222D01*
X4795729Y-9458222D02*
X4786206Y-9477270D01*
X4967158Y-9362984D02*
X5090968Y-9362984D01*
X5090968Y-9362984D02*
X5024301Y-9439174D01*
X5024301Y-9439174D02*
X5052872Y-9439174D01*
X5052872Y-9439174D02*
X5071920Y-9448698D01*
X5071920Y-9448698D02*
X5081444Y-9458222D01*
X5081444Y-9458222D02*
X5090968Y-9477270D01*
X5090968Y-9477270D02*
X5090968Y-9524889D01*
X5090968Y-9524889D02*
X5081444Y-9543936D01*
X5081444Y-9543936D02*
X5071920Y-9553460D01*
X5071920Y-9553460D02*
X5052872Y-9562984D01*
X5052872Y-9562984D02*
X4995729Y-9562984D01*
X4995729Y-9562984D02*
X4976682Y-9553460D01*
X4976682Y-9553460D02*
X4967158Y-9543936D01*
X5214777Y-9362984D02*
X5233825Y-9362984D01*
X5233825Y-9362984D02*
X5252872Y-9372508D01*
X5252872Y-9372508D02*
X5262396Y-9382031D01*
X5262396Y-9382031D02*
X5271920Y-9401079D01*
X5271920Y-9401079D02*
X5281444Y-9439174D01*
X5281444Y-9439174D02*
X5281444Y-9486793D01*
X5281444Y-9486793D02*
X5271920Y-9524889D01*
X5271920Y-9524889D02*
X5262396Y-9543936D01*
X5262396Y-9543936D02*
X5252872Y-9553460D01*
X5252872Y-9553460D02*
X5233825Y-9562984D01*
X5233825Y-9562984D02*
X5214777Y-9562984D01*
X5214777Y-9562984D02*
X5195729Y-9553460D01*
X5195729Y-9553460D02*
X5186206Y-9543936D01*
X5186206Y-9543936D02*
X5176682Y-9524889D01*
X5176682Y-9524889D02*
X5167158Y-9486793D01*
X5167158Y-9486793D02*
X5167158Y-9439174D01*
X5167158Y-9439174D02*
X5176682Y-9401079D01*
X5176682Y-9401079D02*
X5186206Y-9382031D01*
X5186206Y-9382031D02*
X5195729Y-9372508D01*
X5195729Y-9372508D02*
X5214777Y-9362984D01*
X5357634Y-9362984D02*
X5357634Y-9401079D01*
X5433825Y-9362984D02*
X5433825Y-9401079D01*
X5729063Y-9639174D02*
X5719539Y-9629650D01*
X5719539Y-9629650D02*
X5700491Y-9601079D01*
X5700491Y-9601079D02*
X5690968Y-9582031D01*
X5690968Y-9582031D02*
X5681444Y-9553460D01*
X5681444Y-9553460D02*
X5671920Y-9505841D01*
X5671920Y-9505841D02*
X5671920Y-9467746D01*
X5671920Y-9467746D02*
X5681444Y-9420127D01*
X5681444Y-9420127D02*
X5690968Y-9391555D01*
X5690968Y-9391555D02*
X5700491Y-9372508D01*
X5700491Y-9372508D02*
X5719539Y-9343936D01*
X5719539Y-9343936D02*
X5729063Y-9334412D01*
X5795729Y-9382031D02*
X5805253Y-9372508D01*
X5805253Y-9372508D02*
X5824301Y-9362984D01*
X5824301Y-9362984D02*
X5871920Y-9362984D01*
X5871920Y-9362984D02*
X5890968Y-9372508D01*
X5890968Y-9372508D02*
X5900491Y-9382031D01*
X5900491Y-9382031D02*
X5910015Y-9401079D01*
X5910015Y-9401079D02*
X5910015Y-9420127D01*
X5910015Y-9420127D02*
X5900491Y-9448698D01*
X5900491Y-9448698D02*
X5786206Y-9562984D01*
X5786206Y-9562984D02*
X5910015Y-9562984D01*
X6148110Y-9562984D02*
X6148110Y-9362984D01*
X6233825Y-9562984D02*
X6233825Y-9458222D01*
X6233825Y-9458222D02*
X6224301Y-9439174D01*
X6224301Y-9439174D02*
X6205253Y-9429650D01*
X6205253Y-9429650D02*
X6176682Y-9429650D01*
X6176682Y-9429650D02*
X6157634Y-9439174D01*
X6157634Y-9439174D02*
X6148110Y-9448698D01*
X6357634Y-9562984D02*
X6338587Y-9553460D01*
X6338587Y-9553460D02*
X6329063Y-9543936D01*
X6329063Y-9543936D02*
X6319539Y-9524889D01*
X6319539Y-9524889D02*
X6319539Y-9467746D01*
X6319539Y-9467746D02*
X6329063Y-9448698D01*
X6329063Y-9448698D02*
X6338587Y-9439174D01*
X6338587Y-9439174D02*
X6357634Y-9429650D01*
X6357634Y-9429650D02*
X6386206Y-9429650D01*
X6386206Y-9429650D02*
X6405253Y-9439174D01*
X6405253Y-9439174D02*
X6414777Y-9448698D01*
X6414777Y-9448698D02*
X6424301Y-9467746D01*
X6424301Y-9467746D02*
X6424301Y-9524889D01*
X6424301Y-9524889D02*
X6414777Y-9543936D01*
X6414777Y-9543936D02*
X6405253Y-9553460D01*
X6405253Y-9553460D02*
X6386206Y-9562984D01*
X6386206Y-9562984D02*
X6357634Y-9562984D01*
X6538587Y-9562984D02*
X6519539Y-9553460D01*
X6519539Y-9553460D02*
X6510015Y-9534412D01*
X6510015Y-9534412D02*
X6510015Y-9362984D01*
X6690968Y-9553460D02*
X6671920Y-9562984D01*
X6671920Y-9562984D02*
X6633825Y-9562984D01*
X6633825Y-9562984D02*
X6614777Y-9553460D01*
X6614777Y-9553460D02*
X6605253Y-9534412D01*
X6605253Y-9534412D02*
X6605253Y-9458222D01*
X6605253Y-9458222D02*
X6614777Y-9439174D01*
X6614777Y-9439174D02*
X6633825Y-9429650D01*
X6633825Y-9429650D02*
X6671920Y-9429650D01*
X6671920Y-9429650D02*
X6690968Y-9439174D01*
X6690968Y-9439174D02*
X6700491Y-9458222D01*
X6700491Y-9458222D02*
X6700491Y-9477270D01*
X6700491Y-9477270D02*
X6605253Y-9496317D01*
X6776682Y-9553460D02*
X6795730Y-9562984D01*
X6795730Y-9562984D02*
X6833825Y-9562984D01*
X6833825Y-9562984D02*
X6852872Y-9553460D01*
X6852872Y-9553460D02*
X6862396Y-9534412D01*
X6862396Y-9534412D02*
X6862396Y-9524889D01*
X6862396Y-9524889D02*
X6852872Y-9505841D01*
X6852872Y-9505841D02*
X6833825Y-9496317D01*
X6833825Y-9496317D02*
X6805253Y-9496317D01*
X6805253Y-9496317D02*
X6786206Y-9486793D01*
X6786206Y-9486793D02*
X6776682Y-9467746D01*
X6776682Y-9467746D02*
X6776682Y-9458222D01*
X6776682Y-9458222D02*
X6786206Y-9439174D01*
X6786206Y-9439174D02*
X6805253Y-9429650D01*
X6805253Y-9429650D02*
X6833825Y-9429650D01*
X6833825Y-9429650D02*
X6852872Y-9439174D01*
X6929063Y-9639174D02*
X6938587Y-9629650D01*
X6938587Y-9629650D02*
X6957634Y-9601079D01*
X6957634Y-9601079D02*
X6967158Y-9582031D01*
X6967158Y-9582031D02*
X6976682Y-9553460D01*
X6976682Y-9553460D02*
X6986206Y-9505841D01*
X6986206Y-9505841D02*
X6986206Y-9467746D01*
X6986206Y-9467746D02*
X6976682Y-9420127D01*
X6976682Y-9420127D02*
X6967158Y-9391555D01*
X6967158Y-9391555D02*
X6957634Y-9372508D01*
X6957634Y-9372508D02*
X6938587Y-9343936D01*
X6938587Y-9343936D02*
X6929063Y-9334412D01*
X7290968Y-9639174D02*
X7281444Y-9629650D01*
X7281444Y-9629650D02*
X7262396Y-9601079D01*
X7262396Y-9601079D02*
X7252872Y-9582031D01*
X7252872Y-9582031D02*
X7243349Y-9553460D01*
X7243349Y-9553460D02*
X7233825Y-9505841D01*
X7233825Y-9505841D02*
X7233825Y-9467746D01*
X7233825Y-9467746D02*
X7243349Y-9420127D01*
X7243349Y-9420127D02*
X7252872Y-9391555D01*
X7252872Y-9391555D02*
X7262396Y-9372508D01*
X7262396Y-9372508D02*
X7281444Y-9343936D01*
X7281444Y-9343936D02*
X7290968Y-9334412D01*
X7367158Y-9429650D02*
X7367158Y-9562984D01*
X7367158Y-9448698D02*
X7376682Y-9439174D01*
X7376682Y-9439174D02*
X7395730Y-9429650D01*
X7395730Y-9429650D02*
X7424301Y-9429650D01*
X7424301Y-9429650D02*
X7443349Y-9439174D01*
X7443349Y-9439174D02*
X7452872Y-9458222D01*
X7452872Y-9458222D02*
X7452872Y-9562984D01*
X7576682Y-9562984D02*
X7557634Y-9553460D01*
X7557634Y-9553460D02*
X7548111Y-9543936D01*
X7548111Y-9543936D02*
X7538587Y-9524889D01*
X7538587Y-9524889D02*
X7538587Y-9467746D01*
X7538587Y-9467746D02*
X7548111Y-9448698D01*
X7548111Y-9448698D02*
X7557634Y-9439174D01*
X7557634Y-9439174D02*
X7576682Y-9429650D01*
X7576682Y-9429650D02*
X7605253Y-9429650D01*
X7605253Y-9429650D02*
X7624301Y-9439174D01*
X7624301Y-9439174D02*
X7633825Y-9448698D01*
X7633825Y-9448698D02*
X7643349Y-9467746D01*
X7643349Y-9467746D02*
X7643349Y-9524889D01*
X7643349Y-9524889D02*
X7633825Y-9543936D01*
X7633825Y-9543936D02*
X7624301Y-9553460D01*
X7624301Y-9553460D02*
X7605253Y-9562984D01*
X7605253Y-9562984D02*
X7576682Y-9562984D01*
X7700492Y-9429650D02*
X7776682Y-9429650D01*
X7729063Y-9362984D02*
X7729063Y-9534412D01*
X7729063Y-9534412D02*
X7738587Y-9553460D01*
X7738587Y-9553460D02*
X7757634Y-9562984D01*
X7757634Y-9562984D02*
X7776682Y-9562984D01*
X7995730Y-9429650D02*
X7995730Y-9629650D01*
X7995730Y-9439174D02*
X8014777Y-9429650D01*
X8014777Y-9429650D02*
X8052873Y-9429650D01*
X8052873Y-9429650D02*
X8071920Y-9439174D01*
X8071920Y-9439174D02*
X8081444Y-9448698D01*
X8081444Y-9448698D02*
X8090968Y-9467746D01*
X8090968Y-9467746D02*
X8090968Y-9524889D01*
X8090968Y-9524889D02*
X8081444Y-9543936D01*
X8081444Y-9543936D02*
X8071920Y-9553460D01*
X8071920Y-9553460D02*
X8052873Y-9562984D01*
X8052873Y-9562984D02*
X8014777Y-9562984D01*
X8014777Y-9562984D02*
X7995730Y-9553460D01*
X8205253Y-9562984D02*
X8186206Y-9553460D01*
X8186206Y-9553460D02*
X8176682Y-9534412D01*
X8176682Y-9534412D02*
X8176682Y-9362984D01*
X8367158Y-9562984D02*
X8367158Y-9458222D01*
X8367158Y-9458222D02*
X8357634Y-9439174D01*
X8357634Y-9439174D02*
X8338587Y-9429650D01*
X8338587Y-9429650D02*
X8300492Y-9429650D01*
X8300492Y-9429650D02*
X8281444Y-9439174D01*
X8367158Y-9553460D02*
X8348111Y-9562984D01*
X8348111Y-9562984D02*
X8300492Y-9562984D01*
X8300492Y-9562984D02*
X8281444Y-9553460D01*
X8281444Y-9553460D02*
X8271920Y-9534412D01*
X8271920Y-9534412D02*
X8271920Y-9515365D01*
X8271920Y-9515365D02*
X8281444Y-9496317D01*
X8281444Y-9496317D02*
X8300492Y-9486793D01*
X8300492Y-9486793D02*
X8348111Y-9486793D01*
X8348111Y-9486793D02*
X8367158Y-9477270D01*
X8433825Y-9429650D02*
X8510015Y-9429650D01*
X8462396Y-9362984D02*
X8462396Y-9534412D01*
X8462396Y-9534412D02*
X8471920Y-9553460D01*
X8471920Y-9553460D02*
X8490968Y-9562984D01*
X8490968Y-9562984D02*
X8510015Y-9562984D01*
X8652873Y-9553460D02*
X8633825Y-9562984D01*
X8633825Y-9562984D02*
X8595730Y-9562984D01*
X8595730Y-9562984D02*
X8576682Y-9553460D01*
X8576682Y-9553460D02*
X8567158Y-9534412D01*
X8567158Y-9534412D02*
X8567158Y-9458222D01*
X8567158Y-9458222D02*
X8576682Y-9439174D01*
X8576682Y-9439174D02*
X8595730Y-9429650D01*
X8595730Y-9429650D02*
X8633825Y-9429650D01*
X8633825Y-9429650D02*
X8652873Y-9439174D01*
X8652873Y-9439174D02*
X8662396Y-9458222D01*
X8662396Y-9458222D02*
X8662396Y-9477270D01*
X8662396Y-9477270D02*
X8567158Y-9496317D01*
X8833825Y-9562984D02*
X8833825Y-9362984D01*
X8833825Y-9553460D02*
X8814777Y-9562984D01*
X8814777Y-9562984D02*
X8776682Y-9562984D01*
X8776682Y-9562984D02*
X8757635Y-9553460D01*
X8757635Y-9553460D02*
X8748111Y-9543936D01*
X8748111Y-9543936D02*
X8738587Y-9524889D01*
X8738587Y-9524889D02*
X8738587Y-9467746D01*
X8738587Y-9467746D02*
X8748111Y-9448698D01*
X8748111Y-9448698D02*
X8757635Y-9439174D01*
X8757635Y-9439174D02*
X8776682Y-9429650D01*
X8776682Y-9429650D02*
X8814777Y-9429650D01*
X8814777Y-9429650D02*
X8833825Y-9439174D01*
X8910016Y-9639174D02*
X8919539Y-9629650D01*
X8919539Y-9629650D02*
X8938587Y-9601079D01*
X8938587Y-9601079D02*
X8948111Y-9582031D01*
X8948111Y-9582031D02*
X8957635Y-9553460D01*
X8957635Y-9553460D02*
X8967158Y-9505841D01*
X8967158Y-9505841D02*
X8967158Y-9467746D01*
X8967158Y-9467746D02*
X8957635Y-9420127D01*
X8957635Y-9420127D02*
X8948111Y-9391555D01*
X8948111Y-9391555D02*
X8938587Y-9372508D01*
X8938587Y-9372508D02*
X8919539Y-9343936D01*
X8919539Y-9343936D02*
X8910016Y-9334412D01*
X2154000Y-9751500D02*
G75*
G03*
X2154000Y-9751500I-100000J0D01*
G01*
X2395729Y-9642984D02*
X2519539Y-9642984D01*
X2519539Y-9642984D02*
X2452872Y-9719174D01*
X2452872Y-9719174D02*
X2481444Y-9719174D01*
X2481444Y-9719174D02*
X2500491Y-9728698D01*
X2500491Y-9728698D02*
X2510015Y-9738222D01*
X2510015Y-9738222D02*
X2519539Y-9757270D01*
X2519539Y-9757270D02*
X2519539Y-9804889D01*
X2519539Y-9804889D02*
X2510015Y-9823936D01*
X2510015Y-9823936D02*
X2500491Y-9833460D01*
X2500491Y-9833460D02*
X2481444Y-9842984D01*
X2481444Y-9842984D02*
X2424301Y-9842984D01*
X2424301Y-9842984D02*
X2405253Y-9833460D01*
X2405253Y-9833460D02*
X2395729Y-9823936D01*
X2605253Y-9823936D02*
X2614777Y-9833460D01*
X2614777Y-9833460D02*
X2605253Y-9842984D01*
X2605253Y-9842984D02*
X2595729Y-9833460D01*
X2595729Y-9833460D02*
X2605253Y-9823936D01*
X2605253Y-9823936D02*
X2605253Y-9842984D01*
X2690967Y-9662031D02*
X2700491Y-9652508D01*
X2700491Y-9652508D02*
X2719539Y-9642984D01*
X2719539Y-9642984D02*
X2767158Y-9642984D01*
X2767158Y-9642984D02*
X2786205Y-9652508D01*
X2786205Y-9652508D02*
X2795729Y-9662031D01*
X2795729Y-9662031D02*
X2805253Y-9681079D01*
X2805253Y-9681079D02*
X2805253Y-9700127D01*
X2805253Y-9700127D02*
X2795729Y-9728698D01*
X2795729Y-9728698D02*
X2681444Y-9842984D01*
X2681444Y-9842984D02*
X2805253Y-9842984D01*
X2929062Y-9642984D02*
X2948110Y-9642984D01*
X2948110Y-9642984D02*
X2967158Y-9652508D01*
X2967158Y-9652508D02*
X2976682Y-9662031D01*
X2976682Y-9662031D02*
X2986205Y-9681079D01*
X2986205Y-9681079D02*
X2995729Y-9719174D01*
X2995729Y-9719174D02*
X2995729Y-9766793D01*
X2995729Y-9766793D02*
X2986205Y-9804889D01*
X2986205Y-9804889D02*
X2976682Y-9823936D01*
X2976682Y-9823936D02*
X2967158Y-9833460D01*
X2967158Y-9833460D02*
X2948110Y-9842984D01*
X2948110Y-9842984D02*
X2929062Y-9842984D01*
X2929062Y-9842984D02*
X2910015Y-9833460D01*
X2910015Y-9833460D02*
X2900491Y-9823936D01*
X2900491Y-9823936D02*
X2890967Y-9804889D01*
X2890967Y-9804889D02*
X2881443Y-9766793D01*
X2881443Y-9766793D02*
X2881443Y-9719174D01*
X2881443Y-9719174D02*
X2890967Y-9681079D01*
X2890967Y-9681079D02*
X2900491Y-9662031D01*
X2900491Y-9662031D02*
X2910015Y-9652508D01*
X2910015Y-9652508D02*
X2929062Y-9642984D01*
X3119539Y-9642984D02*
X3138586Y-9642984D01*
X3138586Y-9642984D02*
X3157634Y-9652508D01*
X3157634Y-9652508D02*
X3167158Y-9662031D01*
X3167158Y-9662031D02*
X3176682Y-9681079D01*
X3176682Y-9681079D02*
X3186205Y-9719174D01*
X3186205Y-9719174D02*
X3186205Y-9766793D01*
X3186205Y-9766793D02*
X3176682Y-9804889D01*
X3176682Y-9804889D02*
X3167158Y-9823936D01*
X3167158Y-9823936D02*
X3157634Y-9833460D01*
X3157634Y-9833460D02*
X3138586Y-9842984D01*
X3138586Y-9842984D02*
X3119539Y-9842984D01*
X3119539Y-9842984D02*
X3100491Y-9833460D01*
X3100491Y-9833460D02*
X3090967Y-9823936D01*
X3090967Y-9823936D02*
X3081443Y-9804889D01*
X3081443Y-9804889D02*
X3071920Y-9766793D01*
X3071920Y-9766793D02*
X3071920Y-9719174D01*
X3071920Y-9719174D02*
X3081443Y-9681079D01*
X3081443Y-9681079D02*
X3090967Y-9662031D01*
X3090967Y-9662031D02*
X3100491Y-9652508D01*
X3100491Y-9652508D02*
X3119539Y-9642984D01*
X3271920Y-9842984D02*
X3271920Y-9709650D01*
X3271920Y-9728698D02*
X3281443Y-9719174D01*
X3281443Y-9719174D02*
X3300491Y-9709650D01*
X3300491Y-9709650D02*
X3329063Y-9709650D01*
X3329063Y-9709650D02*
X3348110Y-9719174D01*
X3348110Y-9719174D02*
X3357634Y-9738222D01*
X3357634Y-9738222D02*
X3357634Y-9842984D01*
X3357634Y-9738222D02*
X3367158Y-9719174D01*
X3367158Y-9719174D02*
X3386205Y-9709650D01*
X3386205Y-9709650D02*
X3414777Y-9709650D01*
X3414777Y-9709650D02*
X3433824Y-9719174D01*
X3433824Y-9719174D02*
X3443348Y-9738222D01*
X3443348Y-9738222D02*
X3443348Y-9842984D01*
X3538586Y-9842984D02*
X3538586Y-9709650D01*
X3538586Y-9728698D02*
X3548110Y-9719174D01*
X3548110Y-9719174D02*
X3567158Y-9709650D01*
X3567158Y-9709650D02*
X3595729Y-9709650D01*
X3595729Y-9709650D02*
X3614777Y-9719174D01*
X3614777Y-9719174D02*
X3624301Y-9738222D01*
X3624301Y-9738222D02*
X3624301Y-9842984D01*
X3624301Y-9738222D02*
X3633824Y-9719174D01*
X3633824Y-9719174D02*
X3652872Y-9709650D01*
X3652872Y-9709650D02*
X3681443Y-9709650D01*
X3681443Y-9709650D02*
X3700491Y-9719174D01*
X3700491Y-9719174D02*
X3710015Y-9738222D01*
X3710015Y-9738222D02*
X3710015Y-9842984D01*
X4100491Y-9633460D02*
X3929063Y-9890603D01*
X4357634Y-9642984D02*
X4376682Y-9642984D01*
X4376682Y-9642984D02*
X4395729Y-9652508D01*
X4395729Y-9652508D02*
X4405253Y-9662031D01*
X4405253Y-9662031D02*
X4414777Y-9681079D01*
X4414777Y-9681079D02*
X4424301Y-9719174D01*
X4424301Y-9719174D02*
X4424301Y-9766793D01*
X4424301Y-9766793D02*
X4414777Y-9804889D01*
X4414777Y-9804889D02*
X4405253Y-9823936D01*
X4405253Y-9823936D02*
X4395729Y-9833460D01*
X4395729Y-9833460D02*
X4376682Y-9842984D01*
X4376682Y-9842984D02*
X4357634Y-9842984D01*
X4357634Y-9842984D02*
X4338587Y-9833460D01*
X4338587Y-9833460D02*
X4329063Y-9823936D01*
X4329063Y-9823936D02*
X4319539Y-9804889D01*
X4319539Y-9804889D02*
X4310015Y-9766793D01*
X4310015Y-9766793D02*
X4310015Y-9719174D01*
X4310015Y-9719174D02*
X4319539Y-9681079D01*
X4319539Y-9681079D02*
X4329063Y-9662031D01*
X4329063Y-9662031D02*
X4338587Y-9652508D01*
X4338587Y-9652508D02*
X4357634Y-9642984D01*
X4510015Y-9823936D02*
X4519539Y-9833460D01*
X4519539Y-9833460D02*
X4510015Y-9842984D01*
X4510015Y-9842984D02*
X4500491Y-9833460D01*
X4500491Y-9833460D02*
X4510015Y-9823936D01*
X4510015Y-9823936D02*
X4510015Y-9842984D01*
X4710015Y-9842984D02*
X4595729Y-9842984D01*
X4652872Y-9842984D02*
X4652872Y-9642984D01*
X4652872Y-9642984D02*
X4633825Y-9671555D01*
X4633825Y-9671555D02*
X4614777Y-9690603D01*
X4614777Y-9690603D02*
X4595729Y-9700127D01*
X4786206Y-9662031D02*
X4795729Y-9652508D01*
X4795729Y-9652508D02*
X4814777Y-9642984D01*
X4814777Y-9642984D02*
X4862396Y-9642984D01*
X4862396Y-9642984D02*
X4881444Y-9652508D01*
X4881444Y-9652508D02*
X4890968Y-9662031D01*
X4890968Y-9662031D02*
X4900491Y-9681079D01*
X4900491Y-9681079D02*
X4900491Y-9700127D01*
X4900491Y-9700127D02*
X4890968Y-9728698D01*
X4890968Y-9728698D02*
X4776682Y-9842984D01*
X4776682Y-9842984D02*
X4900491Y-9842984D01*
X5071920Y-9642984D02*
X5033825Y-9642984D01*
X5033825Y-9642984D02*
X5014777Y-9652508D01*
X5014777Y-9652508D02*
X5005253Y-9662031D01*
X5005253Y-9662031D02*
X4986206Y-9690603D01*
X4986206Y-9690603D02*
X4976682Y-9728698D01*
X4976682Y-9728698D02*
X4976682Y-9804889D01*
X4976682Y-9804889D02*
X4986206Y-9823936D01*
X4986206Y-9823936D02*
X4995729Y-9833460D01*
X4995729Y-9833460D02*
X5014777Y-9842984D01*
X5014777Y-9842984D02*
X5052872Y-9842984D01*
X5052872Y-9842984D02*
X5071920Y-9833460D01*
X5071920Y-9833460D02*
X5081444Y-9823936D01*
X5081444Y-9823936D02*
X5090968Y-9804889D01*
X5090968Y-9804889D02*
X5090968Y-9757270D01*
X5090968Y-9757270D02*
X5081444Y-9738222D01*
X5081444Y-9738222D02*
X5071920Y-9728698D01*
X5071920Y-9728698D02*
X5052872Y-9719174D01*
X5052872Y-9719174D02*
X5014777Y-9719174D01*
X5014777Y-9719174D02*
X4995729Y-9728698D01*
X4995729Y-9728698D02*
X4986206Y-9738222D01*
X4986206Y-9738222D02*
X4976682Y-9757270D01*
X5214777Y-9642984D02*
X5233825Y-9642984D01*
X5233825Y-9642984D02*
X5252872Y-9652508D01*
X5252872Y-9652508D02*
X5262396Y-9662031D01*
X5262396Y-9662031D02*
X5271920Y-9681079D01*
X5271920Y-9681079D02*
X5281444Y-9719174D01*
X5281444Y-9719174D02*
X5281444Y-9766793D01*
X5281444Y-9766793D02*
X5271920Y-9804889D01*
X5271920Y-9804889D02*
X5262396Y-9823936D01*
X5262396Y-9823936D02*
X5252872Y-9833460D01*
X5252872Y-9833460D02*
X5233825Y-9842984D01*
X5233825Y-9842984D02*
X5214777Y-9842984D01*
X5214777Y-9842984D02*
X5195729Y-9833460D01*
X5195729Y-9833460D02*
X5186206Y-9823936D01*
X5186206Y-9823936D02*
X5176682Y-9804889D01*
X5176682Y-9804889D02*
X5167158Y-9766793D01*
X5167158Y-9766793D02*
X5167158Y-9719174D01*
X5167158Y-9719174D02*
X5176682Y-9681079D01*
X5176682Y-9681079D02*
X5186206Y-9662031D01*
X5186206Y-9662031D02*
X5195729Y-9652508D01*
X5195729Y-9652508D02*
X5214777Y-9642984D01*
X5357634Y-9642984D02*
X5357634Y-9681079D01*
X5433825Y-9642984D02*
X5433825Y-9681079D01*
X5729063Y-9919174D02*
X5719539Y-9909650D01*
X5719539Y-9909650D02*
X5700491Y-9881079D01*
X5700491Y-9881079D02*
X5690968Y-9862031D01*
X5690968Y-9862031D02*
X5681444Y-9833460D01*
X5681444Y-9833460D02*
X5671920Y-9785841D01*
X5671920Y-9785841D02*
X5671920Y-9747746D01*
X5671920Y-9747746D02*
X5681444Y-9700127D01*
X5681444Y-9700127D02*
X5690968Y-9671555D01*
X5690968Y-9671555D02*
X5700491Y-9652508D01*
X5700491Y-9652508D02*
X5719539Y-9623936D01*
X5719539Y-9623936D02*
X5729063Y-9614412D01*
X5910015Y-9842984D02*
X5795729Y-9842984D01*
X5852872Y-9842984D02*
X5852872Y-9642984D01*
X5852872Y-9642984D02*
X5833825Y-9671555D01*
X5833825Y-9671555D02*
X5814777Y-9690603D01*
X5814777Y-9690603D02*
X5795729Y-9700127D01*
X6148110Y-9842984D02*
X6148110Y-9642984D01*
X6233825Y-9842984D02*
X6233825Y-9738222D01*
X6233825Y-9738222D02*
X6224301Y-9719174D01*
X6224301Y-9719174D02*
X6205253Y-9709650D01*
X6205253Y-9709650D02*
X6176682Y-9709650D01*
X6176682Y-9709650D02*
X6157634Y-9719174D01*
X6157634Y-9719174D02*
X6148110Y-9728698D01*
X6357634Y-9842984D02*
X6338587Y-9833460D01*
X6338587Y-9833460D02*
X6329063Y-9823936D01*
X6329063Y-9823936D02*
X6319539Y-9804889D01*
X6319539Y-9804889D02*
X6319539Y-9747746D01*
X6319539Y-9747746D02*
X6329063Y-9728698D01*
X6329063Y-9728698D02*
X6338587Y-9719174D01*
X6338587Y-9719174D02*
X6357634Y-9709650D01*
X6357634Y-9709650D02*
X6386206Y-9709650D01*
X6386206Y-9709650D02*
X6405253Y-9719174D01*
X6405253Y-9719174D02*
X6414777Y-9728698D01*
X6414777Y-9728698D02*
X6424301Y-9747746D01*
X6424301Y-9747746D02*
X6424301Y-9804889D01*
X6424301Y-9804889D02*
X6414777Y-9823936D01*
X6414777Y-9823936D02*
X6405253Y-9833460D01*
X6405253Y-9833460D02*
X6386206Y-9842984D01*
X6386206Y-9842984D02*
X6357634Y-9842984D01*
X6538587Y-9842984D02*
X6519539Y-9833460D01*
X6519539Y-9833460D02*
X6510015Y-9814412D01*
X6510015Y-9814412D02*
X6510015Y-9642984D01*
X6690968Y-9833460D02*
X6671920Y-9842984D01*
X6671920Y-9842984D02*
X6633825Y-9842984D01*
X6633825Y-9842984D02*
X6614777Y-9833460D01*
X6614777Y-9833460D02*
X6605253Y-9814412D01*
X6605253Y-9814412D02*
X6605253Y-9738222D01*
X6605253Y-9738222D02*
X6614777Y-9719174D01*
X6614777Y-9719174D02*
X6633825Y-9709650D01*
X6633825Y-9709650D02*
X6671920Y-9709650D01*
X6671920Y-9709650D02*
X6690968Y-9719174D01*
X6690968Y-9719174D02*
X6700491Y-9738222D01*
X6700491Y-9738222D02*
X6700491Y-9757270D01*
X6700491Y-9757270D02*
X6605253Y-9776317D01*
X6767158Y-9919174D02*
X6776682Y-9909650D01*
X6776682Y-9909650D02*
X6795730Y-9881079D01*
X6795730Y-9881079D02*
X6805253Y-9862031D01*
X6805253Y-9862031D02*
X6814777Y-9833460D01*
X6814777Y-9833460D02*
X6824301Y-9785841D01*
X6824301Y-9785841D02*
X6824301Y-9747746D01*
X6824301Y-9747746D02*
X6814777Y-9700127D01*
X6814777Y-9700127D02*
X6805253Y-9671555D01*
X6805253Y-9671555D02*
X6795730Y-9652508D01*
X6795730Y-9652508D02*
X6776682Y-9623936D01*
X6776682Y-9623936D02*
X6767158Y-9614412D01*
X7129063Y-9919174D02*
X7119539Y-9909650D01*
X7119539Y-9909650D02*
X7100491Y-9881079D01*
X7100491Y-9881079D02*
X7090968Y-9862031D01*
X7090968Y-9862031D02*
X7081444Y-9833460D01*
X7081444Y-9833460D02*
X7071920Y-9785841D01*
X7071920Y-9785841D02*
X7071920Y-9747746D01*
X7071920Y-9747746D02*
X7081444Y-9700127D01*
X7081444Y-9700127D02*
X7090968Y-9671555D01*
X7090968Y-9671555D02*
X7100491Y-9652508D01*
X7100491Y-9652508D02*
X7119539Y-9623936D01*
X7119539Y-9623936D02*
X7129063Y-9614412D01*
X7205253Y-9709650D02*
X7205253Y-9842984D01*
X7205253Y-9728698D02*
X7214777Y-9719174D01*
X7214777Y-9719174D02*
X7233825Y-9709650D01*
X7233825Y-9709650D02*
X7262396Y-9709650D01*
X7262396Y-9709650D02*
X7281444Y-9719174D01*
X7281444Y-9719174D02*
X7290968Y-9738222D01*
X7290968Y-9738222D02*
X7290968Y-9842984D01*
X7414777Y-9842984D02*
X7395730Y-9833460D01*
X7395730Y-9833460D02*
X7386206Y-9823936D01*
X7386206Y-9823936D02*
X7376682Y-9804889D01*
X7376682Y-9804889D02*
X7376682Y-9747746D01*
X7376682Y-9747746D02*
X7386206Y-9728698D01*
X7386206Y-9728698D02*
X7395730Y-9719174D01*
X7395730Y-9719174D02*
X7414777Y-9709650D01*
X7414777Y-9709650D02*
X7443349Y-9709650D01*
X7443349Y-9709650D02*
X7462396Y-9719174D01*
X7462396Y-9719174D02*
X7471920Y-9728698D01*
X7471920Y-9728698D02*
X7481444Y-9747746D01*
X7481444Y-9747746D02*
X7481444Y-9804889D01*
X7481444Y-9804889D02*
X7471920Y-9823936D01*
X7471920Y-9823936D02*
X7462396Y-9833460D01*
X7462396Y-9833460D02*
X7443349Y-9842984D01*
X7443349Y-9842984D02*
X7414777Y-9842984D01*
X7538587Y-9709650D02*
X7614777Y-9709650D01*
X7567158Y-9642984D02*
X7567158Y-9814412D01*
X7567158Y-9814412D02*
X7576682Y-9833460D01*
X7576682Y-9833460D02*
X7595730Y-9842984D01*
X7595730Y-9842984D02*
X7614777Y-9842984D01*
X7833825Y-9709650D02*
X7833825Y-9909650D01*
X7833825Y-9719174D02*
X7852872Y-9709650D01*
X7852872Y-9709650D02*
X7890968Y-9709650D01*
X7890968Y-9709650D02*
X7910015Y-9719174D01*
X7910015Y-9719174D02*
X7919539Y-9728698D01*
X7919539Y-9728698D02*
X7929063Y-9747746D01*
X7929063Y-9747746D02*
X7929063Y-9804889D01*
X7929063Y-9804889D02*
X7919539Y-9823936D01*
X7919539Y-9823936D02*
X7910015Y-9833460D01*
X7910015Y-9833460D02*
X7890968Y-9842984D01*
X7890968Y-9842984D02*
X7852872Y-9842984D01*
X7852872Y-9842984D02*
X7833825Y-9833460D01*
X8043349Y-9842984D02*
X8024301Y-9833460D01*
X8024301Y-9833460D02*
X8014777Y-9814412D01*
X8014777Y-9814412D02*
X8014777Y-9642984D01*
X8205253Y-9842984D02*
X8205253Y-9738222D01*
X8205253Y-9738222D02*
X8195730Y-9719174D01*
X8195730Y-9719174D02*
X8176682Y-9709650D01*
X8176682Y-9709650D02*
X8138587Y-9709650D01*
X8138587Y-9709650D02*
X8119539Y-9719174D01*
X8205253Y-9833460D02*
X8186206Y-9842984D01*
X8186206Y-9842984D02*
X8138587Y-9842984D01*
X8138587Y-9842984D02*
X8119539Y-9833460D01*
X8119539Y-9833460D02*
X8110015Y-9814412D01*
X8110015Y-9814412D02*
X8110015Y-9795365D01*
X8110015Y-9795365D02*
X8119539Y-9776317D01*
X8119539Y-9776317D02*
X8138587Y-9766793D01*
X8138587Y-9766793D02*
X8186206Y-9766793D01*
X8186206Y-9766793D02*
X8205253Y-9757270D01*
X8271920Y-9709650D02*
X8348111Y-9709650D01*
X8300492Y-9642984D02*
X8300492Y-9814412D01*
X8300492Y-9814412D02*
X8310015Y-9833460D01*
X8310015Y-9833460D02*
X8329063Y-9842984D01*
X8329063Y-9842984D02*
X8348111Y-9842984D01*
X8490968Y-9833460D02*
X8471920Y-9842984D01*
X8471920Y-9842984D02*
X8433825Y-9842984D01*
X8433825Y-9842984D02*
X8414777Y-9833460D01*
X8414777Y-9833460D02*
X8405254Y-9814412D01*
X8405254Y-9814412D02*
X8405254Y-9738222D01*
X8405254Y-9738222D02*
X8414777Y-9719174D01*
X8414777Y-9719174D02*
X8433825Y-9709650D01*
X8433825Y-9709650D02*
X8471920Y-9709650D01*
X8471920Y-9709650D02*
X8490968Y-9719174D01*
X8490968Y-9719174D02*
X8500492Y-9738222D01*
X8500492Y-9738222D02*
X8500492Y-9757270D01*
X8500492Y-9757270D02*
X8405254Y-9776317D01*
X8671920Y-9842984D02*
X8671920Y-9642984D01*
X8671920Y-9833460D02*
X8652873Y-9842984D01*
X8652873Y-9842984D02*
X8614777Y-9842984D01*
X8614777Y-9842984D02*
X8595730Y-9833460D01*
X8595730Y-9833460D02*
X8586206Y-9823936D01*
X8586206Y-9823936D02*
X8576682Y-9804889D01*
X8576682Y-9804889D02*
X8576682Y-9747746D01*
X8576682Y-9747746D02*
X8586206Y-9728698D01*
X8586206Y-9728698D02*
X8595730Y-9719174D01*
X8595730Y-9719174D02*
X8614777Y-9709650D01*
X8614777Y-9709650D02*
X8652873Y-9709650D01*
X8652873Y-9709650D02*
X8671920Y-9719174D01*
X8748111Y-9919174D02*
X8757635Y-9909650D01*
X8757635Y-9909650D02*
X8776682Y-9881079D01*
X8776682Y-9881079D02*
X8786206Y-9862031D01*
X8786206Y-9862031D02*
X8795730Y-9833460D01*
X8795730Y-9833460D02*
X8805254Y-9785841D01*
X8805254Y-9785841D02*
X8805254Y-9747746D01*
X8805254Y-9747746D02*
X8795730Y-9700127D01*
X8795730Y-9700127D02*
X8786206Y-9671555D01*
X8786206Y-9671555D02*
X8776682Y-9652508D01*
X8776682Y-9652508D02*
X8757635Y-9623936D01*
X8757635Y-9623936D02*
X8748111Y-9614412D01*
M02*
