%TF.GenerationSoftware,KiCad,Pcbnew,7.0.7-7.0.7~ubuntu22.04.1*%
%TF.CreationDate,2023-10-02T16:43:57+02:00*%
%TF.ProjectId,interrupter,696e7465-7272-4757-9074-65722e6b6963,rev?*%
%TF.SameCoordinates,Original*%
%TF.FileFunction,Legend,Bot*%
%TF.FilePolarity,Positive*%
%FSLAX46Y46*%
G04 Gerber Fmt 4.6, Leading zero omitted, Abs format (unit mm)*
G04 Created by KiCad (PCBNEW 7.0.7-7.0.7~ubuntu22.04.1) date 2023-10-02 16:43:57*
%MOMM*%
%LPD*%
G01*
G04 APERTURE LIST*
%ADD10C,0.300000*%
%ADD11C,0.150000*%
%ADD12C,0.120000*%
G04 APERTURE END LIST*
D10*
X86411427Y-47509757D02*
X86554285Y-47438328D01*
X86554285Y-47438328D02*
X86768570Y-47438328D01*
X86768570Y-47438328D02*
X86982856Y-47509757D01*
X86982856Y-47509757D02*
X87125713Y-47652614D01*
X87125713Y-47652614D02*
X87197142Y-47795471D01*
X87197142Y-47795471D02*
X87268570Y-48081185D01*
X87268570Y-48081185D02*
X87268570Y-48295471D01*
X87268570Y-48295471D02*
X87197142Y-48581185D01*
X87197142Y-48581185D02*
X87125713Y-48724042D01*
X87125713Y-48724042D02*
X86982856Y-48866900D01*
X86982856Y-48866900D02*
X86768570Y-48938328D01*
X86768570Y-48938328D02*
X86625713Y-48938328D01*
X86625713Y-48938328D02*
X86411427Y-48866900D01*
X86411427Y-48866900D02*
X86339999Y-48795471D01*
X86339999Y-48795471D02*
X86339999Y-48295471D01*
X86339999Y-48295471D02*
X86625713Y-48295471D01*
X85482856Y-47438328D02*
X85482856Y-47795471D01*
X85839999Y-47652614D02*
X85482856Y-47795471D01*
X85482856Y-47795471D02*
X85125713Y-47652614D01*
X85697142Y-48081185D02*
X85482856Y-47795471D01*
X85482856Y-47795471D02*
X85268570Y-48081185D01*
X84339999Y-47438328D02*
X84339999Y-47795471D01*
X84697142Y-47652614D02*
X84339999Y-47795471D01*
X84339999Y-47795471D02*
X83982856Y-47652614D01*
X84554285Y-48081185D02*
X84339999Y-47795471D01*
X84339999Y-47795471D02*
X84125713Y-48081185D01*
X83197142Y-47438328D02*
X83197142Y-47795471D01*
X83554285Y-47652614D02*
X83197142Y-47795471D01*
X83197142Y-47795471D02*
X82839999Y-47652614D01*
X83411428Y-48081185D02*
X83197142Y-47795471D01*
X83197142Y-47795471D02*
X82982856Y-48081185D01*
D11*
X66238333Y-26759819D02*
X66238333Y-27474104D01*
X66238333Y-27474104D02*
X66285952Y-27616961D01*
X66285952Y-27616961D02*
X66381190Y-27712200D01*
X66381190Y-27712200D02*
X66524047Y-27759819D01*
X66524047Y-27759819D02*
X66619285Y-27759819D01*
X65762142Y-27759819D02*
X65762142Y-26759819D01*
X65762142Y-26759819D02*
X65381190Y-26759819D01*
X65381190Y-26759819D02*
X65285952Y-26807438D01*
X65285952Y-26807438D02*
X65238333Y-26855057D01*
X65238333Y-26855057D02*
X65190714Y-26950295D01*
X65190714Y-26950295D02*
X65190714Y-27093152D01*
X65190714Y-27093152D02*
X65238333Y-27188390D01*
X65238333Y-27188390D02*
X65285952Y-27236009D01*
X65285952Y-27236009D02*
X65381190Y-27283628D01*
X65381190Y-27283628D02*
X65762142Y-27283628D01*
X64238333Y-27759819D02*
X64809761Y-27759819D01*
X64524047Y-27759819D02*
X64524047Y-26759819D01*
X64524047Y-26759819D02*
X64619285Y-26902676D01*
X64619285Y-26902676D02*
X64714523Y-26997914D01*
X64714523Y-26997914D02*
X64809761Y-27045533D01*
%TO.C,G\u002A\u002A\u002A*%
G36*
X87549861Y-35641526D02*
G01*
X87548586Y-35653821D01*
X87540508Y-35713959D01*
X87526418Y-35806622D01*
X87506710Y-35929610D01*
X87481780Y-36080722D01*
X87452023Y-36257757D01*
X87417832Y-36458515D01*
X87379603Y-36680795D01*
X87337731Y-36922397D01*
X87292611Y-37181119D01*
X87244637Y-37454762D01*
X87194205Y-37741124D01*
X87141708Y-38038005D01*
X87087542Y-38343204D01*
X87032102Y-38654521D01*
X86975782Y-38969754D01*
X86918977Y-39286704D01*
X86862083Y-39603169D01*
X86805494Y-39916950D01*
X86749604Y-40225844D01*
X86694809Y-40527652D01*
X86641503Y-40820174D01*
X86590082Y-41101207D01*
X86540939Y-41368552D01*
X86494470Y-41620009D01*
X86451070Y-41853375D01*
X86411134Y-42066452D01*
X86375055Y-42257037D01*
X86343230Y-42422931D01*
X86316053Y-42561933D01*
X86293918Y-42671841D01*
X86277221Y-42750456D01*
X86266357Y-42795577D01*
X86264055Y-42803628D01*
X86250500Y-42842338D01*
X86237573Y-42852073D01*
X86219056Y-42838476D01*
X86209689Y-42826830D01*
X86191232Y-42792548D01*
X86169917Y-42739074D01*
X86145185Y-42664374D01*
X86116475Y-42566410D01*
X86083226Y-42443146D01*
X86044878Y-42292546D01*
X86000869Y-42112573D01*
X85950640Y-41901191D01*
X85893630Y-41656362D01*
X85855816Y-41493466D01*
X85818784Y-41335476D01*
X85784720Y-41191694D01*
X85754475Y-41065638D01*
X85728900Y-40960829D01*
X85708846Y-40880784D01*
X85695165Y-40829024D01*
X85688707Y-40809067D01*
X85682767Y-40817633D01*
X85666869Y-40856517D01*
X85642693Y-40923040D01*
X85611556Y-41013366D01*
X85574776Y-41123660D01*
X85533671Y-41250086D01*
X85489558Y-41388810D01*
X85474429Y-41436871D01*
X85424117Y-41596417D01*
X85365996Y-41780395D01*
X85302441Y-41981304D01*
X85235826Y-42191645D01*
X85168525Y-42403917D01*
X85102915Y-42610621D01*
X85041370Y-42804255D01*
X85040849Y-42805892D01*
X84988631Y-42970890D01*
X84940306Y-43125182D01*
X84896904Y-43265370D01*
X84859452Y-43388056D01*
X84828980Y-43489840D01*
X84806516Y-43567326D01*
X84793088Y-43617114D01*
X84789724Y-43635806D01*
X84803780Y-43634175D01*
X84846962Y-43621699D01*
X84913528Y-43599550D01*
X84997827Y-43569623D01*
X85094209Y-43533809D01*
X85364040Y-43438187D01*
X85689494Y-43336994D01*
X86045666Y-43239299D01*
X86429718Y-43145750D01*
X86838815Y-43056998D01*
X87270119Y-42973690D01*
X87720794Y-42896477D01*
X88188003Y-42826006D01*
X88343660Y-42804297D01*
X88575795Y-42773117D01*
X88781602Y-42747392D01*
X88966917Y-42726643D01*
X89137576Y-42710395D01*
X89299416Y-42698171D01*
X89458274Y-42689493D01*
X89619987Y-42683885D01*
X89790390Y-42680870D01*
X89975322Y-42679971D01*
X89997016Y-42679982D01*
X90207692Y-42681517D01*
X90389257Y-42686155D01*
X90548153Y-42694612D01*
X90690818Y-42707602D01*
X90823694Y-42725844D01*
X90953218Y-42750051D01*
X91085832Y-42780940D01*
X91227975Y-42819227D01*
X91332944Y-42851129D01*
X91502860Y-42915539D01*
X91652320Y-42992358D01*
X91791398Y-43087125D01*
X91930169Y-43205383D01*
X91989686Y-43260185D01*
X92046677Y-43309942D01*
X92091647Y-43343492D01*
X92132432Y-43365778D01*
X92176867Y-43381744D01*
X92232789Y-43396336D01*
X92251588Y-43401434D01*
X92328526Y-43428344D01*
X92429507Y-43470007D01*
X92549050Y-43523769D01*
X92681674Y-43586972D01*
X92821898Y-43656963D01*
X92964241Y-43731085D01*
X93103222Y-43806684D01*
X93233361Y-43881103D01*
X93280195Y-43908768D01*
X93445001Y-44008083D01*
X93583941Y-44095779D01*
X93702174Y-44175616D01*
X93804858Y-44251352D01*
X93897152Y-44326747D01*
X93984215Y-44405557D01*
X94071207Y-44491544D01*
X94098546Y-44519831D01*
X94221032Y-44656862D01*
X94313033Y-44782765D01*
X94375566Y-44902921D01*
X94409649Y-45022713D01*
X94416298Y-45147521D01*
X94396531Y-45282728D01*
X94351364Y-45433715D01*
X94281816Y-45605863D01*
X94279463Y-45611192D01*
X94243227Y-45690931D01*
X94215414Y-45744351D01*
X94191158Y-45778352D01*
X94165593Y-45799836D01*
X94133853Y-45815703D01*
X94118388Y-45822075D01*
X94077239Y-45834391D01*
X94040932Y-45831348D01*
X93990838Y-45812532D01*
X93952108Y-45791557D01*
X93917217Y-45759353D01*
X93886541Y-45712039D01*
X93857441Y-45644476D01*
X93827276Y-45551521D01*
X93793406Y-45428033D01*
X93791260Y-45419926D01*
X93761485Y-45322918D01*
X93722719Y-45216701D01*
X93678272Y-45108570D01*
X93631453Y-45005822D01*
X93585570Y-44915752D01*
X93543933Y-44845657D01*
X93509850Y-44802834D01*
X93479476Y-44779472D01*
X93451391Y-44771381D01*
X93425315Y-44783350D01*
X93399032Y-44818381D01*
X93370327Y-44879481D01*
X93336988Y-44969653D01*
X93296798Y-45091902D01*
X93288358Y-45118293D01*
X93253475Y-45223704D01*
X93225540Y-45300089D01*
X93202442Y-45352352D01*
X93182067Y-45385398D01*
X93162303Y-45404130D01*
X93145759Y-45414498D01*
X93122152Y-45421818D01*
X93099875Y-45408794D01*
X93067078Y-45371343D01*
X93043181Y-45338819D01*
X93003423Y-45278407D01*
X92956960Y-45203228D01*
X92909641Y-45122525D01*
X92907337Y-45118484D01*
X92792711Y-44923291D01*
X92690641Y-44761731D01*
X92600934Y-44633528D01*
X92523395Y-44538404D01*
X92457832Y-44476084D01*
X92418157Y-44448996D01*
X92353828Y-44410720D01*
X92276150Y-44368044D01*
X92192578Y-44324718D01*
X92110570Y-44284491D01*
X92037582Y-44251115D01*
X91981070Y-44228340D01*
X91948491Y-44219914D01*
X91944352Y-44220546D01*
X91919628Y-44243973D01*
X91891482Y-44297943D01*
X91861615Y-44378012D01*
X91831727Y-44479738D01*
X91803519Y-44598678D01*
X91785957Y-44678120D01*
X91768118Y-44746622D01*
X91751134Y-44792940D01*
X91732196Y-44824461D01*
X91708494Y-44848572D01*
X91690148Y-44863250D01*
X91663320Y-44878260D01*
X91629783Y-44885275D01*
X91579743Y-44885876D01*
X91503409Y-44881641D01*
X91500055Y-44881402D01*
X91444288Y-44875322D01*
X91358359Y-44863521D01*
X91247286Y-44846796D01*
X91116087Y-44825943D01*
X90969779Y-44801756D01*
X90813381Y-44775034D01*
X90651911Y-44746571D01*
X90501705Y-44719811D01*
X90263511Y-44678184D01*
X90053776Y-44642910D01*
X89867999Y-44613485D01*
X89701681Y-44589403D01*
X89550322Y-44570159D01*
X89409423Y-44555249D01*
X89274484Y-44544168D01*
X89141006Y-44536411D01*
X89004488Y-44531473D01*
X88860431Y-44528849D01*
X88704337Y-44528034D01*
X88663212Y-44528046D01*
X88510700Y-44528916D01*
X88384980Y-44531411D01*
X88278440Y-44535936D01*
X88183466Y-44542899D01*
X88092449Y-44552705D01*
X87997774Y-44565762D01*
X87727954Y-44615385D01*
X87467580Y-44685355D01*
X87224734Y-44776292D01*
X86991514Y-44891177D01*
X86760020Y-45032995D01*
X86539141Y-45180975D01*
X86790641Y-45467935D01*
X86913306Y-45611001D01*
X87095059Y-45833735D01*
X87272799Y-46063697D01*
X87440722Y-46293105D01*
X87593021Y-46514176D01*
X87723893Y-46719127D01*
X87753963Y-46768505D01*
X87803575Y-46848904D01*
X87849713Y-46920434D01*
X87894848Y-46985054D01*
X87941454Y-47044720D01*
X87992001Y-47101390D01*
X88048963Y-47157020D01*
X88114811Y-47213569D01*
X88192017Y-47272994D01*
X88283054Y-47337251D01*
X88390394Y-47408298D01*
X88516507Y-47488093D01*
X88663868Y-47578593D01*
X88834947Y-47681755D01*
X89032217Y-47799536D01*
X89258151Y-47933894D01*
X89432235Y-48037583D01*
X89774129Y-48242683D01*
X90085345Y-48431554D01*
X90366740Y-48604790D01*
X90619170Y-48762982D01*
X90843492Y-48906721D01*
X91040564Y-49036600D01*
X91211241Y-49153212D01*
X91356382Y-49257146D01*
X91476842Y-49348997D01*
X91573478Y-49429355D01*
X91647149Y-49498813D01*
X91698710Y-49557962D01*
X91729018Y-49607395D01*
X91738930Y-49647703D01*
X91738928Y-49648353D01*
X91732121Y-49689590D01*
X91710836Y-49744245D01*
X91673097Y-49816086D01*
X91616927Y-49908883D01*
X91540351Y-50026405D01*
X91473809Y-50128773D01*
X91402727Y-50245143D01*
X91345357Y-50347472D01*
X91303670Y-50431998D01*
X91279638Y-50494957D01*
X91275231Y-50532585D01*
X91276845Y-50537071D01*
X91303718Y-50571534D01*
X91360316Y-50622928D01*
X91445248Y-50690254D01*
X91557123Y-50772509D01*
X91694547Y-50868693D01*
X91856131Y-50977806D01*
X92040481Y-51098846D01*
X92246205Y-51230812D01*
X92300293Y-51265174D01*
X92580090Y-51443840D01*
X92831598Y-51606219D01*
X93057301Y-51754086D01*
X93259682Y-51889214D01*
X93441224Y-52013378D01*
X93604411Y-52128352D01*
X93751727Y-52235910D01*
X93885655Y-52337827D01*
X94008679Y-52435876D01*
X94123282Y-52531832D01*
X94231947Y-52627469D01*
X94337160Y-52724561D01*
X94447587Y-52831798D01*
X94576143Y-52968327D01*
X94681641Y-53097751D01*
X94768823Y-53226591D01*
X94842429Y-53361369D01*
X94907202Y-53508606D01*
X94948813Y-53624229D01*
X94991290Y-53780345D01*
X95021401Y-53948535D01*
X95039879Y-54134526D01*
X95047458Y-54344047D01*
X95044873Y-54582824D01*
X95042893Y-54643536D01*
X95037914Y-54759644D01*
X95031029Y-54882075D01*
X95021994Y-55013100D01*
X95010562Y-55154994D01*
X94996486Y-55310029D01*
X94979520Y-55480479D01*
X94959419Y-55668616D01*
X94935935Y-55876714D01*
X94908823Y-56107046D01*
X94877835Y-56361884D01*
X94842727Y-56643503D01*
X94803252Y-56954174D01*
X94759162Y-57296172D01*
X94710213Y-57671769D01*
X94687146Y-57848034D01*
X94653455Y-58105608D01*
X94619974Y-58361714D01*
X94587202Y-58612522D01*
X94555640Y-58854206D01*
X94525787Y-59082935D01*
X94498143Y-59294880D01*
X94473208Y-59486214D01*
X94451480Y-59653107D01*
X94433460Y-59791731D01*
X94419648Y-59898257D01*
X94409557Y-59975550D01*
X94391156Y-60112969D01*
X94373876Y-60237682D01*
X94358394Y-60345042D01*
X94345389Y-60430398D01*
X94335538Y-60489101D01*
X94329518Y-60516501D01*
X94310055Y-60544898D01*
X94272086Y-60549583D01*
X94211944Y-60539365D01*
X94113561Y-60523354D01*
X94004988Y-60506313D01*
X93891974Y-60489081D01*
X93780264Y-60472495D01*
X93675606Y-60457394D01*
X93583748Y-60444616D01*
X93510435Y-60434998D01*
X93461415Y-60429379D01*
X93442435Y-60428597D01*
X93441931Y-60436240D01*
X93454845Y-60469525D01*
X93482269Y-60522035D01*
X93520298Y-60586933D01*
X93565027Y-60657380D01*
X93612552Y-60726540D01*
X93625507Y-60744537D01*
X93662712Y-60794411D01*
X93697002Y-60833394D01*
X93733266Y-60862991D01*
X93776396Y-60884709D01*
X93831285Y-60900053D01*
X93902823Y-60910529D01*
X93995902Y-60917645D01*
X94115413Y-60922905D01*
X94266248Y-60927816D01*
X94281669Y-60928299D01*
X94425393Y-60933217D01*
X94539031Y-60938184D01*
X94628192Y-60943718D01*
X94698488Y-60950338D01*
X94755529Y-60958560D01*
X94804925Y-60968903D01*
X94852288Y-60981884D01*
X94879037Y-60990175D01*
X94949700Y-61016934D01*
X94998963Y-61046675D01*
X95037987Y-61085632D01*
X95044532Y-61093669D01*
X95069315Y-61129029D01*
X95083186Y-61165098D01*
X95089240Y-61213705D01*
X95090570Y-61286679D01*
X95090401Y-61326187D01*
X95087796Y-61383258D01*
X95079376Y-61420700D01*
X95061791Y-61449565D01*
X95031690Y-61480904D01*
X95028709Y-61483703D01*
X94978480Y-61520606D01*
X94900228Y-61566844D01*
X94799536Y-61619790D01*
X94681992Y-61676816D01*
X94553181Y-61735296D01*
X94418690Y-61792603D01*
X94284104Y-61846110D01*
X94155010Y-61893189D01*
X94066462Y-61923582D01*
X93980948Y-61951739D01*
X93914704Y-61970903D01*
X93859481Y-61982773D01*
X93807030Y-61989049D01*
X93749101Y-61991432D01*
X93677446Y-61991622D01*
X93487218Y-61990827D01*
X93322672Y-61905692D01*
X93259884Y-61872050D01*
X93204674Y-61838329D01*
X93154414Y-61800956D01*
X93101923Y-61754007D01*
X93040023Y-61691557D01*
X92961534Y-61607682D01*
X92918339Y-61561278D01*
X92855512Y-61495204D01*
X92803677Y-61442431D01*
X92767292Y-61407464D01*
X92750816Y-61394807D01*
X92745738Y-61396949D01*
X92718079Y-61417393D01*
X92674022Y-61454840D01*
X92620413Y-61503578D01*
X92606690Y-61516141D01*
X92539618Y-61571662D01*
X92472323Y-61619575D01*
X92417515Y-61650666D01*
X92402497Y-61657159D01*
X92363962Y-61671197D01*
X92324411Y-61679398D01*
X92275070Y-61682501D01*
X92207161Y-61681242D01*
X92111909Y-61676362D01*
X92033053Y-61670595D01*
X91933350Y-61660330D01*
X91844357Y-61648129D01*
X91778827Y-61635556D01*
X91718010Y-61618950D01*
X91677436Y-61600761D01*
X91650588Y-61574571D01*
X91626197Y-61532794D01*
X91611973Y-61503613D01*
X91595566Y-61462467D01*
X91582355Y-61416097D01*
X91571847Y-61360074D01*
X91563551Y-61289967D01*
X91556975Y-61201348D01*
X91551628Y-61089785D01*
X91547017Y-60950849D01*
X91542651Y-60780110D01*
X91530585Y-60265055D01*
X91274239Y-60182249D01*
X91236273Y-60169758D01*
X91145931Y-60138168D01*
X91068600Y-60108568D01*
X91011497Y-60083809D01*
X90981842Y-60066744D01*
X90970446Y-60055215D01*
X90963998Y-60041924D01*
X90964010Y-60022453D01*
X90971978Y-59992368D01*
X90989400Y-59947236D01*
X91017771Y-59882625D01*
X91058589Y-59794100D01*
X91113351Y-59677229D01*
X91156710Y-59585893D01*
X91216573Y-59461574D01*
X91286746Y-59317202D01*
X91364096Y-59159172D01*
X91445493Y-58993880D01*
X91527806Y-58827723D01*
X91607902Y-58667094D01*
X91715819Y-58450022D01*
X91865256Y-58144618D01*
X92010889Y-57841505D01*
X92151631Y-57543168D01*
X92286397Y-57252088D01*
X92414100Y-56970747D01*
X92533653Y-56701629D01*
X92643971Y-56447216D01*
X92743968Y-56209991D01*
X92832557Y-55992437D01*
X92908651Y-55797035D01*
X92971166Y-55626269D01*
X93019013Y-55482621D01*
X93051108Y-55368574D01*
X93082416Y-55239415D01*
X93036774Y-55151170D01*
X92976433Y-55061801D01*
X92882230Y-54963337D01*
X92759121Y-54861538D01*
X92610367Y-54758849D01*
X92439231Y-54657717D01*
X92248974Y-54560586D01*
X92192698Y-54534862D01*
X92090495Y-54491156D01*
X91969242Y-54441933D01*
X91833336Y-54388763D01*
X91687173Y-54333214D01*
X91535148Y-54276853D01*
X91381658Y-54221249D01*
X91231099Y-54167971D01*
X91087867Y-54118587D01*
X90956357Y-54074665D01*
X90840967Y-54037773D01*
X90746092Y-54009481D01*
X90676128Y-53991355D01*
X90635471Y-53984964D01*
X90612735Y-53990006D01*
X90597561Y-54010032D01*
X90597774Y-54011870D01*
X90607142Y-54040572D01*
X90628758Y-54095958D01*
X90660384Y-54172589D01*
X90699785Y-54265029D01*
X90744726Y-54367843D01*
X90894127Y-54727564D01*
X91030453Y-55111573D01*
X91142370Y-55497950D01*
X91232774Y-55896789D01*
X91304563Y-56318181D01*
X91358042Y-56685705D01*
X90847917Y-57459550D01*
X90645599Y-57767573D01*
X90456163Y-58058734D01*
X90282898Y-58328562D01*
X90123392Y-58581229D01*
X89975231Y-58820911D01*
X89836004Y-59051784D01*
X89703298Y-59278022D01*
X89574700Y-59503800D01*
X89447797Y-59733293D01*
X89320177Y-59970677D01*
X89189428Y-60220125D01*
X89053137Y-60485814D01*
X88908891Y-60771917D01*
X88754278Y-61082611D01*
X88222662Y-62156363D01*
X88164569Y-62113025D01*
X88157296Y-62107584D01*
X88114933Y-62075701D01*
X88052848Y-62028804D01*
X87978196Y-61972302D01*
X87898131Y-61911604D01*
X87798368Y-61837124D01*
X87705472Y-61771399D01*
X87635104Y-61726837D01*
X87584708Y-61701997D01*
X87551729Y-61695433D01*
X87533611Y-61705703D01*
X87521368Y-61739057D01*
X87517100Y-61809078D01*
X87526935Y-61899761D01*
X87549623Y-62004242D01*
X87583914Y-62115657D01*
X87628558Y-62227140D01*
X87629001Y-62228120D01*
X87670218Y-62305897D01*
X87723066Y-62379857D01*
X87791690Y-62454025D01*
X87880233Y-62532431D01*
X87992839Y-62619100D01*
X88133652Y-62718062D01*
X88209243Y-62770427D01*
X88348167Y-62873147D01*
X88457944Y-62965107D01*
X88541314Y-63048930D01*
X88601011Y-63127236D01*
X88639775Y-63202646D01*
X88658700Y-63256171D01*
X88674578Y-63335799D01*
X88667944Y-63407362D01*
X88638750Y-63483883D01*
X88623374Y-63512691D01*
X88583119Y-63561024D01*
X88525519Y-63593187D01*
X88500636Y-63601957D01*
X88467346Y-63609577D01*
X88424327Y-63614644D01*
X88366283Y-63617389D01*
X88287919Y-63618044D01*
X88183939Y-63616840D01*
X88049047Y-63614008D01*
X87943658Y-63610767D01*
X87776240Y-63602738D01*
X87611022Y-63591612D01*
X87453677Y-63577962D01*
X87309877Y-63562362D01*
X87185292Y-63545385D01*
X87085596Y-63527606D01*
X87016461Y-63509596D01*
X86937190Y-63475035D01*
X86874093Y-63426475D01*
X86825131Y-63357759D01*
X86782757Y-63260856D01*
X86698925Y-63065360D01*
X86585544Y-62873193D01*
X86444745Y-62696066D01*
X86302410Y-62538908D01*
X86180834Y-62526106D01*
X86072371Y-62503096D01*
X85948951Y-62457299D01*
X85821910Y-62393859D01*
X85701251Y-62317780D01*
X85596977Y-62234064D01*
X85484247Y-62129695D01*
X85493350Y-62020418D01*
X85503683Y-61953345D01*
X85525215Y-61865974D01*
X85552456Y-61784322D01*
X85588317Y-61708042D01*
X85641547Y-61616685D01*
X85704126Y-61523569D01*
X85769854Y-61437329D01*
X85832530Y-61366597D01*
X85885954Y-61320006D01*
X85899129Y-61310831D01*
X85950062Y-61273351D01*
X86014380Y-61224147D01*
X86081323Y-61171404D01*
X86123003Y-61137163D01*
X86175908Y-61088372D01*
X86204608Y-61051531D01*
X86213252Y-61021939D01*
X86205412Y-60988632D01*
X86176024Y-60978117D01*
X86168128Y-60976972D01*
X86129067Y-60960813D01*
X86072760Y-60929317D01*
X86006130Y-60887307D01*
X85936096Y-60839606D01*
X85869578Y-60791039D01*
X85813497Y-60746429D01*
X85774774Y-60710599D01*
X85760328Y-60688374D01*
X85760407Y-60687585D01*
X85771569Y-60662868D01*
X85800262Y-60611043D01*
X85844567Y-60535186D01*
X85902565Y-60438374D01*
X85972335Y-60323681D01*
X86051958Y-60194184D01*
X86139514Y-60052958D01*
X86233083Y-59903079D01*
X86330746Y-59747623D01*
X86430584Y-59589667D01*
X86530676Y-59432284D01*
X86629103Y-59278553D01*
X86723945Y-59131547D01*
X86813283Y-58994344D01*
X86895196Y-58870018D01*
X86986081Y-58733465D01*
X87193725Y-58424831D01*
X87389324Y-58139435D01*
X87577077Y-57871473D01*
X87761182Y-57615144D01*
X87945840Y-57364645D01*
X88135249Y-57114173D01*
X88333608Y-56857927D01*
X88545116Y-56590103D01*
X88554050Y-56578882D01*
X88634954Y-56476670D01*
X88707575Y-56383902D01*
X88769031Y-56304337D01*
X88816439Y-56241737D01*
X88846917Y-56199861D01*
X88857582Y-56182471D01*
X88855582Y-56179247D01*
X88831644Y-56158151D01*
X88784921Y-56122405D01*
X88720809Y-56076049D01*
X88644708Y-56023124D01*
X88582688Y-55980500D01*
X88124279Y-55649132D01*
X87693103Y-55307895D01*
X87290952Y-54958415D01*
X86919618Y-54602315D01*
X86580893Y-54241220D01*
X86276567Y-53876753D01*
X86271721Y-53870575D01*
X86188207Y-53766280D01*
X86111956Y-53674982D01*
X86046523Y-53600724D01*
X85995467Y-53547551D01*
X85962344Y-53519508D01*
X85957701Y-53516698D01*
X85908183Y-53493705D01*
X85849927Y-53481888D01*
X85769386Y-53478355D01*
X85768560Y-53478353D01*
X85717093Y-53480012D01*
X85663394Y-53486254D01*
X85601067Y-53498547D01*
X85523715Y-53518358D01*
X85424940Y-53547154D01*
X85298345Y-53586404D01*
X85288300Y-53589567D01*
X85179185Y-53623535D01*
X85078903Y-53654076D01*
X84993873Y-53679284D01*
X84930513Y-53697254D01*
X84895242Y-53706079D01*
X84894997Y-53706126D01*
X84855041Y-53711036D01*
X84839187Y-53699178D01*
X84836362Y-53662326D01*
X84836390Y-53660718D01*
X84839798Y-53625664D01*
X84848356Y-53560556D01*
X84861302Y-53470577D01*
X84877871Y-53360906D01*
X84897298Y-53236725D01*
X84918821Y-53103213D01*
X84931162Y-53027431D01*
X84971085Y-52776456D01*
X85004551Y-52555131D01*
X85032114Y-52358865D01*
X85054325Y-52183069D01*
X85071737Y-52023151D01*
X85084904Y-51874521D01*
X85094378Y-51732589D01*
X85100712Y-51592765D01*
X85101534Y-51569060D01*
X85105623Y-51416192D01*
X85105507Y-51291154D01*
X85099869Y-51186650D01*
X85087395Y-51095386D01*
X85066771Y-51010065D01*
X85036681Y-50923392D01*
X84995811Y-50828072D01*
X84942845Y-50716811D01*
X84920692Y-50672472D01*
X84866730Y-50569016D01*
X84800948Y-50447150D01*
X84727882Y-50315123D01*
X84652070Y-50181184D01*
X84578047Y-50053581D01*
X84338145Y-49645949D01*
X83839929Y-49477454D01*
X83764922Y-49452366D01*
X83554569Y-49384314D01*
X83319900Y-49311178D01*
X83067429Y-49234819D01*
X82803670Y-49157096D01*
X82535137Y-49079869D01*
X82268344Y-49004997D01*
X82009804Y-48934341D01*
X81766032Y-48869760D01*
X81543541Y-48813113D01*
X81348844Y-48766260D01*
X81131441Y-48715951D01*
X81025309Y-48827669D01*
X81007702Y-48846989D01*
X80960055Y-48902484D01*
X80895878Y-48979869D01*
X80818769Y-49074704D01*
X80732327Y-49182546D01*
X80640150Y-49298954D01*
X80545837Y-49419486D01*
X80503071Y-49474369D01*
X80424928Y-49574326D01*
X80327889Y-49698174D01*
X80214044Y-49843258D01*
X80085481Y-50006921D01*
X79944291Y-50186507D01*
X79792562Y-50379359D01*
X79632385Y-50582821D01*
X79465847Y-50794237D01*
X79295040Y-51010951D01*
X79122052Y-51230305D01*
X78948973Y-51449644D01*
X78823433Y-51608758D01*
X78650964Y-51827566D01*
X78480445Y-52044138D01*
X78313930Y-52255855D01*
X78153471Y-52460099D01*
X78001120Y-52654251D01*
X77858932Y-52835694D01*
X77728957Y-53001809D01*
X77613250Y-53149978D01*
X77513863Y-53277583D01*
X77432849Y-53382006D01*
X77372261Y-53460629D01*
X77332202Y-53512709D01*
X77243344Y-53626866D01*
X77159316Y-53733031D01*
X77083517Y-53827016D01*
X77019344Y-53904634D01*
X76970194Y-53961699D01*
X76939466Y-53994023D01*
X76909723Y-54020611D01*
X76874642Y-54046751D01*
X76839750Y-54060414D01*
X76792906Y-54065646D01*
X76721970Y-54066491D01*
X76584080Y-54066491D01*
X76578480Y-54124330D01*
X76578201Y-54131008D01*
X76580519Y-54175092D01*
X76587395Y-54246914D01*
X76598123Y-54340200D01*
X76611994Y-54448682D01*
X76628302Y-54566087D01*
X76633767Y-54604409D01*
X76659787Y-54805561D01*
X76676334Y-54972653D01*
X76683430Y-55106460D01*
X76681095Y-55207755D01*
X76669349Y-55277313D01*
X76648214Y-55315906D01*
X76641268Y-55321783D01*
X76601872Y-55340518D01*
X76555114Y-55337404D01*
X76497196Y-55310812D01*
X76424322Y-55259116D01*
X76332692Y-55180689D01*
X76268551Y-55123871D01*
X76205412Y-55072224D01*
X76162650Y-55044622D01*
X76137559Y-55039919D01*
X76127434Y-55056970D01*
X76129573Y-55094629D01*
X76134064Y-55126450D01*
X76142200Y-55191692D01*
X76150105Y-55262211D01*
X76152192Y-55279143D01*
X76163134Y-55346547D01*
X76180124Y-55436036D01*
X76201270Y-55537960D01*
X76224680Y-55642668D01*
X76251348Y-55760591D01*
X76290070Y-55947719D01*
X76318489Y-56108891D01*
X76336295Y-56242011D01*
X76343179Y-56344980D01*
X76338829Y-56415701D01*
X76334431Y-56437562D01*
X76296228Y-56555969D01*
X76239521Y-56643564D01*
X76164475Y-56700081D01*
X76150530Y-56706711D01*
X76080913Y-56732247D01*
X76023232Y-56734075D01*
X75966199Y-56710483D01*
X75898524Y-56659758D01*
X75854865Y-56623031D01*
X75773261Y-56556177D01*
X75710430Y-56508819D01*
X75660705Y-56477682D01*
X75618422Y-56459495D01*
X75577915Y-56450983D01*
X75533518Y-56448873D01*
X75504651Y-56448518D01*
X75455601Y-56442902D01*
X75421874Y-56425924D01*
X75388868Y-56391822D01*
X75338023Y-56321965D01*
X75267919Y-56189922D01*
X75208027Y-56032488D01*
X75159632Y-55855660D01*
X75124018Y-55665438D01*
X75102471Y-55467819D01*
X75096275Y-55268804D01*
X75106715Y-55074389D01*
X75114354Y-55005914D01*
X75146140Y-54798885D01*
X75192106Y-54584942D01*
X75252918Y-54362866D01*
X75329240Y-54131443D01*
X75421740Y-53889454D01*
X75531082Y-53635682D01*
X75657932Y-53368909D01*
X75802956Y-53087920D01*
X75966820Y-52791497D01*
X76150188Y-52478422D01*
X76353728Y-52147478D01*
X76578103Y-51797449D01*
X76823981Y-51427117D01*
X77092026Y-51035265D01*
X77382905Y-50620675D01*
X77697283Y-50182132D01*
X78035825Y-49718417D01*
X78113708Y-49612050D01*
X78344022Y-49290093D01*
X78550142Y-48989656D01*
X78733701Y-48708185D01*
X78896332Y-48443125D01*
X79039669Y-48191923D01*
X79165346Y-47952024D01*
X79191444Y-47899178D01*
X79256461Y-47760014D01*
X79302685Y-47646879D01*
X79331139Y-47556715D01*
X79342844Y-47486463D01*
X79338823Y-47433065D01*
X79326960Y-47385799D01*
X79283114Y-47426990D01*
X79280863Y-47429164D01*
X79245017Y-47477051D01*
X79218668Y-47533456D01*
X79211400Y-47554578D01*
X79189062Y-47613069D01*
X79158845Y-47687649D01*
X79125160Y-47767281D01*
X79111445Y-47798900D01*
X79082053Y-47864211D01*
X79060462Y-47904161D01*
X79042046Y-47924598D01*
X79022180Y-47931373D01*
X78996240Y-47930334D01*
X78982924Y-47928778D01*
X78953447Y-47919036D01*
X78937038Y-47894003D01*
X78925236Y-47843310D01*
X78920205Y-47816658D01*
X78907895Y-47763420D01*
X78896151Y-47741681D01*
X78882533Y-47752327D01*
X78864601Y-47796248D01*
X78839914Y-47874328D01*
X78808754Y-47964676D01*
X78765829Y-48058676D01*
X78720585Y-48129309D01*
X78675766Y-48172447D01*
X78634114Y-48183964D01*
X78607647Y-48165803D01*
X78580073Y-48119066D01*
X78556437Y-48052408D01*
X78539685Y-47974279D01*
X78532761Y-47893131D01*
X78530303Y-47845894D01*
X78520403Y-47813857D01*
X78500364Y-47814003D01*
X78467398Y-47844246D01*
X78433759Y-47881416D01*
X78403302Y-47821600D01*
X78390369Y-47792000D01*
X78368196Y-47727151D01*
X78349723Y-47657611D01*
X78338249Y-47611433D01*
X78324696Y-47569575D01*
X78314852Y-47553438D01*
X78313078Y-47554366D01*
X78298715Y-47576717D01*
X78276261Y-47622818D01*
X78249747Y-47684547D01*
X78233573Y-47723243D01*
X78203697Y-47784871D01*
X78178767Y-47815827D01*
X78156460Y-47815122D01*
X78134456Y-47781768D01*
X78110431Y-47714775D01*
X78082062Y-47613156D01*
X78064277Y-47541984D01*
X78035909Y-47417502D01*
X78009075Y-47288381D01*
X77987791Y-47173352D01*
X77985915Y-47162263D01*
X77971346Y-47077948D01*
X77958849Y-47008663D01*
X77949703Y-46961315D01*
X77945184Y-46942811D01*
X77944893Y-46942822D01*
X77935245Y-46960152D01*
X77914836Y-47004094D01*
X77886449Y-47068483D01*
X77852872Y-47147152D01*
X77850992Y-47151605D01*
X77814851Y-47232556D01*
X77780688Y-47301166D01*
X77752274Y-47350313D01*
X77733379Y-47372872D01*
X77716172Y-47377548D01*
X77700917Y-47365924D01*
X77684621Y-47331363D01*
X77663234Y-47267803D01*
X77646755Y-47204890D01*
X77628236Y-47114943D01*
X77610757Y-47012679D01*
X77596592Y-46910285D01*
X77585431Y-46807233D01*
X77578908Y-46714548D01*
X77577525Y-46624957D01*
X77581101Y-46525449D01*
X77589452Y-46403010D01*
X77600207Y-46284128D01*
X77659955Y-45881388D01*
X77755301Y-45480405D01*
X77885755Y-45082990D01*
X78050829Y-44690956D01*
X78064806Y-44661068D01*
X78143325Y-44489786D01*
X78206190Y-44345613D01*
X78254942Y-44224536D01*
X78291127Y-44122542D01*
X78316286Y-44035617D01*
X78331964Y-43959746D01*
X78344941Y-43894137D01*
X78364603Y-43823340D01*
X78386323Y-43766300D01*
X78407251Y-43730313D01*
X78424539Y-43722678D01*
X78428482Y-43723849D01*
X78461730Y-43728999D01*
X78523605Y-43736539D01*
X78608650Y-43745862D01*
X78711407Y-43756360D01*
X78826418Y-43767426D01*
X78956367Y-43779310D01*
X79074060Y-43788483D01*
X79164424Y-43791991D01*
X79232101Y-43788721D01*
X79281730Y-43777562D01*
X79317953Y-43757401D01*
X79345412Y-43727128D01*
X79368747Y-43685630D01*
X79392600Y-43631795D01*
X79393234Y-43630308D01*
X79421742Y-43568438D01*
X79448304Y-43519190D01*
X79467245Y-43493106D01*
X79491559Y-43482762D01*
X79542817Y-43471574D01*
X79607009Y-43463702D01*
X79670420Y-43461161D01*
X79751464Y-43469334D01*
X79841223Y-43493933D01*
X79864624Y-43501901D01*
X79901747Y-43516448D01*
X79935610Y-43534294D01*
X79970862Y-43559318D01*
X80012155Y-43595396D01*
X80064139Y-43646407D01*
X80131463Y-43716228D01*
X80218779Y-43808737D01*
X80385665Y-43985503D01*
X80557466Y-44165457D01*
X80708147Y-44320688D01*
X80839182Y-44452557D01*
X80952043Y-44562427D01*
X81048205Y-44651659D01*
X81129138Y-44721613D01*
X81196318Y-44773652D01*
X81251216Y-44809137D01*
X81295305Y-44829430D01*
X81330059Y-44835892D01*
X81336621Y-44835369D01*
X81377662Y-44827377D01*
X81446064Y-44810828D01*
X81537032Y-44787110D01*
X81645773Y-44757617D01*
X81767494Y-44723739D01*
X81897400Y-44686868D01*
X82030698Y-44648394D01*
X82162593Y-44609709D01*
X82288292Y-44572205D01*
X82403002Y-44537271D01*
X82501927Y-44506300D01*
X82580275Y-44480683D01*
X82633252Y-44461810D01*
X82656064Y-44451074D01*
X82663661Y-44431096D01*
X82670848Y-44384931D01*
X82677652Y-44310671D01*
X82684224Y-44206281D01*
X82690716Y-44069725D01*
X82697281Y-43898971D01*
X82699699Y-43833390D01*
X82708216Y-43644132D01*
X82718040Y-43487867D01*
X82729485Y-43362128D01*
X82742870Y-43264449D01*
X82758510Y-43192361D01*
X82776722Y-43143399D01*
X82797822Y-43115095D01*
X82809200Y-43112633D01*
X82838923Y-43122922D01*
X82887593Y-43150770D01*
X82958244Y-43197971D01*
X83053910Y-43266315D01*
X83119401Y-43312929D01*
X83232387Y-43387819D01*
X83353435Y-43460552D01*
X83491130Y-43536185D01*
X83654057Y-43619774D01*
X83674109Y-43629798D01*
X83791146Y-43687810D01*
X83881825Y-43731410D01*
X83951184Y-43762597D01*
X84004263Y-43783371D01*
X84046099Y-43795734D01*
X84081733Y-43801685D01*
X84116202Y-43803224D01*
X84211651Y-43803224D01*
X84252136Y-43689993D01*
X84257918Y-43673061D01*
X84275696Y-43612886D01*
X84296046Y-43532729D01*
X84319239Y-43431152D01*
X84345547Y-43306717D01*
X84375243Y-43157985D01*
X84408597Y-42983518D01*
X84445882Y-42781877D01*
X84487369Y-42551624D01*
X84533331Y-42291320D01*
X84584038Y-41999527D01*
X84639764Y-41674806D01*
X84700779Y-41315719D01*
X84743279Y-41065078D01*
X84815026Y-40644613D01*
X84881392Y-40259327D01*
X84942455Y-39908814D01*
X84998289Y-39592667D01*
X85048972Y-39310478D01*
X85094579Y-39061840D01*
X85135186Y-38846347D01*
X85170869Y-38663592D01*
X85201704Y-38513166D01*
X85227768Y-38394664D01*
X85249136Y-38307678D01*
X85265885Y-38251802D01*
X85278090Y-38226627D01*
X85282583Y-38223326D01*
X85289885Y-38223266D01*
X85299252Y-38230516D01*
X85311685Y-38247251D01*
X85328183Y-38275643D01*
X85349747Y-38317867D01*
X85377376Y-38376095D01*
X85412071Y-38452500D01*
X85454831Y-38549258D01*
X85506658Y-38668540D01*
X85568550Y-38812520D01*
X85641508Y-38983373D01*
X85726533Y-39183270D01*
X85824623Y-39414387D01*
X85849093Y-39471982D01*
X85910069Y-39614641D01*
X85966304Y-39745003D01*
X86016246Y-39859550D01*
X86058346Y-39954765D01*
X86091053Y-40027131D01*
X86112816Y-40073129D01*
X86122086Y-40089244D01*
X86124217Y-40087957D01*
X86128613Y-40080848D01*
X86135119Y-40065928D01*
X86144293Y-40041402D01*
X86156687Y-40005479D01*
X86172858Y-39956366D01*
X86193360Y-39892271D01*
X86218747Y-39811402D01*
X86249576Y-39711965D01*
X86286400Y-39592169D01*
X86329775Y-39450221D01*
X86380255Y-39284329D01*
X86438396Y-39092700D01*
X86504752Y-38873541D01*
X86579878Y-38625061D01*
X86664329Y-38345468D01*
X86758660Y-38032967D01*
X86792565Y-37920682D01*
X86864312Y-37683460D01*
X86935303Y-37449234D01*
X87004462Y-37221526D01*
X87070714Y-37003859D01*
X87132984Y-36799755D01*
X87190195Y-36612737D01*
X87241274Y-36446328D01*
X87285143Y-36304050D01*
X87320729Y-36189426D01*
X87346954Y-36105978D01*
X87373821Y-36020785D01*
X87408518Y-35908711D01*
X87438146Y-35810600D01*
X87461187Y-35731580D01*
X87476124Y-35676781D01*
X87481441Y-35651332D01*
X87491311Y-35621448D01*
X87519681Y-35585454D01*
X87557922Y-35550941D01*
X87549861Y-35641526D01*
G37*
G36*
X89558776Y-32915243D02*
G01*
X89580425Y-32934526D01*
X89599851Y-32974466D01*
X89603409Y-32986360D01*
X89607698Y-33014994D01*
X89604755Y-33049409D01*
X89593030Y-33096576D01*
X89570974Y-33163460D01*
X89537039Y-33257031D01*
X89535259Y-33261851D01*
X89510475Y-33330995D01*
X89489604Y-33394995D01*
X89471365Y-33459711D01*
X89454478Y-33531005D01*
X89437662Y-33614737D01*
X89419635Y-33716766D01*
X89399118Y-33842955D01*
X89374827Y-33999163D01*
X89372258Y-34015875D01*
X89327541Y-34303529D01*
X89277114Y-34622501D01*
X89221656Y-34968707D01*
X89161848Y-35338060D01*
X89098371Y-35726474D01*
X89031906Y-36129864D01*
X88963133Y-36544143D01*
X88892732Y-36965225D01*
X88821385Y-37389025D01*
X88749772Y-37811457D01*
X88678573Y-38228435D01*
X88608468Y-38635873D01*
X88540140Y-39029685D01*
X88474267Y-39405786D01*
X88473517Y-39410044D01*
X88440805Y-39594670D01*
X88413415Y-39746391D01*
X88390748Y-39867989D01*
X88372207Y-39962244D01*
X88357192Y-40031938D01*
X88345106Y-40079853D01*
X88335349Y-40108770D01*
X88327323Y-40121470D01*
X88320431Y-40120735D01*
X88317620Y-40117110D01*
X88303879Y-40081995D01*
X88290064Y-40023682D01*
X88278782Y-39952695D01*
X88271573Y-39890141D01*
X88261077Y-39790576D01*
X88248291Y-39662797D01*
X88233458Y-39509599D01*
X88216821Y-39333779D01*
X88198624Y-39138132D01*
X88179109Y-38925453D01*
X88158520Y-38698538D01*
X88137101Y-38460182D01*
X88115095Y-38213180D01*
X88092745Y-37960329D01*
X88070294Y-37704424D01*
X88047986Y-37448260D01*
X88026065Y-37194633D01*
X88004773Y-36946338D01*
X87984354Y-36706171D01*
X87965051Y-36476927D01*
X87947108Y-36261402D01*
X87930768Y-36062391D01*
X87916273Y-35882690D01*
X87903869Y-35725094D01*
X87893798Y-35592399D01*
X87886302Y-35487400D01*
X87881627Y-35412893D01*
X87880014Y-35371674D01*
X87882005Y-35323669D01*
X87890225Y-35300369D01*
X87907293Y-35299850D01*
X87924219Y-35317232D01*
X87956347Y-35361004D01*
X88000002Y-35425971D01*
X88051753Y-35507024D01*
X88108170Y-35599050D01*
X88171936Y-35704249D01*
X88235418Y-35806093D01*
X88284957Y-35881168D01*
X88322569Y-35932167D01*
X88350268Y-35961781D01*
X88370070Y-35972705D01*
X88383990Y-35967632D01*
X88392808Y-35953311D01*
X88407075Y-35921879D01*
X88427178Y-35871927D01*
X88453678Y-35801869D01*
X88487134Y-35710119D01*
X88528106Y-35595090D01*
X88577155Y-35455196D01*
X88634840Y-35288851D01*
X88701721Y-35094469D01*
X88778359Y-34870464D01*
X88865313Y-34615249D01*
X88963143Y-34327239D01*
X89011715Y-34184166D01*
X89081814Y-33978221D01*
X89142102Y-33802096D01*
X89193630Y-33652985D01*
X89237452Y-33528081D01*
X89274618Y-33424579D01*
X89306181Y-33339672D01*
X89333192Y-33270554D01*
X89356704Y-33214419D01*
X89377767Y-33168460D01*
X89397434Y-33129872D01*
X89416757Y-33095847D01*
X89436788Y-33063580D01*
X89462875Y-33024250D01*
X89503777Y-32967978D01*
X89536670Y-32929302D01*
X89556174Y-32914922D01*
X89558776Y-32915243D01*
G37*
D12*
%TO.C,JP1*%
X67180000Y-27005000D02*
X67180000Y-27605000D01*
X67880000Y-28305000D02*
X69280000Y-28305000D01*
X69280000Y-26305000D02*
X67880000Y-26305000D01*
X69980000Y-27605000D02*
X69980000Y-27005000D01*
X67880000Y-26305000D02*
G75*
G03*
X67180000Y-27005000I-1J-699999D01*
G01*
X67180000Y-27605000D02*
G75*
G03*
X67880000Y-28305000I699999J-1D01*
G01*
X69980000Y-27005000D02*
G75*
G03*
X69280000Y-26305000I-700000J0D01*
G01*
X69280000Y-28305000D02*
G75*
G03*
X69980000Y-27605000I0J700000D01*
G01*
%TD*%
M02*
