%TF.GenerationSoftware,KiCad,Pcbnew,7.0.2*%
%TF.CreationDate,2023-10-16T21:01:10+02:00*%
%TF.ProjectId,interrupter,696e7465-7272-4757-9074-65722e6b6963,rev?*%
%TF.SameCoordinates,Original*%
%TF.FileFunction,Copper,L2,Bot*%
%TF.FilePolarity,Positive*%
%FSLAX46Y46*%
G04 Gerber Fmt 4.6, Leading zero omitted, Abs format (unit mm)*
G04 Created by KiCad (PCBNEW 7.0.2) date 2023-10-16 21:01:10*
%MOMM*%
%LPD*%
G01*
G04 APERTURE LIST*
G04 Aperture macros list*
%AMRoundRect*
0 Rectangle with rounded corners*
0 $1 Rounding radius*
0 $2 $3 $4 $5 $6 $7 $8 $9 X,Y pos of 4 corners*
0 Add a 4 corners polygon primitive as box body*
4,1,4,$2,$3,$4,$5,$6,$7,$8,$9,$2,$3,0*
0 Add four circle primitives for the rounded corners*
1,1,$1+$1,$2,$3*
1,1,$1+$1,$4,$5*
1,1,$1+$1,$6,$7*
1,1,$1+$1,$8,$9*
0 Add four rect primitives between the rounded corners*
20,1,$1+$1,$2,$3,$4,$5,0*
20,1,$1+$1,$4,$5,$6,$7,0*
20,1,$1+$1,$6,$7,$8,$9,0*
20,1,$1+$1,$8,$9,$2,$3,0*%
%AMFreePoly0*
4,1,19,0.500000,-0.750000,0.000000,-0.750000,0.000000,-0.744911,-0.071157,-0.744911,-0.207708,-0.704816,-0.327430,-0.627875,-0.420627,-0.520320,-0.479746,-0.390866,-0.500000,-0.250000,-0.500000,0.250000,-0.479746,0.390866,-0.420627,0.520320,-0.327430,0.627875,-0.207708,0.704816,-0.071157,0.744911,0.000000,0.744911,0.000000,0.750000,0.500000,0.750000,0.500000,-0.750000,0.500000,-0.750000,
$1*%
%AMFreePoly1*
4,1,19,0.000000,0.744911,0.071157,0.744911,0.207708,0.704816,0.327430,0.627875,0.420627,0.520320,0.479746,0.390866,0.500000,0.250000,0.500000,-0.250000,0.479746,-0.390866,0.420627,-0.520320,0.327430,-0.627875,0.207708,-0.704816,0.071157,-0.744911,0.000000,-0.744911,0.000000,-0.750000,-0.500000,-0.750000,-0.500000,0.750000,0.000000,0.750000,0.000000,0.744911,0.000000,0.744911,
$1*%
G04 Aperture macros list end*
%TA.AperFunction,ComponentPad*%
%ADD10R,1.208000X1.208000*%
%TD*%
%TA.AperFunction,ComponentPad*%
%ADD11C,3.000000*%
%TD*%
%TA.AperFunction,ComponentPad*%
%ADD12R,1.800000X2.600000*%
%TD*%
%TA.AperFunction,ComponentPad*%
%ADD13O,1.800000X2.600000*%
%TD*%
%TA.AperFunction,ComponentPad*%
%ADD14R,1.200000X1.200000*%
%TD*%
%TA.AperFunction,ComponentPad*%
%ADD15C,1.200000*%
%TD*%
%TA.AperFunction,ComponentPad*%
%ADD16R,1.600000X1.600000*%
%TD*%
%TA.AperFunction,ComponentPad*%
%ADD17O,1.600000X1.600000*%
%TD*%
%TA.AperFunction,ComponentPad*%
%ADD18C,2.500000*%
%TD*%
%TA.AperFunction,ComponentPad*%
%ADD19R,3.500000X3.500000*%
%TD*%
%TA.AperFunction,ComponentPad*%
%ADD20RoundRect,0.750000X-0.750000X-1.000000X0.750000X-1.000000X0.750000X1.000000X-0.750000X1.000000X0*%
%TD*%
%TA.AperFunction,ComponentPad*%
%ADD21RoundRect,0.875000X-0.875000X-0.875000X0.875000X-0.875000X0.875000X0.875000X-0.875000X0.875000X0*%
%TD*%
%TA.AperFunction,ComponentPad*%
%ADD22O,3.500000X2.200000*%
%TD*%
%TA.AperFunction,ComponentPad*%
%ADD23R,2.500000X1.500000*%
%TD*%
%TA.AperFunction,ComponentPad*%
%ADD24O,2.500000X1.500000*%
%TD*%
%TA.AperFunction,ComponentPad*%
%ADD25C,1.500000*%
%TD*%
%TA.AperFunction,ComponentPad*%
%ADD26O,2.200000X3.500000*%
%TD*%
%TA.AperFunction,ComponentPad*%
%ADD27R,1.500000X2.500000*%
%TD*%
%TA.AperFunction,ComponentPad*%
%ADD28O,1.500000X2.500000*%
%TD*%
%TA.AperFunction,ComponentPad*%
%ADD29R,1.700000X1.700000*%
%TD*%
%TA.AperFunction,ComponentPad*%
%ADD30O,1.700000X1.700000*%
%TD*%
%TA.AperFunction,ComponentPad*%
%ADD31C,2.000000*%
%TD*%
%TA.AperFunction,SMDPad,CuDef*%
%ADD32FreePoly0,0.000000*%
%TD*%
%TA.AperFunction,SMDPad,CuDef*%
%ADD33FreePoly1,0.000000*%
%TD*%
%TA.AperFunction,ViaPad*%
%ADD34C,0.800000*%
%TD*%
%TA.AperFunction,Conductor*%
%ADD35C,0.508000*%
%TD*%
%TA.AperFunction,Conductor*%
%ADD36C,0.381000*%
%TD*%
G04 APERTURE END LIST*
%TA.AperFunction,EtchedComponent*%
%TO.C,JP1*%
G36*
X68830000Y-27605000D02*
G01*
X68330000Y-27605000D01*
X68330000Y-27005000D01*
X68830000Y-27005000D01*
X68830000Y-27605000D01*
G37*
%TD.AperFunction*%
%TD*%
D10*
%TO.P,U3,P$1,K*%
%TO.N,GND*%
X96042000Y-29718000D03*
%TO.P,U3,P$2,A*%
%TO.N,Net-(SW2A-B)*%
X93442000Y-29718000D03*
%TD*%
D11*
%TO.P,DS1,*%
%TO.N,*%
X26670000Y-30480000D03*
X101668580Y-61480700D03*
X101669100Y-30480000D03*
D12*
%TO.P,DS1,1,VSS*%
%TO.N,GND*%
X32169100Y-30480000D03*
D13*
%TO.P,DS1,2,VDD*%
%TO.N,+5V*%
X34709100Y-30480000D03*
%TO.P,DS1,3,VO*%
%TO.N,Net-(DS1-VO)*%
X37249100Y-30480000D03*
%TO.P,DS1,4,RS*%
%TO.N,/RS*%
X39789100Y-30480000D03*
%TO.P,DS1,5,R/W*%
%TO.N,GND*%
X42329100Y-30480000D03*
%TO.P,DS1,6,E*%
%TO.N,/E*%
X44869100Y-30480000D03*
%TO.P,DS1,7,D0*%
%TO.N,unconnected-(DS1-D0-Pad7)*%
X47409100Y-30480000D03*
%TO.P,DS1,8,D1*%
%TO.N,unconnected-(DS1-D1-Pad8)*%
X49949100Y-30480000D03*
%TO.P,DS1,9,D2*%
%TO.N,unconnected-(DS1-D2-Pad9)*%
X52489100Y-30480000D03*
%TO.P,DS1,10,D3*%
%TO.N,unconnected-(DS1-D3-Pad10)*%
X55029100Y-30480000D03*
%TO.P,DS1,11,D4*%
%TO.N,/DB4*%
X57569100Y-30480000D03*
%TO.P,DS1,12,D5*%
%TO.N,/DB5*%
X60109100Y-30480000D03*
%TO.P,DS1,13,D6*%
%TO.N,/DB6*%
X62649100Y-30480000D03*
%TO.P,DS1,14,D7*%
%TO.N,/DB7*%
X65189100Y-30480000D03*
%TO.P,DS1,15,LED(+)*%
%TO.N,/BL*%
X67729100Y-30480000D03*
%TO.P,DS1,16,LED(-)*%
%TO.N,GND*%
X70269100Y-30480000D03*
%TD*%
D14*
%TO.P,C2,1*%
%TO.N,+5V*%
X36830000Y-56920000D03*
D15*
%TO.P,C2,2*%
%TO.N,GND*%
X36830000Y-58420000D03*
%TD*%
D14*
%TO.P,C3,1*%
%TO.N,+3.3V*%
X42672000Y-57150000D03*
D15*
%TO.P,C3,2*%
%TO.N,GND*%
X42672000Y-58650000D03*
%TD*%
D16*
%TO.P,U5,1*%
%TO.N,Net-(D1-K)*%
X78120000Y-74920000D03*
D17*
%TO.P,U5,2*%
%TO.N,Net-(D1-A)*%
X80660000Y-74920000D03*
%TO.P,U5,3,NC*%
%TO.N,unconnected-(U5-NC-Pad3)*%
X83200000Y-74920000D03*
%TO.P,U5,4*%
%TO.N,GND*%
X83200000Y-67300000D03*
%TO.P,U5,5*%
%TO.N,/RX*%
X80660000Y-67300000D03*
%TO.P,U5,6*%
%TO.N,Net-(R14-Pad1)*%
X78120000Y-67300000D03*
%TD*%
D18*
%TO.P,J4,1*%
%TO.N,unconnected-(J4-Pad1)*%
X92250000Y-68700000D03*
%TO.P,J4,2*%
%TO.N,unconnected-(J4-Pad2)*%
X92250000Y-76200000D03*
%TO.P,J4,3*%
%TO.N,unconnected-(J4-Pad3)*%
X92250000Y-83700000D03*
%TO.P,J4,4*%
%TO.N,Net-(J4-Pad4)*%
X89750000Y-71200000D03*
%TO.P,J4,5*%
%TO.N,Net-(D1-A)*%
X89750000Y-81200000D03*
%TO.P,J4,6*%
%TO.N,N/C*%
X102250000Y-81200000D03*
X102250000Y-71200000D03*
%TD*%
D19*
%TO.P,J1,1*%
%TO.N,VCC*%
X36400000Y-69527500D03*
D20*
%TO.P,J1,2*%
%TO.N,GND*%
X30400000Y-69527500D03*
D21*
%TO.P,J1,3*%
%TO.N,N/C*%
X33400000Y-74227500D03*
%TD*%
D22*
%TO.P,SW1,*%
%TO.N,*%
X25400000Y-50290000D03*
X25400000Y-62390000D03*
D23*
%TO.P,SW1,1,A*%
%TO.N,Net-(SW1A-A)*%
X25400000Y-53340000D03*
D24*
%TO.P,SW1,2,B*%
%TO.N,VCC*%
X25400000Y-56340000D03*
%TO.P,SW1,3,C*%
%TO.N,unconnected-(SW1A-C-Pad3)*%
X25400000Y-59340000D03*
%TD*%
D25*
%TO.P,Y1,1,1*%
%TO.N,/X2*%
X41365000Y-46900000D03*
%TO.P,Y1,2,2*%
%TO.N,/X1*%
X41365000Y-42020000D03*
%TD*%
D26*
%TO.P,SW2,*%
%TO.N,*%
X75332500Y-29210000D03*
X87432500Y-29210000D03*
D27*
%TO.P,SW2,1,A*%
%TO.N,/OPT*%
X78382500Y-29210000D03*
D28*
%TO.P,SW2,2,B*%
%TO.N,Net-(SW2A-B)*%
X81382500Y-29210000D03*
%TO.P,SW2,3,C*%
%TO.N,GND*%
X84382500Y-29210000D03*
%TD*%
D14*
%TO.P,C1,1*%
%TO.N,Net-(SW1A-A)*%
X31750000Y-57150000D03*
D15*
%TO.P,C1,2*%
%TO.N,GND*%
X31750000Y-58650000D03*
%TD*%
D29*
%TO.P,J3,1,MISO*%
%TO.N,/DO*%
X64750000Y-42700000D03*
D30*
%TO.P,J3,2,VCC*%
%TO.N,+5V*%
X67290000Y-42700000D03*
%TO.P,J3,3,SCK*%
%TO.N,/CLK_5V*%
X64750000Y-40160000D03*
%TO.P,J3,4,MOSI*%
%TO.N,/DI_5V*%
X67290000Y-40160000D03*
%TO.P,J3,5,~{RST}*%
%TO.N,/RESET*%
X64750000Y-37620000D03*
%TO.P,J3,6,GND*%
%TO.N,GND*%
X67290000Y-37620000D03*
%TD*%
D31*
%TO.P,SW4,1,1*%
%TO.N,GND*%
X53630000Y-79450000D03*
X53630000Y-72950000D03*
%TO.P,SW4,2,A*%
%TO.N,/DN*%
X58130000Y-79450000D03*
X58130000Y-72950000D03*
%TD*%
%TO.P,SW5,1,1*%
%TO.N,GND*%
X63790000Y-79450000D03*
X63790000Y-72950000D03*
%TO.P,SW5,2,A*%
%TO.N,/OK*%
X68290000Y-79450000D03*
X68290000Y-72950000D03*
%TD*%
%TO.P,SW3,1,1*%
%TO.N,GND*%
X43760000Y-79450000D03*
X43760000Y-72950000D03*
%TO.P,SW3,2,K*%
%TO.N,/UP*%
X48260000Y-79450000D03*
X48260000Y-72950000D03*
%TD*%
D32*
%TO.P,JP1,1,A*%
%TO.N,/BL*%
X67930000Y-27305000D03*
D33*
%TO.P,JP1,2,B*%
%TO.N,+5V*%
X69230000Y-27305000D03*
%TD*%
D34*
%TO.N,GND*%
X45085000Y-52070000D03*
X39370000Y-45720000D03*
X58420000Y-40640000D03*
X45720000Y-41910000D03*
X39370000Y-43180000D03*
X39370000Y-44450000D03*
X43434000Y-38989000D03*
%TO.N,+5V*%
X42218500Y-40640000D03*
X36805000Y-37082500D03*
X71374000Y-27432000D03*
%TO.N,+3.3V*%
X83820000Y-51435000D03*
X58420000Y-57150000D03*
%TO.N,/E*%
X49276000Y-43942000D03*
%TO.N,/DB4*%
X50066000Y-43142398D03*
%TO.N,/DB5*%
X50860000Y-43942000D03*
%TO.N,/DB6*%
X51650000Y-43271504D03*
%TO.N,/DB7*%
X52460000Y-44069000D03*
%TO.N,/DO*%
X55408000Y-45938000D03*
%TO.N,/UP*%
X53528638Y-38369914D03*
%TO.N,/DN*%
X54331425Y-38965345D03*
%TO.N,/OK*%
X54711000Y-40640000D03*
%TO.N,/RX*%
X49219502Y-39370000D03*
X50927000Y-49784000D03*
%TO.N,/CLK_5V*%
X56320000Y-45466000D03*
%TO.N,/DI_5V*%
X59690000Y-51816000D03*
X74803000Y-51816000D03*
%TO.N,/CS_5V*%
X74803000Y-46736000D03*
X58312056Y-50780944D03*
%TO.N,Net-(J4-Pad4)*%
X81280000Y-80010000D03*
%TD*%
D35*
%TO.N,+5V*%
X69230000Y-27305000D02*
X71247000Y-27305000D01*
X71623100Y-38366900D02*
X67290000Y-42700000D01*
X71374000Y-27432000D02*
X71623100Y-27681100D01*
X71247000Y-27305000D02*
X71374000Y-27432000D01*
X40362500Y-40640000D02*
X36805000Y-37082500D01*
D36*
X71374000Y-27432000D02*
X71559600Y-27617600D01*
X69357000Y-27432000D02*
X69230000Y-27305000D01*
D35*
X42218500Y-40640000D02*
X40362500Y-40640000D01*
X71623100Y-27681100D02*
X71623100Y-38366900D01*
%TO.N,+3.3V*%
X58420000Y-57150000D02*
X78105000Y-57150000D01*
X78105000Y-57150000D02*
X83820000Y-51435000D01*
D36*
%TO.N,/E*%
X49276000Y-43942000D02*
X49276000Y-42814462D01*
X50165000Y-35775900D02*
X44869100Y-30480000D01*
X49276000Y-42814462D02*
X50165000Y-41925462D01*
X50165000Y-41925462D02*
X50165000Y-35775900D01*
%TO.N,/DB4*%
X50066000Y-43142398D02*
X50066000Y-42915910D01*
X55878600Y-32170500D02*
X57569100Y-30480000D01*
X50066000Y-42915910D02*
X50800000Y-42181910D01*
X50800000Y-42181910D02*
X50800000Y-35814000D01*
X54443500Y-32170500D02*
X55878600Y-32170500D01*
X50800000Y-35814000D02*
X54443500Y-32170500D01*
%TO.N,/DB5*%
X51435000Y-37651658D02*
X56447658Y-32639000D01*
X57950100Y-32639000D02*
X60109100Y-30480000D01*
X50860000Y-42943568D02*
X51435000Y-42368568D01*
X51435000Y-42368568D02*
X51435000Y-37651658D01*
X50860000Y-43942000D02*
X50860000Y-42943568D01*
X56447658Y-32639000D02*
X57950100Y-32639000D01*
%TO.N,/DB6*%
X56688316Y-33220000D02*
X59909100Y-33220000D01*
X52070000Y-37838316D02*
X56688316Y-33220000D01*
X51650000Y-43271504D02*
X52070000Y-42851504D01*
X59909100Y-33220000D02*
X62649100Y-30480000D01*
X52070000Y-42851504D02*
X52070000Y-37838316D01*
%TO.N,/DB7*%
X61868100Y-33801000D02*
X65189100Y-30480000D01*
X52705000Y-38024974D02*
X56928974Y-33801000D01*
X52705000Y-43824000D02*
X52705000Y-38024974D01*
X56928974Y-33801000D02*
X61868100Y-33801000D01*
X52460000Y-44069000D02*
X52705000Y-43824000D01*
D35*
%TO.N,/BL*%
X67930000Y-27305000D02*
X67930000Y-30279100D01*
X67930000Y-30279100D02*
X67729100Y-30480000D01*
D36*
%TO.N,/DO*%
X64750000Y-42700000D02*
X60778944Y-46671056D01*
X56141056Y-46671056D02*
X55408000Y-45938000D01*
X60778944Y-46671056D02*
X56141056Y-46671056D01*
%TO.N,/UP*%
X48260000Y-71120000D02*
X48260000Y-72950000D01*
X53528638Y-38369914D02*
X53340000Y-38558552D01*
X53340000Y-38558552D02*
X53340000Y-66040000D01*
X53340000Y-66040000D02*
X48260000Y-71120000D01*
%TO.N,/DN*%
X53921000Y-68741000D02*
X58130000Y-72950000D01*
X53921000Y-39375770D02*
X53921000Y-68741000D01*
X54331425Y-38965345D02*
X53921000Y-39375770D01*
%TO.N,/OK*%
X54502000Y-40849000D02*
X54502000Y-65932000D01*
X54502000Y-65932000D02*
X60129500Y-71559500D01*
X54711000Y-40640000D02*
X54502000Y-40849000D01*
X66899500Y-71559500D02*
X68290000Y-72950000D01*
X60129500Y-71559500D02*
X66899500Y-71559500D01*
%TO.N,/RX*%
X49219502Y-39370000D02*
X49149000Y-39370000D01*
X48260000Y-40259000D02*
X48260000Y-47117000D01*
X49149000Y-39370000D02*
X48260000Y-40259000D01*
X48260000Y-47117000D02*
X50927000Y-49784000D01*
%TO.N,/CLK_5V*%
X64750000Y-40219000D02*
X59088444Y-45880556D01*
X56734556Y-45880556D02*
X56320000Y-45466000D01*
X64750000Y-40160000D02*
X64750000Y-40219000D01*
X59088444Y-45880556D02*
X56734556Y-45880556D01*
%TO.N,/DI_5V*%
X59690000Y-51816000D02*
X74803000Y-51816000D01*
%TO.N,/CS_5V*%
X70866000Y-50673000D02*
X74803000Y-46736000D01*
X58420000Y-50673000D02*
X70866000Y-50673000D01*
X58312056Y-50780944D02*
X58420000Y-50673000D01*
%TO.N,Net-(J4-Pad4)*%
X89750000Y-71540000D02*
X89750000Y-71200000D01*
X81280000Y-80010000D02*
X89750000Y-71540000D01*
%TD*%
%TA.AperFunction,Conductor*%
%TO.N,GND*%
G36*
X70519100Y-32258264D02*
G01*
X70680537Y-32223473D01*
X70690364Y-32219524D01*
X70759908Y-32212791D01*
X70822053Y-32244726D01*
X70857066Y-32305190D01*
X70860600Y-32334581D01*
X70860600Y-37999699D01*
X70840915Y-38066738D01*
X70824281Y-38087380D01*
X68849859Y-40061801D01*
X68788536Y-40095286D01*
X68718844Y-40090302D01*
X68662911Y-40048430D01*
X68638601Y-39984361D01*
X68634564Y-39935632D01*
X68579296Y-39717384D01*
X68488860Y-39511209D01*
X68365722Y-39322732D01*
X68213240Y-39157094D01*
X68074956Y-39049462D01*
X68035575Y-39018810D01*
X67992302Y-38995392D01*
X67942712Y-38946172D01*
X67927605Y-38877955D01*
X67951776Y-38812400D01*
X67980198Y-38784763D01*
X68161078Y-38658109D01*
X68328106Y-38491081D01*
X68463600Y-38297576D01*
X68563430Y-38083492D01*
X68620636Y-37870000D01*
X67723686Y-37870000D01*
X67749493Y-37829844D01*
X67790000Y-37691889D01*
X67790000Y-37548111D01*
X67749493Y-37410156D01*
X67723686Y-37370000D01*
X68620636Y-37370000D01*
X68620635Y-37369999D01*
X68563430Y-37156507D01*
X68463599Y-36942421D01*
X68328109Y-36748921D01*
X68161081Y-36581893D01*
X67967576Y-36446399D01*
X67753492Y-36346569D01*
X67540000Y-36289364D01*
X67540000Y-37184498D01*
X67432315Y-37135320D01*
X67325763Y-37120000D01*
X67254237Y-37120000D01*
X67147685Y-37135320D01*
X67039999Y-37184498D01*
X67040000Y-36289364D01*
X67039999Y-36289364D01*
X66826507Y-36346569D01*
X66612421Y-36446400D01*
X66418921Y-36581890D01*
X66251893Y-36748918D01*
X66125132Y-36929952D01*
X66070555Y-36973576D01*
X66001056Y-36980769D01*
X65938702Y-36949247D01*
X65919748Y-36926649D01*
X65825723Y-36782732D01*
X65706917Y-36653677D01*
X65673240Y-36617094D01*
X65495576Y-36478811D01*
X65297574Y-36371658D01*
X65297573Y-36371657D01*
X65297572Y-36371657D01*
X65084636Y-36298556D01*
X64862569Y-36261500D01*
X64637431Y-36261500D01*
X64415363Y-36298556D01*
X64202427Y-36371657D01*
X64004424Y-36478811D01*
X63826760Y-36617094D01*
X63674279Y-36782730D01*
X63551138Y-36971211D01*
X63460705Y-37177381D01*
X63405435Y-37395636D01*
X63386843Y-37620000D01*
X63405435Y-37844363D01*
X63405435Y-37844366D01*
X63405436Y-37844368D01*
X63451904Y-38027867D01*
X63460705Y-38062618D01*
X63551138Y-38268788D01*
X63551140Y-38268791D01*
X63674278Y-38457268D01*
X63826760Y-38622906D01*
X64004424Y-38761189D01*
X64004426Y-38761190D01*
X64040931Y-38780946D01*
X64090521Y-38830165D01*
X64105629Y-38898382D01*
X64081458Y-38963937D01*
X64040931Y-38999054D01*
X64004426Y-39018809D01*
X63826760Y-39157094D01*
X63674279Y-39322730D01*
X63551138Y-39511211D01*
X63492800Y-39644211D01*
X63460704Y-39717384D01*
X63427757Y-39847489D01*
X63405435Y-39935636D01*
X63386843Y-40160000D01*
X63405435Y-40384365D01*
X63426665Y-40468202D01*
X63424039Y-40538022D01*
X63394140Y-40586322D01*
X58835227Y-45145237D01*
X58773904Y-45178722D01*
X58747546Y-45181556D01*
X57272923Y-45181556D01*
X57205884Y-45161871D01*
X57160129Y-45109067D01*
X57154994Y-45095879D01*
X57154528Y-45094446D01*
X57059042Y-44929058D01*
X56996968Y-44860118D01*
X56931253Y-44787134D01*
X56776752Y-44674882D01*
X56776751Y-44674881D01*
X56602285Y-44597204D01*
X56415489Y-44557500D01*
X56415487Y-44557500D01*
X56224513Y-44557500D01*
X56224511Y-44557500D01*
X56037714Y-44597204D01*
X55863248Y-44674881D01*
X55708748Y-44787133D01*
X55580957Y-44929058D01*
X55558764Y-44967500D01*
X55508197Y-45015715D01*
X55451377Y-45029500D01*
X55325000Y-45029500D01*
X55257961Y-45009815D01*
X55212206Y-44957011D01*
X55201000Y-44905500D01*
X55201000Y-41470142D01*
X55220685Y-41403103D01*
X55252112Y-41369826D01*
X55322253Y-41318866D01*
X55338170Y-41301189D01*
X55450040Y-41176944D01*
X55545527Y-41011556D01*
X55603376Y-40833516D01*
X55604542Y-40829928D01*
X55624504Y-40640000D01*
X55604542Y-40450072D01*
X55560595Y-40314818D01*
X55545527Y-40268443D01*
X55450042Y-40103058D01*
X55401833Y-40049517D01*
X55322253Y-39961134D01*
X55167752Y-39848882D01*
X55167751Y-39848881D01*
X55031452Y-39788197D01*
X54978214Y-39742946D01*
X54957893Y-39676097D01*
X54976938Y-39608874D01*
X54989730Y-39591953D01*
X55070465Y-39502289D01*
X55165952Y-39336901D01*
X55224967Y-39155273D01*
X55244929Y-38965345D01*
X55224967Y-38775417D01*
X55175413Y-38622906D01*
X55165952Y-38593788D01*
X55070467Y-38428403D01*
X55003464Y-38353989D01*
X54942678Y-38286479D01*
X54788177Y-38174227D01*
X54788176Y-38174226D01*
X54613710Y-38096549D01*
X54446740Y-38061059D01*
X54385258Y-38027867D01*
X54365134Y-38001769D01*
X54342919Y-37963292D01*
X54328630Y-37938543D01*
X54267678Y-37832969D01*
X54213508Y-37772808D01*
X54165358Y-37719332D01*
X54135128Y-37656342D01*
X54143753Y-37587007D01*
X54169824Y-37548683D01*
X57182189Y-34536319D01*
X57243513Y-34502834D01*
X57269871Y-34500000D01*
X61843231Y-34500000D01*
X61850718Y-34500226D01*
X61910615Y-34503849D01*
X61969658Y-34493027D01*
X61977040Y-34491905D01*
X62036610Y-34484673D01*
X62046047Y-34481093D01*
X62067657Y-34475069D01*
X62077583Y-34473251D01*
X62132321Y-34448614D01*
X62139191Y-34445768D01*
X62195327Y-34424480D01*
X62203630Y-34418747D01*
X62223178Y-34407722D01*
X62232375Y-34403584D01*
X62279616Y-34366572D01*
X62285624Y-34362151D01*
X62335027Y-34328052D01*
X62374829Y-34283123D01*
X62379931Y-34277703D01*
X64468274Y-32189359D01*
X64529595Y-32155876D01*
X64599287Y-32160860D01*
X64611777Y-32166319D01*
X64662029Y-32191655D01*
X64662033Y-32191657D01*
X64891285Y-32261864D01*
X65129105Y-32292318D01*
X65368651Y-32282143D01*
X65603032Y-32231630D01*
X65825504Y-32142233D01*
X66029669Y-32016524D01*
X66209651Y-31858119D01*
X66360275Y-31671576D01*
X66360275Y-31671575D01*
X66365885Y-31664628D01*
X66423316Y-31624836D01*
X66493143Y-31622410D01*
X66553198Y-31658120D01*
X66565096Y-31673091D01*
X66617416Y-31750502D01*
X66629275Y-31768047D01*
X66795175Y-31941144D01*
X66987943Y-32083715D01*
X67202033Y-32191657D01*
X67431285Y-32261864D01*
X67669105Y-32292318D01*
X67908651Y-32282143D01*
X68143032Y-32231630D01*
X68365504Y-32142233D01*
X68569669Y-32016524D01*
X68749651Y-31858119D01*
X68900275Y-31671576D01*
X68900274Y-31671576D01*
X68906906Y-31663364D01*
X68908474Y-31664630D01*
X68948793Y-31625077D01*
X69017205Y-31610879D01*
X69082432Y-31635922D01*
X69109910Y-31665036D01*
X69175911Y-31762687D01*
X69340811Y-31934741D01*
X69532415Y-32076450D01*
X69745213Y-32183741D01*
X69973083Y-32253525D01*
X70019100Y-32259417D01*
X70019100Y-31025881D01*
X70112469Y-31064556D01*
X70229777Y-31080000D01*
X70308423Y-31080000D01*
X70425731Y-31064556D01*
X70519100Y-31025881D01*
X70519100Y-32258264D01*
G37*
%TD.AperFunction*%
%TA.AperFunction,Conductor*%
G36*
X70735531Y-28087185D02*
G01*
X70760644Y-28108530D01*
X70762748Y-28110867D01*
X70809484Y-28144822D01*
X70852151Y-28200152D01*
X70860600Y-28245141D01*
X70860600Y-28629305D01*
X70840915Y-28696344D01*
X70788111Y-28742099D01*
X70718953Y-28752043D01*
X70700290Y-28747870D01*
X70565117Y-28706474D01*
X70519100Y-28700581D01*
X70519100Y-29934118D01*
X70425731Y-29895444D01*
X70308423Y-29880000D01*
X70229777Y-29880000D01*
X70112469Y-29895444D01*
X70019100Y-29934118D01*
X70019100Y-28701734D01*
X70019099Y-28701734D01*
X69857665Y-28736526D01*
X69636537Y-28825383D01*
X69433602Y-28950335D01*
X69254708Y-29107781D01*
X69098364Y-29301412D01*
X69095488Y-29299090D01*
X69059307Y-29334538D01*
X68990886Y-29348691D01*
X68925675Y-29323606D01*
X68898264Y-29294543D01*
X68828925Y-29191953D01*
X68748253Y-29107781D01*
X68726977Y-29085581D01*
X68694801Y-29023561D01*
X68692500Y-28999781D01*
X68692500Y-28692729D01*
X68712185Y-28625690D01*
X68764989Y-28579935D01*
X68816500Y-28568729D01*
X69301889Y-28568729D01*
X69446622Y-28547920D01*
X69446621Y-28547920D01*
X69584577Y-28507413D01*
X69717586Y-28446670D01*
X69838540Y-28368938D01*
X69838544Y-28368935D01*
X69949051Y-28273179D01*
X70043205Y-28164518D01*
X70068948Y-28124460D01*
X70121753Y-28078706D01*
X70173264Y-28067500D01*
X70668492Y-28067500D01*
X70735531Y-28087185D01*
G37*
%TD.AperFunction*%
%TA.AperFunction,Conductor*%
G36*
X103508471Y-25400694D02*
G01*
X103620603Y-25406992D01*
X103789353Y-25417199D01*
X103802588Y-25418720D01*
X103935387Y-25441283D01*
X104081243Y-25468013D01*
X104093133Y-25470809D01*
X104225788Y-25509025D01*
X104228279Y-25509773D01*
X104365146Y-25552423D01*
X104375682Y-25556237D01*
X104504736Y-25609693D01*
X104508063Y-25611130D01*
X104637306Y-25669298D01*
X104646372Y-25673834D01*
X104769331Y-25741791D01*
X104773500Y-25744202D01*
X104893988Y-25817040D01*
X104901592Y-25822027D01*
X105016525Y-25903575D01*
X105021223Y-25907078D01*
X105131752Y-25993672D01*
X105137906Y-25998823D01*
X105243133Y-26092859D01*
X105248187Y-26097638D01*
X105347360Y-26196811D01*
X105352139Y-26201865D01*
X105446175Y-26307092D01*
X105451326Y-26313246D01*
X105537904Y-26423754D01*
X105541423Y-26428473D01*
X105622971Y-26543406D01*
X105627958Y-26551010D01*
X105700796Y-26671498D01*
X105703207Y-26675667D01*
X105771164Y-26798626D01*
X105775710Y-26807713D01*
X105815021Y-26895058D01*
X105833832Y-26936853D01*
X105835317Y-26940291D01*
X105888756Y-27069303D01*
X105892580Y-27079866D01*
X105935214Y-27216684D01*
X105935983Y-27219246D01*
X105974180Y-27351831D01*
X105976995Y-27363807D01*
X106003723Y-27509655D01*
X106026276Y-27642390D01*
X106027800Y-27655663D01*
X106038012Y-27824474D01*
X106044304Y-27936529D01*
X106044499Y-27943480D01*
X106044499Y-85802818D01*
X106043968Y-85814281D01*
X106035247Y-85908213D01*
X106015572Y-86109233D01*
X106013417Y-86123102D01*
X105985520Y-86253456D01*
X105972186Y-86311552D01*
X105948338Y-86415453D01*
X105944829Y-86427777D01*
X105899577Y-86560284D01*
X105898554Y-86563163D01*
X105843946Y-86711051D01*
X105839421Y-86721737D01*
X105777548Y-86850697D01*
X105775632Y-86854520D01*
X105703969Y-86991557D01*
X105698776Y-87000550D01*
X105621314Y-87122578D01*
X105618264Y-87127154D01*
X105530495Y-87252744D01*
X105524973Y-87260055D01*
X105433208Y-87372640D01*
X105428823Y-87377732D01*
X105326136Y-87490632D01*
X105320607Y-87496333D01*
X105216024Y-87597476D01*
X105210141Y-87602811D01*
X105093895Y-87701645D01*
X105088659Y-87705858D01*
X104973044Y-87793825D01*
X104965553Y-87799099D01*
X104837122Y-87882605D01*
X104832446Y-87885501D01*
X104707878Y-87958849D01*
X104698717Y-87963738D01*
X104559361Y-88030779D01*
X104555476Y-88032566D01*
X104424522Y-88090091D01*
X104413690Y-88094256D01*
X104264039Y-88143895D01*
X104261129Y-88144821D01*
X104127213Y-88185609D01*
X104114767Y-88188706D01*
X103951629Y-88220448D01*
X103898158Y-88230034D01*
X103820403Y-88243972D01*
X103806481Y-88245661D01*
X103602141Y-88258769D01*
X103509004Y-88264282D01*
X103501676Y-88264499D01*
X24133481Y-88263079D01*
X24126529Y-88262884D01*
X24012688Y-88256490D01*
X23845855Y-88246410D01*
X23832563Y-88244884D01*
X23698106Y-88222039D01*
X23554003Y-88195630D01*
X23542036Y-88192817D01*
X23408302Y-88154289D01*
X23405739Y-88153520D01*
X23270089Y-88111249D01*
X23259528Y-88107425D01*
X23129658Y-88053632D01*
X23126219Y-88052146D01*
X22997940Y-87994412D01*
X22988849Y-87989864D01*
X22865195Y-87921522D01*
X22861026Y-87919111D01*
X22741247Y-87846701D01*
X22733643Y-87841715D01*
X22618118Y-87759746D01*
X22613399Y-87756226D01*
X22503499Y-87670123D01*
X22497346Y-87664973D01*
X22391594Y-87570468D01*
X22386548Y-87565698D01*
X22287876Y-87467024D01*
X22283116Y-87461988D01*
X22188615Y-87356241D01*
X22183474Y-87350101D01*
X22097336Y-87240151D01*
X22093856Y-87235486D01*
X22011859Y-87119921D01*
X22006910Y-87112375D01*
X21934464Y-86992533D01*
X21932064Y-86988382D01*
X21906624Y-86942352D01*
X21863717Y-86864716D01*
X21859186Y-86855659D01*
X21801430Y-86727328D01*
X21799954Y-86723911D01*
X21799054Y-86721737D01*
X21746160Y-86594039D01*
X21742351Y-86583520D01*
X21700025Y-86447687D01*
X21699315Y-86445319D01*
X21660778Y-86311550D01*
X21657964Y-86299577D01*
X21631560Y-86155491D01*
X21626057Y-86123102D01*
X21608703Y-86020960D01*
X21607186Y-86007740D01*
X21597286Y-85844067D01*
X21590694Y-85726670D01*
X21590500Y-85719734D01*
X21590500Y-81199999D01*
X87986568Y-81199999D01*
X88006264Y-81462824D01*
X88064913Y-81719780D01*
X88161204Y-81965124D01*
X88292985Y-82193376D01*
X88457314Y-82399438D01*
X88457316Y-82399440D01*
X88457317Y-82399441D01*
X88650513Y-82578701D01*
X88650515Y-82578702D01*
X88650519Y-82578706D01*
X88868285Y-82727176D01*
X89105746Y-82841532D01*
X89357600Y-82919218D01*
X89571964Y-82951528D01*
X89618218Y-82958500D01*
X89618219Y-82958500D01*
X89881782Y-82958500D01*
X89921064Y-82952579D01*
X90142400Y-82919218D01*
X90394254Y-82841532D01*
X90483933Y-82798344D01*
X90552872Y-82786993D01*
X90617007Y-82814715D01*
X90655973Y-82872710D01*
X90657398Y-82942565D01*
X90653161Y-82955367D01*
X90564913Y-83180217D01*
X90506264Y-83437175D01*
X90486568Y-83700000D01*
X90506264Y-83962824D01*
X90564913Y-84219779D01*
X90564913Y-84219780D01*
X90661204Y-84465124D01*
X90792985Y-84693376D01*
X90957314Y-84899438D01*
X90957316Y-84899440D01*
X90957317Y-84899441D01*
X91150513Y-85078701D01*
X91150515Y-85078702D01*
X91150519Y-85078706D01*
X91368285Y-85227176D01*
X91605746Y-85341532D01*
X91857600Y-85419218D01*
X92071964Y-85451528D01*
X92118218Y-85458500D01*
X92118219Y-85458500D01*
X92381782Y-85458500D01*
X92421064Y-85452579D01*
X92642400Y-85419218D01*
X92894254Y-85341532D01*
X93131716Y-85227176D01*
X93349481Y-85078706D01*
X93542686Y-84899438D01*
X93707015Y-84693376D01*
X93838796Y-84465124D01*
X93935087Y-84219780D01*
X93993735Y-83962826D01*
X94013431Y-83700000D01*
X93993735Y-83437174D01*
X93935087Y-83180220D01*
X93838796Y-82934876D01*
X93707015Y-82706624D01*
X93542686Y-82500562D01*
X93542685Y-82500561D01*
X93349483Y-82321295D01*
X93131713Y-82172822D01*
X92894252Y-82058467D01*
X92642401Y-81980782D01*
X92381782Y-81941500D01*
X92381781Y-81941500D01*
X92118219Y-81941500D01*
X92118218Y-81941500D01*
X91857598Y-81980782D01*
X91605747Y-82058467D01*
X91516068Y-82101655D01*
X91447126Y-82113007D01*
X91382992Y-82085285D01*
X91344026Y-82027290D01*
X91342601Y-81957435D01*
X91346834Y-81944641D01*
X91435087Y-81719780D01*
X91493735Y-81462826D01*
X91513431Y-81200000D01*
X100486568Y-81200000D01*
X100506264Y-81462824D01*
X100564913Y-81719779D01*
X100564913Y-81719780D01*
X100661204Y-81965124D01*
X100792985Y-82193376D01*
X100957314Y-82399438D01*
X100957316Y-82399440D01*
X100957317Y-82399441D01*
X101150513Y-82578701D01*
X101150515Y-82578702D01*
X101150519Y-82578706D01*
X101368285Y-82727176D01*
X101605746Y-82841532D01*
X101857600Y-82919218D01*
X102071964Y-82951528D01*
X102118218Y-82958500D01*
X102118219Y-82958500D01*
X102381782Y-82958500D01*
X102421063Y-82952579D01*
X102642400Y-82919218D01*
X102894254Y-82841532D01*
X103131716Y-82727176D01*
X103349481Y-82578706D01*
X103542686Y-82399438D01*
X103707015Y-82193376D01*
X103838796Y-81965124D01*
X103935087Y-81719780D01*
X103993735Y-81462826D01*
X104013431Y-81200000D01*
X103993735Y-80937174D01*
X103935087Y-80680220D01*
X103838796Y-80434876D01*
X103707015Y-80206624D01*
X103542686Y-80000562D01*
X103498118Y-79959209D01*
X103349483Y-79821295D01*
X103131713Y-79672822D01*
X102894252Y-79558467D01*
X102642401Y-79480782D01*
X102381782Y-79441500D01*
X102381781Y-79441500D01*
X102118219Y-79441500D01*
X102118218Y-79441500D01*
X101857598Y-79480782D01*
X101605748Y-79558467D01*
X101368287Y-79672822D01*
X101150513Y-79821298D01*
X100957317Y-80000558D01*
X100792984Y-80206624D01*
X100661204Y-80434875D01*
X100564913Y-80680219D01*
X100506264Y-80937175D01*
X100486568Y-81200000D01*
X91513431Y-81200000D01*
X91493735Y-80937174D01*
X91435087Y-80680220D01*
X91338796Y-80434876D01*
X91207015Y-80206624D01*
X91042686Y-80000562D01*
X90998118Y-79959209D01*
X90849483Y-79821295D01*
X90631713Y-79672822D01*
X90394252Y-79558467D01*
X90142401Y-79480782D01*
X89881782Y-79441500D01*
X89881781Y-79441500D01*
X89618219Y-79441500D01*
X89618218Y-79441500D01*
X89357598Y-79480782D01*
X89105748Y-79558467D01*
X88868287Y-79672822D01*
X88650513Y-79821298D01*
X88457317Y-80000558D01*
X88292984Y-80206624D01*
X88161204Y-80434875D01*
X88064913Y-80680219D01*
X88006264Y-80937175D01*
X87986568Y-81199999D01*
X21590500Y-81199999D01*
X21590500Y-79449999D01*
X42254858Y-79449999D01*
X42275386Y-79697732D01*
X42336413Y-79938721D01*
X42436268Y-80166370D01*
X42536563Y-80319882D01*
X42536564Y-80319882D01*
X43234070Y-79622375D01*
X43236884Y-79635915D01*
X43306442Y-79770156D01*
X43409638Y-79880652D01*
X43538819Y-79959209D01*
X43590002Y-79973549D01*
X42889942Y-80673609D01*
X42889942Y-80673610D01*
X42936766Y-80710055D01*
X43155393Y-80828368D01*
X43390506Y-80909083D01*
X43635707Y-80950000D01*
X43884293Y-80950000D01*
X44129493Y-80909083D01*
X44364606Y-80828368D01*
X44583233Y-80710053D01*
X44630056Y-80673609D01*
X43931568Y-79975121D01*
X44048458Y-79924349D01*
X44165739Y-79828934D01*
X44252928Y-79705415D01*
X44283354Y-79619802D01*
X44983434Y-80319882D01*
X45083730Y-80166369D01*
X45183586Y-79938721D01*
X45244613Y-79697732D01*
X45265141Y-79450000D01*
X46746835Y-79450000D01*
X46765465Y-79686712D01*
X46820894Y-79917593D01*
X46866327Y-80027278D01*
X46911760Y-80136963D01*
X47035824Y-80339416D01*
X47190031Y-80519969D01*
X47370584Y-80674176D01*
X47573037Y-80798240D01*
X47792406Y-80889105D01*
X48023289Y-80944535D01*
X48260000Y-80963165D01*
X48496711Y-80944535D01*
X48727594Y-80889105D01*
X48946963Y-80798240D01*
X49149416Y-80674176D01*
X49329969Y-80519969D01*
X49484176Y-80339416D01*
X49608240Y-80136963D01*
X49699105Y-79917594D01*
X49754535Y-79686711D01*
X49773165Y-79450000D01*
X52124858Y-79450000D01*
X52145386Y-79697732D01*
X52206413Y-79938721D01*
X52306268Y-80166370D01*
X52406563Y-80319882D01*
X52406564Y-80319882D01*
X53104070Y-79622376D01*
X53106884Y-79635915D01*
X53176442Y-79770156D01*
X53279638Y-79880652D01*
X53408819Y-79959209D01*
X53460002Y-79973549D01*
X52759942Y-80673609D01*
X52759942Y-80673610D01*
X52806766Y-80710055D01*
X53025393Y-80828368D01*
X53260506Y-80909083D01*
X53505707Y-80950000D01*
X53754293Y-80950000D01*
X53999493Y-80909083D01*
X54234606Y-80828368D01*
X54453233Y-80710053D01*
X54500056Y-80673609D01*
X53801568Y-79975121D01*
X53918458Y-79924349D01*
X54035739Y-79828934D01*
X54122928Y-79705415D01*
X54153354Y-79619802D01*
X54853434Y-80319882D01*
X54953730Y-80166369D01*
X55053586Y-79938721D01*
X55114613Y-79697732D01*
X55135141Y-79450000D01*
X56616835Y-79450000D01*
X56635465Y-79686712D01*
X56690894Y-79917593D01*
X56736327Y-80027278D01*
X56781760Y-80136963D01*
X56905824Y-80339416D01*
X57060031Y-80519969D01*
X57240584Y-80674176D01*
X57443037Y-80798240D01*
X57662406Y-80889105D01*
X57893289Y-80944535D01*
X58130000Y-80963165D01*
X58366711Y-80944535D01*
X58597594Y-80889105D01*
X58816963Y-80798240D01*
X59019416Y-80674176D01*
X59199969Y-80519969D01*
X59354176Y-80339416D01*
X59478240Y-80136963D01*
X59569105Y-79917594D01*
X59624535Y-79686711D01*
X59643165Y-79450000D01*
X62284858Y-79450000D01*
X62305386Y-79697732D01*
X62366413Y-79938721D01*
X62466268Y-80166370D01*
X62566563Y-80319882D01*
X62566564Y-80319882D01*
X63264070Y-79622375D01*
X63266884Y-79635915D01*
X63336442Y-79770156D01*
X63439638Y-79880652D01*
X63568819Y-79959209D01*
X63620002Y-79973549D01*
X62919942Y-80673609D01*
X62919942Y-80673610D01*
X62966766Y-80710055D01*
X63185393Y-80828368D01*
X63420506Y-80909083D01*
X63665707Y-80950000D01*
X63914293Y-80950000D01*
X64159493Y-80909083D01*
X64394606Y-80828368D01*
X64613233Y-80710053D01*
X64660056Y-80673609D01*
X63961568Y-79975121D01*
X64078458Y-79924349D01*
X64195739Y-79828934D01*
X64282928Y-79705415D01*
X64313354Y-79619802D01*
X65013434Y-80319882D01*
X65113730Y-80166369D01*
X65213586Y-79938721D01*
X65274613Y-79697732D01*
X65295141Y-79450000D01*
X66776835Y-79450000D01*
X66795465Y-79686712D01*
X66850894Y-79917593D01*
X66896327Y-80027278D01*
X66941760Y-80136963D01*
X67065824Y-80339416D01*
X67220031Y-80519969D01*
X67400584Y-80674176D01*
X67603037Y-80798240D01*
X67822406Y-80889105D01*
X68053289Y-80944535D01*
X68290000Y-80963165D01*
X68526711Y-80944535D01*
X68757594Y-80889105D01*
X68976963Y-80798240D01*
X69179416Y-80674176D01*
X69359969Y-80519969D01*
X69514176Y-80339416D01*
X69638240Y-80136963D01*
X69729105Y-79917594D01*
X69784535Y-79686711D01*
X69803165Y-79450000D01*
X69784535Y-79213289D01*
X69729105Y-78982406D01*
X69638240Y-78763037D01*
X69514176Y-78560584D01*
X69359969Y-78380031D01*
X69179416Y-78225824D01*
X68976963Y-78101760D01*
X68867278Y-78056327D01*
X68757593Y-78010894D01*
X68526712Y-77955465D01*
X68408355Y-77946149D01*
X68290000Y-77936835D01*
X68289999Y-77936835D01*
X68053287Y-77955465D01*
X67822406Y-78010894D01*
X67603035Y-78101761D01*
X67400585Y-78225823D01*
X67220031Y-78380031D01*
X67065823Y-78560585D01*
X66941761Y-78763035D01*
X66850894Y-78982406D01*
X66795465Y-79213287D01*
X66776835Y-79450000D01*
X65295141Y-79450000D01*
X65274613Y-79202267D01*
X65213586Y-78961278D01*
X65113730Y-78733630D01*
X65013434Y-78580116D01*
X64315928Y-79277621D01*
X64313116Y-79264085D01*
X64243558Y-79129844D01*
X64140362Y-79019348D01*
X64011181Y-78940791D01*
X63959996Y-78926449D01*
X64660056Y-78226389D01*
X64660056Y-78226387D01*
X64613235Y-78189947D01*
X64394606Y-78071631D01*
X64159493Y-77990916D01*
X63914293Y-77950000D01*
X63665707Y-77950000D01*
X63420506Y-77990916D01*
X63185393Y-78071631D01*
X62966764Y-78189946D01*
X62919942Y-78226388D01*
X62919942Y-78226390D01*
X63618430Y-78924879D01*
X63501542Y-78975651D01*
X63384261Y-79071066D01*
X63297072Y-79194585D01*
X63266645Y-79280197D01*
X62566564Y-78580116D01*
X62466266Y-78733634D01*
X62366413Y-78961278D01*
X62305386Y-79202267D01*
X62284858Y-79450000D01*
X59643165Y-79450000D01*
X59624535Y-79213289D01*
X59569105Y-78982406D01*
X59478240Y-78763037D01*
X59354176Y-78560584D01*
X59199969Y-78380031D01*
X59019416Y-78225824D01*
X58816963Y-78101760D01*
X58707278Y-78056327D01*
X58597593Y-78010894D01*
X58366712Y-77955465D01*
X58248355Y-77946149D01*
X58130000Y-77936835D01*
X58129999Y-77936835D01*
X57893287Y-77955465D01*
X57662406Y-78010894D01*
X57443035Y-78101761D01*
X57240585Y-78225823D01*
X57060031Y-78380031D01*
X56905823Y-78560585D01*
X56781761Y-78763035D01*
X56690894Y-78982406D01*
X56635465Y-79213287D01*
X56616835Y-79450000D01*
X55135141Y-79450000D01*
X55114613Y-79202267D01*
X55053586Y-78961278D01*
X54953730Y-78733630D01*
X54853434Y-78580116D01*
X54155929Y-79277622D01*
X54153116Y-79264085D01*
X54083558Y-79129844D01*
X53980362Y-79019348D01*
X53851181Y-78940791D01*
X53799997Y-78926450D01*
X54500057Y-78226390D01*
X54500056Y-78226388D01*
X54453235Y-78189947D01*
X54234606Y-78071631D01*
X53999493Y-77990916D01*
X53754293Y-77950000D01*
X53505707Y-77950000D01*
X53260506Y-77990916D01*
X53025393Y-78071631D01*
X52806764Y-78189946D01*
X52759942Y-78226388D01*
X52759942Y-78226390D01*
X53458431Y-78924878D01*
X53341542Y-78975651D01*
X53224261Y-79071066D01*
X53137072Y-79194585D01*
X53106645Y-79280197D01*
X52406564Y-78580116D01*
X52306266Y-78733634D01*
X52206413Y-78961278D01*
X52145386Y-79202267D01*
X52124858Y-79450000D01*
X49773165Y-79450000D01*
X49754535Y-79213289D01*
X49699105Y-78982406D01*
X49608240Y-78763037D01*
X49484176Y-78560584D01*
X49329969Y-78380031D01*
X49149416Y-78225824D01*
X48946963Y-78101760D01*
X48837278Y-78056327D01*
X48727593Y-78010894D01*
X48496712Y-77955465D01*
X48260000Y-77936835D01*
X48023287Y-77955465D01*
X47792406Y-78010894D01*
X47573035Y-78101761D01*
X47370585Y-78225823D01*
X47190031Y-78380031D01*
X47035823Y-78560585D01*
X46911761Y-78763035D01*
X46820894Y-78982406D01*
X46765465Y-79213287D01*
X46746835Y-79450000D01*
X45265141Y-79450000D01*
X45265141Y-79449999D01*
X45244613Y-79202267D01*
X45183586Y-78961278D01*
X45083730Y-78733630D01*
X44983434Y-78580116D01*
X44285929Y-79277622D01*
X44283116Y-79264085D01*
X44213558Y-79129844D01*
X44110362Y-79019348D01*
X43981181Y-78940791D01*
X43929996Y-78926449D01*
X44630056Y-78226389D01*
X44630056Y-78226387D01*
X44583235Y-78189947D01*
X44364606Y-78071631D01*
X44129493Y-77990916D01*
X43884293Y-77950000D01*
X43635707Y-77950000D01*
X43390506Y-77990916D01*
X43155393Y-78071631D01*
X42936764Y-78189946D01*
X42889942Y-78226388D01*
X42889942Y-78226390D01*
X43588430Y-78924879D01*
X43471542Y-78975651D01*
X43354261Y-79071066D01*
X43267072Y-79194585D01*
X43236645Y-79280196D01*
X42536564Y-78580117D01*
X42436266Y-78733634D01*
X42336413Y-78961278D01*
X42275386Y-79202267D01*
X42254858Y-79449999D01*
X21590500Y-79449999D01*
X21590500Y-75195051D01*
X31141500Y-75195051D01*
X31141501Y-75196670D01*
X31141587Y-75198302D01*
X31141588Y-75198314D01*
X31144084Y-75245327D01*
X31144084Y-75245334D01*
X31144311Y-75249592D01*
X31145121Y-75253782D01*
X31145122Y-75253787D01*
X31189029Y-75480812D01*
X31189030Y-75480814D01*
X31272182Y-75701152D01*
X31391375Y-75904268D01*
X31543181Y-76084319D01*
X31723232Y-76236125D01*
X31926348Y-76355318D01*
X32146686Y-76438470D01*
X32377908Y-76483189D01*
X32430829Y-76486000D01*
X34369170Y-76485999D01*
X34422092Y-76483189D01*
X34653314Y-76438470D01*
X34873652Y-76355318D01*
X35076768Y-76236125D01*
X35256819Y-76084319D01*
X35408625Y-75904268D01*
X35488216Y-75768638D01*
X76811500Y-75768638D01*
X76811852Y-75771918D01*
X76811853Y-75771924D01*
X76818011Y-75829205D01*
X76869110Y-75966203D01*
X76956738Y-76083261D01*
X77073796Y-76170889D01*
X77210794Y-76221988D01*
X77210797Y-76221988D01*
X77210799Y-76221989D01*
X77271362Y-76228500D01*
X77274672Y-76228500D01*
X78965328Y-76228500D01*
X78968638Y-76228500D01*
X79029201Y-76221989D01*
X79029203Y-76221988D01*
X79029205Y-76221988D01*
X79107124Y-76192924D01*
X79166204Y-76170889D01*
X79283261Y-76083261D01*
X79370889Y-75966204D01*
X79421989Y-75829201D01*
X79423569Y-75814501D01*
X79450307Y-75749951D01*
X79507699Y-75710102D01*
X79577524Y-75707607D01*
X79637613Y-75743259D01*
X79648423Y-75756619D01*
X79653802Y-75764300D01*
X79815700Y-75926198D01*
X80003251Y-76057523D01*
X80003254Y-76057524D01*
X80003255Y-76057525D01*
X80107004Y-76105903D01*
X80210757Y-76154284D01*
X80431913Y-76213543D01*
X80660000Y-76233498D01*
X80888087Y-76213543D01*
X81109243Y-76154284D01*
X81316749Y-76057523D01*
X81504300Y-75926198D01*
X81666198Y-75764300D01*
X81797523Y-75576749D01*
X81817617Y-75533655D01*
X81863790Y-75481215D01*
X81930983Y-75462063D01*
X81997864Y-75482278D01*
X82042382Y-75533655D01*
X82062477Y-75576749D01*
X82193802Y-75764300D01*
X82355700Y-75926198D01*
X82543251Y-76057523D01*
X82543254Y-76057524D01*
X82543255Y-76057525D01*
X82647004Y-76105903D01*
X82750757Y-76154284D01*
X82971913Y-76213543D01*
X83200000Y-76233498D01*
X83428087Y-76213543D01*
X83649243Y-76154284D01*
X83856749Y-76057523D01*
X83987281Y-75966122D01*
X84053484Y-75943797D01*
X84121252Y-75960807D01*
X84169065Y-76011755D01*
X84181743Y-76080464D01*
X84155262Y-76145121D01*
X84146083Y-76155380D01*
X81230107Y-79071356D01*
X81168784Y-79104841D01*
X81168207Y-79104965D01*
X80997714Y-79141204D01*
X80823248Y-79218881D01*
X80668748Y-79331133D01*
X80540957Y-79473058D01*
X80445472Y-79638443D01*
X80386458Y-79820070D01*
X80366496Y-80009999D01*
X80386458Y-80199929D01*
X80445472Y-80381556D01*
X80540957Y-80546941D01*
X80540960Y-80546944D01*
X80668747Y-80688866D01*
X80819284Y-80798238D01*
X80823248Y-80801118D01*
X80997714Y-80878795D01*
X81184511Y-80918500D01*
X81184513Y-80918500D01*
X81375489Y-80918500D01*
X81562285Y-80878795D01*
X81562286Y-80878794D01*
X81562288Y-80878794D01*
X81736752Y-80801118D01*
X81891253Y-80688866D01*
X82019040Y-80546944D01*
X82114527Y-80381556D01*
X82134566Y-80319882D01*
X82173542Y-80199929D01*
X82180101Y-80137515D01*
X82206684Y-80072900D01*
X82215732Y-80062802D01*
X86078535Y-76199999D01*
X90486568Y-76199999D01*
X90506264Y-76462824D01*
X90511534Y-76485912D01*
X90564913Y-76719780D01*
X90661204Y-76965124D01*
X90792985Y-77193376D01*
X90957314Y-77399438D01*
X90957316Y-77399440D01*
X90957317Y-77399441D01*
X91150513Y-77578701D01*
X91150515Y-77578702D01*
X91150519Y-77578706D01*
X91368285Y-77727176D01*
X91605746Y-77841532D01*
X91857600Y-77919218D01*
X92061825Y-77950000D01*
X92118218Y-77958500D01*
X92118219Y-77958500D01*
X92381782Y-77958500D01*
X92421063Y-77952579D01*
X92642400Y-77919218D01*
X92894254Y-77841532D01*
X93131716Y-77727176D01*
X93349481Y-77578706D01*
X93542686Y-77399438D01*
X93707015Y-77193376D01*
X93838796Y-76965124D01*
X93935087Y-76719780D01*
X93993735Y-76462826D01*
X94013431Y-76200000D01*
X93993735Y-75937174D01*
X93935087Y-75680220D01*
X93838796Y-75434876D01*
X93707015Y-75206624D01*
X93542686Y-75000562D01*
X93455861Y-74920000D01*
X93349483Y-74821295D01*
X93131713Y-74672822D01*
X92894252Y-74558467D01*
X92642401Y-74480782D01*
X92381782Y-74441500D01*
X92381781Y-74441500D01*
X92118219Y-74441500D01*
X92118218Y-74441500D01*
X91857598Y-74480782D01*
X91605748Y-74558467D01*
X91368287Y-74672822D01*
X91150513Y-74821298D01*
X90957317Y-75000558D01*
X90792984Y-75206624D01*
X90661204Y-75434875D01*
X90564913Y-75680219D01*
X90506264Y-75937175D01*
X90486568Y-76199999D01*
X86078535Y-76199999D01*
X89314830Y-72963704D01*
X89376151Y-72930221D01*
X89420986Y-72928772D01*
X89618219Y-72958500D01*
X89618220Y-72958500D01*
X89881782Y-72958500D01*
X89938168Y-72950001D01*
X90142400Y-72919218D01*
X90394254Y-72841532D01*
X90631716Y-72727176D01*
X90849481Y-72578706D01*
X91042686Y-72399438D01*
X91207015Y-72193376D01*
X91338796Y-71965124D01*
X91435087Y-71719780D01*
X91493735Y-71462826D01*
X91513431Y-71200000D01*
X100486568Y-71200000D01*
X100506264Y-71462824D01*
X100564913Y-71719780D01*
X100661204Y-71965124D01*
X100792984Y-72193375D01*
X100829844Y-72239596D01*
X100957314Y-72399438D01*
X100957316Y-72399440D01*
X100957317Y-72399441D01*
X101150513Y-72578701D01*
X101150515Y-72578702D01*
X101150519Y-72578706D01*
X101368285Y-72727176D01*
X101605746Y-72841532D01*
X101857600Y-72919218D01*
X102061819Y-72949999D01*
X102118218Y-72958500D01*
X102118219Y-72958500D01*
X102381782Y-72958500D01*
X102438168Y-72950001D01*
X102642400Y-72919218D01*
X102894254Y-72841532D01*
X103131716Y-72727176D01*
X103349481Y-72578706D01*
X103542686Y-72399438D01*
X103707015Y-72193376D01*
X103838796Y-71965124D01*
X103935087Y-71719780D01*
X103993735Y-71462826D01*
X104013431Y-71200000D01*
X103993735Y-70937174D01*
X103935087Y-70680220D01*
X103838796Y-70434876D01*
X103707015Y-70206624D01*
X103542686Y-70000562D01*
X103542682Y-70000558D01*
X103349483Y-69821295D01*
X103131713Y-69672822D01*
X102894252Y-69558467D01*
X102642401Y-69480782D01*
X102381782Y-69441500D01*
X102381781Y-69441500D01*
X102118219Y-69441500D01*
X102118218Y-69441500D01*
X101857598Y-69480782D01*
X101605748Y-69558467D01*
X101368287Y-69672822D01*
X101150513Y-69821298D01*
X100957317Y-70000558D01*
X100792984Y-70206624D01*
X100661204Y-70434875D01*
X100564913Y-70680219D01*
X100506264Y-70937175D01*
X100486568Y-71200000D01*
X91513431Y-71200000D01*
X91493735Y-70937174D01*
X91435087Y-70680220D01*
X91399382Y-70589245D01*
X91346838Y-70455366D01*
X91340669Y-70385770D01*
X91373107Y-70323886D01*
X91433852Y-70289363D01*
X91503618Y-70293162D01*
X91516045Y-70298334D01*
X91605746Y-70341532D01*
X91857600Y-70419218D01*
X92071964Y-70451528D01*
X92118218Y-70458500D01*
X92118219Y-70458500D01*
X92381782Y-70458500D01*
X92421064Y-70452579D01*
X92642400Y-70419218D01*
X92894254Y-70341532D01*
X93131716Y-70227176D01*
X93349481Y-70078706D01*
X93542686Y-69899438D01*
X93707015Y-69693376D01*
X93838796Y-69465124D01*
X93935087Y-69219780D01*
X93993735Y-68962826D01*
X94013431Y-68700000D01*
X93993735Y-68437174D01*
X93935087Y-68180220D01*
X93838796Y-67934876D01*
X93707015Y-67706624D01*
X93542686Y-67500562D01*
X93483771Y-67445897D01*
X93349483Y-67321295D01*
X93155872Y-67189293D01*
X93131716Y-67172824D01*
X93131715Y-67172823D01*
X93131713Y-67172822D01*
X92894252Y-67058467D01*
X92642401Y-66980782D01*
X92381782Y-66941500D01*
X92381781Y-66941500D01*
X92118219Y-66941500D01*
X92118218Y-66941500D01*
X91857598Y-66980782D01*
X91605748Y-67058467D01*
X91368287Y-67172822D01*
X91150513Y-67321298D01*
X90957317Y-67500558D01*
X90792984Y-67706624D01*
X90661204Y-67934875D01*
X90564913Y-68180219D01*
X90506264Y-68437175D01*
X90486568Y-68700000D01*
X90506264Y-68962824D01*
X90564913Y-69219782D01*
X90653161Y-69444632D01*
X90659330Y-69514228D01*
X90626892Y-69576112D01*
X90566147Y-69610635D01*
X90496381Y-69606836D01*
X90483932Y-69601654D01*
X90394255Y-69558468D01*
X90142401Y-69480782D01*
X89881782Y-69441500D01*
X89881781Y-69441500D01*
X89618219Y-69441500D01*
X89618218Y-69441500D01*
X89357598Y-69480782D01*
X89105748Y-69558467D01*
X88868287Y-69672822D01*
X88650513Y-69821298D01*
X88457317Y-70000558D01*
X88292984Y-70206624D01*
X88161204Y-70434875D01*
X88064913Y-70680219D01*
X88006264Y-70937175D01*
X87986568Y-71200000D01*
X88006264Y-71462824D01*
X88064913Y-71719782D01*
X88161202Y-71965121D01*
X88177734Y-71993755D01*
X88194205Y-72061655D01*
X88171353Y-72127682D01*
X88158027Y-72143435D01*
X84435380Y-75866083D01*
X84374057Y-75899568D01*
X84304365Y-75894584D01*
X84248432Y-75852712D01*
X84224015Y-75787248D01*
X84238867Y-75718975D01*
X84246113Y-75707294D01*
X84337523Y-75576749D01*
X84434284Y-75369243D01*
X84493543Y-75148087D01*
X84513498Y-74920000D01*
X84493543Y-74691913D01*
X84434284Y-74470757D01*
X84337523Y-74263251D01*
X84206198Y-74075700D01*
X84044300Y-73913802D01*
X83856749Y-73782477D01*
X83856746Y-73782476D01*
X83856744Y-73782474D01*
X83649246Y-73685717D01*
X83649243Y-73685716D01*
X83538665Y-73656086D01*
X83428084Y-73626456D01*
X83200000Y-73606501D01*
X82971915Y-73626456D01*
X82750753Y-73685717D01*
X82543255Y-73782474D01*
X82355696Y-73913805D01*
X82193805Y-74075696D01*
X82193804Y-74075698D01*
X82193802Y-74075700D01*
X82099726Y-74210055D01*
X82062476Y-74263253D01*
X82042382Y-74306345D01*
X81996209Y-74358784D01*
X81929016Y-74377936D01*
X81862135Y-74357720D01*
X81817618Y-74306345D01*
X81816214Y-74303334D01*
X81797523Y-74263251D01*
X81666198Y-74075700D01*
X81504300Y-73913802D01*
X81316749Y-73782477D01*
X81316746Y-73782476D01*
X81316744Y-73782474D01*
X81109246Y-73685717D01*
X81109243Y-73685716D01*
X80998664Y-73656086D01*
X80888084Y-73626456D01*
X80659999Y-73606501D01*
X80431915Y-73626456D01*
X80210753Y-73685717D01*
X80003255Y-73782474D01*
X79815696Y-73913805D01*
X79653803Y-74075698D01*
X79648433Y-74083368D01*
X79593855Y-74126992D01*
X79524356Y-74134184D01*
X79462002Y-74102660D01*
X79426590Y-74042430D01*
X79423569Y-74025497D01*
X79422975Y-74019969D01*
X79421989Y-74010799D01*
X79421988Y-74010797D01*
X79421988Y-74010794D01*
X79370889Y-73873796D01*
X79283261Y-73756738D01*
X79166203Y-73669110D01*
X79029205Y-73618011D01*
X78971924Y-73611853D01*
X78971918Y-73611852D01*
X78968638Y-73611500D01*
X77271362Y-73611500D01*
X77268082Y-73611852D01*
X77268075Y-73611853D01*
X77210794Y-73618011D01*
X77073796Y-73669110D01*
X76956738Y-73756738D01*
X76869110Y-73873796D01*
X76818011Y-74010794D01*
X76814610Y-74042430D01*
X76811500Y-74071362D01*
X76811500Y-75768638D01*
X35488216Y-75768638D01*
X35527818Y-75701152D01*
X35610970Y-75480814D01*
X35655689Y-75249592D01*
X35658500Y-75196671D01*
X35658499Y-73258330D01*
X35655689Y-73205408D01*
X35610970Y-72974186D01*
X35601842Y-72949999D01*
X42254858Y-72949999D01*
X42275386Y-73197732D01*
X42336413Y-73438721D01*
X42436268Y-73666370D01*
X42536563Y-73819882D01*
X42536564Y-73819882D01*
X43234070Y-73122376D01*
X43236884Y-73135915D01*
X43306442Y-73270156D01*
X43409638Y-73380652D01*
X43538819Y-73459209D01*
X43590002Y-73473549D01*
X42889942Y-74173609D01*
X42889942Y-74173610D01*
X42936766Y-74210055D01*
X43155393Y-74328368D01*
X43390506Y-74409083D01*
X43635707Y-74450000D01*
X43884293Y-74450000D01*
X44129493Y-74409083D01*
X44364606Y-74328368D01*
X44583233Y-74210053D01*
X44630056Y-74173609D01*
X43931568Y-73475121D01*
X44048458Y-73424349D01*
X44165739Y-73328934D01*
X44252928Y-73205415D01*
X44283354Y-73119802D01*
X44983434Y-73819882D01*
X45083730Y-73666369D01*
X45183586Y-73438721D01*
X45244613Y-73197732D01*
X45265141Y-72949999D01*
X45244613Y-72702267D01*
X45183586Y-72461278D01*
X45083730Y-72233630D01*
X44983434Y-72080116D01*
X44285929Y-72777622D01*
X44283116Y-72764085D01*
X44213558Y-72629844D01*
X44110362Y-72519348D01*
X43981181Y-72440791D01*
X43929997Y-72426450D01*
X44630057Y-71726390D01*
X44630056Y-71726388D01*
X44583235Y-71689947D01*
X44364606Y-71571631D01*
X44129493Y-71490916D01*
X43884293Y-71450000D01*
X43635707Y-71450000D01*
X43390506Y-71490916D01*
X43155393Y-71571631D01*
X42936764Y-71689946D01*
X42889942Y-71726388D01*
X42889942Y-71726390D01*
X43588431Y-72424878D01*
X43471542Y-72475651D01*
X43354261Y-72571066D01*
X43267072Y-72694585D01*
X43236645Y-72780197D01*
X42536564Y-72080116D01*
X42436266Y-72233634D01*
X42336413Y-72461278D01*
X42275386Y-72702267D01*
X42254858Y-72949999D01*
X35601842Y-72949999D01*
X35527818Y-72753848D01*
X35408625Y-72550732D01*
X35256819Y-72370681D01*
X35076768Y-72218875D01*
X34873652Y-72099682D01*
X34678443Y-72026013D01*
X34622673Y-71983927D01*
X34598509Y-71918368D01*
X34613624Y-71850153D01*
X34663220Y-71800939D01*
X34722226Y-71786000D01*
X38195328Y-71786000D01*
X38198638Y-71786000D01*
X38259201Y-71779489D01*
X38259203Y-71779488D01*
X38259205Y-71779488D01*
X38337124Y-71750424D01*
X38396204Y-71728389D01*
X38513261Y-71640761D01*
X38600889Y-71523704D01*
X38626341Y-71455465D01*
X38651988Y-71386705D01*
X38651988Y-71386703D01*
X38651989Y-71386701D01*
X38658500Y-71326138D01*
X38658500Y-67728862D01*
X38651989Y-67668299D01*
X38651988Y-67668297D01*
X38651988Y-67668294D01*
X38600889Y-67531296D01*
X38513261Y-67414238D01*
X38396203Y-67326610D01*
X38259205Y-67275511D01*
X38201924Y-67269353D01*
X38201918Y-67269352D01*
X38198638Y-67269000D01*
X34601362Y-67269000D01*
X34598082Y-67269352D01*
X34598075Y-67269353D01*
X34540794Y-67275511D01*
X34403796Y-67326610D01*
X34286738Y-67414238D01*
X34199110Y-67531296D01*
X34148011Y-67668294D01*
X34142112Y-67723167D01*
X34141500Y-67728862D01*
X34141500Y-71326138D01*
X34141852Y-71329418D01*
X34141853Y-71329424D01*
X34148011Y-71386705D01*
X34199110Y-71523703D01*
X34286738Y-71640761D01*
X34374366Y-71706357D01*
X34403796Y-71728389D01*
X34404949Y-71728819D01*
X34460882Y-71770692D01*
X34485297Y-71836157D01*
X34470444Y-71904429D01*
X34421038Y-71953833D01*
X34361613Y-71969000D01*
X32432485Y-71969000D01*
X32432447Y-71969000D01*
X32430830Y-71969001D01*
X32429198Y-71969087D01*
X32429185Y-71969088D01*
X32382172Y-71971584D01*
X32382163Y-71971585D01*
X32377908Y-71971811D01*
X32373719Y-71972621D01*
X32373712Y-71972622D01*
X32146687Y-72016529D01*
X31926345Y-72099683D01*
X31723232Y-72218875D01*
X31543181Y-72370681D01*
X31391375Y-72550732D01*
X31272183Y-72753845D01*
X31189029Y-72974187D01*
X31145124Y-73201204D01*
X31144311Y-73205408D01*
X31144085Y-73209672D01*
X31144083Y-73209687D01*
X31141587Y-73256678D01*
X31141587Y-73256685D01*
X31141500Y-73258329D01*
X31141500Y-73259972D01*
X31141500Y-73259973D01*
X31141500Y-75195014D01*
X31141500Y-75195051D01*
X21590500Y-75195051D01*
X21590500Y-69277500D01*
X28400000Y-69277500D01*
X29900000Y-69277500D01*
X29900000Y-69777500D01*
X28400001Y-69777500D01*
X28400001Y-70589244D01*
X28400192Y-70594125D01*
X28410400Y-70723831D01*
X28465377Y-70942018D01*
X28558430Y-71146879D01*
X28686565Y-71331832D01*
X28845667Y-71490934D01*
X29030620Y-71619069D01*
X29235481Y-71712122D01*
X29453668Y-71767099D01*
X29583374Y-71777308D01*
X29588254Y-71777499D01*
X30149999Y-71777499D01*
X30150000Y-71777498D01*
X30150000Y-70961186D01*
X30190156Y-70986993D01*
X30328111Y-71027500D01*
X30471889Y-71027500D01*
X30609844Y-70986993D01*
X30650000Y-70961186D01*
X30650000Y-71777499D01*
X31211744Y-71777499D01*
X31216625Y-71777307D01*
X31346331Y-71767099D01*
X31564518Y-71712122D01*
X31769379Y-71619069D01*
X31954332Y-71490934D01*
X32113434Y-71331832D01*
X32241569Y-71146879D01*
X32334622Y-70942018D01*
X32389599Y-70723831D01*
X32399808Y-70594125D01*
X32400000Y-70589245D01*
X32400000Y-69777500D01*
X30900000Y-69777500D01*
X30900000Y-69277500D01*
X32399999Y-69277500D01*
X32399999Y-68465755D01*
X32399807Y-68460874D01*
X32389599Y-68331168D01*
X32334622Y-68112981D01*
X32241569Y-67908120D01*
X32113434Y-67723167D01*
X31954332Y-67564065D01*
X31769379Y-67435930D01*
X31564518Y-67342877D01*
X31346331Y-67287900D01*
X31216625Y-67277691D01*
X31211746Y-67277500D01*
X30650000Y-67277500D01*
X30650000Y-68093813D01*
X30609844Y-68068007D01*
X30471889Y-68027500D01*
X30328111Y-68027500D01*
X30190156Y-68068007D01*
X30150000Y-68093813D01*
X30150000Y-67277500D01*
X29588255Y-67277500D01*
X29583374Y-67277692D01*
X29453668Y-67287900D01*
X29235481Y-67342877D01*
X29030620Y-67435930D01*
X28845667Y-67564065D01*
X28686565Y-67723167D01*
X28558430Y-67908120D01*
X28465377Y-68112981D01*
X28410400Y-68331168D01*
X28400191Y-68460874D01*
X28400000Y-68465754D01*
X28400000Y-69277500D01*
X21590500Y-69277500D01*
X21590500Y-62389999D01*
X23136526Y-62389999D01*
X23156391Y-62642404D01*
X23215494Y-62888590D01*
X23242872Y-62954686D01*
X23312384Y-63122502D01*
X23444672Y-63338376D01*
X23609102Y-63530898D01*
X23801624Y-63695328D01*
X24017498Y-63827616D01*
X24251409Y-63924505D01*
X24497597Y-63983609D01*
X24686801Y-63998500D01*
X24689246Y-63998500D01*
X26110754Y-63998500D01*
X26113199Y-63998500D01*
X26302403Y-63983609D01*
X26548591Y-63924505D01*
X26782502Y-63827616D01*
X26998376Y-63695328D01*
X27190898Y-63530898D01*
X27355328Y-63338376D01*
X27487616Y-63122502D01*
X27584505Y-62888591D01*
X27643609Y-62642403D01*
X27663474Y-62390000D01*
X27643609Y-62137597D01*
X27584505Y-61891409D01*
X27487616Y-61657498D01*
X27355328Y-61441624D01*
X27190898Y-61249102D01*
X26998376Y-61084672D01*
X26782502Y-60952384D01*
X26665546Y-60903939D01*
X26548590Y-60855494D01*
X26302404Y-60796391D01*
X26292682Y-60795625D01*
X26267636Y-60793654D01*
X26202349Y-60768771D01*
X26160879Y-60712539D01*
X26156392Y-60642814D01*
X26190315Y-60581731D01*
X26244377Y-60550506D01*
X26343993Y-60523014D01*
X26442539Y-60475556D01*
X26548090Y-60424727D01*
X26548093Y-60424725D01*
X26731363Y-60291571D01*
X26887912Y-60127834D01*
X27012709Y-59938774D01*
X27101743Y-59730470D01*
X27135119Y-59584240D01*
X31169310Y-59584240D01*
X31257588Y-59638899D01*
X31447679Y-59712540D01*
X31648072Y-59750000D01*
X31851928Y-59750000D01*
X32052320Y-59712540D01*
X32242411Y-59638899D01*
X32330688Y-59584240D01*
X42091310Y-59584240D01*
X42179588Y-59638899D01*
X42369679Y-59712540D01*
X42570072Y-59750000D01*
X42773928Y-59750000D01*
X42974320Y-59712540D01*
X43164411Y-59638899D01*
X43252688Y-59584240D01*
X42672001Y-59003553D01*
X42672000Y-59003553D01*
X42091310Y-59584240D01*
X32330688Y-59584240D01*
X32100688Y-59354240D01*
X36249310Y-59354240D01*
X36337588Y-59408899D01*
X36527679Y-59482540D01*
X36728072Y-59520000D01*
X36931928Y-59520000D01*
X37132320Y-59482540D01*
X37322411Y-59408899D01*
X37410688Y-59354240D01*
X36830001Y-58773553D01*
X36830000Y-58773553D01*
X36249310Y-59354240D01*
X32100688Y-59354240D01*
X31750001Y-59003553D01*
X31750000Y-59003553D01*
X31169310Y-59584240D01*
X27135119Y-59584240D01*
X27152151Y-59509615D01*
X27162315Y-59283309D01*
X27131906Y-59058825D01*
X27061903Y-58843379D01*
X26954556Y-58643894D01*
X26936969Y-58621840D01*
X26813315Y-58466783D01*
X26642717Y-58317736D01*
X26448249Y-58201546D01*
X26236161Y-58121948D01*
X26013269Y-58081500D01*
X26013267Y-58081500D01*
X24843478Y-58081500D01*
X24840730Y-58081747D01*
X24840714Y-58081748D01*
X24674375Y-58096719D01*
X24456005Y-58156986D01*
X24251909Y-58255272D01*
X24121530Y-58350000D01*
X24068637Y-58388429D01*
X24068635Y-58388430D01*
X24068635Y-58388431D01*
X23912087Y-58552165D01*
X23787291Y-58741225D01*
X23698256Y-58949530D01*
X23647849Y-59170384D01*
X23637684Y-59396689D01*
X23668093Y-59621174D01*
X23692216Y-59695416D01*
X23738097Y-59836621D01*
X23832729Y-60012477D01*
X23845446Y-60036109D01*
X23984277Y-60210198D01*
X23986686Y-60213218D01*
X24157282Y-60362262D01*
X24157282Y-60362263D01*
X24351749Y-60478453D01*
X24470480Y-60523013D01*
X24543735Y-60550506D01*
X24555201Y-60554809D01*
X24611049Y-60596794D01*
X24635333Y-60662308D01*
X24620342Y-60730550D01*
X24570836Y-60779855D01*
X24521364Y-60794519D01*
X24497601Y-60796389D01*
X24251409Y-60855494D01*
X24017496Y-60952385D01*
X23801625Y-61084671D01*
X23609102Y-61249102D01*
X23444671Y-61441625D01*
X23312385Y-61657496D01*
X23215494Y-61891409D01*
X23156391Y-62137595D01*
X23136526Y-62389999D01*
X21590500Y-62389999D01*
X21590500Y-57798638D01*
X30641500Y-57798638D01*
X30641852Y-57801918D01*
X30641853Y-57801924D01*
X30648011Y-57859205D01*
X30699110Y-57996203D01*
X30741963Y-58053448D01*
X30766380Y-58118912D01*
X30753697Y-58183028D01*
X30719885Y-58250933D01*
X30664096Y-58447007D01*
X30645287Y-58649999D01*
X30664096Y-58852992D01*
X30719885Y-59049068D01*
X30810751Y-59231552D01*
X30812532Y-59233912D01*
X31454655Y-58591789D01*
X31446105Y-58621840D01*
X31456454Y-58733521D01*
X31506448Y-58833922D01*
X31589334Y-58909484D01*
X31693920Y-58950000D01*
X31777802Y-58950000D01*
X31860250Y-58934588D01*
X31955610Y-58875543D01*
X32023201Y-58786038D01*
X32053895Y-58678160D01*
X32045947Y-58592394D01*
X32687465Y-59233912D01*
X32689247Y-59231553D01*
X32780115Y-59049066D01*
X32835903Y-58852992D01*
X32854712Y-58649999D01*
X32835903Y-58447007D01*
X32780115Y-58250933D01*
X32746303Y-58183030D01*
X32734042Y-58114244D01*
X32758034Y-58053450D01*
X32800889Y-57996204D01*
X32833474Y-57908841D01*
X32851988Y-57859205D01*
X32851988Y-57859203D01*
X32851989Y-57859201D01*
X32858500Y-57798638D01*
X32858500Y-57568638D01*
X35721500Y-57568638D01*
X35721852Y-57571918D01*
X35721853Y-57571924D01*
X35728011Y-57629205D01*
X35779110Y-57766203D01*
X35821963Y-57823448D01*
X35846380Y-57888912D01*
X35833697Y-57953028D01*
X35799885Y-58020933D01*
X35744096Y-58217007D01*
X35725287Y-58420000D01*
X35744096Y-58622992D01*
X35799885Y-58819068D01*
X35890751Y-59001552D01*
X35892532Y-59003912D01*
X36534655Y-58361789D01*
X36526105Y-58391840D01*
X36536454Y-58503521D01*
X36586448Y-58603922D01*
X36669334Y-58679484D01*
X36773920Y-58720000D01*
X36857802Y-58720000D01*
X36940250Y-58704588D01*
X37035610Y-58645543D01*
X37103201Y-58556038D01*
X37133895Y-58448160D01*
X37125947Y-58362394D01*
X37767465Y-59003912D01*
X37769247Y-59001553D01*
X37860115Y-58819066D01*
X37915903Y-58622992D01*
X37934712Y-58419999D01*
X37915903Y-58217007D01*
X37860115Y-58020933D01*
X37826303Y-57953030D01*
X37814042Y-57884244D01*
X37838034Y-57823450D01*
X37856609Y-57798638D01*
X41563500Y-57798638D01*
X41563852Y-57801918D01*
X41563853Y-57801924D01*
X41570011Y-57859205D01*
X41621110Y-57996203D01*
X41663963Y-58053448D01*
X41688380Y-58118912D01*
X41675697Y-58183028D01*
X41641885Y-58250933D01*
X41586096Y-58447007D01*
X41567287Y-58649999D01*
X41586096Y-58852992D01*
X41641885Y-59049068D01*
X41732751Y-59231552D01*
X41734532Y-59233912D01*
X42376655Y-58591789D01*
X42368105Y-58621840D01*
X42378454Y-58733521D01*
X42428448Y-58833922D01*
X42511334Y-58909484D01*
X42615920Y-58950000D01*
X42699802Y-58950000D01*
X42782250Y-58934588D01*
X42877610Y-58875543D01*
X42945201Y-58786038D01*
X42975895Y-58678160D01*
X42967947Y-58592394D01*
X43609465Y-59233912D01*
X43611247Y-59231553D01*
X43702115Y-59049066D01*
X43757903Y-58852992D01*
X43776712Y-58650000D01*
X43757903Y-58447007D01*
X43702115Y-58250933D01*
X43668303Y-58183030D01*
X43656042Y-58114244D01*
X43680034Y-58053450D01*
X43722889Y-57996204D01*
X43755474Y-57908841D01*
X43773988Y-57859205D01*
X43773988Y-57859203D01*
X43773989Y-57859201D01*
X43780500Y-57798638D01*
X43780500Y-56501362D01*
X43773989Y-56440799D01*
X43773988Y-56440797D01*
X43773988Y-56440794D01*
X43722889Y-56303796D01*
X43635261Y-56186738D01*
X43518203Y-56099110D01*
X43381205Y-56048011D01*
X43323924Y-56041853D01*
X43323918Y-56041852D01*
X43320638Y-56041500D01*
X42023362Y-56041500D01*
X42020082Y-56041852D01*
X42020075Y-56041853D01*
X41962794Y-56048011D01*
X41825796Y-56099110D01*
X41708738Y-56186738D01*
X41621110Y-56303796D01*
X41570011Y-56440794D01*
X41563853Y-56498075D01*
X41563500Y-56501362D01*
X41563500Y-57798638D01*
X37856609Y-57798638D01*
X37880889Y-57766204D01*
X37931989Y-57629201D01*
X37938500Y-57568638D01*
X37938500Y-56271362D01*
X37931989Y-56210799D01*
X37931988Y-56210797D01*
X37931988Y-56210794D01*
X37880889Y-56073796D01*
X37793261Y-55956738D01*
X37676203Y-55869110D01*
X37539205Y-55818011D01*
X37481924Y-55811853D01*
X37481918Y-55811852D01*
X37478638Y-55811500D01*
X36181362Y-55811500D01*
X36178082Y-55811852D01*
X36178075Y-55811853D01*
X36120794Y-55818011D01*
X35983796Y-55869110D01*
X35866738Y-55956738D01*
X35779110Y-56073796D01*
X35728011Y-56210794D01*
X35724710Y-56241500D01*
X35721500Y-56271362D01*
X35721500Y-57568638D01*
X32858500Y-57568638D01*
X32858500Y-56501362D01*
X32851989Y-56440799D01*
X32851988Y-56440797D01*
X32851988Y-56440794D01*
X32800889Y-56303796D01*
X32713261Y-56186738D01*
X32596203Y-56099110D01*
X32459205Y-56048011D01*
X32401924Y-56041853D01*
X32401918Y-56041852D01*
X32398638Y-56041500D01*
X31101362Y-56041500D01*
X31098082Y-56041852D01*
X31098075Y-56041853D01*
X31040794Y-56048011D01*
X30903796Y-56099110D01*
X30786738Y-56186738D01*
X30699110Y-56303796D01*
X30648011Y-56440794D01*
X30641853Y-56498075D01*
X30641500Y-56501362D01*
X30641500Y-57798638D01*
X21590500Y-57798638D01*
X21590500Y-56396689D01*
X23637684Y-56396689D01*
X23668093Y-56621174D01*
X23703606Y-56730469D01*
X23738097Y-56836621D01*
X23804529Y-56960072D01*
X23845446Y-57036109D01*
X23918594Y-57127834D01*
X23986686Y-57213218D01*
X24131719Y-57339929D01*
X24157282Y-57362263D01*
X24351750Y-57478453D01*
X24563838Y-57558051D01*
X24786731Y-57598500D01*
X24786733Y-57598500D01*
X25953745Y-57598500D01*
X25956522Y-57598500D01*
X26125622Y-57583281D01*
X26343993Y-57523014D01*
X26442539Y-57475556D01*
X26548090Y-57424727D01*
X26548093Y-57424725D01*
X26731363Y-57291571D01*
X26887912Y-57127834D01*
X27012709Y-56938774D01*
X27101743Y-56730470D01*
X27152151Y-56509615D01*
X27162315Y-56283309D01*
X27131906Y-56058825D01*
X27061903Y-55843379D01*
X26954556Y-55643894D01*
X26954553Y-55643890D01*
X26813315Y-55466783D01*
X26642717Y-55317736D01*
X26448249Y-55201546D01*
X26236161Y-55121948D01*
X26013269Y-55081500D01*
X26013267Y-55081500D01*
X24843478Y-55081500D01*
X24840730Y-55081747D01*
X24840714Y-55081748D01*
X24674375Y-55096719D01*
X24456005Y-55156986D01*
X24251909Y-55255272D01*
X24116506Y-55353649D01*
X24068637Y-55388429D01*
X24068635Y-55388430D01*
X24068635Y-55388431D01*
X23912087Y-55552165D01*
X23787291Y-55741225D01*
X23698256Y-55949530D01*
X23647849Y-56170384D01*
X23637684Y-56396689D01*
X21590500Y-56396689D01*
X21590500Y-50290000D01*
X23136526Y-50290000D01*
X23156391Y-50542404D01*
X23215494Y-50788590D01*
X23260837Y-50898056D01*
X23312384Y-51022502D01*
X23444672Y-51238376D01*
X23609102Y-51430898D01*
X23801624Y-51595328D01*
X24017498Y-51727616D01*
X24230874Y-51815999D01*
X24251409Y-51824505D01*
X24303146Y-51836926D01*
X24363738Y-51871717D01*
X24395902Y-51933743D01*
X24389426Y-52003312D01*
X24346366Y-52058336D01*
X24280394Y-52081345D01*
X24274199Y-52081500D01*
X24101362Y-52081500D01*
X24098082Y-52081852D01*
X24098075Y-52081853D01*
X24040794Y-52088011D01*
X23903796Y-52139110D01*
X23786738Y-52226738D01*
X23699110Y-52343796D01*
X23648011Y-52480794D01*
X23641853Y-52538075D01*
X23641500Y-52541362D01*
X23641500Y-54138638D01*
X23641852Y-54141918D01*
X23641853Y-54141924D01*
X23648011Y-54199205D01*
X23699110Y-54336203D01*
X23786738Y-54453261D01*
X23903796Y-54540889D01*
X24040794Y-54591988D01*
X24040797Y-54591988D01*
X24040799Y-54591989D01*
X24101362Y-54598500D01*
X24104672Y-54598500D01*
X26695328Y-54598500D01*
X26698638Y-54598500D01*
X26759201Y-54591989D01*
X26759203Y-54591988D01*
X26759205Y-54591988D01*
X26837124Y-54562924D01*
X26896204Y-54540889D01*
X27013261Y-54453261D01*
X27100889Y-54336204D01*
X27151989Y-54199201D01*
X27158500Y-54138638D01*
X27158500Y-52541362D01*
X27151989Y-52480799D01*
X27151988Y-52480797D01*
X27151988Y-52480794D01*
X27100889Y-52343796D01*
X27013261Y-52226738D01*
X26896203Y-52139110D01*
X26759205Y-52088011D01*
X26701924Y-52081853D01*
X26701918Y-52081852D01*
X26698638Y-52081500D01*
X26525801Y-52081500D01*
X26458762Y-52061815D01*
X26413007Y-52009011D01*
X26403063Y-51939853D01*
X26432088Y-51876297D01*
X26490866Y-51838523D01*
X26496854Y-51836926D01*
X26516937Y-51832104D01*
X26548591Y-51824505D01*
X26782502Y-51727616D01*
X26998376Y-51595328D01*
X27190898Y-51430898D01*
X27355328Y-51238376D01*
X27487616Y-51022502D01*
X27584505Y-50788591D01*
X27643609Y-50542403D01*
X27663474Y-50290000D01*
X27643609Y-50037597D01*
X27584505Y-49791409D01*
X27487616Y-49557498D01*
X27355328Y-49341624D01*
X27190898Y-49149102D01*
X26998376Y-48984672D01*
X26782502Y-48852384D01*
X26665546Y-48803939D01*
X26548590Y-48755494D01*
X26302404Y-48696391D01*
X26115633Y-48681691D01*
X26115618Y-48681690D01*
X26113199Y-48681500D01*
X24686801Y-48681500D01*
X24684382Y-48681690D01*
X24684366Y-48681691D01*
X24497595Y-48696391D01*
X24251409Y-48755494D01*
X24051751Y-48838195D01*
X24033459Y-48845773D01*
X24017496Y-48852385D01*
X23801625Y-48984671D01*
X23609102Y-49149102D01*
X23444671Y-49341625D01*
X23312385Y-49557496D01*
X23215494Y-49791409D01*
X23156391Y-50037595D01*
X23136526Y-50290000D01*
X21590500Y-50290000D01*
X21590500Y-46899999D01*
X40101692Y-46899999D01*
X40120884Y-47119368D01*
X40177880Y-47332077D01*
X40197385Y-47373905D01*
X40270944Y-47531654D01*
X40397251Y-47712038D01*
X40552962Y-47867749D01*
X40733346Y-47994056D01*
X40932924Y-48087120D01*
X41145629Y-48144115D01*
X41291876Y-48156909D01*
X41364999Y-48163307D01*
X41364999Y-48163306D01*
X41365000Y-48163307D01*
X41584371Y-48144115D01*
X41797076Y-48087120D01*
X41996654Y-47994056D01*
X42177038Y-47867749D01*
X42332749Y-47712038D01*
X42459056Y-47531654D01*
X42552120Y-47332076D01*
X42609115Y-47119371D01*
X42628307Y-46900000D01*
X42609115Y-46680629D01*
X42552120Y-46467924D01*
X42459056Y-46268347D01*
X42332749Y-46087962D01*
X42177038Y-45932251D01*
X41996654Y-45805944D01*
X41898930Y-45760375D01*
X41797077Y-45712880D01*
X41584368Y-45655884D01*
X41365000Y-45636692D01*
X41145631Y-45655884D01*
X40932922Y-45712880D01*
X40733349Y-45805943D01*
X40733347Y-45805944D01*
X40645859Y-45867204D01*
X40552958Y-45932254D01*
X40397254Y-46087958D01*
X40270943Y-46268349D01*
X40177880Y-46467922D01*
X40120884Y-46680631D01*
X40101692Y-46899999D01*
X21590500Y-46899999D01*
X21590500Y-37082500D01*
X35891496Y-37082500D01*
X35911458Y-37272429D01*
X35970472Y-37454056D01*
X36065957Y-37619441D01*
X36087833Y-37643736D01*
X36193747Y-37761366D01*
X36348248Y-37873618D01*
X36522712Y-37951294D01*
X36579165Y-37963293D01*
X36640646Y-37996484D01*
X36641065Y-37996902D01*
X39777661Y-41133499D01*
X39789443Y-41147132D01*
X39804101Y-41166822D01*
X39842726Y-41199231D01*
X39850702Y-41206540D01*
X39854735Y-41210573D01*
X39870021Y-41222660D01*
X39879472Y-41230133D01*
X39882247Y-41232393D01*
X39940647Y-41281396D01*
X39940650Y-41281397D01*
X39941516Y-41282124D01*
X39958463Y-41292921D01*
X40028584Y-41325619D01*
X40031831Y-41327191D01*
X40100940Y-41361899D01*
X40122350Y-41369341D01*
X40134170Y-41374854D01*
X40132811Y-41377765D01*
X40174204Y-41399797D01*
X40208342Y-41460759D01*
X40204102Y-41530500D01*
X40199847Y-41540813D01*
X40177880Y-41587921D01*
X40120884Y-41800631D01*
X40101692Y-42020000D01*
X40120884Y-42239368D01*
X40177880Y-42452077D01*
X40228035Y-42559636D01*
X40270944Y-42651654D01*
X40397251Y-42832038D01*
X40552962Y-42987749D01*
X40733346Y-43114056D01*
X40932924Y-43207120D01*
X41145629Y-43264115D01*
X41291876Y-43276909D01*
X41364999Y-43283307D01*
X41364999Y-43283306D01*
X41365000Y-43283307D01*
X41584371Y-43264115D01*
X41797076Y-43207120D01*
X41996654Y-43114056D01*
X42177038Y-42987749D01*
X42332749Y-42832038D01*
X42459056Y-42651654D01*
X42552120Y-42452076D01*
X42609115Y-42239371D01*
X42628307Y-42020000D01*
X42609115Y-41800629D01*
X42555116Y-41599105D01*
X42556779Y-41529257D01*
X42595941Y-41471395D01*
X42624457Y-41453733D01*
X42658943Y-41438379D01*
X42675252Y-41431118D01*
X42829753Y-41318866D01*
X42957540Y-41176944D01*
X42965646Y-41162905D01*
X43053027Y-41011556D01*
X43110876Y-40833516D01*
X43112042Y-40829928D01*
X43132004Y-40640000D01*
X43112042Y-40450072D01*
X43068095Y-40314818D01*
X43053027Y-40268443D01*
X42957542Y-40103058D01*
X42909333Y-40049517D01*
X42829753Y-39961134D01*
X42675252Y-39848882D01*
X42675251Y-39848881D01*
X42500785Y-39771204D01*
X42313989Y-39731500D01*
X42313987Y-39731500D01*
X42123013Y-39731500D01*
X42123011Y-39731500D01*
X41936214Y-39771204D01*
X41761748Y-39848881D01*
X41754954Y-39853818D01*
X41689148Y-39877298D01*
X41682068Y-39877500D01*
X40729700Y-39877500D01*
X40662661Y-39857815D01*
X40642019Y-39841181D01*
X37722063Y-36921225D01*
X37691813Y-36871862D01*
X37639527Y-36710943D01*
X37544042Y-36545558D01*
X37501232Y-36498013D01*
X37416253Y-36403634D01*
X37319901Y-36333629D01*
X37261751Y-36291381D01*
X37087285Y-36213704D01*
X36900489Y-36174000D01*
X36900487Y-36174000D01*
X36709513Y-36174000D01*
X36709511Y-36174000D01*
X36522714Y-36213704D01*
X36348248Y-36291381D01*
X36193748Y-36403633D01*
X36065957Y-36545558D01*
X35970472Y-36710943D01*
X35911458Y-36892570D01*
X35891496Y-37082500D01*
X21590500Y-37082500D01*
X21590500Y-30480000D01*
X24656807Y-30480000D01*
X24657096Y-30484225D01*
X24672279Y-30706204D01*
X24675558Y-30754130D01*
X24676419Y-30758277D01*
X24676421Y-30758286D01*
X24730598Y-31018996D01*
X24731462Y-31023153D01*
X24732880Y-31027144D01*
X24732883Y-31027153D01*
X24822056Y-31278061D01*
X24823477Y-31282058D01*
X24825424Y-31285816D01*
X24825426Y-31285820D01*
X24912367Y-31453609D01*
X24949889Y-31526023D01*
X24952335Y-31529488D01*
X25105898Y-31747039D01*
X25105902Y-31747044D01*
X25108343Y-31750502D01*
X25111231Y-31753594D01*
X25243884Y-31895631D01*
X25295889Y-31951314D01*
X25509031Y-32124718D01*
X25743800Y-32267484D01*
X25898273Y-32334581D01*
X25966752Y-32364326D01*
X25995823Y-32376953D01*
X26169622Y-32425649D01*
X26256324Y-32449942D01*
X26256326Y-32449942D01*
X26260404Y-32451085D01*
X26532615Y-32488500D01*
X26536852Y-32488500D01*
X26803148Y-32488500D01*
X26807385Y-32488500D01*
X27079596Y-32451085D01*
X27344177Y-32376953D01*
X27596200Y-32267484D01*
X27830969Y-32124718D01*
X28044111Y-31951314D01*
X28162531Y-31824518D01*
X30769100Y-31824518D01*
X30769454Y-31831132D01*
X30775500Y-31887371D01*
X30825747Y-32022089D01*
X30911911Y-32137188D01*
X31027010Y-32223352D01*
X31161728Y-32273599D01*
X31217967Y-32279645D01*
X31224582Y-32280000D01*
X31919100Y-32280000D01*
X31919100Y-31025881D01*
X32012469Y-31064556D01*
X32129777Y-31080000D01*
X32208423Y-31080000D01*
X32325731Y-31064556D01*
X32419100Y-31025881D01*
X32419100Y-32280000D01*
X33113618Y-32280000D01*
X33120232Y-32279645D01*
X33176471Y-32273599D01*
X33311189Y-32223352D01*
X33426288Y-32137188D01*
X33512452Y-32022088D01*
X33538756Y-31951565D01*
X33580627Y-31895631D01*
X33646091Y-31871214D01*
X33714364Y-31886065D01*
X33744460Y-31909097D01*
X33775174Y-31941144D01*
X33877092Y-32016522D01*
X33967943Y-32083715D01*
X34182033Y-32191657D01*
X34411285Y-32261864D01*
X34649105Y-32292318D01*
X34888651Y-32282143D01*
X35123032Y-32231630D01*
X35345504Y-32142233D01*
X35549669Y-32016524D01*
X35729651Y-31858119D01*
X35880275Y-31671576D01*
X35880275Y-31671575D01*
X35885885Y-31664628D01*
X35943316Y-31624836D01*
X36013143Y-31622410D01*
X36073198Y-31658120D01*
X36085096Y-31673091D01*
X36137416Y-31750502D01*
X36149275Y-31768047D01*
X36315175Y-31941144D01*
X36507943Y-32083715D01*
X36722033Y-32191657D01*
X36951285Y-32261864D01*
X37189105Y-32292318D01*
X37428651Y-32282143D01*
X37663032Y-32231630D01*
X37885504Y-32142233D01*
X38089669Y-32016524D01*
X38269651Y-31858119D01*
X38420275Y-31671576D01*
X38420275Y-31671575D01*
X38425885Y-31664628D01*
X38483316Y-31624836D01*
X38553143Y-31622410D01*
X38613198Y-31658120D01*
X38625096Y-31673091D01*
X38677416Y-31750502D01*
X38689275Y-31768047D01*
X38855175Y-31941144D01*
X39047943Y-32083715D01*
X39262033Y-32191657D01*
X39491285Y-32261864D01*
X39729105Y-32292318D01*
X39968651Y-32282143D01*
X40203032Y-32231630D01*
X40425504Y-32142233D01*
X40629669Y-32016524D01*
X40809651Y-31858119D01*
X40960275Y-31671576D01*
X40960274Y-31671576D01*
X40966906Y-31663364D01*
X40968474Y-31664630D01*
X41008793Y-31625077D01*
X41077205Y-31610879D01*
X41142432Y-31635922D01*
X41169910Y-31665036D01*
X41235911Y-31762687D01*
X41400811Y-31934741D01*
X41592415Y-32076450D01*
X41805213Y-32183741D01*
X42033084Y-32253525D01*
X42079099Y-32259417D01*
X42079099Y-31025881D01*
X42172469Y-31064556D01*
X42289777Y-31080000D01*
X42368423Y-31080000D01*
X42485731Y-31064556D01*
X42579100Y-31025881D01*
X42579100Y-32258264D01*
X42740536Y-32223473D01*
X42961660Y-32134617D01*
X43164597Y-32009664D01*
X43343494Y-31852215D01*
X43499838Y-31658588D01*
X43502723Y-31660917D01*
X43538787Y-31625517D01*
X43607194Y-31611299D01*
X43672430Y-31636322D01*
X43699937Y-31665459D01*
X43759506Y-31753594D01*
X43769275Y-31768047D01*
X43935175Y-31941144D01*
X44127943Y-32083715D01*
X44342033Y-32191657D01*
X44571285Y-32261864D01*
X44809105Y-32292318D01*
X45048651Y-32282143D01*
X45283032Y-32231630D01*
X45456108Y-32162081D01*
X45525652Y-32155351D01*
X45587796Y-32187287D01*
X45590023Y-32189459D01*
X49429681Y-36029116D01*
X49463166Y-36090439D01*
X49466000Y-36116797D01*
X49466000Y-38340471D01*
X49446315Y-38407510D01*
X49393511Y-38453265D01*
X49324353Y-38463209D01*
X49316229Y-38461763D01*
X49314989Y-38461500D01*
X49124015Y-38461500D01*
X49124013Y-38461500D01*
X48937216Y-38501204D01*
X48762750Y-38578881D01*
X48608250Y-38691133D01*
X48480459Y-38833058D01*
X48384974Y-38998443D01*
X48323400Y-39187949D01*
X48293150Y-39237312D01*
X47783309Y-39747153D01*
X47777857Y-39752286D01*
X47732948Y-39792072D01*
X47698857Y-39841461D01*
X47694421Y-39847489D01*
X47657416Y-39894724D01*
X47653276Y-39903923D01*
X47642256Y-39923460D01*
X47636521Y-39931769D01*
X47615235Y-39987892D01*
X47612371Y-39994807D01*
X47587747Y-40049520D01*
X47585928Y-40059446D01*
X47579907Y-40081044D01*
X47576328Y-40090483D01*
X47569093Y-40150063D01*
X47567966Y-40157465D01*
X47557150Y-40216483D01*
X47560774Y-40276380D01*
X47561000Y-40283867D01*
X47561000Y-47092131D01*
X47560774Y-47099618D01*
X47557150Y-47159516D01*
X47567966Y-47218533D01*
X47569093Y-47225936D01*
X47573723Y-47264070D01*
X47576327Y-47285510D01*
X47577578Y-47288808D01*
X47579906Y-47294947D01*
X47585930Y-47316559D01*
X47587748Y-47326483D01*
X47612373Y-47381197D01*
X47615238Y-47388114D01*
X47636519Y-47444226D01*
X47642252Y-47452531D01*
X47653278Y-47472081D01*
X47657416Y-47481276D01*
X47694423Y-47528514D01*
X47698860Y-47534544D01*
X47732945Y-47583924D01*
X47732947Y-47583926D01*
X47732948Y-47583927D01*
X47777874Y-47623728D01*
X47783311Y-47628847D01*
X49991258Y-49836793D01*
X50024743Y-49898116D01*
X50026898Y-49911512D01*
X50033458Y-49973929D01*
X50092472Y-50155556D01*
X50187957Y-50320941D01*
X50187960Y-50320944D01*
X50315747Y-50462866D01*
X50457979Y-50566204D01*
X50470248Y-50575118D01*
X50644714Y-50652795D01*
X50831511Y-50692500D01*
X50831513Y-50692500D01*
X51022489Y-50692500D01*
X51209285Y-50652795D01*
X51209286Y-50652794D01*
X51209288Y-50652794D01*
X51383752Y-50575118D01*
X51538253Y-50462866D01*
X51666040Y-50320944D01*
X51761527Y-50155556D01*
X51820542Y-49973928D01*
X51840504Y-49784000D01*
X51820542Y-49594072D01*
X51761527Y-49412444D01*
X51761527Y-49412443D01*
X51666042Y-49247058D01*
X51646442Y-49225291D01*
X51538253Y-49105134D01*
X51383752Y-48992882D01*
X51383751Y-48992881D01*
X51209285Y-48915204D01*
X51038791Y-48878965D01*
X50977309Y-48845773D01*
X50976891Y-48845356D01*
X48995319Y-46863783D01*
X48961834Y-46802460D01*
X48959000Y-46776102D01*
X48959000Y-44956543D01*
X48978685Y-44889504D01*
X49031489Y-44843749D01*
X49100647Y-44833805D01*
X49108781Y-44835253D01*
X49180512Y-44850500D01*
X49180513Y-44850500D01*
X49371489Y-44850500D01*
X49558285Y-44810795D01*
X49558286Y-44810794D01*
X49558288Y-44810794D01*
X49732752Y-44733118D01*
X49887253Y-44620866D01*
X49975849Y-44522469D01*
X50035337Y-44485820D01*
X50105194Y-44487151D01*
X50160150Y-44522469D01*
X50248747Y-44620866D01*
X50403248Y-44733117D01*
X50403248Y-44733118D01*
X50577714Y-44810795D01*
X50764511Y-44850500D01*
X50764513Y-44850500D01*
X50955489Y-44850500D01*
X51142285Y-44810795D01*
X51142286Y-44810794D01*
X51142288Y-44810794D01*
X51316752Y-44733118D01*
X51471253Y-44620866D01*
X51514450Y-44572890D01*
X51573934Y-44536243D01*
X51643791Y-44537573D01*
X51701840Y-44576460D01*
X51713985Y-44593864D01*
X51720957Y-44605941D01*
X51720960Y-44605944D01*
X51848747Y-44747866D01*
X51980718Y-44843749D01*
X52003248Y-44860118D01*
X52177714Y-44937795D01*
X52364511Y-44977500D01*
X52517000Y-44977500D01*
X52584039Y-44997185D01*
X52629794Y-45049989D01*
X52641000Y-45101500D01*
X52641000Y-65699101D01*
X52621315Y-65766140D01*
X52604681Y-65786782D01*
X47783309Y-70608153D01*
X47777857Y-70613286D01*
X47732948Y-70653072D01*
X47698857Y-70702461D01*
X47694421Y-70708489D01*
X47657416Y-70755724D01*
X47653276Y-70764923D01*
X47642256Y-70784460D01*
X47636521Y-70792769D01*
X47615235Y-70848892D01*
X47612371Y-70855807D01*
X47587747Y-70910520D01*
X47585928Y-70920446D01*
X47579907Y-70942044D01*
X47576328Y-70951483D01*
X47569093Y-71011063D01*
X47567966Y-71018465D01*
X47557150Y-71077483D01*
X47560774Y-71137380D01*
X47561000Y-71144867D01*
X47561000Y-71539693D01*
X47541315Y-71606732D01*
X47501790Y-71645420D01*
X47370585Y-71725823D01*
X47190031Y-71880031D01*
X47035823Y-72060585D01*
X46911761Y-72263035D01*
X46820894Y-72482406D01*
X46765465Y-72713287D01*
X46746835Y-72949999D01*
X46765465Y-73186712D01*
X46820894Y-73417593D01*
X46829646Y-73438721D01*
X46911760Y-73636963D01*
X47035824Y-73839416D01*
X47190031Y-74019969D01*
X47370584Y-74174176D01*
X47573037Y-74298240D01*
X47792406Y-74389105D01*
X48023289Y-74444535D01*
X48260000Y-74463165D01*
X48496711Y-74444535D01*
X48727594Y-74389105D01*
X48946963Y-74298240D01*
X49149416Y-74174176D01*
X49329969Y-74019969D01*
X49484176Y-73839416D01*
X49608240Y-73636963D01*
X49699105Y-73417594D01*
X49754535Y-73186711D01*
X49773165Y-72950000D01*
X52124858Y-72950000D01*
X52145386Y-73197732D01*
X52206413Y-73438721D01*
X52306268Y-73666370D01*
X52406563Y-73819882D01*
X52406564Y-73819882D01*
X53104070Y-73122376D01*
X53106884Y-73135915D01*
X53176442Y-73270156D01*
X53279638Y-73380652D01*
X53408819Y-73459209D01*
X53460002Y-73473549D01*
X52759942Y-74173609D01*
X52759942Y-74173610D01*
X52806766Y-74210055D01*
X53025393Y-74328368D01*
X53260506Y-74409083D01*
X53505707Y-74450000D01*
X53754293Y-74450000D01*
X53999493Y-74409083D01*
X54234606Y-74328368D01*
X54453233Y-74210053D01*
X54500056Y-74173609D01*
X53801568Y-73475121D01*
X53918458Y-73424349D01*
X54035739Y-73328934D01*
X54122928Y-73205415D01*
X54153354Y-73119802D01*
X54853434Y-73819882D01*
X54953730Y-73666369D01*
X55053586Y-73438721D01*
X55114613Y-73197732D01*
X55135141Y-72949999D01*
X55114613Y-72702267D01*
X55053586Y-72461278D01*
X54953730Y-72233630D01*
X54853434Y-72080116D01*
X54155929Y-72777622D01*
X54153116Y-72764085D01*
X54083558Y-72629844D01*
X53980362Y-72519348D01*
X53851181Y-72440791D01*
X53799995Y-72426449D01*
X54500056Y-71726389D01*
X54500056Y-71726387D01*
X54453235Y-71689947D01*
X54234606Y-71571631D01*
X53999493Y-71490916D01*
X53754293Y-71450000D01*
X53505707Y-71450000D01*
X53260506Y-71490916D01*
X53025393Y-71571631D01*
X52806764Y-71689946D01*
X52759942Y-71726388D01*
X52759941Y-71726389D01*
X53458431Y-72424878D01*
X53341542Y-72475651D01*
X53224261Y-72571066D01*
X53137072Y-72694585D01*
X53106645Y-72780197D01*
X52406564Y-72080116D01*
X52306266Y-72233634D01*
X52206413Y-72461278D01*
X52145386Y-72702267D01*
X52124858Y-72950000D01*
X49773165Y-72950000D01*
X49754535Y-72713289D01*
X49699105Y-72482406D01*
X49608240Y-72263037D01*
X49484176Y-72060584D01*
X49329969Y-71880031D01*
X49149416Y-71725824D01*
X49083332Y-71685327D01*
X49018210Y-71645420D01*
X48971335Y-71593608D01*
X48959000Y-71539693D01*
X48959000Y-71460898D01*
X48978685Y-71393859D01*
X48995319Y-71373217D01*
X50927036Y-69441500D01*
X53010321Y-67358214D01*
X53071642Y-67324731D01*
X53141334Y-67329715D01*
X53197267Y-67371587D01*
X53221684Y-67437051D01*
X53222000Y-67445897D01*
X53222000Y-68716126D01*
X53221774Y-68723612D01*
X53218150Y-68783515D01*
X53228966Y-68842533D01*
X53230093Y-68849936D01*
X53237327Y-68909509D01*
X53240906Y-68918947D01*
X53246930Y-68940559D01*
X53248748Y-68950483D01*
X53273373Y-69005197D01*
X53276238Y-69012114D01*
X53297519Y-69068226D01*
X53303252Y-69076531D01*
X53314278Y-69096081D01*
X53318416Y-69105276D01*
X53355423Y-69152514D01*
X53359860Y-69158544D01*
X53393945Y-69207924D01*
X53393947Y-69207926D01*
X53393948Y-69207927D01*
X53438875Y-69247729D01*
X53444310Y-69252846D01*
X56638494Y-72447030D01*
X56671979Y-72508353D01*
X56671387Y-72563657D01*
X56635465Y-72713285D01*
X56616835Y-72950000D01*
X56635465Y-73186712D01*
X56690894Y-73417593D01*
X56699646Y-73438721D01*
X56781760Y-73636963D01*
X56905824Y-73839416D01*
X57060031Y-74019969D01*
X57240584Y-74174176D01*
X57443037Y-74298240D01*
X57662406Y-74389105D01*
X57893289Y-74444535D01*
X58130000Y-74463165D01*
X58366711Y-74444535D01*
X58597594Y-74389105D01*
X58816963Y-74298240D01*
X59019416Y-74174176D01*
X59199969Y-74019969D01*
X59354176Y-73839416D01*
X59478240Y-73636963D01*
X59569105Y-73417594D01*
X59624535Y-73186711D01*
X59643165Y-72950000D01*
X59624535Y-72713289D01*
X59569105Y-72482406D01*
X59478240Y-72263037D01*
X59451544Y-72219473D01*
X59433300Y-72152031D01*
X59454416Y-72085429D01*
X59508187Y-72040815D01*
X59577543Y-72032354D01*
X59640462Y-72062733D01*
X59650087Y-72072458D01*
X59662573Y-72086552D01*
X59711949Y-72120634D01*
X59717982Y-72125073D01*
X59765223Y-72162084D01*
X59774424Y-72166225D01*
X59793971Y-72177249D01*
X59802273Y-72182980D01*
X59829683Y-72193375D01*
X59858369Y-72204254D01*
X59865292Y-72207120D01*
X59920018Y-72231751D01*
X59929940Y-72233569D01*
X59951549Y-72239592D01*
X59960990Y-72243173D01*
X60020559Y-72250405D01*
X60027950Y-72251529D01*
X60086985Y-72262349D01*
X60146887Y-72258725D01*
X60154373Y-72258500D01*
X62265564Y-72258500D01*
X62332603Y-72278185D01*
X62378358Y-72330989D01*
X62388302Y-72400147D01*
X62379120Y-72432309D01*
X62366414Y-72461275D01*
X62305386Y-72702267D01*
X62284858Y-72950000D01*
X62305386Y-73197732D01*
X62366413Y-73438721D01*
X62466268Y-73666370D01*
X62566563Y-73819882D01*
X62566564Y-73819882D01*
X63264070Y-73122375D01*
X63266884Y-73135915D01*
X63336442Y-73270156D01*
X63439638Y-73380652D01*
X63568819Y-73459209D01*
X63620002Y-73473549D01*
X62919942Y-74173609D01*
X62919942Y-74173610D01*
X62966766Y-74210055D01*
X63185393Y-74328368D01*
X63420506Y-74409083D01*
X63665707Y-74450000D01*
X63914293Y-74450000D01*
X64159493Y-74409083D01*
X64394606Y-74328368D01*
X64613233Y-74210053D01*
X64660056Y-74173609D01*
X63961568Y-73475121D01*
X64078458Y-73424349D01*
X64195739Y-73328934D01*
X64282928Y-73205415D01*
X64313354Y-73119802D01*
X65013434Y-73819882D01*
X65113730Y-73666369D01*
X65213586Y-73438721D01*
X65274613Y-73197732D01*
X65295141Y-72950000D01*
X65274613Y-72702267D01*
X65213585Y-72461275D01*
X65200880Y-72432309D01*
X65191977Y-72363009D01*
X65221955Y-72299897D01*
X65281295Y-72263011D01*
X65314436Y-72258500D01*
X66558602Y-72258500D01*
X66625641Y-72278185D01*
X66646283Y-72294819D01*
X66798494Y-72447030D01*
X66831979Y-72508353D01*
X66831387Y-72563657D01*
X66795465Y-72713285D01*
X66776835Y-72950000D01*
X66795465Y-73186712D01*
X66850894Y-73417593D01*
X66859646Y-73438721D01*
X66941760Y-73636963D01*
X67065824Y-73839416D01*
X67220031Y-74019969D01*
X67400584Y-74174176D01*
X67603037Y-74298240D01*
X67822406Y-74389105D01*
X68053289Y-74444535D01*
X68290000Y-74463165D01*
X68526711Y-74444535D01*
X68757594Y-74389105D01*
X68976963Y-74298240D01*
X69179416Y-74174176D01*
X69359969Y-74019969D01*
X69514176Y-73839416D01*
X69638240Y-73636963D01*
X69729105Y-73417594D01*
X69784535Y-73186711D01*
X69803165Y-72950000D01*
X69784535Y-72713289D01*
X69729105Y-72482406D01*
X69638240Y-72263037D01*
X69514176Y-72060584D01*
X69359969Y-71880031D01*
X69179416Y-71725824D01*
X68976963Y-71601760D01*
X68867278Y-71556327D01*
X68757593Y-71510894D01*
X68526712Y-71455465D01*
X68408355Y-71446149D01*
X68290000Y-71436835D01*
X68289999Y-71436835D01*
X68053285Y-71455465D01*
X67903657Y-71491387D01*
X67833875Y-71487896D01*
X67787030Y-71458494D01*
X67411346Y-71082810D01*
X67406229Y-71077375D01*
X67366427Y-71032448D01*
X67366426Y-71032447D01*
X67366424Y-71032445D01*
X67317044Y-70998360D01*
X67311014Y-70993923D01*
X67263776Y-70956916D01*
X67254581Y-70952778D01*
X67235031Y-70941752D01*
X67226726Y-70936019D01*
X67170614Y-70914738D01*
X67163697Y-70911873D01*
X67108983Y-70887248D01*
X67099059Y-70885430D01*
X67077449Y-70879406D01*
X67068010Y-70875827D01*
X67046570Y-70873223D01*
X67008436Y-70868593D01*
X67001033Y-70867466D01*
X66942016Y-70856650D01*
X66882118Y-70860274D01*
X66874631Y-70860500D01*
X60470398Y-70860500D01*
X60403359Y-70840815D01*
X60382717Y-70824181D01*
X56858536Y-67300000D01*
X76806501Y-67300000D01*
X76826456Y-67528084D01*
X76836097Y-67564065D01*
X76884934Y-67746326D01*
X76885717Y-67749246D01*
X76982474Y-67956744D01*
X76982475Y-67956745D01*
X76982477Y-67956749D01*
X77113802Y-68144300D01*
X77275700Y-68306198D01*
X77463251Y-68437523D01*
X77670757Y-68534284D01*
X77891913Y-68593543D01*
X78120000Y-68613498D01*
X78348087Y-68593543D01*
X78569243Y-68534284D01*
X78776749Y-68437523D01*
X78964300Y-68306198D01*
X79126198Y-68144300D01*
X79257523Y-67956749D01*
X79277617Y-67913655D01*
X79323790Y-67861215D01*
X79390983Y-67842063D01*
X79457864Y-67862278D01*
X79502382Y-67913655D01*
X79512277Y-67934876D01*
X79522477Y-67956749D01*
X79653802Y-68144300D01*
X79815700Y-68306198D01*
X80003251Y-68437523D01*
X80210757Y-68534284D01*
X80431913Y-68593543D01*
X80583971Y-68606846D01*
X80659999Y-68613498D01*
X80659999Y-68613497D01*
X80660000Y-68613498D01*
X80888087Y-68593543D01*
X81109243Y-68534284D01*
X81316749Y-68437523D01*
X81504300Y-68306198D01*
X81666198Y-68144300D01*
X81797523Y-67956749D01*
X81822308Y-67903596D01*
X81868476Y-67851160D01*
X81935669Y-67832007D01*
X82002551Y-67852221D01*
X82047070Y-67903597D01*
X82069866Y-67952482D01*
X82200341Y-68138819D01*
X82361180Y-68299658D01*
X82547519Y-68430134D01*
X82753673Y-68526266D01*
X82949999Y-68578871D01*
X82950000Y-68578871D01*
X82950000Y-67615686D01*
X82961955Y-67627641D01*
X83074852Y-67685165D01*
X83168519Y-67700000D01*
X83231481Y-67700000D01*
X83325148Y-67685165D01*
X83438045Y-67627641D01*
X83450000Y-67615686D01*
X83450000Y-68578871D01*
X83646326Y-68526266D01*
X83852480Y-68430134D01*
X84038819Y-68299658D01*
X84199658Y-68138819D01*
X84330134Y-67952480D01*
X84426266Y-67746326D01*
X84478872Y-67550000D01*
X83515686Y-67550000D01*
X83527641Y-67538045D01*
X83585165Y-67425148D01*
X83604986Y-67300000D01*
X83585165Y-67174852D01*
X83527641Y-67061955D01*
X83515686Y-67050000D01*
X84478872Y-67050000D01*
X84478871Y-67049999D01*
X84426266Y-66853673D01*
X84330134Y-66647519D01*
X84199658Y-66461180D01*
X84038819Y-66300341D01*
X83852480Y-66169865D01*
X83646326Y-66073733D01*
X83450000Y-66021126D01*
X83450000Y-66984314D01*
X83438045Y-66972359D01*
X83325148Y-66914835D01*
X83231481Y-66900000D01*
X83168519Y-66900000D01*
X83074852Y-66914835D01*
X82961955Y-66972359D01*
X82950000Y-66984314D01*
X82950000Y-66021127D01*
X82949999Y-66021126D01*
X82753673Y-66073733D01*
X82547519Y-66169865D01*
X82361180Y-66300341D01*
X82200341Y-66461180D01*
X82069864Y-66647520D01*
X82047069Y-66696403D01*
X82000896Y-66748841D01*
X81933702Y-66767992D01*
X81866821Y-66747775D01*
X81822307Y-66696401D01*
X81797523Y-66643251D01*
X81666198Y-66455700D01*
X81504300Y-66293802D01*
X81316749Y-66162477D01*
X81316746Y-66162476D01*
X81316744Y-66162474D01*
X81109246Y-66065717D01*
X81109243Y-66065716D01*
X80942832Y-66021126D01*
X80888084Y-66006456D01*
X80660000Y-65986501D01*
X80431915Y-66006456D01*
X80210753Y-66065717D01*
X80003255Y-66162474D01*
X79815696Y-66293805D01*
X79653805Y-66455696D01*
X79522476Y-66643253D01*
X79502382Y-66686345D01*
X79456209Y-66738784D01*
X79389016Y-66757936D01*
X79322135Y-66737720D01*
X79277618Y-66686345D01*
X79276214Y-66683334D01*
X79257523Y-66643251D01*
X79126198Y-66455700D01*
X78964300Y-66293802D01*
X78776749Y-66162477D01*
X78776746Y-66162476D01*
X78776744Y-66162474D01*
X78569246Y-66065717D01*
X78569243Y-66065716D01*
X78402832Y-66021126D01*
X78348084Y-66006456D01*
X78120000Y-65986501D01*
X77891915Y-66006456D01*
X77670753Y-66065717D01*
X77463255Y-66162474D01*
X77275696Y-66293805D01*
X77113805Y-66455696D01*
X76982474Y-66643255D01*
X76885717Y-66850753D01*
X76826456Y-67071915D01*
X76806501Y-67300000D01*
X56858536Y-67300000D01*
X55237319Y-65678783D01*
X55203834Y-65617460D01*
X55201000Y-65591102D01*
X55201000Y-61480700D01*
X99655387Y-61480700D01*
X99674138Y-61754830D01*
X99674999Y-61758977D01*
X99675001Y-61758986D01*
X99729178Y-62019696D01*
X99730042Y-62023853D01*
X99731460Y-62027844D01*
X99731463Y-62027853D01*
X99820636Y-62278761D01*
X99822057Y-62282758D01*
X99824004Y-62286516D01*
X99824006Y-62286520D01*
X99877625Y-62390000D01*
X99948469Y-62526723D01*
X99950915Y-62530188D01*
X100104478Y-62747739D01*
X100104482Y-62747744D01*
X100106923Y-62751202D01*
X100294469Y-62952014D01*
X100507611Y-63125418D01*
X100742380Y-63268184D01*
X100994403Y-63377653D01*
X101203405Y-63436212D01*
X101254904Y-63450642D01*
X101254906Y-63450642D01*
X101258984Y-63451785D01*
X101531195Y-63489200D01*
X101535432Y-63489200D01*
X101801728Y-63489200D01*
X101805965Y-63489200D01*
X102078176Y-63451785D01*
X102342757Y-63377653D01*
X102594780Y-63268184D01*
X102829549Y-63125418D01*
X103042691Y-62952014D01*
X103230237Y-62751202D01*
X103388691Y-62526723D01*
X103515103Y-62282758D01*
X103607118Y-62023853D01*
X103663022Y-61754830D01*
X103681773Y-61480700D01*
X103663022Y-61206570D01*
X103607118Y-60937547D01*
X103515103Y-60678642D01*
X103388691Y-60434677D01*
X103230237Y-60210198D01*
X103042691Y-60009386D01*
X103039409Y-60006716D01*
X103039406Y-60006713D01*
X102948095Y-59932426D01*
X102829549Y-59835982D01*
X102825925Y-59833778D01*
X102825922Y-59833776D01*
X102598398Y-59695416D01*
X102598396Y-59695415D01*
X102594780Y-59693216D01*
X102469730Y-59638899D01*
X102346638Y-59585432D01*
X102346628Y-59585428D01*
X102342757Y-59583747D01*
X102338685Y-59582606D01*
X102082255Y-59510757D01*
X102082242Y-59510754D01*
X102078176Y-59509615D01*
X102073986Y-59509039D01*
X102073976Y-59509037D01*
X101810162Y-59472776D01*
X101810149Y-59472775D01*
X101805965Y-59472200D01*
X101531195Y-59472200D01*
X101527011Y-59472775D01*
X101526997Y-59472776D01*
X101263183Y-59509037D01*
X101263170Y-59509039D01*
X101258984Y-59509615D01*
X101254920Y-59510753D01*
X101254904Y-59510757D01*
X100998474Y-59582606D01*
X100998469Y-59582607D01*
X100994403Y-59583747D01*
X100990536Y-59585426D01*
X100990521Y-59585432D01*
X100746263Y-59691529D01*
X100746258Y-59691531D01*
X100742380Y-59693216D01*
X100738769Y-59695411D01*
X100738761Y-59695416D01*
X100511237Y-59833776D01*
X100511226Y-59833783D01*
X100507611Y-59835982D01*
X100504321Y-59838658D01*
X100504319Y-59838660D01*
X100297753Y-60006713D01*
X100297742Y-60006722D01*
X100294469Y-60009386D01*
X100291590Y-60012468D01*
X100291581Y-60012477D01*
X100109811Y-60207105D01*
X100109806Y-60207110D01*
X100106923Y-60210198D01*
X100104487Y-60213648D01*
X100104478Y-60213660D01*
X99950915Y-60431211D01*
X99950911Y-60431216D01*
X99948469Y-60434677D01*
X99946523Y-60438431D01*
X99946519Y-60438439D01*
X99824006Y-60674879D01*
X99824001Y-60674888D01*
X99822057Y-60678642D01*
X99820640Y-60682627D01*
X99820636Y-60682638D01*
X99731463Y-60933546D01*
X99731459Y-60933558D01*
X99730042Y-60937547D01*
X99729179Y-60941697D01*
X99729178Y-60941703D01*
X99675001Y-61202413D01*
X99674999Y-61202424D01*
X99674138Y-61206570D01*
X99673849Y-61210794D01*
X99673848Y-61210802D01*
X99658060Y-61441624D01*
X99655387Y-61480700D01*
X55201000Y-61480700D01*
X55201000Y-57150000D01*
X57506496Y-57150000D01*
X57526458Y-57339929D01*
X57585472Y-57521556D01*
X57680957Y-57686941D01*
X57680960Y-57686944D01*
X57808747Y-57828866D01*
X57956454Y-57936182D01*
X57963248Y-57941118D01*
X58137714Y-58018795D01*
X58324511Y-58058500D01*
X58324513Y-58058500D01*
X58515489Y-58058500D01*
X58702285Y-58018795D01*
X58702286Y-58018794D01*
X58702288Y-58018794D01*
X58876752Y-57941118D01*
X58883545Y-57936182D01*
X58949352Y-57912702D01*
X58956432Y-57912500D01*
X78040418Y-57912500D01*
X78058388Y-57913809D01*
X78062082Y-57914350D01*
X78082672Y-57917366D01*
X78132895Y-57912972D01*
X78143703Y-57912500D01*
X78145802Y-57912500D01*
X78149412Y-57912500D01*
X78180759Y-57908835D01*
X78184273Y-57908476D01*
X78260240Y-57901831D01*
X78260243Y-57901829D01*
X78261363Y-57901732D01*
X78280984Y-57897382D01*
X78282037Y-57896998D01*
X78282042Y-57896998D01*
X78353757Y-57870895D01*
X78356991Y-57869771D01*
X78429440Y-57845765D01*
X78429447Y-57845760D01*
X78430514Y-57845407D01*
X78448598Y-57836653D01*
X78460437Y-57828866D01*
X78513274Y-57794113D01*
X78516254Y-57792215D01*
X78581149Y-57752188D01*
X78581148Y-57752188D01*
X78582106Y-57751598D01*
X78597687Y-57738905D01*
X78598458Y-57738087D01*
X78598462Y-57738085D01*
X78650821Y-57682586D01*
X78653267Y-57680068D01*
X83983936Y-52349400D01*
X84045257Y-52315917D01*
X84045497Y-52315865D01*
X84102288Y-52303794D01*
X84276752Y-52226118D01*
X84431253Y-52113866D01*
X84559040Y-51971944D01*
X84581096Y-51933743D01*
X84654527Y-51806556D01*
X84692579Y-51689444D01*
X84713542Y-51624928D01*
X84733504Y-51435000D01*
X84713542Y-51245072D01*
X84671863Y-51116798D01*
X84654527Y-51063443D01*
X84559042Y-50898058D01*
X84460476Y-50788590D01*
X84431253Y-50756134D01*
X84289020Y-50652795D01*
X84276751Y-50643881D01*
X84102285Y-50566204D01*
X83915489Y-50526500D01*
X83915487Y-50526500D01*
X83724513Y-50526500D01*
X83724511Y-50526500D01*
X83537714Y-50566204D01*
X83363248Y-50643881D01*
X83208748Y-50756133D01*
X83080957Y-50898058D01*
X82985473Y-51063442D01*
X82933187Y-51224361D01*
X82902937Y-51273723D01*
X77825481Y-56351181D01*
X77764158Y-56384666D01*
X77737800Y-56387500D01*
X58956432Y-56387500D01*
X58889393Y-56367815D01*
X58883546Y-56363818D01*
X58876751Y-56358881D01*
X58702285Y-56281204D01*
X58515489Y-56241500D01*
X58515487Y-56241500D01*
X58324513Y-56241500D01*
X58324511Y-56241500D01*
X58137714Y-56281204D01*
X57963248Y-56358881D01*
X57808748Y-56471133D01*
X57680957Y-56613058D01*
X57585472Y-56778443D01*
X57526458Y-56960070D01*
X57506496Y-57150000D01*
X55201000Y-57150000D01*
X55201000Y-50780943D01*
X57398552Y-50780943D01*
X57418514Y-50970873D01*
X57477528Y-51152500D01*
X57573013Y-51317885D01*
X57573016Y-51317888D01*
X57700803Y-51459810D01*
X57855304Y-51572061D01*
X57855304Y-51572062D01*
X58029770Y-51649739D01*
X58216567Y-51689444D01*
X58216569Y-51689444D01*
X58407545Y-51689444D01*
X58500943Y-51669591D01*
X58594344Y-51649738D01*
X58607561Y-51643853D01*
X58676812Y-51634566D01*
X58740089Y-51664193D01*
X58777303Y-51723327D01*
X58781321Y-51770092D01*
X58776496Y-51815999D01*
X58796458Y-52005929D01*
X58855472Y-52187556D01*
X58950957Y-52352941D01*
X58950960Y-52352944D01*
X59078747Y-52494866D01*
X59233248Y-52607117D01*
X59233248Y-52607118D01*
X59407714Y-52684795D01*
X59594511Y-52724500D01*
X59594513Y-52724500D01*
X59785489Y-52724500D01*
X59972285Y-52684795D01*
X59972286Y-52684794D01*
X59972288Y-52684794D01*
X60146752Y-52607118D01*
X60240945Y-52538682D01*
X60306753Y-52515202D01*
X60313832Y-52515000D01*
X74179168Y-52515000D01*
X74246207Y-52534685D01*
X74252054Y-52538682D01*
X74346248Y-52607118D01*
X74520714Y-52684795D01*
X74707511Y-52724500D01*
X74707513Y-52724500D01*
X74898489Y-52724500D01*
X75085285Y-52684795D01*
X75085286Y-52684794D01*
X75085288Y-52684794D01*
X75259752Y-52607118D01*
X75414253Y-52494866D01*
X75542040Y-52352944D01*
X75570418Y-52303793D01*
X75637527Y-52187556D01*
X75653268Y-52139110D01*
X75696542Y-52005928D01*
X75716504Y-51816000D01*
X75696542Y-51626072D01*
X75637527Y-51444444D01*
X75637527Y-51444443D01*
X75542042Y-51279058D01*
X75511439Y-51245070D01*
X75414253Y-51137134D01*
X75259752Y-51024882D01*
X75259751Y-51024881D01*
X75085285Y-50947204D01*
X74898489Y-50907500D01*
X74898487Y-50907500D01*
X74707513Y-50907500D01*
X74707511Y-50907500D01*
X74520714Y-50947204D01*
X74346248Y-51024881D01*
X74252054Y-51093318D01*
X74186247Y-51116798D01*
X74179168Y-51117000D01*
X71709898Y-51117000D01*
X71642859Y-51097315D01*
X71597104Y-51044511D01*
X71587160Y-50975353D01*
X71616185Y-50911797D01*
X71622217Y-50905319D01*
X73185912Y-49341624D01*
X74852894Y-47674641D01*
X74914215Y-47641158D01*
X74914687Y-47641056D01*
X74984591Y-47626198D01*
X75085285Y-47604795D01*
X75085286Y-47604794D01*
X75085288Y-47604794D01*
X75259752Y-47527118D01*
X75414253Y-47414866D01*
X75542040Y-47272944D01*
X75564338Y-47234324D01*
X75637527Y-47107556D01*
X75694823Y-46931217D01*
X75696542Y-46925928D01*
X75716504Y-46736000D01*
X75696542Y-46546072D01*
X75637527Y-46364444D01*
X75637527Y-46364443D01*
X75542042Y-46199058D01*
X75522442Y-46177291D01*
X75414253Y-46057134D01*
X75259752Y-45944882D01*
X75259751Y-45944881D01*
X75085285Y-45867204D01*
X74898489Y-45827500D01*
X74898487Y-45827500D01*
X74707513Y-45827500D01*
X74707511Y-45827500D01*
X74520714Y-45867204D01*
X74346248Y-45944881D01*
X74191748Y-46057133D01*
X74063957Y-46199058D01*
X73968472Y-46364443D01*
X73909458Y-46546070D01*
X73902898Y-46608486D01*
X73876313Y-46673100D01*
X73867258Y-46683204D01*
X70612783Y-49937681D01*
X70551460Y-49971166D01*
X70525102Y-49974000D01*
X58759619Y-49974000D01*
X58709184Y-49963280D01*
X58594341Y-49912148D01*
X58407545Y-49872444D01*
X58407543Y-49872444D01*
X58216569Y-49872444D01*
X58216567Y-49872444D01*
X58029770Y-49912148D01*
X57855304Y-49989825D01*
X57700804Y-50102077D01*
X57573013Y-50244002D01*
X57477528Y-50409387D01*
X57418514Y-50591014D01*
X57398552Y-50780943D01*
X55201000Y-50780943D01*
X55201000Y-47018898D01*
X55220685Y-46951859D01*
X55273489Y-46906104D01*
X55342647Y-46896160D01*
X55406203Y-46925185D01*
X55412681Y-46931217D01*
X55629208Y-47147744D01*
X55634342Y-47153198D01*
X55674128Y-47198107D01*
X55723505Y-47232190D01*
X55729537Y-47236629D01*
X55776778Y-47273639D01*
X55776781Y-47273641D01*
X55785711Y-47277659D01*
X55785978Y-47277780D01*
X55805528Y-47288807D01*
X55813826Y-47294534D01*
X55813829Y-47294536D01*
X55869944Y-47315817D01*
X55876842Y-47318675D01*
X55931574Y-47343308D01*
X55941493Y-47345125D01*
X55963122Y-47351154D01*
X55972546Y-47354729D01*
X56032120Y-47361962D01*
X56039500Y-47363085D01*
X56098541Y-47373905D01*
X56158443Y-47370281D01*
X56165929Y-47370056D01*
X60754075Y-47370056D01*
X60761562Y-47370282D01*
X60821459Y-47373905D01*
X60880502Y-47363083D01*
X60887884Y-47361961D01*
X60947454Y-47354729D01*
X60956891Y-47351149D01*
X60978501Y-47345125D01*
X60988427Y-47343307D01*
X61043165Y-47318670D01*
X61050035Y-47315824D01*
X61106171Y-47294536D01*
X61114474Y-47288803D01*
X61134022Y-47277778D01*
X61143219Y-47273640D01*
X61190460Y-47236628D01*
X61196468Y-47232207D01*
X61245871Y-47198108D01*
X61285673Y-47153179D01*
X61290775Y-47147759D01*
X64343715Y-44094819D01*
X64405039Y-44061334D01*
X64431397Y-44058500D01*
X65645328Y-44058500D01*
X65648638Y-44058500D01*
X65709201Y-44051989D01*
X65709203Y-44051988D01*
X65709205Y-44051988D01*
X65791097Y-44021443D01*
X65846204Y-44000889D01*
X65963261Y-43913261D01*
X66050889Y-43796204D01*
X66096137Y-43674889D01*
X66138009Y-43618956D01*
X66203474Y-43594540D01*
X66271747Y-43609392D01*
X66303548Y-43634241D01*
X66326526Y-43659201D01*
X66366760Y-43702906D01*
X66544424Y-43841189D01*
X66742426Y-43948342D01*
X66955365Y-44021444D01*
X67177431Y-44058500D01*
X67402569Y-44058500D01*
X67624635Y-44021444D01*
X67837574Y-43948342D01*
X68035576Y-43841189D01*
X68213240Y-43702906D01*
X68365722Y-43537268D01*
X68488860Y-43348791D01*
X68579296Y-43142616D01*
X68634564Y-42924368D01*
X68653156Y-42700000D01*
X68636107Y-42494253D01*
X68650188Y-42425818D01*
X68671999Y-42396336D01*
X72116604Y-38951732D01*
X72130229Y-38939957D01*
X72149922Y-38925298D01*
X72182329Y-38886674D01*
X72189645Y-38878693D01*
X72191113Y-38877225D01*
X72191115Y-38877222D01*
X72193673Y-38874665D01*
X72213251Y-38849902D01*
X72215455Y-38847197D01*
X72264496Y-38788753D01*
X72264498Y-38788747D01*
X72265226Y-38787881D01*
X72276018Y-38770941D01*
X72276492Y-38769922D01*
X72276495Y-38769920D01*
X72308719Y-38700811D01*
X72310278Y-38697593D01*
X72313522Y-38691134D01*
X72344494Y-38629466D01*
X72344495Y-38629461D01*
X72345003Y-38628450D01*
X72351594Y-38609488D01*
X72351823Y-38608376D01*
X72351825Y-38608373D01*
X72367241Y-38533702D01*
X72368013Y-38530224D01*
X72385600Y-38456023D01*
X72385600Y-38456019D01*
X72385858Y-38454931D01*
X72387901Y-38434936D01*
X72387868Y-38433811D01*
X72387869Y-38433808D01*
X72385652Y-38357594D01*
X72385600Y-38353989D01*
X72385600Y-34885764D01*
X92987787Y-34885764D01*
X93017413Y-35155016D01*
X93085928Y-35417087D01*
X93191871Y-35666392D01*
X93332982Y-35897611D01*
X93491307Y-36087858D01*
X93506255Y-36105820D01*
X93707998Y-36286582D01*
X93933910Y-36436044D01*
X94025140Y-36478811D01*
X94179177Y-36551021D01*
X94438562Y-36629058D01*
X94438569Y-36629060D01*
X94706561Y-36668500D01*
X94706564Y-36668500D01*
X94907369Y-36668500D01*
X94909631Y-36668500D01*
X95112156Y-36653677D01*
X95376553Y-36594780D01*
X95629558Y-36498014D01*
X95865777Y-36365441D01*
X96080177Y-36199888D01*
X96268186Y-36004881D01*
X96425799Y-35784579D01*
X96549656Y-35543675D01*
X96637118Y-35287305D01*
X96686319Y-35020933D01*
X96696212Y-34750235D01*
X96666586Y-34480982D01*
X96598072Y-34218912D01*
X96492130Y-33969610D01*
X96351018Y-33738390D01*
X96351017Y-33738388D01*
X96177746Y-33530181D01*
X96072759Y-33436112D01*
X95976002Y-33349418D01*
X95750090Y-33199956D01*
X95750086Y-33199954D01*
X95504822Y-33084978D01*
X95245437Y-33006941D01*
X95245431Y-33006940D01*
X94977439Y-32967500D01*
X94774369Y-32967500D01*
X94772120Y-32967664D01*
X94772109Y-32967665D01*
X94571843Y-32982322D01*
X94307449Y-33041219D01*
X94054441Y-33137986D01*
X93818223Y-33270559D01*
X93603825Y-33436109D01*
X93415813Y-33631120D01*
X93258201Y-33851420D01*
X93134342Y-34092329D01*
X93046881Y-34348695D01*
X92997680Y-34615066D01*
X92987787Y-34885764D01*
X72385600Y-34885764D01*
X72385600Y-29923199D01*
X73724000Y-29923199D01*
X73724190Y-29925618D01*
X73724191Y-29925633D01*
X73738891Y-30112404D01*
X73797994Y-30358590D01*
X73834905Y-30447700D01*
X73894884Y-30592502D01*
X74027172Y-30808376D01*
X74191602Y-31000898D01*
X74384124Y-31165328D01*
X74599998Y-31297616D01*
X74833909Y-31394505D01*
X75080097Y-31453609D01*
X75332500Y-31473474D01*
X75584903Y-31453609D01*
X75831091Y-31394505D01*
X76065002Y-31297616D01*
X76280876Y-31165328D01*
X76473398Y-31000898D01*
X76637828Y-30808376D01*
X76770116Y-30592502D01*
X76867005Y-30358591D01*
X76879426Y-30306852D01*
X76914216Y-30246261D01*
X76976243Y-30214097D01*
X77045811Y-30220573D01*
X77100836Y-30263632D01*
X77123845Y-30329604D01*
X77124000Y-30335799D01*
X77124000Y-30508638D01*
X77124352Y-30511918D01*
X77124353Y-30511924D01*
X77130511Y-30569205D01*
X77181610Y-30706203D01*
X77269238Y-30823261D01*
X77386296Y-30910889D01*
X77523294Y-30961988D01*
X77523297Y-30961988D01*
X77523299Y-30961989D01*
X77583862Y-30968500D01*
X77587172Y-30968500D01*
X79177828Y-30968500D01*
X79181138Y-30968500D01*
X79241701Y-30961989D01*
X79241703Y-30961988D01*
X79241705Y-30961988D01*
X79319624Y-30932924D01*
X79378704Y-30910889D01*
X79495761Y-30823261D01*
X79583389Y-30706204D01*
X79634489Y-30569201D01*
X79641000Y-30508638D01*
X79641000Y-29766522D01*
X80124000Y-29766522D01*
X80124247Y-29769270D01*
X80124248Y-29769285D01*
X80139219Y-29935624D01*
X80199486Y-30153994D01*
X80297772Y-30358090D01*
X80349562Y-30429371D01*
X80430929Y-30541363D01*
X80484416Y-30592502D01*
X80594665Y-30697912D01*
X80708252Y-30772889D01*
X80783726Y-30822709D01*
X80992030Y-30911743D01*
X81212885Y-30962151D01*
X81419734Y-30971441D01*
X81439189Y-30972315D01*
X81439189Y-30972314D01*
X81439191Y-30972315D01*
X81663675Y-30941906D01*
X81879121Y-30871903D01*
X82078606Y-30764556D01*
X82255718Y-30623314D01*
X82404763Y-30452718D01*
X82520953Y-30258250D01*
X82600551Y-30046161D01*
X82619634Y-29941003D01*
X82641000Y-29823268D01*
X82641000Y-29763356D01*
X83132500Y-29763356D01*
X83132748Y-29768894D01*
X83147617Y-29934101D01*
X83207477Y-30150995D01*
X83305100Y-30353712D01*
X83437355Y-30535745D01*
X83599991Y-30691241D01*
X83787771Y-30815193D01*
X83994666Y-30903625D01*
X84132499Y-30935084D01*
X84132500Y-30935084D01*
X84132500Y-29645501D01*
X84240185Y-29694680D01*
X84346737Y-29710000D01*
X84418263Y-29710000D01*
X84524815Y-29694680D01*
X84632500Y-29645501D01*
X84632500Y-30937549D01*
X84661774Y-30933585D01*
X84875765Y-30864055D01*
X85073907Y-30757430D01*
X85249818Y-30617146D01*
X85397859Y-30447700D01*
X85513263Y-30254547D01*
X85595736Y-30034800D01*
X85637721Y-29978952D01*
X85703235Y-29954668D01*
X85771478Y-29969659D01*
X85820782Y-30019165D01*
X85835447Y-30068641D01*
X85838891Y-30112404D01*
X85897994Y-30358590D01*
X85934905Y-30447700D01*
X85994884Y-30592502D01*
X86127172Y-30808376D01*
X86291602Y-31000898D01*
X86484124Y-31165328D01*
X86699998Y-31297616D01*
X86933909Y-31394505D01*
X87180097Y-31453609D01*
X87432500Y-31473474D01*
X87684903Y-31453609D01*
X87931091Y-31394505D01*
X88165002Y-31297616D01*
X88380876Y-31165328D01*
X88573398Y-31000898D01*
X88737828Y-30808376D01*
X88870116Y-30592502D01*
X88962015Y-30370638D01*
X92329500Y-30370638D01*
X92329852Y-30373918D01*
X92329853Y-30373924D01*
X92336011Y-30431205D01*
X92387110Y-30568203D01*
X92474738Y-30685261D01*
X92591796Y-30772889D01*
X92728794Y-30823988D01*
X92728797Y-30823988D01*
X92728799Y-30823989D01*
X92789362Y-30830500D01*
X92792672Y-30830500D01*
X94091328Y-30830500D01*
X94094638Y-30830500D01*
X94155201Y-30823989D01*
X94155203Y-30823988D01*
X94155205Y-30823988D01*
X94233124Y-30794924D01*
X94292204Y-30772889D01*
X94409261Y-30685261D01*
X94496889Y-30568204D01*
X94531364Y-30475774D01*
X94547988Y-30431205D01*
X94547988Y-30431203D01*
X94547989Y-30431201D01*
X94554500Y-30370638D01*
X94554500Y-29968000D01*
X94938000Y-29968000D01*
X94938000Y-30366518D01*
X94938354Y-30373132D01*
X94944400Y-30429371D01*
X94994647Y-30564089D01*
X95080811Y-30679188D01*
X95195910Y-30765352D01*
X95330628Y-30815599D01*
X95386867Y-30821645D01*
X95393482Y-30822000D01*
X95792000Y-30822000D01*
X95792000Y-29968000D01*
X94938000Y-29968000D01*
X94554500Y-29968000D01*
X94554500Y-29747302D01*
X95688372Y-29747302D01*
X95717047Y-29860538D01*
X95780936Y-29958327D01*
X95873115Y-30030072D01*
X95983595Y-30068000D01*
X96071005Y-30068000D01*
X96157216Y-30053614D01*
X96259947Y-29998019D01*
X96287581Y-29968000D01*
X96292000Y-29968000D01*
X96292000Y-30822000D01*
X96690518Y-30822000D01*
X96697132Y-30821645D01*
X96753371Y-30815599D01*
X96888089Y-30765352D01*
X97003188Y-30679188D01*
X97089352Y-30564089D01*
X97120715Y-30480000D01*
X99655907Y-30480000D01*
X99656196Y-30484225D01*
X99671379Y-30706204D01*
X99674658Y-30754130D01*
X99675519Y-30758277D01*
X99675521Y-30758286D01*
X99729698Y-31018996D01*
X99730562Y-31023153D01*
X99731980Y-31027144D01*
X99731983Y-31027153D01*
X99821156Y-31278061D01*
X99822577Y-31282058D01*
X99824524Y-31285816D01*
X99824526Y-31285820D01*
X99911467Y-31453609D01*
X99948989Y-31526023D01*
X99951435Y-31529488D01*
X100104998Y-31747039D01*
X100105002Y-31747044D01*
X100107443Y-31750502D01*
X100110331Y-31753594D01*
X100242984Y-31895631D01*
X100294989Y-31951314D01*
X100508131Y-32124718D01*
X100742900Y-32267484D01*
X100897373Y-32334581D01*
X100965852Y-32364326D01*
X100994923Y-32376953D01*
X101168722Y-32425649D01*
X101255424Y-32449942D01*
X101255426Y-32449942D01*
X101259504Y-32451085D01*
X101531715Y-32488500D01*
X101535952Y-32488500D01*
X101802248Y-32488500D01*
X101806485Y-32488500D01*
X102078696Y-32451085D01*
X102343277Y-32376953D01*
X102595300Y-32267484D01*
X102830069Y-32124718D01*
X103043211Y-31951314D01*
X103230757Y-31750502D01*
X103389211Y-31526023D01*
X103515623Y-31282058D01*
X103607638Y-31023153D01*
X103663542Y-30754130D01*
X103682293Y-30480000D01*
X103663542Y-30205870D01*
X103607638Y-29936847D01*
X103515623Y-29677942D01*
X103389211Y-29433977D01*
X103230757Y-29209498D01*
X103043211Y-29008686D01*
X103039929Y-29006016D01*
X103039926Y-29006013D01*
X102880468Y-28876285D01*
X102830069Y-28835282D01*
X102826445Y-28833078D01*
X102826442Y-28833076D01*
X102598918Y-28694716D01*
X102598916Y-28694715D01*
X102595300Y-28692516D01*
X102561549Y-28677856D01*
X102347158Y-28584732D01*
X102347148Y-28584728D01*
X102343277Y-28583047D01*
X102332170Y-28579935D01*
X102082775Y-28510057D01*
X102082762Y-28510054D01*
X102078696Y-28508915D01*
X102074506Y-28508339D01*
X102074496Y-28508337D01*
X101810682Y-28472076D01*
X101810669Y-28472075D01*
X101806485Y-28471500D01*
X101531715Y-28471500D01*
X101527531Y-28472075D01*
X101527517Y-28472076D01*
X101263703Y-28508337D01*
X101263690Y-28508339D01*
X101259504Y-28508915D01*
X101255440Y-28510053D01*
X101255424Y-28510057D01*
X100998994Y-28581906D01*
X100998989Y-28581907D01*
X100994923Y-28583047D01*
X100991056Y-28584726D01*
X100991041Y-28584732D01*
X100746783Y-28690829D01*
X100746778Y-28690831D01*
X100742900Y-28692516D01*
X100739289Y-28694711D01*
X100739281Y-28694716D01*
X100511757Y-28833076D01*
X100511746Y-28833083D01*
X100508131Y-28835282D01*
X100504841Y-28837958D01*
X100504839Y-28837960D01*
X100298273Y-29006013D01*
X100298262Y-29006022D01*
X100294989Y-29008686D01*
X100292110Y-29011768D01*
X100292101Y-29011777D01*
X100110331Y-29206405D01*
X100110326Y-29206410D01*
X100107443Y-29209498D01*
X100105007Y-29212948D01*
X100104998Y-29212960D01*
X99951435Y-29430511D01*
X99951431Y-29430516D01*
X99948989Y-29433977D01*
X99947043Y-29437731D01*
X99947039Y-29437739D01*
X99824526Y-29674179D01*
X99824521Y-29674188D01*
X99822577Y-29677942D01*
X99821160Y-29681927D01*
X99821156Y-29681938D01*
X99731983Y-29932846D01*
X99731979Y-29932858D01*
X99730562Y-29936847D01*
X99729699Y-29940997D01*
X99729698Y-29941003D01*
X99675521Y-30201713D01*
X99675519Y-30201724D01*
X99674658Y-30205870D01*
X99674369Y-30210094D01*
X99674368Y-30210102D01*
X99663217Y-30373132D01*
X99655907Y-30480000D01*
X97120715Y-30480000D01*
X97139599Y-30429371D01*
X97145645Y-30373132D01*
X97146000Y-30366518D01*
X97146000Y-29968000D01*
X96292000Y-29968000D01*
X96287581Y-29968000D01*
X96339060Y-29912079D01*
X96385982Y-29805108D01*
X96395628Y-29688698D01*
X96366953Y-29575462D01*
X96303064Y-29477673D01*
X96210885Y-29405928D01*
X96100405Y-29368000D01*
X96012995Y-29368000D01*
X95926784Y-29382386D01*
X95824053Y-29437981D01*
X95744940Y-29523921D01*
X95698018Y-29630892D01*
X95688372Y-29747302D01*
X94554500Y-29747302D01*
X94554500Y-29468000D01*
X94938000Y-29468000D01*
X95792000Y-29468000D01*
X95792000Y-28614000D01*
X96292000Y-28614000D01*
X96292000Y-29468000D01*
X97146000Y-29468000D01*
X97146000Y-29069481D01*
X97145645Y-29062867D01*
X97139599Y-29006628D01*
X97089352Y-28871910D01*
X97003188Y-28756811D01*
X96888089Y-28670647D01*
X96753371Y-28620400D01*
X96697132Y-28614354D01*
X96690518Y-28614000D01*
X96292000Y-28614000D01*
X95792000Y-28614000D01*
X95393482Y-28614000D01*
X95386867Y-28614354D01*
X95330628Y-28620400D01*
X95195910Y-28670647D01*
X95080811Y-28756811D01*
X94994647Y-28871910D01*
X94944400Y-29006628D01*
X94938354Y-29062867D01*
X94938000Y-29069481D01*
X94938000Y-29468000D01*
X94554500Y-29468000D01*
X94554500Y-29065362D01*
X94547989Y-29004799D01*
X94547988Y-29004797D01*
X94547988Y-29004794D01*
X94496889Y-28867796D01*
X94409261Y-28750738D01*
X94292203Y-28663110D01*
X94155205Y-28612011D01*
X94097924Y-28605853D01*
X94097918Y-28605852D01*
X94094638Y-28605500D01*
X92789362Y-28605500D01*
X92786082Y-28605852D01*
X92786075Y-28605853D01*
X92728794Y-28612011D01*
X92591796Y-28663110D01*
X92474738Y-28750738D01*
X92387110Y-28867796D01*
X92336011Y-29004794D01*
X92329853Y-29062075D01*
X92329500Y-29065362D01*
X92329500Y-30370638D01*
X88962015Y-30370638D01*
X88967005Y-30358591D01*
X89026109Y-30112403D01*
X89041000Y-29923199D01*
X89041000Y-28496801D01*
X89026109Y-28307597D01*
X88967005Y-28061409D01*
X88870116Y-27827498D01*
X88737828Y-27611624D01*
X88573398Y-27419102D01*
X88380876Y-27254672D01*
X88321033Y-27218000D01*
X91286417Y-27218000D01*
X91306699Y-27423932D01*
X91332538Y-27509111D01*
X91363634Y-27611624D01*
X91366769Y-27621956D01*
X91376567Y-27640286D01*
X91464315Y-27804450D01*
X91515608Y-27866952D01*
X91595589Y-27964410D01*
X91675569Y-28030047D01*
X91755550Y-28095685D01*
X91938046Y-28193232D01*
X92136066Y-28253300D01*
X92290392Y-28268500D01*
X92293442Y-28268500D01*
X92390558Y-28268500D01*
X92393608Y-28268500D01*
X92547934Y-28253300D01*
X92745954Y-28193232D01*
X92928450Y-28095685D01*
X93088410Y-27964410D01*
X93219685Y-27804450D01*
X93317232Y-27621954D01*
X93377300Y-27423934D01*
X93397583Y-27218000D01*
X93397583Y-27217999D01*
X96286417Y-27217999D01*
X96306699Y-27423932D01*
X96332538Y-27509111D01*
X96363634Y-27611624D01*
X96366769Y-27621956D01*
X96376567Y-27640286D01*
X96464315Y-27804450D01*
X96515608Y-27866952D01*
X96595589Y-27964410D01*
X96675570Y-28030047D01*
X96755550Y-28095685D01*
X96938046Y-28193232D01*
X97136066Y-28253300D01*
X97290392Y-28268500D01*
X97293442Y-28268500D01*
X97390558Y-28268500D01*
X97393608Y-28268500D01*
X97547934Y-28253300D01*
X97745954Y-28193232D01*
X97928450Y-28095685D01*
X98088410Y-27964410D01*
X98219685Y-27804450D01*
X98317232Y-27621954D01*
X98377300Y-27423934D01*
X98397583Y-27218000D01*
X98377300Y-27012066D01*
X98317232Y-26814046D01*
X98219685Y-26631550D01*
X98130449Y-26522815D01*
X98088410Y-26471589D01*
X97990952Y-26391609D01*
X97928450Y-26340315D01*
X97745954Y-26242768D01*
X97646944Y-26212734D01*
X97547932Y-26182699D01*
X97396641Y-26167798D01*
X97396626Y-26167797D01*
X97393608Y-26167500D01*
X97290392Y-26167500D01*
X97287374Y-26167797D01*
X97287358Y-26167798D01*
X97136067Y-26182699D01*
X96960692Y-26235898D01*
X96943664Y-26241064D01*
X96938043Y-26242769D01*
X96755551Y-26340314D01*
X96595589Y-26471589D01*
X96464314Y-26631551D01*
X96366769Y-26814043D01*
X96306699Y-27012067D01*
X96286417Y-27217999D01*
X93397583Y-27217999D01*
X93377300Y-27012066D01*
X93317232Y-26814046D01*
X93219685Y-26631550D01*
X93130449Y-26522815D01*
X93088410Y-26471589D01*
X92990952Y-26391609D01*
X92928450Y-26340315D01*
X92745954Y-26242768D01*
X92646944Y-26212734D01*
X92547932Y-26182699D01*
X92396641Y-26167798D01*
X92396626Y-26167797D01*
X92393608Y-26167500D01*
X92290392Y-26167500D01*
X92287374Y-26167797D01*
X92287358Y-26167798D01*
X92136067Y-26182699D01*
X91960692Y-26235898D01*
X91943664Y-26241064D01*
X91938043Y-26242769D01*
X91755551Y-26340314D01*
X91595589Y-26471589D01*
X91464314Y-26631551D01*
X91366769Y-26814043D01*
X91306699Y-27012067D01*
X91286417Y-27218000D01*
X88321033Y-27218000D01*
X88165002Y-27122384D01*
X88036853Y-27069303D01*
X87931090Y-27025494D01*
X87684904Y-26966391D01*
X87558701Y-26956458D01*
X87432500Y-26946526D01*
X87432499Y-26946526D01*
X87180095Y-26966391D01*
X86933909Y-27025494D01*
X86699996Y-27122385D01*
X86484125Y-27254671D01*
X86291602Y-27419102D01*
X86127171Y-27611625D01*
X86009009Y-27804448D01*
X85994884Y-27827498D01*
X85985232Y-27850799D01*
X85897994Y-28061409D01*
X85838891Y-28307595D01*
X85834198Y-28367225D01*
X85809313Y-28432513D01*
X85753082Y-28473984D01*
X85683356Y-28478470D01*
X85622274Y-28444547D01*
X85591049Y-28390484D01*
X85557522Y-28269004D01*
X85459899Y-28066287D01*
X85327644Y-27884254D01*
X85165008Y-27728758D01*
X84977228Y-27604806D01*
X84770334Y-27516375D01*
X84632499Y-27484915D01*
X84632499Y-28774498D01*
X84524815Y-28725320D01*
X84418263Y-28710000D01*
X84346737Y-28710000D01*
X84240185Y-28725320D01*
X84132500Y-28774498D01*
X84132500Y-27482449D01*
X84132498Y-27482448D01*
X84103227Y-27486414D01*
X83889234Y-27555944D01*
X83691092Y-27662569D01*
X83515181Y-27802853D01*
X83367140Y-27972299D01*
X83251737Y-28165451D01*
X83172674Y-28376111D01*
X83132500Y-28597496D01*
X83132500Y-28960000D01*
X83948814Y-28960000D01*
X83923007Y-29000156D01*
X83882500Y-29138111D01*
X83882500Y-29281889D01*
X83923007Y-29419844D01*
X83948814Y-29460000D01*
X83132500Y-29460000D01*
X83132500Y-29763356D01*
X82641000Y-29763356D01*
X82641000Y-28656254D01*
X82641000Y-28656253D01*
X82641000Y-28653478D01*
X82625781Y-28484378D01*
X82565514Y-28266007D01*
X82544820Y-28223035D01*
X82467227Y-28061909D01*
X82432445Y-28014037D01*
X82334071Y-27878637D01*
X82220893Y-27770427D01*
X82170334Y-27722087D01*
X81981274Y-27597291D01*
X81772969Y-27508256D01*
X81552115Y-27457849D01*
X81325810Y-27447684D01*
X81101325Y-27478093D01*
X80885879Y-27548097D01*
X80686390Y-27655446D01*
X80509283Y-27796684D01*
X80360236Y-27967282D01*
X80244046Y-28161750D01*
X80164448Y-28373838D01*
X80124000Y-28596731D01*
X80124000Y-28596733D01*
X80124000Y-29766522D01*
X79641000Y-29766522D01*
X79641000Y-27911362D01*
X79634489Y-27850799D01*
X79634488Y-27850797D01*
X79634488Y-27850794D01*
X79583389Y-27713796D01*
X79495761Y-27596738D01*
X79378703Y-27509110D01*
X79241705Y-27458011D01*
X79184424Y-27451853D01*
X79184418Y-27451852D01*
X79181138Y-27451500D01*
X77583862Y-27451500D01*
X77580582Y-27451852D01*
X77580575Y-27451853D01*
X77523294Y-27458011D01*
X77386296Y-27509110D01*
X77269238Y-27596738D01*
X77181610Y-27713796D01*
X77130511Y-27850794D01*
X77127518Y-27878635D01*
X77124000Y-27911362D01*
X77124000Y-27914670D01*
X77124000Y-27914671D01*
X77124000Y-28084199D01*
X77104315Y-28151238D01*
X77051511Y-28196993D01*
X76982353Y-28206937D01*
X76918797Y-28177912D01*
X76881023Y-28119134D01*
X76879426Y-28113146D01*
X76867005Y-28061409D01*
X76858763Y-28041512D01*
X76770116Y-27827498D01*
X76637828Y-27611624D01*
X76473398Y-27419102D01*
X76280876Y-27254672D01*
X76065002Y-27122384D01*
X75936853Y-27069303D01*
X75831090Y-27025494D01*
X75584904Y-26966391D01*
X75332500Y-26946526D01*
X75080095Y-26966391D01*
X74833909Y-27025494D01*
X74599996Y-27122385D01*
X74384125Y-27254671D01*
X74191602Y-27419102D01*
X74027171Y-27611625D01*
X73909009Y-27804448D01*
X73894884Y-27827498D01*
X73885232Y-27850799D01*
X73797994Y-28061409D01*
X73738891Y-28307595D01*
X73724191Y-28494366D01*
X73724190Y-28494382D01*
X73724000Y-28496801D01*
X73724000Y-29923199D01*
X72385600Y-29923199D01*
X72385600Y-27745688D01*
X72386909Y-27727717D01*
X72390467Y-27703428D01*
X72386072Y-27653194D01*
X72385600Y-27642387D01*
X72385600Y-27640286D01*
X72385600Y-27636688D01*
X72381941Y-27605380D01*
X72381574Y-27601790D01*
X72381180Y-27597291D01*
X72374931Y-27525860D01*
X72374833Y-27524738D01*
X72370483Y-27505118D01*
X72370098Y-27504061D01*
X72370098Y-27504058D01*
X72344015Y-27432395D01*
X72342839Y-27429011D01*
X72341156Y-27423932D01*
X72318865Y-27356660D01*
X72318862Y-27356656D01*
X72318511Y-27355595D01*
X72309752Y-27337501D01*
X72288021Y-27304461D01*
X72268299Y-27249275D01*
X72267542Y-27242070D01*
X72208527Y-27060443D01*
X72113042Y-26895058D01*
X72040098Y-26814046D01*
X71985253Y-26753134D01*
X71830752Y-26640882D01*
X71830751Y-26640881D01*
X71656285Y-26563204D01*
X71469489Y-26523500D01*
X71469487Y-26523500D01*
X71278513Y-26523500D01*
X71201874Y-26539790D01*
X71176094Y-26542500D01*
X70173264Y-26542500D01*
X70106225Y-26522815D01*
X70068949Y-26485540D01*
X70043206Y-26445483D01*
X70024378Y-26423754D01*
X69951903Y-26340112D01*
X69949700Y-26337381D01*
X69838543Y-26241064D01*
X69836654Y-26239850D01*
X69717586Y-26163330D01*
X69663695Y-26138719D01*
X69584576Y-26102586D01*
X69446622Y-26062079D01*
X69301889Y-26041271D01*
X68730000Y-26041271D01*
X68727792Y-26041428D01*
X68727789Y-26041429D01*
X68656887Y-26046500D01*
X68620143Y-26057289D01*
X68567562Y-26061049D01*
X68430000Y-26041271D01*
X67858111Y-26041271D01*
X67713377Y-26062079D01*
X67575423Y-26102586D01*
X67442416Y-26163329D01*
X67442414Y-26163330D01*
X67435462Y-26167798D01*
X67323345Y-26239850D01*
X67323333Y-26239857D01*
X67321460Y-26241062D01*
X67321456Y-26241065D01*
X67319820Y-26242482D01*
X67319817Y-26242485D01*
X67210949Y-26336820D01*
X67116794Y-26445482D01*
X67037743Y-26568489D01*
X66974275Y-26707463D01*
X66972993Y-26716381D01*
X66936819Y-26839573D01*
X66916358Y-26981888D01*
X66916358Y-27039315D01*
X66916271Y-27039611D01*
X66916270Y-27569875D01*
X66916358Y-27570685D01*
X66916358Y-27628112D01*
X66918411Y-27642390D01*
X66935558Y-27761649D01*
X66935981Y-27767573D01*
X66953577Y-27827498D01*
X66978016Y-27910727D01*
X67037744Y-28041512D01*
X67115016Y-28161750D01*
X67116797Y-28164521D01*
X67137212Y-28188081D01*
X67166238Y-28251636D01*
X67167500Y-28269284D01*
X67167500Y-28703899D01*
X67147815Y-28770938D01*
X67101152Y-28811371D01*
X67101683Y-28812234D01*
X67096410Y-28815480D01*
X67095011Y-28816693D01*
X67093130Y-28817499D01*
X66888529Y-28943477D01*
X66708549Y-29101880D01*
X66552314Y-29295371D01*
X66494883Y-29335163D01*
X66425055Y-29337589D01*
X66365001Y-29301878D01*
X66353106Y-29286912D01*
X66288925Y-29191953D01*
X66123025Y-29018856D01*
X66109274Y-29008686D01*
X65930257Y-28876285D01*
X65716167Y-28768343D01*
X65486915Y-28698136D01*
X65472921Y-28696344D01*
X65249095Y-28667682D01*
X65249091Y-28667682D01*
X65009551Y-28677856D01*
X64775166Y-28728370D01*
X64552699Y-28817765D01*
X64348529Y-28943477D01*
X64168549Y-29101880D01*
X64012314Y-29295371D01*
X63954883Y-29335163D01*
X63885055Y-29337589D01*
X63825001Y-29301878D01*
X63813106Y-29286912D01*
X63748925Y-29191953D01*
X63583025Y-29018856D01*
X63569274Y-29008686D01*
X63390257Y-28876285D01*
X63176167Y-28768343D01*
X62946915Y-28698136D01*
X62932921Y-28696344D01*
X62709095Y-28667682D01*
X62709091Y-28667682D01*
X62469551Y-28677856D01*
X62235166Y-28728370D01*
X62012699Y-28817765D01*
X61808529Y-28943477D01*
X61628549Y-29101880D01*
X61472314Y-29295371D01*
X61414883Y-29335163D01*
X61345055Y-29337589D01*
X61285001Y-29301878D01*
X61273106Y-29286912D01*
X61208925Y-29191953D01*
X61043025Y-29018856D01*
X61029274Y-29008686D01*
X60850257Y-28876285D01*
X60636167Y-28768343D01*
X60406915Y-28698136D01*
X60392921Y-28696344D01*
X60169095Y-28667682D01*
X60169091Y-28667682D01*
X59929551Y-28677856D01*
X59695166Y-28728370D01*
X59472699Y-28817765D01*
X59268529Y-28943477D01*
X59088549Y-29101880D01*
X58932314Y-29295371D01*
X58874883Y-29335163D01*
X58805055Y-29337589D01*
X58745001Y-29301878D01*
X58733106Y-29286912D01*
X58668925Y-29191953D01*
X58503025Y-29018856D01*
X58489274Y-29008686D01*
X58310257Y-28876285D01*
X58096167Y-28768343D01*
X57866915Y-28698136D01*
X57852921Y-28696344D01*
X57629095Y-28667682D01*
X57629091Y-28667682D01*
X57389551Y-28677856D01*
X57155166Y-28728370D01*
X56932699Y-28817765D01*
X56728529Y-28943477D01*
X56548549Y-29101880D01*
X56392314Y-29295371D01*
X56334883Y-29335163D01*
X56265055Y-29337589D01*
X56205001Y-29301878D01*
X56193106Y-29286912D01*
X56128925Y-29191953D01*
X55963025Y-29018856D01*
X55949274Y-29008686D01*
X55770257Y-28876285D01*
X55556167Y-28768343D01*
X55326915Y-28698136D01*
X55312921Y-28696344D01*
X55089095Y-28667682D01*
X55089091Y-28667682D01*
X54849551Y-28677856D01*
X54615166Y-28728370D01*
X54392699Y-28817765D01*
X54188529Y-28943477D01*
X54008549Y-29101880D01*
X53852314Y-29295371D01*
X53794883Y-29335163D01*
X53725055Y-29337589D01*
X53665001Y-29301878D01*
X53653106Y-29286912D01*
X53588925Y-29191953D01*
X53423025Y-29018856D01*
X53409274Y-29008686D01*
X53230257Y-28876285D01*
X53016167Y-28768343D01*
X52786915Y-28698136D01*
X52772921Y-28696344D01*
X52549095Y-28667682D01*
X52549091Y-28667682D01*
X52309551Y-28677856D01*
X52075166Y-28728370D01*
X51852699Y-28817765D01*
X51648529Y-28943477D01*
X51468549Y-29101880D01*
X51312314Y-29295371D01*
X51254883Y-29335163D01*
X51185055Y-29337589D01*
X51125001Y-29301878D01*
X51113106Y-29286912D01*
X51048925Y-29191953D01*
X50883025Y-29018856D01*
X50869274Y-29008686D01*
X50690257Y-28876285D01*
X50476167Y-28768343D01*
X50246915Y-28698136D01*
X50232921Y-28696344D01*
X50009095Y-28667682D01*
X50009091Y-28667682D01*
X49769551Y-28677856D01*
X49535166Y-28728370D01*
X49312699Y-28817765D01*
X49108529Y-28943477D01*
X48928549Y-29101880D01*
X48772314Y-29295371D01*
X48714883Y-29335163D01*
X48645055Y-29337589D01*
X48585001Y-29301878D01*
X48573106Y-29286912D01*
X48508925Y-29191953D01*
X48343025Y-29018856D01*
X48329274Y-29008686D01*
X48150257Y-28876285D01*
X47936167Y-28768343D01*
X47706915Y-28698136D01*
X47692921Y-28696344D01*
X47469095Y-28667682D01*
X47469091Y-28667682D01*
X47229551Y-28677856D01*
X46995166Y-28728370D01*
X46772699Y-28817765D01*
X46568529Y-28943477D01*
X46388549Y-29101880D01*
X46232314Y-29295371D01*
X46174883Y-29335163D01*
X46105055Y-29337589D01*
X46045001Y-29301878D01*
X46033106Y-29286912D01*
X45968925Y-29191953D01*
X45803025Y-29018856D01*
X45789274Y-29008686D01*
X45610257Y-28876285D01*
X45396167Y-28768343D01*
X45166915Y-28698136D01*
X45152921Y-28696344D01*
X44929095Y-28667682D01*
X44929091Y-28667682D01*
X44689551Y-28677856D01*
X44455166Y-28728370D01*
X44232699Y-28817765D01*
X44028529Y-28943477D01*
X43848549Y-29101880D01*
X43691294Y-29296636D01*
X43689727Y-29295371D01*
X43649387Y-29334932D01*
X43580973Y-29349118D01*
X43515750Y-29324064D01*
X43488289Y-29294963D01*
X43422288Y-29197312D01*
X43257388Y-29025258D01*
X43065784Y-28883549D01*
X42852986Y-28776258D01*
X42625117Y-28706474D01*
X42579099Y-28700581D01*
X42579099Y-29934118D01*
X42485731Y-29895444D01*
X42368423Y-29880000D01*
X42289777Y-29880000D01*
X42172469Y-29895444D01*
X42079100Y-29934118D01*
X42079100Y-28701734D01*
X42079099Y-28701734D01*
X41917665Y-28736526D01*
X41696537Y-28825383D01*
X41493602Y-28950335D01*
X41314708Y-29107781D01*
X41158364Y-29301412D01*
X41155488Y-29299090D01*
X41119307Y-29334538D01*
X41050886Y-29348691D01*
X40985675Y-29323606D01*
X40958264Y-29294543D01*
X40888925Y-29191953D01*
X40723025Y-29018856D01*
X40709274Y-29008686D01*
X40530257Y-28876285D01*
X40316167Y-28768343D01*
X40086915Y-28698136D01*
X40072921Y-28696344D01*
X39849095Y-28667682D01*
X39849091Y-28667682D01*
X39609551Y-28677856D01*
X39375166Y-28728370D01*
X39152699Y-28817765D01*
X38948529Y-28943477D01*
X38768549Y-29101880D01*
X38612314Y-29295371D01*
X38554883Y-29335163D01*
X38485055Y-29337589D01*
X38425001Y-29301878D01*
X38413106Y-29286912D01*
X38348925Y-29191953D01*
X38183025Y-29018856D01*
X38169274Y-29008686D01*
X37990257Y-28876285D01*
X37776167Y-28768343D01*
X37546915Y-28698136D01*
X37532921Y-28696344D01*
X37309095Y-28667682D01*
X37309091Y-28667682D01*
X37069551Y-28677856D01*
X36835166Y-28728370D01*
X36612699Y-28817765D01*
X36408529Y-28943477D01*
X36228549Y-29101880D01*
X36072314Y-29295371D01*
X36014883Y-29335163D01*
X35945055Y-29337589D01*
X35885001Y-29301878D01*
X35873106Y-29286912D01*
X35808925Y-29191953D01*
X35643025Y-29018856D01*
X35629274Y-29008686D01*
X35450257Y-28876285D01*
X35236167Y-28768343D01*
X35006915Y-28698136D01*
X34992921Y-28696344D01*
X34769095Y-28667682D01*
X34769091Y-28667682D01*
X34529551Y-28677856D01*
X34295166Y-28728370D01*
X34072699Y-28817765D01*
X33868529Y-28943477D01*
X33737191Y-29059069D01*
X33673861Y-29088583D01*
X33604628Y-29079173D01*
X33551473Y-29033827D01*
X33539086Y-29009318D01*
X33512452Y-28937911D01*
X33426288Y-28822811D01*
X33311189Y-28736647D01*
X33176471Y-28686400D01*
X33120232Y-28680354D01*
X33113618Y-28680000D01*
X32419100Y-28680000D01*
X32419100Y-29934118D01*
X32325731Y-29895444D01*
X32208423Y-29880000D01*
X32129777Y-29880000D01*
X32012469Y-29895444D01*
X31919100Y-29934118D01*
X31919100Y-28680000D01*
X31224582Y-28680000D01*
X31217967Y-28680354D01*
X31161728Y-28686400D01*
X31027010Y-28736647D01*
X30911911Y-28822811D01*
X30825747Y-28937910D01*
X30775500Y-29072628D01*
X30769454Y-29128867D01*
X30769100Y-29135481D01*
X30769100Y-30230000D01*
X31623218Y-30230000D01*
X31584544Y-30323369D01*
X31563923Y-30480000D01*
X31584544Y-30636631D01*
X31623218Y-30730000D01*
X30769100Y-30730000D01*
X30769100Y-31824518D01*
X28162531Y-31824518D01*
X28231657Y-31750502D01*
X28390111Y-31526023D01*
X28516523Y-31282058D01*
X28608538Y-31023153D01*
X28664442Y-30754130D01*
X28683193Y-30480000D01*
X28664442Y-30205870D01*
X28608538Y-29936847D01*
X28516523Y-29677942D01*
X28390111Y-29433977D01*
X28231657Y-29209498D01*
X28044111Y-29008686D01*
X28040829Y-29006016D01*
X28040826Y-29006013D01*
X27881368Y-28876285D01*
X27830969Y-28835282D01*
X27827345Y-28833078D01*
X27827342Y-28833076D01*
X27599818Y-28694716D01*
X27599816Y-28694715D01*
X27596200Y-28692516D01*
X27562449Y-28677856D01*
X27348058Y-28584732D01*
X27348048Y-28584728D01*
X27344177Y-28583047D01*
X27333070Y-28579935D01*
X27083675Y-28510057D01*
X27083662Y-28510054D01*
X27079596Y-28508915D01*
X27075406Y-28508339D01*
X27075396Y-28508337D01*
X26811582Y-28472076D01*
X26811569Y-28472075D01*
X26807385Y-28471500D01*
X26532615Y-28471500D01*
X26528431Y-28472075D01*
X26528417Y-28472076D01*
X26264603Y-28508337D01*
X26264590Y-28508339D01*
X26260404Y-28508915D01*
X26256340Y-28510053D01*
X26256324Y-28510057D01*
X25999894Y-28581906D01*
X25999889Y-28581907D01*
X25995823Y-28583047D01*
X25991956Y-28584726D01*
X25991941Y-28584732D01*
X25747683Y-28690829D01*
X25747678Y-28690831D01*
X25743800Y-28692516D01*
X25740189Y-28694711D01*
X25740181Y-28694716D01*
X25512657Y-28833076D01*
X25512646Y-28833083D01*
X25509031Y-28835282D01*
X25505741Y-28837958D01*
X25505739Y-28837960D01*
X25299173Y-29006013D01*
X25299162Y-29006022D01*
X25295889Y-29008686D01*
X25293010Y-29011768D01*
X25293001Y-29011777D01*
X25111231Y-29206405D01*
X25111226Y-29206410D01*
X25108343Y-29209498D01*
X25105907Y-29212948D01*
X25105898Y-29212960D01*
X24952335Y-29430511D01*
X24952331Y-29430516D01*
X24949889Y-29433977D01*
X24947943Y-29437731D01*
X24947939Y-29437739D01*
X24825426Y-29674179D01*
X24825421Y-29674188D01*
X24823477Y-29677942D01*
X24822060Y-29681927D01*
X24822056Y-29681938D01*
X24732883Y-29932846D01*
X24732879Y-29932858D01*
X24731462Y-29936847D01*
X24730599Y-29940997D01*
X24730598Y-29941003D01*
X24676421Y-30201713D01*
X24676419Y-30201724D01*
X24675558Y-30205870D01*
X24675269Y-30210094D01*
X24675268Y-30210102D01*
X24664117Y-30373132D01*
X24656807Y-30480000D01*
X21590500Y-30480000D01*
X21590500Y-27943479D01*
X21590695Y-27936527D01*
X21592144Y-27910727D01*
X21596995Y-27824333D01*
X21607200Y-27655642D01*
X21608719Y-27642415D01*
X21631281Y-27509623D01*
X21631376Y-27509110D01*
X21658015Y-27363747D01*
X21660806Y-27351875D01*
X21699040Y-27219161D01*
X21699757Y-27216772D01*
X21742427Y-27079839D01*
X21746231Y-27069330D01*
X21799714Y-26940214D01*
X21801109Y-26936984D01*
X21859307Y-26807673D01*
X21863821Y-26798650D01*
X21931820Y-26675615D01*
X21934172Y-26671549D01*
X22007051Y-26550991D01*
X22012027Y-26543406D01*
X22026637Y-26522815D01*
X22093605Y-26428431D01*
X22097048Y-26423815D01*
X22183697Y-26313215D01*
X22188797Y-26307122D01*
X22282892Y-26201829D01*
X22287603Y-26196847D01*
X22386847Y-26097603D01*
X22391829Y-26092892D01*
X22497122Y-25998797D01*
X22503215Y-25993697D01*
X22613815Y-25907048D01*
X22618431Y-25903605D01*
X22733410Y-25822024D01*
X22740991Y-25817051D01*
X22861549Y-25744172D01*
X22865615Y-25741820D01*
X22988650Y-25673821D01*
X22997673Y-25669307D01*
X23126984Y-25611109D01*
X23130214Y-25609714D01*
X23259330Y-25556231D01*
X23269839Y-25552427D01*
X23406772Y-25509757D01*
X23409161Y-25509040D01*
X23541855Y-25470812D01*
X23553784Y-25468008D01*
X23699598Y-25441286D01*
X23832404Y-25418721D01*
X23845650Y-25417199D01*
X24014333Y-25406995D01*
X24126527Y-25400695D01*
X24133479Y-25400500D01*
X103501521Y-25400500D01*
X103508471Y-25400694D01*
G37*
%TD.AperFunction*%
%TD*%
M02*
